<svg width="300" height="300" viewBox="0 0 300 300" fill="none" xmlns="http://www.w3.org/2000/svg">
<path opacity="0.2" d="M120.628 254.266C137.922 263.252 147.394 273.404 121.17 289.64C100.838 302.231 64.1784 298.477 36.115 266.124C-9.77133 213.22 -2.44182 143.716 41.9599 136.09C81.0701 129.371 99.0568 169.201 92.2651 193.207C84.2615 221.489 97.6969 242.345 120.628 254.266Z" fill="url(#paint0_linear)"/>
<path d="M210.496 61.1924C211.544 60.7138 212.6 59.7371 213.052 58.6623C212.756 58.5368 212.46 58.4113 212.163 58.2857C211.93 59.6861 212.99 60.7962 214.26 61.1532C214.221 60.855 214.182 60.5569 214.143 60.2588C212.705 61.0629 212.471 62.2083 212.004 63.6754C212.315 63.7617 212.631 63.848 212.943 63.9343C213.258 62.2005 211.961 60.5648 210.18 60.6079C209.553 60.6236 209.553 61.6042 210.18 61.5886C211.287 61.5611 212.21 62.5417 212.004 63.6754C211.891 64.2912 212.748 64.5462 212.943 63.9343C213.329 62.7261 213.418 61.7847 214.638 61.1022C215.008 60.8943 214.918 60.3176 214.521 60.2078C213.827 60.0117 212.962 59.3958 213.103 58.5446C213.184 58.0465 212.444 57.615 212.214 58.1681C211.817 59.1134 210.928 59.9293 210.009 60.349C209.436 60.6079 209.931 61.4552 210.496 61.1924Z" fill="#002247"/>
<path d="M122.803 59.1333C123.851 58.6547 124.907 57.678 125.359 56.6032C125.063 56.4777 124.767 56.3522 124.47 56.2267C124.237 57.627 125.297 58.7371 126.567 59.0941C126.528 58.796 126.489 58.4978 126.45 58.1997C125.012 59.0039 124.778 60.1492 124.311 61.6163C124.622 61.7026 124.938 61.7889 125.25 61.8752C125.565 60.1414 124.268 58.5057 122.487 58.5488C121.86 58.5645 121.86 59.5452 122.487 59.5295C123.594 59.502 124.517 60.4827 124.311 61.6163C124.198 62.2321 125.055 62.4871 125.25 61.8752C125.636 60.667 125.725 59.7256 126.945 59.0431C127.315 58.8352 127.225 58.2586 126.828 58.1487C126.134 57.9526 125.269 57.3368 125.41 56.4856C125.491 55.9874 124.751 55.5559 124.521 56.109C124.124 57.0543 123.235 57.8702 122.316 58.2899C121.743 58.5449 122.238 59.3922 122.803 59.1333Z" fill="#002247"/>
<path d="M235.559 17.9028C236.607 17.4243 237.663 16.4476 238.115 15.3728C237.819 15.2472 237.523 15.1217 237.226 14.9962C236.993 16.3966 238.052 17.5066 239.323 17.8636C239.284 17.5655 239.245 17.2674 239.206 16.9693C237.768 17.7734 237.534 18.9188 237.067 20.3858C237.378 20.4721 237.694 20.5584 238.006 20.6447C238.321 18.9109 237.024 17.2752 235.243 17.3184C234.616 17.3341 234.616 18.3147 235.243 18.299C236.35 18.2716 237.273 19.2522 237.067 20.3858C236.954 21.0017 237.811 21.2566 238.006 20.6447C238.391 19.4366 238.481 18.4951 239.701 17.8126C240.071 17.6047 239.981 17.0281 239.584 16.9183C238.89 16.7221 238.025 16.1063 238.165 15.2551C238.247 14.7569 237.507 14.3254 237.277 14.8785C236.88 15.8239 235.991 16.6398 235.072 17.0595C234.499 17.3144 234.994 18.1617 235.559 17.9028Z" fill="#002247"/>
<path d="M113 271L108.5 279L105 278H103V277L102.5 274L100.5 272L96.5 264.5L107 255L113 271Z" fill="#ECCEC2"/>
<path d="M171.5 80.5L169.5 74L164.5 70L158 60.5L156 51.5L156.5 46.5L164.5 39.5L181 52.5V60.5L179 66L183 79.5L176.5 82L171.5 80.5Z" fill="#ECCEC2"/>
<path d="M158.845 62.6595C159.465 62.7418 159.461 61.7612 158.845 61.6788L156.137 54.4322V48.0399C156.465 46.2625 157.862 45.2364 159.238 44.2268C159.629 43.9396 160.018 43.6538 160.38 43.3524C161.608 42.3313 162.716 41.2154 163.682 39.9528C164.267 43.1675 165.991 46.0304 168.559 48.0907C169.904 49.1694 171.451 49.997 173.107 50.4795C173.745 50.6669 174.639 50.705 175.582 50.7452C177.342 50.8202 179.272 50.9024 180.023 51.9779C180.452 52.5924 180.412 53.5927 180.379 54.4322L180.379 54.4333V54.4334C180.37 54.6545 180.361 54.8644 180.362 55.0532C180.365 55.6001 180.345 56.1502 180.325 56.7008C180.295 57.5207 180.265 58.342 180.312 59.1563C180.405 60.8783 181.142 62.2276 182.194 63.5613L182.264 63.6498C183.773 65.5577 185.079 67.2078 185.701 69.6492C186.41 72.4381 186.219 75.2898 185.315 78.0003C185.124 78.573 185.895 78.7809 186.203 78.3769C189.393 74.2079 189.033 68.5436 187.477 63.7873C187.48 63.7386 187.475 63.6868 187.462 63.6322C186.646 60.2624 189.04 56.5513 190.983 53.5394L190.983 53.5394C191.369 52.9402 191.738 52.3687 192.06 51.8331C194.152 48.3498 195.793 45.2235 195.691 41.0656C195.575 36.1977 194.121 31.2552 191.082 27.415C188.935 24.7023 184.961 22.2043 181.38 21.8423C184.528 18.575 185.502 14.5756 183.164 10.3478C180.654 5.81335 175.671 5.62899 171.026 6.27229C165.785 6.99404 160.038 9.66532 157.345 14.4822C156.238 16.4592 155.74 18.8167 156.386 21.033C157.066 23.3498 158.98 24.8044 160.877 26.1205C157.55 27.9097 154.328 29.9217 152.011 32.9969C149.458 36.386 148.04 40.7872 148.001 45.0353C147.981 46.9103 148.25 48.8402 149.057 50.5465C149.561 51.6118 150.328 52.4602 151.097 53.3097C151.851 54.143 152.606 54.9774 153.113 56.0185C153.414 56.6336 153.632 57.3022 153.851 57.9725C154.182 58.9864 154.514 60.0042 155.136 60.8472C156.044 62.0828 157.388 62.4712 158.845 62.6595Z" fill="#221F20"/>
<path d="M170.559 76.4591C170.559 76.4591 170.341 76.2944 174.413 76.1845C178.481 76.0747 182.043 77.2005 182.043 77.2005L180.161 71.3284L179.187 64.9307C179.187 64.9307 177.04 68.3394 175.177 70.5321C172.897 73.2152 169.691 73.8349 169.691 73.8349L170.559 76.4591Z" fill="#D4A089"/>
<path d="M153.765 177.199C162.497 180.25 171.074 183.718 179.752 186.911C180.34 187.127 180.597 186.181 180.009 185.965C171.331 182.773 162.751 179.301 154.022 176.253C153.43 176.045 153.173 176.991 153.765 177.199Z" fill="#002247"/>
<path d="M180.281 186.621C189.15 180.697 198.666 175.575 208.193 170.813C208.754 170.53 208.263 169.687 207.702 169.965C198.175 174.731 188.659 179.85 179.791 185.773C179.268 186.118 179.755 186.97 180.281 186.621Z" fill="#002247"/>
<path d="M152.787 168.765C158.398 171.079 164.083 173.198 169.807 175.21C172.403 176.12 175.044 176.936 177.624 177.893C181.189 179.215 182.241 183 179.767 186.005C179.37 186.487 180.055 187.185 180.457 186.699C181.922 184.918 182.584 182.482 181.75 180.258C180.706 177.481 177.772 176.94 175.282 176.077C167.808 173.496 160.366 170.836 153.048 167.82C152.468 167.58 152.214 168.53 152.787 168.765Z" fill="#002247"/>
<path d="M180.515 178.634C189.357 173.802 198.284 169.102 206.79 163.685C207.32 163.348 206.829 162.501 206.299 162.838C197.793 168.255 188.862 172.954 180.024 177.787C179.471 178.089 179.962 178.936 180.515 178.634Z" fill="#002247"/>
<path d="M152.9 168.239C154.307 167.388 155.71 166.525 157.116 165.674C157.654 165.348 157.163 164.501 156.625 164.827C155.219 165.678 153.816 166.541 152.409 167.392C151.871 167.718 152.362 168.565 152.9 168.239Z" fill="#002247"/>
<path d="M153.664 169.675C154.295 171.919 154.478 174.096 154.404 176.418C154.385 177.049 155.359 177.049 155.378 176.418C155.456 174.009 155.258 171.738 154.603 169.412C154.431 168.808 153.492 169.063 153.664 169.675Z" fill="#002247"/>
<path d="M154.057 164.536C162.856 167.369 171.565 170.463 180.305 173.464C180.546 173.547 180.85 173.37 180.905 173.123C181.47 170.585 181.24 167.878 180.394 165.431C180.188 164.838 179.249 165.093 179.455 165.69C180.246 167.973 180.496 170.491 179.966 172.86C180.165 172.746 180.367 172.633 180.566 172.519C171.826 169.518 163.117 166.423 154.318 163.591C153.718 163.395 153.465 164.344 154.057 164.536Z" fill="#002247"/>
<path d="M153.902 157.794C162.427 160.441 170.98 163.022 179.448 165.851C180.044 166.051 180.301 165.101 179.705 164.905C171.237 162.081 162.681 159.5 154.159 156.848C153.562 156.66 153.305 157.605 153.902 157.794Z" fill="#002247"/>
<path d="M180.675 173.402C189.294 168.553 198.276 164.419 207.051 159.869C207.608 159.578 207.117 158.731 206.56 159.021C197.789 163.572 188.803 167.706 180.184 172.554C179.635 172.864 180.126 173.711 180.675 173.402Z" fill="#002247"/>
<path d="M180.64 165.768C185.094 163.509 189.548 161.245 194.001 158.986C196.172 157.884 198.342 156.782 200.509 155.683C201.654 155.103 203.786 153.51 205.099 154.526C206.28 155.436 206.471 157.668 206.283 158.982C206.194 159.598 207.133 159.865 207.223 159.241C207.507 157.264 207.102 154.679 205.356 153.412C203.591 152.137 200.871 154.401 199.332 155.181C192.938 158.425 186.543 161.673 180.145 164.917C179.588 165.203 180.079 166.051 180.64 165.768Z" fill="#002247"/>
<path d="M204.542 153.008C196.133 150.811 187.837 147.901 179.623 145.065C179.027 144.861 178.774 145.806 179.366 146.01C187.58 148.846 195.876 151.757 204.285 153.953C204.892 154.11 205.15 153.165 204.542 153.008Z" fill="#002247"/>
<path d="M154.408 157.703C157.576 155.817 161.157 154.467 164.508 152.961C169.581 150.674 174.67 148.419 179.736 146.112C180.305 145.853 179.81 145.006 179.245 145.265C174.179 147.571 169.09 149.827 164.017 152.114C160.666 153.624 157.085 154.973 153.917 156.856C153.379 157.178 153.87 158.025 154.408 157.703Z" fill="#002247"/>
<path d="M207.191 163.689C207.624 163.497 208.544 166.47 208.61 166.784C208.731 167.357 209.007 169.907 207.776 169.805C207.819 170.126 207.862 170.448 207.904 170.769C207.963 170.75 208.021 170.73 208.076 170.711C208.66 170.495 208.407 169.546 207.819 169.765C207.76 169.789 207.706 169.808 207.647 169.824C207.113 170.001 207.23 170.742 207.776 170.789C209.471 170.926 209.845 168.314 209.662 167.161C209.479 166.004 208.54 162.03 206.697 162.846C206.128 163.093 206.623 163.94 207.191 163.689Z" fill="#002247"/>
<path d="M203.225 161.653C203.778 161.944 204.417 162.026 205.009 162.21C205.781 162.45 206.525 162.744 207.254 163.089C207.819 163.356 208.314 162.509 207.745 162.242C207.11 161.944 206.467 161.669 205.804 161.442C205.138 161.21 204.339 161.136 203.716 160.81C203.162 160.516 202.671 161.359 203.225 161.653Z" fill="#002247"/>
<path d="M154.825 158.099C154.837 160.171 154.977 162.242 155.074 164.313C155.106 164.94 156.08 164.944 156.048 164.313C155.951 162.246 155.811 160.171 155.799 158.099C155.795 157.472 154.821 157.468 154.825 158.099Z" fill="#002247"/>
<path d="M171.499 80.1582C171.499 80.1582 163.612 80.4681 157.872 81.1898C152.136 81.9116 147.834 83.563 147.834 83.563L148.142 123.369L165.046 127.908C165.046 127.908 175.083 117.905 179.693 117.387C184.303 116.873 187.069 116.873 187.069 116.873C187.069 116.873 189.322 119.761 190.245 121.616C191.169 123.471 191.27 124.915 191.27 124.915L186.968 129.967C186.968 129.967 186.968 133.164 190.245 133.988C193.522 134.811 199.055 133.474 199.055 133.474C199.055 133.474 200.723 137.491 205.567 139.522C215.359 143.622 232.582 137.64 235.913 124.409C239.206 111.331 222.922 98.6217 220.568 96.6605C218.215 94.6992 204.69 85.2144 193.113 82.0175C181.536 78.8206 182.869 79.7502 182.869 79.7502C182.869 79.7502 181.026 82.3274 177.749 81.8135C174.472 81.2996 171.499 80.1582 171.499 80.1582Z" fill="#FFD467"/>
<path d="M130.604 187.346L103.686 264.609C103.686 264.609 111.865 268.728 114.254 271.988C116.638 275.247 119.366 277.993 119.366 277.993L124.478 266.5L164.185 231.844L168.276 200.448L130.604 187.346Z" fill="#C8660C"/>
<path d="M180.808 221.159L195.244 209.567C195.244 209.567 182.635 204.417 182.635 205.151C182.635 205.888 180.808 221.159 180.808 221.159Z" fill="#C8660C"/>
<path d="M155.507 48.1499C154.463 57.5759 160.346 67.4725 167.349 73.3564C169.994 75.5805 173.575 73.1014 175.582 71.0499C178.454 68.1197 180.394 64.1932 181.493 60.2589C181.665 59.6509 180.722 59.392 180.554 60C179.592 63.4558 177.959 66.8606 175.609 69.5829C174.456 70.9165 173.096 72.1247 171.46 72.8072C170.236 73.3172 169.207 73.4858 168.038 72.666C167.247 72.109 166.534 71.246 165.864 70.5439C160.233 64.6483 155.546 56.6031 156.481 48.1499C156.551 47.5223 155.577 47.5262 155.507 48.1499Z" fill="#002247"/>
<path d="M178.933 64.44C178.824 66.97 179.596 69.5746 180.262 71.987C180.987 74.6151 181.844 77.2001 182.666 79.8008C182.853 80.4009 183.796 80.146 183.605 79.5419C182.838 77.1099 182.039 74.6936 181.345 72.238C180.644 69.7511 179.798 67.0563 179.907 64.4439C179.935 63.8084 178.961 63.8084 178.933 64.44Z" fill="#002247"/>
<path d="M168.966 51.4919C169.153 52.3078 169.383 53.3747 170.03 53.9592C170.493 54.3789 171.187 53.6885 170.719 53.2649C170.209 52.802 170.053 51.8724 169.905 51.2291C169.765 50.6172 168.825 50.8761 168.966 51.4919Z" fill="#002247"/>
<path d="M160.417 53.3589C160.471 54.3592 160.908 55.2574 161.519 56.0302C161.909 56.5244 162.595 55.8262 162.209 55.3359C161.769 54.7789 161.43 54.0807 161.395 53.3589C161.36 52.7313 160.382 52.7274 160.417 53.3589Z" fill="#002247"/>
<path d="M167.625 66.6368C169.281 66.9624 170.941 66.2406 171.806 64.7697C172.126 64.2244 171.284 63.7302 170.965 64.2754C170.333 65.3502 169.11 65.9308 167.882 65.6915C167.271 65.5699 167.01 66.5152 167.625 66.6368Z" fill="#002247"/>
<path d="M164.003 39.4678C164.365 43.1236 166.177 46.4068 169.033 48.6976C170.378 49.7763 171.925 50.604 173.581 51.0864C175.412 51.6238 179.344 50.9335 180.497 52.5849C181.039 53.3615 180.832 54.7541 180.836 55.6602C180.844 57.0213 180.708 58.4021 180.786 59.7632C180.879 61.4852 181.616 62.8346 182.668 64.1682C184.207 66.1138 185.543 67.777 186.175 70.2561C186.884 73.045 186.693 75.8968 185.789 78.6073C185.598 79.18 186.369 79.3879 186.677 78.9838C189.904 74.7671 189.498 69.0205 187.897 64.231C187.698 63.6348 186.755 63.8897 186.958 64.4899C188.485 69.0597 188.918 74.4611 185.836 78.4896C186.132 78.6151 186.428 78.7406 186.724 78.8661C188.06 74.869 187.928 70.0757 185.66 66.4198C184.503 64.5527 182.481 63.0935 181.916 60.8968C181.319 58.5903 182.04 56.0289 181.764 53.6675C181.292 49.5998 176.667 50.9727 173.838 50.1411C169.088 48.7486 165.468 44.4181 164.977 39.4678C164.915 38.848 163.941 38.8402 164.003 39.4678Z" fill="#002247"/>
<path d="M187.794 63.8793C186.816 59.839 190.452 55.3084 192.392 52.0801C194.485 48.5969 196.125 45.4706 196.024 41.3127C195.907 36.4448 194.453 31.5023 191.414 27.6621C189.111 24.7515 184.704 22.0881 180.936 22.045C180.309 22.0371 180.309 23.0178 180.936 23.0256C185.355 23.0727 189.875 26.6462 192.038 30.2941C194.457 34.3776 195.997 40.4066 194.738 45.1176C193.733 48.8754 191.095 52.1664 189.213 55.5085C187.779 58.0542 186.123 61.1217 186.851 64.1381C187.003 64.754 187.942 64.4912 187.794 63.8793Z" fill="#002247"/>
<path d="M158.845 61.9259C154.804 61.4042 155.104 57.2423 153.183 54.4494C152.163 52.9667 150.666 51.9665 149.895 50.2954C149.03 48.4204 148.878 46.263 149.014 44.2272C149.287 40.2066 150.803 36.131 153.406 33.0518C155.724 30.3099 158.873 28.533 161.994 26.8816C162.547 26.5874 162.056 25.7401 161.503 26.0343C157.957 27.9093 154.473 29.9765 152.011 33.244C149.458 36.6331 148.04 41.0342 148.001 45.2824C147.981 47.1574 148.25 49.0873 149.057 50.7936C150.054 52.9039 152.089 54.1631 153.113 56.2656C153.869 57.8111 154.103 59.6939 155.136 61.0943C156.044 62.3299 157.388 62.7182 158.845 62.9065C159.465 62.9889 159.461 62.0083 158.845 61.9259Z" fill="#002247"/>
<path d="M162.338 25.9597C160.245 24.5161 157.97 23.0216 157.506 20.3111C157.093 17.8988 158.079 15.506 159.579 13.6506C162.345 10.234 166.772 8.20607 171.031 7.54708C175.002 6.93123 180.087 6.68019 182.409 10.6538C183.403 12.3522 184.014 14.1331 183.862 16.1375C183.683 18.5107 182.199 20.2955 180.55 21.8645C180.094 22.2999 180.784 22.9903 181.24 22.5588C184.759 19.2089 185.947 15.0274 183.496 10.5949C180.987 6.06042 176.003 5.87606 171.358 6.51936C166.117 7.24111 160.37 9.91239 157.677 14.7293C156.571 16.7063 156.072 19.0638 156.719 21.28C157.475 23.8572 159.758 25.3673 161.847 26.8069C162.365 27.1639 162.852 26.3166 162.338 25.9597Z" fill="#002247"/>
<path fill-rule="evenodd" clip-rule="evenodd" d="M168.634 137.198C166.847 138.642 165.098 140.133 163.454 141.743C163.29 141.904 163.09 142.133 162.864 142.392C161.8 143.61 160.147 145.501 158.837 144.156C157.43 142.71 159.447 140.259 160.664 138.78C160.897 138.497 161.1 138.25 161.245 138.052C162.008 137.008 162.79 135.979 163.591 134.966C163.528 135.021 163.465 135.076 163.402 135.131C162.62 135.82 161.837 136.508 161.054 137.197C160.884 137.346 160.693 137.537 160.486 137.744C159.576 138.654 158.344 139.886 157.138 139.343C153.651 137.777 159.127 132.442 160.883 130.731C161.023 130.595 161.139 130.482 161.225 130.395C165.215 126.398 169.732 122.754 174.205 119.326C177.875 116.513 182.925 115.552 187.453 116.188C187.867 116.245 187.886 116.686 187.671 116.947L191.541 124.203L191.513 124.236C191.707 124.437 191.757 124.825 191.467 125.045C189.235 126.744 187.534 129.085 185.857 131.394C185.192 132.309 184.53 133.219 183.841 134.083C181.379 137.166 178.795 140.155 176.103 143.038C176.025 143.121 175.916 143.249 175.782 143.406C174.753 144.61 172.273 147.51 171.653 144.944C171.371 143.787 171.901 142.622 172.373 141.586C172.396 141.533 172.42 141.481 172.444 141.43C172.815 140.605 173.192 139.782 173.571 138.959C173.166 139.428 172.765 139.9 172.364 140.373C171.357 141.558 170.351 142.743 169.28 143.869C169.2 143.954 169.113 144.047 169.02 144.146C167.92 145.325 165.97 147.415 164.331 147.129C161.893 146.704 165.754 141.004 168.634 137.198Z" fill="#ECCEC2"/>
<path d="M190.972 124.202C189.031 125.68 187.598 127.575 186.144 129.517C184.161 132.164 182.099 134.753 179.952 137.268C179.021 138.358 178.074 139.437 177.112 140.5C176.18 141.532 174.891 143.489 173.687 144.167C173.519 144.34 173.355 144.509 173.188 144.681C172.412 144.505 172.264 144.03 172.736 143.269C172.954 142.5 173.391 141.708 173.726 140.978C174.404 139.5 175.086 138.021 175.764 136.538C175.982 136.06 175.409 135.518 175 135.946C172.05 138.99 169.63 143.101 166.069 145.466C165.336 145.952 164.311 146.67 164.572 145.27C164.771 144.199 165.706 143.053 166.291 142.187C168.052 139.57 169.938 137.048 171.921 134.604C172.323 134.11 171.727 133.526 171.232 133.91C169.354 135.381 167.475 136.848 165.667 138.405C164.857 139.103 164.058 139.821 163.283 140.559C162.85 140.971 162.425 141.386 162.009 141.81C161.342 142.493 161.331 143.046 160.36 142.418C159.425 141.818 159.823 141.775 160.399 140.931C160.676 140.531 160.953 140.131 161.237 139.735C162.059 138.578 162.901 137.436 163.77 136.314C165.258 134.388 166.825 132.525 168.442 130.705C168.863 130.231 168.224 129.595 167.752 130.011C166.143 131.427 164.534 132.843 162.924 134.255C162.168 134.922 161.408 135.589 160.653 136.252C160.22 136.632 159.721 137.225 159.234 137.499C159.043 137.664 158.856 137.833 158.665 137.997C158.147 137.672 157.629 137.35 157.111 137.024C156.92 136.397 158.77 134.545 159.109 134.141C159.776 133.345 160.473 132.576 161.19 131.827C162.554 130.411 163.996 129.073 165.477 127.783C168.504 125.143 171.618 122.546 174.801 120.102C178.191 117.498 183 116.545 187.196 117.133C187.808 117.219 188.073 116.274 187.453 116.188C182.925 115.552 177.875 116.513 174.205 119.326C169.732 122.754 165.215 126.398 161.225 130.395C160.056 131.568 153.374 137.652 157.138 139.343C158.618 140.01 160.138 138.001 161.054 137.197C163.517 135.032 165.975 132.867 168.438 130.705C168.208 130.474 167.978 130.242 167.748 130.011C165.457 132.588 163.283 135.263 161.245 138.052C160.345 139.284 157.161 142.434 158.837 144.156C160.427 145.788 162.519 142.657 163.454 141.743C166.096 139.154 169.011 136.875 171.918 134.6C171.688 134.369 171.458 134.137 171.228 133.906C170.246 135.118 160.843 146.521 164.331 147.129C166.108 147.439 168.251 144.956 169.28 143.869C171.501 141.535 173.441 138.947 175.682 136.632C175.428 136.436 175.171 136.236 174.918 136.04C174.092 137.836 173.254 139.629 172.444 141.43C171.957 142.504 171.356 143.728 171.653 144.944C172.354 147.843 175.428 143.763 176.103 143.038C178.795 140.155 181.379 137.166 183.841 134.083C186.269 131.043 188.35 127.418 191.467 125.045C191.958 124.672 191.475 123.821 190.972 124.202Z" fill="#002247"/>
<path d="M183.138 80.2719C199.457 83.3707 214.79 90.3647 226.215 102.736C228.615 105.333 230.817 108.11 232.831 111.021C235.06 114.241 235.738 117.579 235.5 121.502C235.243 125.774 233.832 128.947 231.109 132.191C228.864 134.862 226.215 137.118 222.945 138.393C215.156 141.429 204.729 141.696 199.885 133.697C199.558 133.16 198.716 133.65 199.044 134.192C203.474 141.511 211.411 142.009 219.014 140.511C222.38 139.848 225.541 138.601 228.237 136.435C231.043 134.18 234.02 130.944 235.301 127.519C236.611 124.024 236.848 119.913 236.213 116.254C235.578 112.598 233.229 109.75 231.007 106.894C226.043 100.505 220.058 94.958 213.247 90.6157C204.175 84.8299 193.908 81.3231 183.395 79.3265C182.783 79.2088 182.522 80.1542 183.138 80.2719Z" fill="#002247"/>
<path d="M202.562 131.391C199.698 133.034 196.616 133.85 193.323 133.846C193.487 134.011 193.647 134.172 193.81 134.337C193.736 127.758 191.586 121.471 187.588 116.261C187.49 116.501 187.393 116.74 187.295 116.983C189.45 116.089 191.889 115.375 194.239 115.622C196.752 115.885 198.533 117.709 199.862 119.737C202.297 123.451 203.194 127.335 202.387 131.724C202.274 132.34 203.213 132.607 203.326 131.983C204.249 126.966 203.104 122.349 200.029 118.27C198.786 116.618 197.138 115.175 195.077 114.732C192.451 114.167 189.439 115.041 187.034 116.038C186.781 116.144 186.528 116.477 186.742 116.76C190.635 121.835 192.758 127.923 192.832 134.341C192.836 134.607 193.055 134.831 193.32 134.831C196.776 134.831 200.049 133.96 203.053 132.238C203.599 131.924 203.108 131.077 202.562 131.391Z" fill="#002247"/>
<path d="M197.341 114.586C203.817 109.087 212.861 107.463 220.845 110.287C221.437 110.495 221.691 109.55 221.102 109.342C212.779 106.396 203.384 108.173 196.651 113.892C196.172 114.3 196.865 114.99 197.341 114.586Z" fill="#002247"/>
<path d="M147.78 87.7364C147.815 111.695 147.48 135.666 145.968 159.578C145.929 160.167 146.065 161.387 145.816 161.916C145.454 162.681 146.393 161.983 145.828 162.242C145.66 162.32 145.286 162.226 145.107 162.21C144.222 162.144 143.342 161.967 142.473 161.795C139.998 161.3 137.551 160.669 135.112 160.022C128.613 158.296 122.168 156.374 115.719 154.463C110.525 152.926 105.319 151.145 100.015 150.035C99.4037 149.905 99.1426 150.851 99.7582 150.98C105.763 152.239 111.655 154.283 117.531 156.021C124.915 158.202 132.307 160.465 139.807 162.214C141.83 162.685 144.277 163.497 146.385 163.168C146.603 163.132 146.728 162.893 146.743 162.693C148.419 137.741 148.797 112.731 148.762 87.7285C148.754 87.1048 147.78 87.1048 147.78 87.7364Z" fill="#002247"/>
<path d="M52.2821 99.4177C52.7419 91.8981 53.1432 84.3746 53.6653 76.859C53.9108 73.313 54.1797 69.7709 54.5187 66.2366C54.659 64.7578 54.807 63.279 54.9941 61.8041C55.1227 60.7646 55.3292 59.988 56.5527 59.7801C56.6346 59.7683 56.7203 59.8114 56.8021 59.8075C58.4348 59.7016 60.5 60.4901 62.082 60.8235C65.3474 61.506 68.601 62.2317 71.8547 62.9652C90.4259 67.1467 108.962 71.5792 127.354 76.5138C131.496 77.6239 135.63 78.7614 139.73 80.0127C141.218 80.4677 142.707 80.9345 144.176 81.4445C144.741 81.6406 145.364 81.8014 145.898 82.0721C147.749 83.0213 147.651 85.8377 147.799 87.6578C147.85 88.2815 148.824 88.2894 148.774 87.6578C148.594 85.4337 148.657 82.2251 146.307 81.1856C145.243 80.7149 144.102 80.3775 142.999 80.0166C139.585 78.8987 136.129 77.9141 132.673 76.9531C122.931 74.2465 113.124 71.7832 103.304 69.3747C93.4886 66.9662 83.6497 64.6362 73.7952 62.4003C68.2971 61.153 62.7055 59.5761 57.1021 58.87C55.4383 58.6621 54.4486 59.0818 54.1407 60.8588C53.4861 64.6519 53.3147 68.5941 53.0185 72.4304C52.3249 81.4209 51.8573 90.4232 51.3118 99.4256C51.2689 100.049 52.2431 100.045 52.2821 99.4177Z" fill="#002247"/>
<path d="M103.838 117.972C102.046 131.763 100.245 145.559 97.5216 159.202C97.4359 159.637 97.845 159.943 98.2386 159.755C101.839 158.045 104.8 155.232 108.198 153.177C108.736 152.851 108.245 152.004 107.707 152.33C104.309 154.381 101.348 157.194 97.7476 158.908C97.9853 159.092 98.223 159.276 98.4646 159.461C101.208 145.732 103.012 131.85 104.816 117.972C104.894 117.348 103.92 117.352 103.838 117.972Z" fill="#002247"/>
<path d="M104.516 117.207C98.149 115.767 91.8443 114.069 85.5435 112.37C85.2902 112.303 85.0135 112.456 84.9434 112.711C81.8768 124.103 78.8101 135.498 75.7435 146.889C75.3889 148.203 74.2511 150.415 75.2954 151.659C75.7942 152.255 76.6242 152.427 77.3216 152.675C78.7478 153.181 80.1818 153.663 81.6118 154.153C87.0125 156.005 92.4249 157.833 97.8178 159.708C98.4101 159.916 98.6672 158.966 98.0749 158.762C93.3795 157.135 88.6763 155.538 83.977 153.93C82.8003 153.53 81.6274 153.126 80.4506 152.722C79.5739 152.42 77.536 152.114 76.8463 151.478C75.4396 150.184 76.367 148.297 76.78 146.775C77.1151 145.524 77.4541 144.272 77.7892 143.017C80.4857 133.003 83.1821 122.985 85.8786 112.97C85.6799 113.084 85.4772 113.198 85.2785 113.312C91.5793 115.01 97.884 116.705 104.251 118.148C104.867 118.289 105.128 117.344 104.516 117.207Z" fill="#002247"/>
<path d="M103.589 93.6121C102.649 93.1257 102.112 92.5648 101.894 91.5135C101.617 90.1877 101.484 87.1948 102.856 86.5083C103.277 86.3004 103.086 85.7591 102.739 85.614C100.982 84.8726 99.2283 85.002 97.5722 85.9395C97.7943 85.9984 98.0164 86.0572 98.2385 86.1161C96.676 82.7152 92.5261 84.2803 91.2597 87.0496C90.0323 89.7327 89.818 95.4949 93.1379 96.8522C94.3108 97.3307 95.2615 97.1032 96.2824 96.4638C97.2215 95.8794 97.2605 95.95 97.806 96.9973C98.0749 97.5112 98.2385 97.9623 98.7607 98.2878C101.449 99.9628 103.9 96.3618 103.92 94.0711C103.928 93.4395 102.953 93.4395 102.946 94.0711C102.934 95.2988 102.229 97.2993 100.756 97.5033C99.1815 97.723 98.901 96.8365 98.3048 95.8088C97.8723 95.0556 97.3345 94.4202 96.4344 94.73C96.2474 94.7928 96.1616 95.0242 96.0136 95.138C95.0472 95.8951 94.4705 96.5697 93.1963 95.8088C91.7741 94.9576 91.552 93.0551 91.5247 91.5567C91.4935 90.0386 91.5792 88.3794 92.3547 87.0339C93.4262 85.1786 96.2591 84.1508 97.393 86.6182C97.506 86.8614 97.8489 86.9123 98.0593 86.7947C99.4932 85.9866 100.966 85.9317 102.478 86.5672C102.439 86.269 102.4 85.9709 102.361 85.6728C100.553 86.575 100.662 89.5405 100.873 91.2468C101.06 92.7648 101.742 93.7729 103.094 94.4672C103.655 94.7457 104.15 93.8985 103.589 93.6121Z" fill="#002247"/>
<path d="M98.9906 83.7782C99.0101 81.9111 100.916 80.4715 102.611 81.456C102.579 81.2011 102.544 80.9422 102.513 80.6872C102.213 80.9618 101.96 81.2482 101.781 81.613C101.617 81.9464 101.57 82.3426 101.368 82.6564C100.76 83.5978 99.6647 83.7586 98.71 83.386C98.1255 83.1584 97.8723 84.1077 98.4529 84.3313C99.5439 84.7549 100.425 84.6451 101.375 83.9547C101.769 83.6684 102.104 83.3938 102.318 82.9466C102.603 82.3504 102.681 81.8522 103.203 81.3776C103.437 81.1658 103.366 80.7578 103.105 80.6088C100.767 79.2516 98.0437 81.1579 98.0203 83.7782C98.0086 84.4098 98.9828 84.4098 98.9906 83.7782Z" fill="#002247"/>
<path d="M16.7568 141.205C38.1959 149.046 59.8259 156.35 81.4715 163.579C105.19 171.499 128.963 179.254 152.764 186.923C170.018 192.485 187.284 198 204.569 203.472C208.103 204.59 211.637 205.9 215.222 206.834C215.939 207.022 216.119 206.951 216.761 206.512C218.877 205.08 220.962 203.594 223.062 202.138C242.51 188.668 261.997 175.237 281.733 162.191C283.978 160.708 286.226 159.233 288.482 157.766C288.26 157.707 288.038 157.648 287.816 157.59C288.081 158.213 287.886 159.888 287.91 160.696C287.945 162.002 287.672 163.732 288.003 164.995C288.132 165.494 287.73 165.627 288.241 165.113C288.198 165.156 288.128 165.199 288.077 165.235C287.734 165.458 287.407 165.721 287.076 165.96C283.608 168.475 280.136 170.985 276.66 173.492C263.844 182.729 250.993 191.92 238.056 200.989C230.98 205.951 223.884 210.882 216.699 215.683C216.945 215.824 217.186 215.965 217.432 216.107C217.038 212.847 216.641 209.591 216.247 206.332C216.173 205.712 215.199 205.704 215.273 206.332C215.667 209.591 216.064 212.847 216.458 216.107C216.5 216.444 216.851 216.758 217.19 216.53C231.004 207.3 244.552 197.659 258.081 188.013C267.975 180.96 277.841 173.864 287.676 166.729C288.467 166.156 288.946 166.007 288.977 164.995C289.028 163.446 288.919 161.869 288.876 160.32C288.849 159.359 289.047 158.001 288.662 157.091C288.56 156.856 288.194 156.785 287.995 156.915C267.729 170.075 247.837 183.828 227.953 197.565C224.878 199.687 221.808 201.813 218.741 203.943C217.927 204.508 217.05 205.033 216.274 205.657C215.85 205.998 215.441 205.99 215.99 206.037C215.257 205.975 214.408 205.539 213.71 205.32C211.856 204.735 210.005 204.151 208.15 203.566C192.057 198.482 175.98 193.352 159.914 188.186C136.636 180.701 113.381 173.139 90.1765 165.435C67.962 158.06 45.7708 150.6 23.7395 142.684C21.495 141.88 19.2545 141.064 17.0139 140.248C16.4255 140.044 16.1723 140.989 16.7568 141.205Z" fill="#002247"/>
<path d="M171.499 79.7656C167.902 79.7892 164.294 80.1226 160.721 80.507C156.719 80.9385 152.779 82.0603 148.836 82.8409C148.22 82.9625 148.481 83.9079 149.093 83.7863C153.064 83.0018 157.03 81.8721 161.056 81.4523C164.52 81.0915 168.015 80.7698 171.499 80.7463C172.126 80.7424 172.126 79.7617 171.499 79.7656Z" fill="#002247"/>
<path d="M220.697 140.346C242.884 146.461 265.021 152.816 287.485 157.844C288.097 157.982 288.358 157.036 287.742 156.899C265.278 151.87 243.141 145.516 220.954 139.4C220.35 139.232 220.089 140.181 220.697 140.346Z" fill="#002247"/>
<path d="M129.957 187.291C122.908 213.773 111.187 238.705 103.503 264.982C103.324 265.59 104.267 265.849 104.442 265.241C112.126 238.96 123.847 214.032 130.896 187.55C131.06 186.942 130.121 186.683 129.957 187.291Z" fill="#002247"/>
<path d="M157.907 196.604C152.074 206.332 147.032 216.55 142.091 226.76C136.445 238.426 131.044 250.213 125.815 262.075C123.473 267.387 121.17 272.713 118.933 278.068C118.692 278.648 119.635 278.903 119.872 278.327C129.197 256.023 139.227 233.919 150.313 212.443C152.99 207.253 155.745 202.103 158.749 197.094C159.072 196.557 158.231 196.062 157.907 196.604Z" fill="#002247"/>
<path d="M103.729 265.598C109.211 268.567 115.89 272.29 118.688 278.17C118.957 278.739 119.798 278.24 119.53 277.675C116.662 271.65 109.831 267.791 104.22 264.755C103.667 264.452 103.176 265.3 103.729 265.598Z" fill="#002247"/>
<path d="M104.968 266.099C104.59 265.507 104.364 265.378 104.286 265.707C104.251 265.793 104.216 265.876 104.173 265.962C104.068 266.088 103.974 266.35 103.9 266.495C103.6 267.06 103.281 267.617 102.957 268.166C102.248 269.382 101.512 270.583 100.736 271.76C100.389 272.285 101.231 272.779 101.578 272.254C102.49 270.873 103.355 269.453 104.173 268.014C104.528 267.394 105.397 266.311 105.256 265.534C105.225 265.366 105.069 265.24 104.917 265.193C104.758 265.142 104.621 265.185 104.477 265.256C103.912 265.527 104.407 266.374 104.968 266.099Z" fill="#002247"/>
<path d="M110.509 280.209C109.27 279.138 107.922 278.283 106.293 277.981C105.35 277.804 103.663 278.216 103.468 277.161C103.331 276.428 103.612 275.627 103.405 274.851C103.265 274.317 103.024 273.827 102.704 273.38C102.03 272.442 101.032 271.862 100.008 271.383C99.4426 271.12 98.9477 271.964 99.5166 272.23C100.993 272.921 102.268 273.807 102.525 275.545C102.65 276.381 102.1 277.671 102.739 278.385C103.133 278.824 103.795 278.781 104.325 278.805C106.495 278.914 108.124 279.436 109.819 280.899C110.295 281.311 110.984 280.621 110.509 280.209Z" fill="#002247"/>
<path d="M109.889 280.558C106.577 284.567 103.791 288.996 100.374 292.918C99.9609 293.393 100.647 294.087 101.064 293.613C104.481 289.69 107.267 285.262 110.579 281.253C110.977 280.77 110.291 280.072 109.889 280.558Z" fill="#002247"/>
<path d="M99.2868 271.399C98.4918 272.368 97.6891 273.329 96.8903 274.294C96.2864 275.024 96.0837 275.506 95.0979 275.569C93.9601 275.643 92.8613 274.667 91.9066 274.09C88.7387 272.188 85.4343 270.674 81.943 269.473C78.9231 268.434 75.5837 267.594 72.3846 268.226C70.8104 268.536 68.7257 269.034 68.8075 270.968C68.8855 272.753 70.2181 274.596 71.1767 276.004C72.6925 278.228 74.4342 280.311 76.2539 282.288C79.5933 285.917 83.3029 289.592 87.1683 292.648C91.4234 296.013 96.6838 298.037 101.025 293.691C101.469 293.244 100.779 292.554 100.335 292.997C96.0097 297.328 90.835 294.495 86.8995 291.173C83.7276 288.494 80.6493 285.489 77.7775 282.484C76.0202 280.645 74.3485 278.711 72.8366 276.659C71.7222 275.149 70.3077 273.337 69.883 271.462C69.1972 268.426 75.4902 268.916 77.2788 269.226C80.2635 269.74 83.1159 270.889 85.898 272.054C87.936 272.906 89.8297 273.98 91.7196 275.122C92.7483 275.742 94.1822 277.087 95.4993 276.852C96.3565 276.695 96.9137 275.785 97.4281 275.165C98.2736 274.141 99.127 273.121 99.9726 272.094C100.374 271.611 99.6881 270.913 99.2868 271.399Z" fill="#002247"/>
<path d="M70.3701 270.163C71.5469 269.744 73.651 271.356 74.5745 271.921C77.08 273.45 79.4492 275.208 81.7599 277.016C86.6618 280.848 91.5403 284.979 95.6084 289.717C96.1188 290.314 99.0686 293.432 98.2113 294.401C97.7944 294.872 98.4841 295.566 98.901 295.095C99.8946 293.969 98.7257 292.247 98.0593 291.275C96.3994 288.843 94.2524 286.724 92.1404 284.696C87.0592 279.809 81.5105 275.129 75.5409 271.375C74.2862 270.587 71.7495 268.637 70.109 269.222C69.5245 269.426 69.7778 270.375 70.3701 270.163Z" fill="#002247"/>
<path d="M163.795 231.688C153.126 241.349 142.332 250.893 131.434 260.291C129.022 262.37 126.61 264.453 124.128 266.45C123.637 266.842 124.33 267.532 124.817 267.144C136.297 257.93 147.168 247.868 158.149 238.066C160.265 236.179 162.381 234.288 164.485 232.386C164.948 231.958 164.259 231.264 163.795 231.688Z" fill="#002247"/>
<path d="M106.87 253.866C101.699 258.02 97.4943 263.315 92.5535 267.732C92.082 268.152 92.7756 268.842 93.2432 268.426C98.184 264.009 102.388 258.714 107.559 254.56C108.046 254.168 107.357 253.477 106.87 253.866Z" fill="#002247"/>
<path d="M96.0682 265.382C97.9541 266.987 99.3296 269.658 99.9024 272.047C100.051 272.659 100.99 272.4 100.842 271.788C100.23 269.234 98.7685 266.402 96.7579 264.688C96.2825 264.284 95.5889 264.974 96.0682 265.382Z" fill="#002247"/>
<path d="M58.2049 221.284C71.9132 213.306 85.8279 205.692 99.6881 197.988C101.04 197.235 102.611 196.58 103.857 195.65C104.356 195.278 103.869 194.426 103.367 194.803C102.373 195.544 101.122 196.07 100.043 196.67C97.2722 198.212 94.4979 199.749 91.7274 201.291C84.1602 205.492 76.6008 209.705 69.0608 213.957C65.2694 216.099 61.482 218.244 57.7178 220.437C57.1684 220.755 57.6594 221.602 58.2049 221.284Z" fill="#002247"/>
<path d="M92.1755 174.653C94.1588 179.705 97.1358 184.502 99.6842 189.276C103.238 195.929 106.834 202.558 110.431 209.183C111.035 210.297 111.639 211.407 112.243 212.521C112.399 212.812 112.921 213.773 112.909 213.741C113.065 213.533 113.221 213.33 113.381 213.122C111.277 213 108.635 211.862 106.48 211.278C105.876 211.113 105.615 212.059 106.223 212.223C108.491 212.839 111.035 213.965 113.381 214.102C113.689 214.122 113.946 213.773 113.852 213.482C113.474 212.302 112.605 211.141 112.021 210.062C110.49 207.242 108.958 204.421 107.431 201.597C103.721 194.744 100.008 187.892 96.4033 180.984C95.2772 178.827 94.0108 176.661 93.1184 174.39C92.8886 173.813 91.9456 174.064 92.1755 174.653Z" fill="#002247"/>
<path d="M61.3105 195.756C72.4742 190.382 83.2951 184.314 94.4589 178.936C95.0239 178.665 94.529 177.818 93.9679 178.089C82.8041 183.463 71.9833 189.531 60.8195 194.909C60.2506 195.183 60.7455 196.031 61.3105 195.756Z" fill="#002247"/>
<path d="M63.7887 165.266C61.1897 187.142 58.5906 209.015 55.9916 230.891C55.111 238.305 54.2303 245.718 53.3497 253.132C53.2757 253.756 54.2498 253.752 54.3239 253.132C57.4918 226.431 60.6675 199.73 63.8394 173.029C64.1472 170.444 64.455 167.855 64.7629 165.27C64.8369 164.642 63.8627 164.646 63.7887 165.266Z" fill="#002247"/>
<path d="M49.2076 160.833C47.9451 171.307 46.6826 181.776 45.4201 192.249C43.4056 208.948 41.391 225.646 39.3804 242.349C38.9167 246.193 38.453 250.037 37.9893 253.881C37.9153 254.505 38.8894 254.501 38.9635 253.881C40.226 243.408 41.4885 232.938 42.7509 222.465C44.7655 205.767 46.78 189.068 48.7907 172.366C49.2544 168.522 49.7181 164.678 50.1818 160.833C50.2597 160.21 49.2856 160.214 49.2076 160.833Z" fill="#002247"/>
<path d="M56.1903 162.983C54.8499 173.805 53.5095 184.624 52.1651 195.446C50.0142 212.8 47.8594 230.157 45.7007 247.511C45.2058 251.476 44.8356 256.101 44.1654 259.772C44.0719 260.275 44.5941 260.557 44.9798 260.251C47.9529 257.882 51.1481 255.815 54.1212 253.449C54.6122 253.057 53.9186 252.367 53.4315 252.755C50.4584 255.124 47.2632 257.191 44.2901 259.557C44.5629 259.718 44.8317 259.874 45.1045 260.035C45.689 256.846 45.9228 253.555 46.3241 250.343C47.2866 242.631 48.2413 234.923 49.1998 227.211C51.3624 209.787 53.5251 192.363 55.6838 174.943C56.1786 170.957 56.6735 166.972 57.1645 162.987C57.2424 162.359 56.2683 162.367 56.1903 162.983Z" fill="#002247"/>
<path d="M39.5441 132.261C40.2533 134.195 41.882 135.745 43.051 137.396C44.0602 138.82 44.146 139.2 45.7241 139.62C48.9115 140.467 52.1262 141.209 55.337 141.954C57.2658 142.401 59.5103 143.284 61.5053 143.307C63.3601 143.331 65.5149 142.182 67.1943 141.491C69.3686 140.601 71.5157 139.593 73.7913 138.989C73.6081 138.749 73.425 138.51 73.2419 138.267C71.9482 141.068 70.5922 143.845 69.2167 146.602C68.6478 147.744 68.527 148.062 67.3697 148.579C65.2655 149.525 63.0951 150.356 60.913 151.102C61.1195 151.258 61.3222 151.415 61.5287 151.576C61.591 148.63 61.6534 145.681 61.7157 142.735C61.7274 142.103 60.7533 142.103 60.7416 142.735C60.6792 145.681 60.6169 148.63 60.5545 151.576C60.5467 151.882 60.8741 152.153 61.1702 152.051C63.4341 151.278 65.6747 150.407 67.8607 149.431C68.8153 149.003 69.205 148.779 69.6726 147.869C71.2156 144.876 72.673 141.825 74.0835 138.765C74.2589 138.388 73.9705 137.93 73.5341 138.043C69.6414 139.075 66.0448 141.625 62.0508 142.217C60.1766 142.495 57.8308 141.523 55.9994 141.099C53.0575 140.416 50.1194 139.726 47.1931 138.985C46.632 138.844 46.0124 138.749 45.4747 138.534C44.7967 138.263 44.7032 138.086 44.2629 137.424C43.0705 135.635 41.2352 134.034 40.4832 131.995C40.2688 131.414 39.3259 131.665 39.5441 132.261Z" fill="#002247"/>
<path d="M39.2713 132.317C40.187 135.38 41.2625 138.381 42.3613 141.378C42.5951 142.017 42.8328 142.657 43.0627 143.3C43.3121 143.994 43.5381 145.473 44.0212 146.01C44.4732 146.512 45.1201 146.603 45.7825 146.826C50.7779 148.525 55.6799 150.674 60.8039 151.961C61.4118 152.114 61.6728 151.169 61.0611 151.016C56.4358 149.854 51.9937 147.964 47.5009 146.387C46.1137 145.9 45.0811 145.802 44.4732 144.367C43.9394 143.108 43.5342 141.774 43.0627 140.487C42.0418 137.698 41.052 134.902 40.2026 132.054C40.0311 131.454 39.092 131.709 39.2713 132.317Z" fill="#002247"/>
<path d="M40.4286 132.262C42.8484 125.499 44.7188 118.521 46.6671 111.609C47.462 108.793 48.2452 105.977 49.0167 103.156C49.1531 102.658 49.2232 101.979 49.4648 101.517C49.2388 101.952 49.4414 101.626 49.8116 101.403C50.6104 100.916 51.3741 100.359 52.1496 99.8377C56.3384 97.0331 60.2194 94.0166 65.0941 92.5653C65.5812 92.4201 66.2709 92.071 66.7813 92.0906C66.3644 92.075 66.5787 92.0867 66.832 92.2711C67.2372 92.5692 67.658 92.8359 68.0477 93.1537C70.07 94.8011 70.2532 97.9745 70.9351 100.395C71.2585 101.548 71.2858 102.933 71.3715 104.337C71.5624 107.518 71.7495 110.699 71.9287 113.881C72.3807 121.887 72.899 129.908 73.047 137.926C73.0587 138.558 74.0329 138.558 74.0212 137.926C73.8809 130.351 73.4016 122.777 72.9769 115.214C72.7821 111.727 72.5794 108.236 72.369 104.749C72.2872 103.384 72.3145 101.964 72.0144 100.63C71.7806 99.5906 71.4377 98.5668 71.1611 97.5391C70.8338 96.3192 70.7052 94.8325 70.0116 93.7538C69.4778 92.9262 67.8918 91.3728 66.8865 91.1532C65.8734 90.9296 64.2485 91.7808 63.3055 92.1024C60.9286 92.9065 58.9842 94.0833 56.8995 95.4798C54.7018 96.9546 52.5003 98.4256 50.2987 99.9005C49.7103 100.293 48.8725 100.654 48.5179 101.277C48.2335 101.775 48.1672 102.564 48.0153 103.113C47.6373 104.49 47.2554 105.867 46.8736 107.244C44.5707 115.524 42.3847 123.907 39.4856 131.999C39.2791 132.595 40.2182 132.85 40.4286 132.262Z" fill="#002247"/>
<path d="M63.1536 104.815C63.2354 117.332 62.1054 129.932 61.065 142.394C61.0144 143.021 61.9885 143.017 62.0392 142.394C63.0796 129.928 64.2096 117.332 64.1278 104.815C64.1239 104.184 63.1497 104.18 63.1536 104.815Z" fill="#002247"/>
<path d="M165.509 54.869C165.7 56.187 165.891 57.5089 166.082 58.8269C166.156 58.6425 166.23 58.4581 166.304 58.2738C164.987 59.176 164.052 60.9372 165.198 62.4003C166.129 63.581 167.941 63.3771 168.557 62.0041C168.814 61.4354 167.972 60.9333 167.715 61.5099C167.497 61.7296 167.282 61.9492 167.064 62.1689C165.919 61.9924 165.494 61.4942 165.782 60.6666C165.86 59.9134 166.168 59.5486 166.795 59.1171C166.994 58.9798 167.053 58.7955 167.017 58.564C166.827 57.2461 166.636 55.9242 166.445 54.6062C166.359 53.9864 165.42 54.2492 165.509 54.869Z" fill="#002247"/>
<path d="M174.736 56.3165C175.426 55.5595 175.584 54.5768 175.091 54.1215C174.598 53.6663 173.639 53.9109 172.95 54.6679C172.26 55.4249 172.102 56.4076 172.595 56.8629C173.088 57.3181 174.047 57.0735 174.736 56.3165Z" fill="#D4A089"/>
<path d="M161.612 58.9586C161.946 58.3751 161.502 57.4859 160.618 56.9725C159.735 56.4591 158.747 56.5158 158.413 57.0993C158.078 57.6828 158.523 58.572 159.406 59.0854C160.29 59.5988 161.277 59.5421 161.612 58.9586Z" fill="#D4A089"/>
<path d="M169.305 74.2937C170.131 76.3021 170.766 78.3575 171.265 80.4718C171.409 81.0837 172.348 80.8248 172.204 80.2129C171.705 78.0986 171.07 76.0432 170.244 74.0348C170.01 73.4582 169.067 73.7093 169.305 74.2937Z" fill="#002247"/>
<path d="M163.647 39.0611C162.201 41.1283 160.319 42.7522 158.312 44.2467C156.96 45.2548 155.85 46.2864 155.53 48.0281C155.417 48.6439 156.356 48.9106 156.469 48.287C156.89 46.004 159.076 44.9606 160.713 43.5995C162.147 42.407 163.417 41.0851 164.489 39.5514C164.851 39.0414 164.005 38.5511 163.647 39.0611Z" fill="#002247"/>
<path d="M161.527 27.1639C168.588 28.6741 175.469 26.3401 181.287 22.3156C181.801 21.9586 181.314 21.1113 180.796 21.4683C175.2 25.336 168.599 27.6738 161.788 26.2185C161.176 26.0852 160.911 27.0305 161.527 27.1639Z" fill="#002247"/>
<path d="M166.78 40.4574C168.837 45.039 173.346 47.6789 178.322 47.2631C178.941 47.2121 178.949 46.2314 178.322 46.2824C173.661 46.6747 169.546 44.2505 167.621 39.9632C167.36 39.3905 166.523 39.8886 166.78 40.4574Z" fill="#002247"/>
<path d="M180.683 22.5981C186.251 20.9585 191.305 24.1004 195.541 27.4189C196.028 27.8034 196.725 27.113 196.23 26.7246C191.71 23.1786 186.356 19.9033 180.426 21.6488C179.822 21.8293 180.079 22.7785 180.683 22.5981Z" fill="#002247"/>
<path d="M180.406 22.8099C183.991 21.5978 186.586 17.6635 187.973 14.3175C188.215 13.737 187.272 13.482 187.034 14.0586C185.791 17.0516 183.36 20.7819 180.149 21.8685C179.557 22.0607 179.81 23.01 180.406 22.8099Z" fill="#002247"/>
<path d="M153.594 49.2875C152.468 44.1606 156.789 42.0738 160.194 39.5399C162.844 37.5668 163.998 35.2368 164.411 31.9575C164.489 31.3338 163.514 31.3377 163.436 31.9575C163.125 34.4366 162.345 36.492 160.409 38.1356C158.99 39.3359 157.338 40.2145 155.881 41.3638C153.274 43.4154 151.922 46.2004 152.655 49.5463C152.791 50.1622 153.73 49.9033 153.594 49.2875Z" fill="#002247"/>
<path d="M171.238 80.6483C174.974 82.641 179.288 82.5939 182.97 80.5032C183.516 80.1933 183.025 79.346 182.479 79.6559C179.097 81.5741 175.161 81.6329 171.728 79.8011C171.175 79.5069 170.68 80.3502 171.238 80.6483Z" fill="#002247"/>
<path d="M165.303 80.8403C167.582 85.1551 171.783 87.7048 176.572 88.0108C181.127 88.301 187.498 86.4927 189.458 81.8798C189.703 81.3071 188.862 80.805 188.616 81.3855C186.793 85.6729 180.804 87.3165 176.572 87.0301C172.13 86.7281 168.253 84.3392 166.145 80.346C165.848 79.7851 165.011 80.2793 165.303 80.8403Z" fill="#002247"/>
<path d="M169.18 84.3353C170.154 83.2606 171.273 82.3897 172.551 81.7151C173.108 81.4209 172.613 80.5736 172.06 80.8678C170.715 81.5778 169.515 82.5113 168.49 83.641C168.07 84.1078 168.755 84.8021 169.18 84.3353Z" fill="#002247"/>
<path d="M173.271 86.6655C174.043 85.1082 174.846 83.5706 175.683 82.0486C175.987 81.4955 175.146 81.0013 174.842 81.5544C174.004 83.0763 173.197 84.614 172.43 86.1712C172.149 86.7361 172.991 87.2303 173.271 86.6655Z" fill="#002247"/>
<path d="M176.907 81.9073C177.285 83.7352 177.764 85.5318 178.357 87.3008C178.555 87.8971 179.498 87.6421 179.296 87.042C178.703 85.2729 178.224 83.4763 177.846 81.6484C177.718 81.0286 176.778 81.2915 176.907 81.9073Z" fill="#002247"/>
<path d="M180.718 81.5309C181.836 83.151 183.099 84.6533 184.509 86.0223C184.961 86.4616 185.651 85.7673 185.199 85.328C183.847 84.0139 182.635 82.5861 181.56 81.0328C181.205 80.5228 180.359 81.0092 180.718 81.5309Z" fill="#002247"/>
<path d="M193.3 133.76C190.896 134.254 188.457 131.795 187.229 129.986C186.878 129.469 186.033 129.959 186.387 130.481C187.903 132.716 190.643 135.305 193.557 134.705C194.173 134.58 193.912 133.634 193.3 133.76Z" fill="#002247"/>
<path d="M164.707 127.225C159.801 125.683 154.638 125.209 149.756 123.573C149.159 123.373 148.902 124.318 149.498 124.518C154.381 126.154 159.54 126.629 164.45 128.17C165.046 128.359 165.303 127.413 164.707 127.225Z" fill="#002247"/>
<path d="M63.8472 105.317C65.0434 105.031 66.0838 104.254 67.1476 103.662C68.5192 102.897 69.9103 102.179 71.3169 101.489C71.882 101.214 71.3871 100.367 70.826 100.641C69.583 101.249 68.3516 101.881 67.1398 102.548C66.0098 103.168 64.8486 104.07 63.5861 104.372C62.9782 104.517 63.2393 105.462 63.8472 105.317Z" fill="#002247"/>
<path d="M45.3305 138.494C47.2165 127.044 49.5895 115.684 52.4457 104.438C52.6016 103.827 51.6625 103.568 51.5066 104.18C48.6504 115.426 46.2774 126.785 44.3915 138.235C44.2901 138.851 45.2292 139.114 45.3305 138.494Z" fill="#002247"/>
<path d="M48.8375 101.995C49.6324 103.034 50.5715 103.905 51.6859 104.584C52.2236 104.913 52.7146 104.066 52.1769 103.736C51.2144 103.148 50.3649 102.399 49.6791 101.497C49.3051 101.006 48.4556 101.493 48.8375 101.995Z" fill="#002247"/>
<path d="M52.2236 105.019C54.4875 104.117 56.6696 103.058 58.7738 101.826C59.3154 101.508 58.8244 100.661 58.2828 100.979C56.2488 102.167 54.1485 103.199 51.9664 104.07C51.3858 104.301 51.6391 105.25 52.2236 105.019Z" fill="#002247"/>
<path d="M58.3296 101.842C59.257 102.536 60.1805 103.234 61.1079 103.929C61.8131 104.458 62.6704 105.392 63.5238 105.623C63.6835 105.666 63.8822 105.627 63.9991 105.498C64.0264 105.47 64.0498 105.439 64.0771 105.411C64.494 104.944 63.8082 104.246 63.3874 104.717C63.3601 104.744 63.3367 104.776 63.3094 104.803C63.4692 104.76 63.6251 104.721 63.7848 104.678C63.3289 104.556 62.7951 103.98 62.421 103.697C62.0392 103.411 61.6573 103.124 61.2793 102.838C60.461 102.222 59.6466 101.61 58.8284 100.994C58.3179 100.618 57.8308 101.469 58.3296 101.842Z" fill="#002247"/>
<path d="M59.0193 101.383C59.8765 99.8726 60.878 98.4683 62.0352 97.1778C62.4522 96.711 61.7664 96.0128 61.3456 96.4835C60.1337 97.8368 59.0738 99.3078 58.1776 100.889C57.8698 101.438 58.7076 101.932 59.0193 101.383Z" fill="#002247"/>
<path d="M59.405 95.0518C60.0363 95.6166 60.6636 96.1815 61.2949 96.7463C61.7625 97.1661 62.4522 96.4718 61.9846 96.052C61.3533 95.4872 60.726 94.9223 60.0947 94.3575C59.6271 93.9417 58.9374 94.6321 59.405 95.0518Z" fill="#002247"/>
<path d="M61.9846 97.1351C64.4667 96.4447 66.9605 95.7936 69.4544 95.1385C70.0622 94.9777 69.805 94.0323 69.1972 94.1931C66.7033 94.8482 64.2095 95.4994 61.7274 96.1897C61.1234 96.3584 61.3767 97.3037 61.9846 97.1351Z" fill="#002247"/>
<path d="M44.0096 138.545C44.4616 141.005 44.9136 143.464 45.3656 145.92C45.4786 146.54 46.4177 146.277 46.3047 145.661C45.8527 143.201 45.4007 140.742 44.9486 138.286C44.8356 137.663 43.8966 137.926 44.0096 138.545Z" fill="#002247"/>
<path d="M77.08 143.319C75.5486 142.947 74.064 142.445 72.6223 141.797C72.0534 141.542 71.5585 142.386 72.1313 142.645C73.651 143.327 75.2057 143.872 76.8228 144.265C77.4307 144.414 77.6918 143.468 77.08 143.319Z" fill="#002247"/>
<path d="M16.8425 140.573C25.5241 135.274 33.8394 129.402 42.521 124.102C43.0549 123.777 42.5678 122.926 42.0301 123.255C33.3484 128.555 25.0331 134.427 16.3515 139.726C15.8138 140.052 16.3047 140.903 16.8425 140.573Z" fill="#002247"/>
<path d="M16.7567 149.654C23.3576 151.87 29.9584 154.091 36.5554 156.307C52.4106 161.634 68.262 166.961 84.1173 172.291C103.366 178.76 122.612 185.228 141.861 191.696C158.445 197.27 175.033 202.844 191.617 208.418C197.084 210.254 202.551 212.094 208.017 213.929C210.511 214.769 213.208 216.091 215.803 216.546C215.916 216.565 216.033 216.624 216.146 216.66C216.742 216.86 216.999 215.914 216.403 215.714C209.802 213.498 203.201 211.278 196.604 209.062C180.749 203.735 164.898 198.408 149.042 193.077C129.793 186.609 110.548 180.14 91.2987 173.672C74.7148 168.098 58.1269 162.524 41.543 156.95C36.0761 155.114 30.6091 153.275 25.1422 151.439C22.6484 150.599 19.9519 149.278 17.3568 148.823C17.2438 148.803 17.1269 148.744 17.0139 148.709C16.4177 148.509 16.1645 149.454 16.7567 149.654Z" fill="#002247"/>
<path d="M15.7164 140.471C15.8371 143.319 16.1294 146.159 16.3047 149.003C16.3437 149.63 17.3179 149.634 17.2789 149.003C17.1035 146.155 16.8113 143.319 16.6905 140.471C16.6632 139.844 15.6891 139.84 15.7164 140.471Z" fill="#002247"/>
<path d="M38.1491 254.148C40.1285 256.117 42.108 258.086 44.0875 260.055C44.5356 260.498 45.2214 259.808 44.7772 259.361C42.7977 257.392 40.8182 255.422 38.8388 253.453C38.3945 253.01 37.7049 253.7 38.1491 254.148Z" fill="#002247"/>
<path d="M182.245 204.888C179.646 226.764 177.047 248.637 174.448 270.513C173.568 277.927 172.687 285.34 171.806 292.754C171.732 293.378 172.706 293.374 172.781 292.754C175.948 266.053 179.124 239.352 182.296 212.651C182.604 210.066 182.912 207.477 183.22 204.892C183.297 204.261 182.319 204.268 182.245 204.888Z" fill="#002247"/>
<path d="M167.668 200.456C166.406 210.929 165.143 221.398 163.881 231.871C161.866 248.57 159.852 265.268 157.841 281.971C157.377 285.815 156.914 289.659 156.45 293.503C156.376 294.127 157.35 294.123 157.424 293.503C158.687 283.03 159.949 272.56 161.212 262.087C163.226 245.389 165.241 228.69 167.251 211.988C167.715 208.144 168.179 204.3 168.642 200.456C168.716 199.832 167.742 199.836 167.668 200.456Z" fill="#002247"/>
<path d="M174.651 202.605C173.31 213.427 171.97 224.246 170.626 235.068C168.475 252.422 166.32 269.779 164.161 287.133C163.666 291.098 163.296 295.723 162.626 299.395C162.532 299.897 163.055 300.179 163.44 299.873C166.413 297.504 169.609 295.437 172.582 293.071C173.073 292.679 172.379 291.989 171.892 292.377C168.919 294.746 165.724 296.814 162.751 299.179C163.023 299.34 163.292 299.497 163.565 299.657C164.15 296.468 164.383 293.177 164.785 289.965C165.747 282.253 166.702 274.545 167.66 266.833C169.823 249.409 171.986 231.985 174.144 214.565C174.639 210.58 175.134 206.594 175.625 202.609C175.703 201.981 174.729 201.985 174.651 202.605Z" fill="#002247"/>
<path d="M156.61 293.765C158.589 295.734 160.569 297.704 162.548 299.673C162.996 300.116 163.682 299.426 163.238 298.978C161.258 297.009 159.279 295.04 157.299 293.071C156.851 292.628 156.162 293.322 156.61 293.765Z" fill="#002247"/>
<path d="M106.538 211.274C103.928 206.959 101.282 202.668 98.7256 198.322C98.4061 197.78 97.5644 198.271 97.884 198.816C100.44 203.162 103.086 207.453 105.697 211.768C106.02 212.306 106.866 211.815 106.538 211.274Z" fill="#002247"/>
<path d="M88.427 176.893C87.4489 175.3 86.7475 173.59 85.7071 172.033C85.3603 171.511 84.5148 172.001 84.8655 172.527C85.9059 174.084 86.6072 175.794 87.5853 177.387C87.9126 177.924 88.7582 177.43 88.427 176.893Z" fill="#002247"/>
<path d="M61.4274 190.634C62.4054 190.936 64.8486 189.249 65.6552 188.872C68.8699 187.37 72.0651 185.832 75.2603 184.291C81.1909 181.427 87.2268 178.678 93.0015 175.496C93.551 175.194 93.06 174.347 92.5106 174.649C87.0436 177.662 81.3312 180.274 75.7123 182.988C72.5171 184.534 69.318 186.068 66.1072 187.578C65.0278 188.088 63.9446 188.594 62.8574 189.088C62.5262 189.237 62.195 189.382 61.8638 189.531C61.5716 189.661 61.3611 189.59 61.6846 189.688C61.0845 189.504 60.8273 190.449 61.4274 190.634Z" fill="#002247"/>
<path d="M113.72 213.929C114.729 213.506 115.684 212.537 116.557 211.89C118.131 210.725 119.697 209.556 121.291 208.422C121.797 208.061 121.31 207.21 120.8 207.575C119.304 208.642 117.827 209.74 116.35 210.831C115.524 211.443 114.215 212.666 113.463 212.98C112.89 213.223 113.143 214.173 113.72 213.929Z" fill="#002247"/>
<path d="M104.66 179.183C104.309 179.042 105.007 179.897 105.167 180.16C105.634 180.937 106.086 181.725 106.534 182.514C108.035 185.134 109.5 187.778 110.961 190.422C114.269 196.411 117.546 202.425 120.734 208.481C121.026 209.038 121.868 208.544 121.575 207.987C118.201 201.573 114.729 195.207 111.218 188.868C109.796 186.303 108.374 183.741 106.909 181.204C106.48 180.462 105.802 178.595 104.917 178.242C104.337 178.003 104.083 178.952 104.66 179.183Z" fill="#002247"/>
<path d="M176.767 259.086C190.475 251.108 204.39 243.494 218.25 235.79C219.602 235.037 221.172 234.382 222.419 233.452C222.918 233.079 222.431 232.228 221.928 232.605C220.935 233.346 219.684 233.872 218.605 234.472C215.834 236.014 213.06 237.551 210.289 239.093C202.722 243.294 195.163 247.507 187.623 251.759C183.831 253.9 180.044 256.046 176.28 258.239C175.734 258.553 176.221 259.4 176.767 259.086Z" fill="#002247"/>
<path d="M211.895 215.189C217.537 225.98 223.444 236.634 229.219 247.355C229.866 248.555 231.171 250.583 231.475 251.544C231.631 251.336 231.787 251.132 231.946 250.924C229.842 250.802 227.2 249.665 225.046 249.08C224.442 248.916 224.181 249.861 224.788 250.026C227.056 250.642 229.601 251.767 231.946 251.905C232.258 251.924 232.508 251.575 232.418 251.285C232.075 250.191 231.276 249.112 230.739 248.112C229.297 245.432 227.855 242.757 226.409 240.082C222.934 233.641 219.454 227.204 215.986 220.759C214.899 218.739 213.804 216.727 212.74 214.695C212.444 214.134 211.602 214.628 211.895 215.189Z" fill="#002247"/>
<path d="M179.872 233.559C191.036 228.185 201.857 222.117 213.021 216.739C213.586 216.468 213.091 215.621 212.53 215.892C201.366 221.265 190.545 227.334 179.381 232.712C178.816 232.982 179.307 233.829 179.872 233.559Z" fill="#002247"/>
<path d="M225.1 249.072C222.489 244.757 219.844 240.466 217.288 236.12C216.968 235.579 216.126 236.069 216.446 236.614C219.002 240.96 221.648 245.252 224.259 249.566C224.586 250.108 225.428 249.614 225.1 249.072Z" fill="#002247"/>
<path d="M179.993 228.432C180.893 228.706 182.966 227.251 183.714 226.898C186.691 225.498 189.653 224.066 192.61 222.626C198.14 219.936 203.751 217.331 209.14 214.362C209.689 214.06 209.198 213.212 208.649 213.514C203.568 216.315 198.28 218.774 193.066 221.316C190.148 222.736 187.229 224.152 184.295 225.541C183.294 226.016 182.288 226.49 181.279 226.949C180.991 227.079 180.702 227.212 180.41 227.334C180.133 227.451 179.942 227.385 180.25 227.479C179.65 227.302 179.393 228.251 179.993 228.432Z" fill="#002247"/>
<path d="M232.282 251.728C233.291 251.304 234.246 250.335 235.118 249.688C236.693 248.523 238.259 247.354 239.853 246.22C240.359 245.86 239.872 245.008 239.362 245.373C237.865 246.44 236.389 247.538 234.912 248.629C234.086 249.241 232.777 250.465 232.024 250.779C231.456 251.022 231.705 251.971 232.282 251.728Z" fill="#002247"/>
<path d="M109.223 279.327C110.786 276.754 112.352 274.181 113.646 271.454C113.915 270.89 113.077 270.391 112.804 270.96C111.51 273.686 109.944 276.256 108.381 278.833C108.054 279.374 108.896 279.864 109.223 279.327Z" fill="#002247"/>
<path d="M92.9236 267.88C89.4128 267.28 86.05 265.425 82.7768 264.079C79.9245 262.907 77.0605 261.95 74.0017 261.518C72.5171 261.31 70.0194 261.24 69.5985 263.154C69.1816 265.048 70.7558 267.692 71.9599 269.014C72.3846 269.481 73.0704 268.787 72.6496 268.32C71.5196 267.076 69.1699 263.115 71.7962 262.491C73.8614 262.001 76.5579 262.911 78.549 263.538C83.2834 265.037 87.7528 267.986 92.6625 268.822C93.2782 268.932 93.5431 267.986 92.9236 267.88Z" fill="#002247"/>
<path d="M83.6731 271.176C84.2537 271.843 84.5927 272.623 84.7291 273.494C84.8265 274.114 85.7655 273.851 85.6681 273.235C85.5045 272.2 85.0486 271.27 84.3628 270.485C83.9497 270.007 83.2639 270.701 83.6731 271.176Z" fill="#002247"/>
<path d="M86.8254 272.992C86.9423 273.07 87.0631 273.478 87.1216 273.607C87.2229 273.839 87.3164 274.07 87.406 274.306C87.5852 274.788 87.7333 275.282 87.8658 275.781C88.0256 276.389 88.9646 276.134 88.8049 275.522C88.6295 274.843 88.4113 274.18 88.1425 273.533C87.9398 273.046 87.7723 272.442 87.3203 272.14C86.7903 271.795 86.3033 272.646 86.8254 272.992Z" fill="#002247"/>
<path d="M90.2389 273.42C90.235 273.412 90.2272 273.408 90.2233 273.4C90.196 273.596 90.1726 273.796 90.1453 273.992C90.1531 273.984 90.157 273.977 90.1648 273.969C89.97 273.996 89.7713 274.02 89.5764 274.047C89.6972 274.137 89.8726 274.628 89.9505 274.785C90.083 275.044 90.2077 275.31 90.3207 275.581C90.5038 276.032 90.8701 276.726 90.8234 277.209C90.9052 277.068 90.9831 276.926 91.0649 276.785C91.0416 276.801 91.0143 276.82 90.9909 276.836C91.1156 276.82 91.2403 276.805 91.365 276.785C91.3377 276.777 91.3104 276.769 91.2871 276.762C91.4001 276.875 91.5131 276.989 91.6261 277.103C91.6222 277.075 91.6183 277.048 91.6144 277.02C91.5715 277.181 91.5325 277.338 91.4897 277.499C91.4234 277.527 91.3533 277.55 91.2871 277.578C91.9144 277.593 91.9144 276.613 91.2871 276.597C90.8272 276.585 90.6285 276.95 90.687 277.366C90.7104 277.527 90.8779 277.668 91.026 277.707C92.1521 278.013 91.6767 276.511 91.517 276.024C91.2325 275.153 90.8078 273.765 90.0674 273.2C89.9076 273.078 89.6037 273.125 89.479 273.278C89.4712 273.286 89.4673 273.294 89.4595 273.302C89.3309 273.451 89.2491 273.718 89.3816 273.894C89.3855 273.902 89.3933 273.906 89.3972 273.914C89.7713 274.416 90.6168 273.926 90.2389 273.42Z" fill="#002247"/>
<path d="M90.4921 293.974C91.8442 292.997 93.4301 292.581 94.9498 291.946C95.4486 291.738 97.0579 291.271 96.7267 290.428C96.4968 289.847 95.5538 290.102 95.7876 290.687C95.7993 290.718 95.811 290.749 95.8265 290.781C95.8694 290.62 95.9084 290.463 95.9512 290.302C95.3239 291.106 93.6016 291.408 92.6859 291.753C91.7351 292.114 90.8311 292.522 90.0011 293.122C89.4946 293.491 89.9816 294.342 90.4921 293.974Z" fill="#002247"/>
<path d="M87.3164 292.028C89.3855 290.718 91.4234 289.369 93.438 287.976C93.9523 287.619 93.4652 286.772 92.947 287.129C90.9363 288.521 88.8945 289.875 86.8254 291.181C86.2955 291.514 86.7826 292.366 87.3164 292.028Z" fill="#002247"/>
<path d="M84.1679 289.078C86.428 287.976 88.6256 286.768 90.7688 285.45C91.3026 285.121 90.8311 284.301 90.2778 284.603C90.2272 284.63 90.1765 284.658 90.1258 284.685C89.5725 284.987 90.0674 285.834 90.6168 285.532C90.6675 285.505 90.7181 285.477 90.7688 285.45C90.6051 285.168 90.4415 284.885 90.2778 284.603C88.1347 285.921 85.937 287.133 83.677 288.231C83.112 288.506 83.6068 289.349 84.1679 289.078Z" fill="#002247"/>
<path d="M81.0039 286.144C82.2235 285.375 83.4471 284.61 84.6667 283.842C85.5084 283.312 86.7865 282.802 87.3787 281.998C87.5424 281.774 87.4021 281.461 87.2034 281.327C87.1839 281.312 87.1644 281.3 87.141 281.284C86.9657 281.166 86.6929 281.21 86.5527 281.363C86.541 281.378 86.5254 281.39 86.5137 281.406C86.0812 281.865 86.7709 282.559 87.2034 282.1C87.2151 282.084 87.2307 282.073 87.2424 282.057C87.0475 282.084 86.8488 282.108 86.654 282.135C86.6735 282.151 86.6929 282.163 86.7163 282.178C86.6579 281.955 86.5994 281.731 86.541 281.508C86.2487 281.9 85.4071 282.226 84.9901 282.484C84.5147 282.783 84.0393 283.081 83.5679 283.379C82.5508 284.018 81.5338 284.658 80.5168 285.297C79.9791 285.63 80.4701 286.478 81.0039 286.144Z" fill="#002247"/>
<path d="M77.8593 282.888C79.8115 281.433 81.8144 280.06 83.8757 278.765C84.4056 278.432 83.9185 277.585 83.3847 277.918C81.3234 279.213 79.3205 280.585 77.3683 282.041C76.8696 282.413 77.3566 283.265 77.8593 282.888Z" fill="#002247"/>
<path d="M75.346 279.445C76.7761 278.209 78.2802 277.071 79.8622 276.036C80.3843 275.691 79.8973 274.843 79.3712 275.189C77.723 276.271 76.1526 277.46 74.6602 278.754C74.181 279.166 74.8746 279.856 75.346 279.445Z" fill="#002247"/>
<path d="M72.2132 276.047C73.3315 274.898 74.4732 273.345 76.1293 273.035C76.7449 272.921 76.4839 271.976 75.8721 272.09C74.029 272.435 72.7665 274.078 71.5235 275.353C71.0871 275.804 71.7729 276.499 72.2132 276.047Z" fill="#002247"/>
<path d="M239.583 184.259L236.304 189.165C236.313 189.029 236.321 188.892 236.329 188.755C236.668 182.588 233.605 178.991 233.605 178.991L227.993 187.388C226.537 186.345 224.125 185.449 219.196 185.412C215.167 185.381 213.333 186.461 211.845 187.339C210.734 187.993 209.815 188.534 208.32 188.417C200.562 187.801 197.008 187.585 195.582 187.993C191.358 189.209 190.193 195.38 195.828 200.04C201.462 204.7 211.963 214.628 211.963 214.628C211.963 214.628 204.813 235.849 204.162 254.897C203.5 274.294 196.63 298.163 196.63 298.163H268.869C268.869 298.163 268.869 298.162 268.869 298.159H272.649C272.649 298.159 293.488 296.802 293.488 279.284C293.488 265.57 279.979 262.405 272.462 266.3C265.947 269.677 266.73 274.828 266.73 274.828C266.73 274.828 274.57 273.396 275.451 278.338C276.377 283.533 270.919 287.846 267.213 290.127C265.062 280.816 260.626 264.616 252.843 248.032C248.969 239.779 245.922 233.566 243.643 229.043C240.226 222.269 239.263 214.51 240.927 207.1L241.544 204.338C242.125 202.38 242.997 198.874 243.218 194.858C243.557 188.692 239.583 184.259 239.583 184.259Z" fill="white"/>
<path d="M239.583 184.259L236.304 189.165C236.313 189.029 236.321 188.892 236.329 188.755C236.668 182.588 233.605 178.991 233.605 178.991L227.993 187.388C226.537 186.345 224.125 185.449 219.196 185.412C215.167 185.381 213.333 186.461 211.845 187.339C210.734 187.993 209.815 188.534 208.32 188.417C200.562 187.801 197.008 187.585 195.582 187.993C191.358 189.209 190.193 195.38 195.828 200.04C201.462 204.7 211.963 214.628 211.963 214.628C211.963 214.628 204.813 235.849 204.162 254.897C203.5 274.294 196.63 298.163 196.63 298.163H268.869C268.869 298.163 268.869 298.162 268.869 298.159H272.649C272.649 298.159 293.488 296.802 293.488 279.284C293.488 265.57 279.979 262.405 272.462 266.3C265.947 269.677 266.73 274.828 266.73 274.828C266.73 274.828 274.57 273.396 275.451 278.338C276.377 283.533 270.919 287.846 267.213 290.127C265.062 280.816 260.626 264.616 252.843 248.032C248.969 239.779 245.922 233.566 243.643 229.043C240.226 222.269 239.263 214.51 240.927 207.1L241.544 204.338C242.125 202.38 242.997 198.874 243.218 194.858C243.557 188.692 239.583 184.259 239.583 184.259Z" stroke="#002247"/>
<path d="M211.669 193.567C212.834 196.239 215.588 196.658 218.149 195.933C218.753 195.76 218.495 194.815 217.891 194.987C215.705 195.607 213.5 195.34 212.51 193.073C212.257 192.497 211.419 192.995 211.669 193.567Z" fill="#002247"/>
<path d="M206.88 298.221C210.683 292.51 213.13 286.536 214.634 279.832C216.173 272.968 217.556 265.864 217.28 258.795C217.256 258.168 216.282 258.164 216.305 258.795C216.578 265.785 215.218 272.783 213.695 279.573C212.21 286.187 209.79 292.094 206.038 297.727C205.691 298.249 206.533 298.743 206.88 298.221Z" fill="#002247"/>
<path d="M232.492 298.265C234.643 294.778 238.29 292.671 242.366 292.557C242.802 292.546 242.989 292.036 242.709 291.722C236.011 284.077 236.326 272.623 243.402 265.343C243.843 264.892 243.153 264.197 242.713 264.648C235.251 272.329 234.97 284.367 242.019 292.416C242.132 292.138 242.249 291.859 242.362 291.581C237.939 291.702 233.98 293.989 231.646 297.771C231.319 298.308 232.161 298.802 232.492 298.265Z" fill="#002247"/>
<path d="M234.464 298.484C234.807 298.135 235.146 297.786 235.488 297.437C235.773 297.147 236.046 296.766 236.47 296.703C237.09 296.613 236.825 295.668 236.213 295.758C235.726 295.829 235.375 296.162 235.04 296.499C234.616 296.927 234.199 297.362 233.774 297.79C233.334 298.241 234.023 298.935 234.464 298.484Z" fill="#002247"/>
<path d="M237.238 298.61C237.83 297.974 238.497 297.449 239.253 297.029C239.802 296.723 239.311 295.876 238.762 296.182C237.935 296.641 237.191 297.225 236.548 297.916C236.12 298.378 236.809 299.073 237.238 298.61Z" fill="#002247"/>
<path d="M200.084 298.383C200.793 297.551 201.366 296.645 201.794 295.637C202.036 295.064 201.198 294.562 200.953 295.143C200.559 296.068 200.049 296.924 199.394 297.692C198.989 298.167 199.675 298.865 200.084 298.383Z" fill="#002247"/>
<path d="M202.741 298.496C203.26 297.947 203.591 297.206 203.899 296.523C204.097 296.08 204.682 295.19 204.164 294.786C203.673 294.401 202.979 295.092 203.474 295.48C203.497 295.496 203.517 295.515 203.54 295.531C203.493 295.417 203.447 295.299 203.396 295.186C203.373 295.621 202.983 296.21 202.784 296.602C202.574 297.014 202.371 297.465 202.052 297.806C201.623 298.261 202.309 298.955 202.741 298.496Z" fill="#002247"/>
<path opacity="0.2" d="M193.565 189.955L209.377 194.56C209.377 194.56 210.503 197.317 213.403 197.804C216.302 198.29 218.717 198.937 221.457 201.048C224.196 203.154 225.162 205.586 225.162 205.586C225.162 205.586 219.688 207.857 219.205 214.18C218.721 220.504 223.405 225.493 223.405 225.493C223.405 225.493 217.186 234.39 212.44 246.914C208.621 256.988 204.39 265.331 204.39 265.331C204.39 265.331 207 224 213.403 215.5C213.403 215.5 208.898 211.909 205.999 208.504C203.1 205.1 196.581 201.248 194.738 198.588C192.143 194.838 193.565 189.955 193.565 189.955Z" fill="url(#paint1_linear)"/>
<path d="M193.939 192.308C195.301 192.308 196.406 191.197 196.406 189.825C196.406 188.454 195.301 187.342 193.939 187.342C192.577 187.342 191.472 188.454 191.472 189.825C191.472 191.197 192.577 192.308 193.939 192.308Z" fill="#002247"/>
<path d="M240.083 187.009C240.238 190.19 239.093 193.093 236.805 195.297C236.35 195.733 237.039 196.427 237.495 195.992C239.95 193.626 241.224 190.429 241.057 187.013C241.025 186.377 240.051 186.377 240.083 187.009Z" fill="#002247"/>
<path d="M233.189 183.063C233.154 185.263 232.796 189.362 230.618 190.582C230.068 190.888 230.559 191.735 231.109 191.429C233.673 189.994 234.121 185.687 234.16 183.063C234.175 182.431 233.201 182.431 233.189 183.063Z" fill="#002247"/>
<path d="M253.343 122.032C253.343 122.032 253.966 108.146 247.63 102.07C241.809 96.4877 246.212 85.9007 244.61 82.186C243.009 78.4713 238.555 76.0668 237.273 70.9008C235.991 65.7347 238.789 63.0909 236.131 59.3841C233.474 55.6772 230.376 53.0491 229.492 47.5928C228.607 42.1365 222.002 33.9775 222.002 33.9775C222.002 33.9775 231.113 40.7714 234.549 42.3915C237.982 44.0115 238.243 47.33 240.784 50.6642C243.328 53.9984 246.337 53.3394 247.829 57.7405C249.321 62.1456 245.947 63.9853 247.689 66.837C249.43 69.6887 251.979 68.5982 253.14 72.3286C254.301 76.059 250.046 76.2512 251.69 79.1774C253.331 82.0997 256.043 81.6565 255.061 88.3131C254.079 94.9697 257.925 95.9739 257.695 101.626C257.512 106.149 253.343 122.032 253.343 122.032Z" fill="#002247"/>
<path d="M259.102 126.947C259.102 126.947 260.809 124.566 262.153 123.789C269.369 119.619 265.804 114.755 267.748 112.127C269.689 109.499 273.636 108.428 275.592 104.596C277.548 100.763 275.826 98.1587 278.6 95.7306C281.375 93.3026 284.293 91.8041 285.988 87.6697C287.683 83.5353 294.382 78.3301 294.382 78.3301C294.382 78.3301 285.957 81.9938 282.957 82.6371C279.956 83.2764 279.142 85.8457 276.531 87.9992C273.917 90.1567 271.668 89.0779 269.685 92.2709C267.706 95.4639 270.024 97.5429 268.13 99.4649C266.236 101.387 264.428 100.057 262.831 102.78C261.233 105.502 264.549 106.443 262.722 108.444C260.894 110.444 258.841 109.589 258.393 115.018C257.948 120.447 254.734 120.521 253.88 125.021C253.795 125.472 253.67 126.947 253.67 126.947H259.102Z" fill="#002247"/>
<path d="M262.726 53.1588C262.726 53.1588 263.057 48.5184 261.849 45.7137C260.641 42.913 259.149 41.2773 259.113 39.0336C259.078 36.7899 258.79 36.3937 257.076 34.2951C255.357 32.1965 254.742 29.0271 254.402 25.9792C254.063 22.9314 250.919 23.6884 249.91 20.7426C248.9 17.7967 251.714 17.326 250.498 14.3213C249.282 11.3166 247.124 9.91628 246.637 5.1072C246.149 0.298116 246.746 0 246.746 0C246.746 0 246.781 3.80882 249.384 7.49997C251.987 11.1911 255.747 12.1757 257.968 14.9999C260.189 17.8242 257.609 19.0323 258.829 20.6092C260.049 22.1861 261.561 21.2329 262.632 24.0415C263.704 26.85 261.81 29.7959 262.558 31.3924C263.306 32.9928 265.325 34.3265 265.27 36.0995C265.216 37.8725 263.895 38.5433 264.37 41.5832C264.845 44.6232 262.815 53.5628 262.815 53.5628" fill="#002247"/>
<path d="M262.807 60.2313C262.807 60.2313 264.728 56.9873 264.865 54.5083C265.005 52.0331 264.51 50.2994 265.297 48.6597C266.085 47.0201 266.018 46.6278 265.535 44.4743C265.048 42.3208 265.749 39.7986 266.607 37.4608C267.464 35.1268 264.908 34.5227 265.243 32.0123C265.578 29.5018 267.791 30.1961 267.994 27.568C268.2 24.9399 267.14 23.1355 268.528 19.4679C269.915 15.8003 270.456 15.8042 270.456 15.8042C270.456 15.8042 269.104 18.5814 269.654 22.2098C270.203 25.8421 272.576 27.9367 273.165 30.8002C273.753 33.6637 271.446 33.5931 271.758 35.1857C272.074 36.7782 273.515 36.6409 273.274 39.069C273.032 41.4971 270.597 42.9406 270.558 44.3763C270.519 45.8119 271.505 47.5222 270.823 48.7852C270.141 50.0483 268.941 50.0522 268.185 52.4332C267.429 54.8142 262.722 60.553 262.722 60.553" fill="#002247"/>
<path d="M262.558 72.089C262.558 72.089 262.059 68.3469 260.637 66.3189C259.215 64.291 257.761 63.2436 257.364 61.4667C256.966 59.6898 256.674 59.423 254.964 58.0423C253.253 56.6616 252.244 54.2452 251.472 51.8799C250.701 49.5146 248.328 50.6404 247.038 48.4673C245.748 46.2942 247.911 45.4508 246.45 43.2659C244.988 41.0811 243.044 40.3279 241.863 36.5897C240.686 32.8515 241.107 32.5142 241.107 32.5142C241.107 32.5142 241.762 35.5345 244.435 38.0332C247.108 40.5319 250.26 40.6888 252.489 42.5638C254.718 44.4388 252.867 45.8274 254.095 46.8786C255.322 47.9299 256.366 46.9179 257.683 48.9733C259 51.0287 257.976 53.6804 258.833 54.8297C259.69 55.979 261.514 56.7008 261.763 58.1168C262.013 59.5329 261.07 60.2899 261.95 62.6239C262.827 64.9617 262.683 72.4029 262.683 72.4029" fill="#002247"/>
<path d="M251.542 127.468C251.484 127.468 251.429 127.46 251.371 127.441C251.063 127.347 250.888 127.017 250.981 126.707C251.059 126.444 258.981 100.183 261.05 84.6963C262.62 72.9207 262.484 57.4148 262.422 49.958C262.394 47.0278 262.391 45.8275 262.457 45.4902C262.519 45.1724 262.831 44.9645 263.143 45.0273C263.458 45.0901 263.665 45.3999 263.602 45.7177C263.556 45.9962 263.571 47.8241 263.591 49.9462C263.657 57.4266 263.793 72.9914 262.211 84.8493C260.131 100.43 252.185 126.782 252.104 127.048C252.026 127.307 251.792 127.468 251.542 127.468Z" fill="#002247"/>
<path d="M263.158 164.16H248.877C242.818 164.16 237.904 159.213 237.904 153.114V126.942H274.131V153.114C274.131 159.213 269.217 164.16 263.158 164.16Z" fill="#C8660C"/>
<path d="M238.469 133.756C239.256 133.635 239.708 133.07 240.507 133.015C241.431 132.952 241.805 133.497 242.565 133.941C243.609 134.552 244.56 134.545 245.701 134.188C246.422 133.964 247.1 133.587 247.837 133.399C249.049 133.093 249.727 133.756 250.747 134.192C252.294 134.851 253.475 133.54 255.182 134.168C256.199 134.541 256.226 134.69 257.376 134.403C258.494 134.125 259.339 134.27 260.415 134.399C260.727 134.439 261.019 134.454 261.315 134.368C261.962 134.184 262.032 133.933 262.8 133.921C263.474 133.909 263.369 133.995 263.848 134.035C264.639 134.097 265.418 134.035 266.217 133.988C268.485 133.846 270.784 133.587 273.044 133.913C273.656 133.999 273.921 133.058 273.301 132.968C271.435 132.701 269.591 132.799 267.713 132.917C266.264 133.007 264.88 133.203 263.45 132.85C263.002 132.74 262.772 132.591 262.32 132.693C261.958 132.779 262.009 132.909 261.611 133.058C260.937 133.309 260.559 133.246 259.76 133.058C259.242 132.936 258.981 132.803 258.455 132.889C257.828 132.991 257.224 133.623 256.62 133.662C255.887 133.709 255.24 132.728 254.504 132.603C254.04 132.528 253.693 132.74 253.261 132.842C252.52 133.019 252.844 133.089 251.741 133.081C250.697 133.078 250.627 132.827 249.797 132.509C248.702 132.085 247.681 132.395 246.625 132.791C245.507 133.207 244.478 133.768 243.262 133.231C242.588 132.932 242.089 132.32 241.4 132.038C239.985 131.461 239.533 132.607 238.204 132.815C237.593 132.905 237.854 133.85 238.469 133.756Z" fill="#002247"/>
<path d="M238.508 138.981C240.577 136.553 241.668 140.252 243.683 140.142C245.694 140.032 245.931 137.788 248.219 139.044C249.255 139.612 249.676 140.087 250.935 139.644C251.527 139.436 251.792 139.173 252.481 139.193C253.269 139.216 253.292 139.483 253.915 139.761C254.379 139.969 254.734 139.997 255.221 139.84C255.521 139.742 255.762 139.389 256.039 139.306C256.892 139.055 257.559 139.455 258.303 139.636C258.751 139.746 259.082 139.887 259.565 139.793C259.834 139.742 260.045 139.561 260.302 139.502C262.967 138.887 261.299 139.734 262.515 139.789C263.135 139.82 263.248 139.683 263.809 139.608C263.945 139.51 264.082 139.408 264.218 139.31C264.713 139.255 265.177 139.322 265.609 139.51C265.812 139.534 266.03 139.714 266.248 139.691C266.868 139.616 266.829 139.412 267.39 139.255C268.165 139.036 268.707 139.459 269.432 139.506C270.725 139.585 272.175 139.263 273.465 139.142C274.084 139.083 274.088 138.102 273.465 138.161C271.988 138.298 270.16 138.832 268.769 138.216C268.095 137.918 268.36 137.851 267.62 137.867C267.398 137.871 267.308 138.114 267.117 138.173C266.622 138.322 265.991 138.416 265.473 138.381C264.884 138.341 264.53 138.259 263.949 138.357C263.493 138.604 262.994 138.702 262.449 138.659C262.301 138.569 262.153 138.483 262.009 138.392C261.771 138.365 261.545 138.184 261.292 138.169C260.251 138.098 259.741 139.012 258.576 138.69C258.03 138.541 257.648 138.043 257.048 137.98C256.117 137.882 255.946 138.502 255.174 138.738C254.223 139.024 253.592 138.098 252.715 138.016C251.979 137.945 251.566 138.412 250.896 138.577C248.924 139.059 248.032 136.894 246.142 137.694C245.514 137.961 244.953 138.757 244.31 138.902C242.892 139.22 242.444 138.008 241.442 137.471C240.18 136.792 238.707 137.235 237.819 138.279C237.413 138.765 238.099 139.463 238.508 138.981Z" fill="#002247"/>
<path d="M255.03 126.244C249.208 126.425 243.387 126.605 237.565 126.786C237.304 126.794 237.078 127.005 237.078 127.276C237.102 134.568 237.125 141.86 237.152 149.152C237.164 151.98 237.082 154.977 238.321 157.594C239.471 160.022 241.571 161.744 243.714 163.254C244.228 163.615 244.716 162.768 244.205 162.407C241.622 160.587 239.33 158.48 238.551 155.283C237.826 152.322 238.122 149.05 238.115 146.026C238.091 139.773 238.072 133.525 238.048 127.272C237.885 127.437 237.725 127.598 237.561 127.762C243.383 127.582 249.204 127.402 255.026 127.221C255.657 127.205 255.657 126.225 255.03 126.244Z" fill="#002247"/>
<path d="M263.805 161.194C265.621 161.292 267.635 159.559 268.715 158.272C270.453 156.201 270.998 153.279 270.866 150.635C270.834 150.007 269.86 150.003 269.891 150.635C270.008 152.953 269.599 155.542 268.146 157.413C267.25 158.57 265.414 160.304 263.805 160.214C263.182 160.178 263.182 161.159 263.805 161.194Z" fill="#002247"/>
<defs>
<linearGradient id="paint0_linear" x1="104.492" y1="144.006" x2="36.5713" y2="257.254" gradientUnits="userSpaceOnUse">
<stop stop-color="#FF9900"/>
<stop offset="1" stop-color="#FFD467"/>
</linearGradient>
<linearGradient id="paint1_linear" x1="217.207" y1="194.013" x2="181.565" y2="224.672" gradientUnits="userSpaceOnUse">
<stop stop-color="#FF9900"/>
<stop offset="1" stop-color="#FFD467"/>
</linearGradient>
</defs>
</svg>
