<svg width="300" height="300" viewBox="0 0 300 300" fill="none" xmlns="http://www.w3.org/2000/svg">
<path opacity="0.2" d="M242.159 243.925C241.746 229.754 229.9 238.574 224.269 232.301C217.707 224.994 223.545 219.012 232.328 199.198C241.111 179.385 233.967 148.412 222.951 154.855C206.942 164.218 202.448 176.049 195.679 167.011C190.295 159.822 194.845 145.803 202.466 127.458C210.463 108.206 248.643 72.8188 233.498 58.5372C220.294 46.0859 201.484 57.7954 184.28 78.0443C184.258 79.0924 184.276 80.2844 184.402 81.3066C184.708 83.7607 184.586 89.1301 184.42 89.6468C184.254 90.1634 186.276 87.0192 187.612 85.3992C188.948 83.7791 191.343 82.303 191.343 82.303C191.343 82.303 192.963 99.6181 193.454 102.223C193.945 104.829 195.576 113.191 196.757 122.236C197.938 131.281 192.543 136.333 192.543 136.333C192.543 136.333 192.543 137.57 192.188 138.274C191.834 138.979 192.011 139.566 192.484 139.625C192.952 139.684 193.248 140.917 192.952 141.799C192.657 142.681 192.129 143.208 191.893 144.681C191.657 146.15 190.657 147.091 190.365 147.737C190.07 148.382 190.306 150.678 188.956 151.087C187.605 151.501 181.726 148.914 181.195 149.264C180.667 149.619 183.782 164.314 184.018 166.019C184.254 167.723 183.313 169.015 181.726 170.838C180.139 172.661 178.124 173.067 178.124 173.067L179.649 163.384C179.649 163.384 168.895 155.734 164.404 154.457C159.913 153.18 149.558 153.778 147.074 153.778C146.21 153.778 144.871 153.468 143.35 152.969C139.704 164.365 136.527 173.927 125.489 185.526C169.899 192.301 134.065 234.677 145.398 249.265C153.344 259.491 161.507 257.875 166.828 263.403C171.242 267.99 173.331 278.375 165.909 286.756C176.98 288.313 187.568 288.173 195.698 286.036C218.091 280.165 242.602 259.115 242.159 243.925Z" fill="url(#paint0_linear)"/>
<path d="M72.3185 231.441C97.3833 214.639 93.5306 182.828 120.09 184.921C122.009 185.072 123.803 185.279 125.485 185.537C122.88 188.275 119.843 191.124 116.252 194.139C106.096 202.671 99.8263 225.466 100.956 237.154C102.199 250.063 106.963 259.477 118.086 268.234C130.235 277.796 148.657 284.342 165.906 286.771C163.256 289.763 159.396 292.502 153.997 294.627C89.8476 319.884 46.3348 248.856 72.3185 231.441Z" fill="#D7DBFF"/>
<path d="M100.956 237.146C99.8304 225.459 106.097 202.664 116.252 194.131C119.839 191.116 122.88 188.268 125.486 185.529C169.895 192.305 134.062 234.681 145.395 249.269C153.34 259.495 161.503 257.879 166.825 263.407C171.239 267.994 173.327 278.378 165.906 286.759C148.661 284.335 130.235 277.784 118.087 268.223C106.964 259.469 102.2 250.059 100.956 237.146Z" fill="#6877FF"/>
<path fill-rule="evenodd" clip-rule="evenodd" d="M214.22 220.964C216.375 223.116 219.239 224.304 222.287 224.304C225.335 224.304 228.202 223.119 230.354 220.964C232.505 218.809 233.694 215.945 233.694 212.897C233.694 209.849 232.509 206.985 230.354 204.83C228.199 202.679 225.335 201.49 222.287 201.49C219.239 201.49 216.375 202.675 214.22 204.83C212.068 206.985 210.88 209.849 210.88 212.897C210.88 215.945 212.064 218.809 214.22 220.964ZM215.22 205.83C217.105 203.944 219.618 202.904 222.287 202.904C224.955 202.904 227.464 203.944 229.354 205.83C231.239 207.716 232.28 210.229 232.28 212.897C232.28 215.565 231.243 218.078 229.354 219.964C227.464 221.85 224.955 222.891 222.287 222.891C219.618 222.891 217.105 221.854 215.22 219.964C213.334 218.075 212.293 215.565 212.293 212.897C212.293 210.229 213.33 207.716 215.22 205.83Z" fill="#D7DBFF"/>
<path d="M165.747 249.213C168.935 249.213 171.519 246.629 171.519 243.442C171.519 240.254 168.935 237.67 165.747 237.67C162.559 237.67 159.975 240.254 159.975 243.442C159.975 246.629 162.559 249.213 165.747 249.213Z" fill="white"/>
<path d="M142.135 26.3513C142.788 25.6391 142.938 24.7146 142.471 24.2863C142.004 23.858 141.096 24.0881 140.443 24.8003C139.79 25.5125 139.64 26.437 140.107 26.8653C140.574 27.2936 141.482 27.0635 142.135 26.3513Z" fill="#6877FF"/>
<path d="M138.268 40.0225C138.268 40.0225 140.918 40.0889 144.431 38.1662C147.945 36.2436 150.993 33.1289 150.993 33.1289L151.705 42.3843C151.705 42.3843 149.875 43.2995 145.97 42.8124C141.088 42.2035 138.77 41.1037 138.77 41.1037L138.268 40.0225Z" fill="#6877FF"/>
<path d="M139.542 236.131C139.542 236.131 144.52 226.798 146.18 224.724C147.841 222.65 158.835 207.405 162.152 202.84C165.47 198.275 172.419 187.905 174.183 184.898C175.947 181.89 177.397 176.288 178.124 173.074C178.851 169.86 179.681 162.911 179.681 162.911C179.681 162.911 169.518 156.895 168.791 156.065C168.064 155.235 162.049 154.198 155.203 153.888C148.358 153.578 143.796 153.681 142.239 152.851C140.682 152.021 139.327 151.253 139.327 151.253L147.527 175.978C147.527 175.978 136.121 192.053 133.733 195.474C131.349 198.895 125.437 209.166 124.4 211.55C123.363 213.933 122.326 216.218 122.326 216.218L120.979 215.594L116.831 225.654C116.831 225.654 117.351 226.691 120.979 227.728C124.61 228.765 127.408 229.075 129.589 229.802C131.766 230.529 133.84 230.839 135.397 232.289C136.947 233.743 139.542 236.131 139.542 236.131Z" fill="#6877FF"/>
<path d="M145.365 165.531C145.365 165.531 138.431 168.373 128.924 167.324C119.418 166.28 107.624 161.501 107.624 161.501L113.347 170.159L114.292 170.059L117.776 175.233C117.776 175.233 113.296 177.222 110.661 179.713C108.022 182.2 104.738 184.688 102.203 186.134C99.6673 187.581 97.4753 189.072 97.4753 189.072L93.0469 183.448L93.1945 181.805C93.1945 181.805 81.5514 171.306 81.4001 171.155C81.2525 171.007 68.3105 158.914 64.7308 153.438C61.1512 147.961 57.3169 142.44 58.4093 137.713C59.5053 132.986 63.3359 127.661 70.5025 127.712C77.6692 127.764 91.353 131.045 93.2941 131.742C95.2352 132.44 100.21 134.082 100.21 134.082L102.45 136.82C102.45 136.82 113.746 138.263 115.687 138.96C117.628 139.658 129.622 145.43 132.308 147.024C134.995 148.618 140.519 151.851 140.519 151.851L145.365 165.531Z" fill="#6877FF"/>
<path opacity="0.2" d="M135.394 232.293C135.394 232.293 121.485 245.627 120.237 247.667C118.99 249.708 116.075 253.31 114.938 258.724C113.801 264.137 113.801 284.39 113.801 284.39C113.801 284.39 113.067 286.863 112.263 287.066C111.462 287.265 106.38 286.999 104.041 285.261C101.701 283.523 100.096 281.652 97.3573 273.43C94.6191 265.208 91.8771 255.114 91.8771 255.114C91.8771 255.114 93.1466 253.177 93.8146 252.576C94.4825 251.974 96.7558 250.502 98.0917 249.634C99.4276 248.767 104.708 246.357 105.244 245.826C105.779 245.291 111.528 238.674 112.595 236.666C113.665 234.663 118.477 226.976 118.477 226.976C118.477 226.976 120.817 227.979 124.094 228.514C127.371 229.05 129.375 229.452 131.246 230.12C133.117 230.788 135.394 232.293 135.394 232.293Z" fill="url(#paint1_linear)"/>
<path opacity="0.2" d="M115.248 176.64C115.248 176.64 115.886 180.116 120.551 184.688C125.216 189.261 132.899 196.671 132.899 196.671C132.899 196.671 128.485 203.033 126.393 207.58C124.3 212.126 122.326 216.215 122.326 216.215L120.979 215.591L116.931 225.042C116.931 225.042 112.067 227.552 109.974 228.179C107.882 228.806 106.679 229.223 106.679 229.223C106.679 229.223 103.018 224.467 103.332 223.784C103.646 223.105 106.782 221.274 107.62 220.071C108.458 218.868 114.001 209.613 114.89 206.528C115.779 203.443 116.931 201.35 116.772 200.513C116.613 199.675 114.838 198.106 114.473 197.844C114.108 197.582 101.14 186.969 101.14 186.969C101.14 186.969 105.531 184.722 106.786 183.622C108.041 182.522 111.388 179.179 112.905 177.92C114.418 176.677 115.248 176.64 115.248 176.64Z" fill="url(#paint2_linear)"/>
<path d="M125.647 67.1575C125.647 67.1575 127.511 63.7107 129.319 62.0722C131.128 60.4337 131.637 59.81 133.84 59.19C136.043 58.57 137.796 57.2673 138.246 56.8171C138.7 56.3632 137.342 58.7398 137.512 60.4337C137.682 62.1275 138.53 62.8619 138.416 63.9948C138.302 65.1241 136.777 67.6114 136.777 67.6114C136.777 67.6114 137.342 67.7258 137.796 68.7997C138.246 69.8736 138.305 70.2684 139.15 70.1577C139.995 70.047 141.748 70.0433 142.597 68.4048C143.446 66.7663 143.841 65.8068 145.763 64.9027C147.686 63.9985 150.34 62.8102 152.377 60.2122C154.41 57.6142 155.938 54.8428 157.576 53.9386C159.215 53.0345 161.532 52.5252 163.226 50.3221C164.92 48.119 168.031 44.7275 168.031 44.7275C168.031 44.7275 167.182 51.396 165.374 53.1489C163.566 54.9018 161.643 56.7101 161.078 58.9686C160.514 61.2308 161.078 63.0944 160.289 64.5078C159.499 65.9212 157.122 66.9951 155.938 68.6336C154.753 70.2721 153.45 72.9292 154.015 73.7743C154.58 74.623 155.539 74.9626 156.277 74.2282C157.012 73.4938 159.669 69.4233 161.252 68.5192C162.835 67.6151 163.455 66.4268 164.189 65.3529C164.924 64.279 165.603 63.9948 167.241 63.5446C168.88 63.0907 170.463 62.301 172.781 60.6071C175.098 58.9132 176.567 58.2342 177.98 57.6105C179.394 56.9906 180.862 55.7469 181.427 54.3335C181.992 52.9201 182.331 51.4514 185.553 50.6616C188.774 49.8719 193.07 50.2667 195.273 48.8533C197.476 47.4399 200.303 45.8568 200.303 45.8568C200.303 45.8568 199.624 48.2297 199.683 49.3589C199.738 50.4882 199.063 51.2816 198.214 52.5252C197.366 53.7689 196.351 55.2376 196.631 56.4259C196.912 57.6142 198.045 59.1937 197.48 60.2122C196.915 61.2308 196.521 62.5298 195.107 63.4893C193.694 64.4488 192.17 65.2975 191.546 68.4639C190.926 71.6302 190.247 73.2687 191.771 73.7189C193.295 74.1728 195.162 74.8482 195.162 74.8482C195.162 74.8482 192.45 76.4313 192.225 77.2764C192 78.1215 192.17 79.8744 191.605 81.0073C191.04 82.1366 184.427 89.6538 184.427 89.6538L184.088 77.8447L184.427 75.4165C184.427 75.4165 177.408 76.5236 173.338 78.4241C169.267 80.3246 166.256 81.5387 162.776 80.9557C159.296 80.3763 155.1 82.5167 153.76 83.4098C152.421 84.3028 148.941 88.0079 145.014 86.3989C141.088 84.7936 139.213 83.4983 138.811 82.9189C138.409 82.3396 138.364 77.9185 138.051 76.9369C137.737 75.9553 136.353 73.6783 133.633 72.9218C130.91 72.1616 129.526 70.8257 129.26 69.8883C128.991 68.951 128.411 68.1908 128.411 68.1908L125.647 67.1575Z" fill="#D7DBFF"/>
<path d="M137.785 75.7596C137.785 75.7596 138.066 75.147 138.9 75.3426C139.734 75.5382 140.21 76.2615 141.073 75.815C141.937 75.3685 142.272 74.7817 143.025 73.9735C143.778 73.1653 144.867 72.7742 145.701 72.2464C146.535 71.7187 147.457 70.3791 148.432 68.7332C149.406 67.0873 149.686 66.5043 150.967 65.888C152.251 65.2754 153.923 64.6037 154.842 63.7697C155.761 62.932 157.964 59.393 157.964 59.393C157.964 59.393 158.075 61.2049 157.517 62.6552C156.96 64.1055 156.654 65.0244 155.539 65.6924C154.425 66.3603 153.421 66.6666 152.89 67.615C152.358 68.5635 151.358 69.1207 151.384 71.7704C151.413 74.42 151.469 74.7263 150.602 75.8704C149.734 77.0144 148.398 79.0219 148.679 79.6603C148.959 80.2988 153.698 81.2214 155.259 80.2471C156.82 79.2729 159.163 77.9886 160.639 77.8225C162.115 77.6565 165.824 77.6011 166.883 76.232C167.943 74.8666 168.083 71.9401 170.035 70.6301C171.987 69.32 175.024 68.3162 176.168 67.8143C177.312 67.3124 179.18 66.2533 180.183 64.3565C181.187 62.4596 181.549 61.5407 183.221 60.7879C184.892 60.0351 187.738 58.8652 187.738 58.8652C187.738 58.8652 186.623 62.1533 185.645 63.242C184.671 64.3306 183.246 65.5263 183.472 66.4194C183.697 67.3124 184.782 68.6779 185.199 69.6263C185.616 70.5747 185.616 71.0766 185.616 71.0766L188.151 69.7924C188.151 69.7924 188.04 72.2169 187.679 73.2207C187.317 74.2245 186.955 75.7006 186.815 76.7339C186.675 77.7672 185.59 80.1364 185.224 80.6088C184.863 81.0811 184.387 81.3062 184.387 81.3062C184.387 81.3062 184.106 77.4018 184.416 76.3427C184.726 75.2836 183.634 75.5604 182.94 75.7301C182.243 75.8962 175.216 77.5716 171.817 79.1326C168.415 80.6936 164.595 81.6125 161.865 81.0848C159.134 80.5571 154.617 83.0924 153.137 83.9301C151.657 84.7678 148.369 87.1628 145.915 86.6609C143.461 86.159 140.003 83.7898 139.335 83.4282C138.667 83.0665 138.331 81.7269 138.331 80.7785C138.331 79.8301 137.785 75.7596 137.785 75.7596Z" fill="#6877FF"/>
<path d="M144.306 5.48145C138.335 5.47407 134.449 10.3822 132.146 15.3568C129.651 20.7447 128.507 26.8117 129.02 32.7384C129.22 35.0338 129.703 37.4878 131.522 39.0784C133.279 40.6136 135.737 40.9346 137.977 40.6578C143.095 40.0268 148.254 37.4288 151.332 33.2476C151.683 32.7679 150.886 32.3066 150.535 32.7826C147.771 36.5357 143.313 38.7352 138.803 39.595C136.091 40.1117 132.792 39.8533 131.172 37.2664C129.888 35.2109 129.84 32.4837 129.829 30.1367C129.806 25.2248 130.869 20.2834 132.939 15.8255C135.102 11.1683 138.66 6.40035 144.302 6.40773C144.9 6.40404 144.9 5.48145 144.306 5.48145Z" fill="#002247"/>
<path d="M133.947 19.7258C133.611 20.8587 133.364 22.9438 132.187 23.335C131.345 23.6154 130.663 24.0029 130.563 24.9772C130.382 26.7781 132.593 27.1471 133.711 26.1433C134.154 25.7448 133.5 25.0953 133.058 25.4901C132.784 25.7374 132.264 25.8998 131.906 25.73C131.102 25.3462 131.556 24.5159 132.216 24.3055C132.703 24.1505 132.999 24.2871 133.353 23.8922C134.187 22.9622 134.493 21.1208 134.836 19.9694C135.006 19.4011 134.117 19.1575 133.947 19.7258Z" fill="#002247"/>
<path d="M152.528 27.509C153.078 26.9444 154.148 26.3244 154.377 28.1769C154.454 28.8006 154.052 29.583 153.757 30.0922C153.126 31.1883 152.207 32.0223 150.996 32.4098C150.432 32.5906 150.675 33.48 151.24 33.2991C153.369 32.6164 155.436 30.3321 155.281 27.974C155.218 27.0366 154.768 26.2432 153.786 26.0993C152.875 25.9664 152.458 26.2543 151.871 26.8558C151.461 27.2802 152.111 27.9334 152.528 27.509Z" fill="#002247"/>
<path d="M150.317 3.44029C147.505 -1.32026 141.42 -0.501004 137.361 2.05641C133.157 4.70608 130.331 8.96105 128.375 13.4411C126.131 18.5744 124.245 24.5195 124.323 30.1658C124.367 33.4428 125.293 36.5944 125.777 39.8123C126.345 43.5913 125.817 47.2336 125.131 50.9646C125.024 51.544 125.913 51.7949 126.02 51.2081C126.515 48.5326 127.02 45.8239 126.987 43.0894C126.958 40.5246 126.389 38.0188 125.906 35.5094C124.729 29.3945 125.71 23.763 127.655 17.9101C129.157 13.3895 131.235 8.86141 134.626 5.43676C138.243 1.78332 146.037 -1.99559 149.52 3.90527C149.823 4.41823 150.62 3.95324 150.317 3.44029Z" fill="#002247"/>
<path d="M150.133 4.01241C153.609 2.6027 157.211 3.87956 160.322 5.61771C163.994 7.66585 166.743 10.441 169.611 13.4523C174.622 18.7111 180.77 21.4862 188.062 21.6781C188.656 21.6929 188.656 20.7703 188.062 20.7555C183.936 20.6448 179.825 19.7333 176.205 17.6962C172.629 15.685 170.135 12.5113 167.271 9.66602C163.127 5.5439 155.986 0.646813 149.882 3.12304C149.347 3.34446 149.583 4.23752 150.133 4.01241Z" fill="#002247"/>
<path d="M128.496 67.896C120.378 64.1023 111.137 65.6375 102.723 62.9915C102.505 62.9251 102.192 63.0727 102.155 63.3126C100.479 74.7121 98.8038 86.1116 97.132 97.511C97.0472 98.0904 97.9365 98.3414 98.0214 97.7546C99.6968 86.3551 101.372 74.9556 103.044 63.5562C102.856 63.6632 102.664 63.7702 102.476 63.8772C110.801 66.4974 120.012 64.94 128.028 68.6894C128.566 68.9404 129.035 68.147 128.496 67.896Z" fill="#002247"/>
<path d="M128.175 68.5273C128.714 70.878 130.334 72.6051 132.644 73.2878C134.279 73.7713 135.77 73.8635 136.785 75.4135C137.645 76.7235 137.837 78.41 137.825 79.9415C137.818 80.9342 137.508 82.1631 138.04 83.082C138.505 83.8865 139.291 83.9935 140.091 84.3146C142.789 85.4032 144.258 87.5732 147.457 87.0491C150.387 86.5657 152.602 84.4474 155.13 83.082C156.746 82.2074 158.528 81.5653 160.366 81.3918C162.141 81.2258 163.842 81.7756 165.606 81.7387C168.404 81.6797 170.994 80.019 173.496 78.9378C177.124 77.3694 180.881 76.1368 184.837 75.7899C184.704 75.5574 184.571 75.3286 184.438 75.0961C183.601 76.9007 183.508 78.7311 183.63 80.6944C183.785 83.1189 183.951 85.477 183.763 87.9053C183.383 92.7692 182.18 97.5223 181.682 102.368C181.187 107.162 181.877 111.649 182.77 116.343C183.276 119.008 183.708 121.687 183.671 124.41C183.634 127.211 183.18 129.986 182.733 132.743C182.641 133.322 183.527 133.573 183.623 132.987C184.353 128.466 184.9 124.034 184.239 119.469C183.512 114.413 182.143 109.545 182.438 104.386C182.707 99.6295 183.844 94.976 184.438 90.256C184.733 87.9053 184.888 85.5398 184.748 83.1706C184.597 80.5947 184.102 77.9893 185.235 75.55C185.368 75.2659 185.217 74.823 184.837 74.8562C181.774 75.1219 178.829 75.8711 175.95 76.945C173.065 78.0225 170.264 79.8087 167.282 80.5541C165.57 80.9822 163.994 80.5836 162.285 80.4471C160.968 80.3401 159.639 80.4803 158.359 80.8014C155.617 81.4878 153.425 83.1005 151.055 84.5508C149.598 85.4438 147.955 86.2705 146.199 86.2225C144.394 86.1745 143.309 85.1154 141.896 84.2113C140.619 83.3957 138.855 83.2555 138.674 81.4177C138.56 80.2552 138.785 79.0854 138.608 77.9045C138.346 76.1921 137.645 74.4208 136.128 73.4428C135.132 72.8007 133.991 72.7232 132.888 72.3837C130.862 71.76 129.533 70.3245 129.061 68.2653C128.935 67.7043 128.042 67.9479 128.175 68.5273Z" fill="#002247"/>
<path d="M126.456 66.8999C128.559 64.1321 130.364 60.5488 134.002 59.652C135.427 59.3014 136.53 58.9767 137.6 57.9249C138.807 56.7403 139.638 55.2679 141.084 54.3306C140.9 54.0907 140.711 53.8471 140.527 53.6072C138.97 55.3823 137.313 57.2976 137.006 59.7295C136.888 60.6743 136.966 61.6411 137.331 62.5268C137.457 62.8479 137.623 63.1505 137.829 63.4273C138.206 64.1506 138.136 64.7669 137.615 65.2761C137.268 66.0548 136.589 66.8076 136.113 67.5162C135.94 67.7782 136.124 68.1029 136.39 68.1952C137.338 68.472 137.848 69.1252 137.91 70.1548C137.929 70.4205 138.106 70.5939 138.372 70.6161C139.848 70.7489 141.272 70.3651 142.42 69.4019C143.704 68.328 143.937 66.5013 145.324 65.5972C146.904 64.5676 148.705 63.9218 150.295 62.9069C151.797 61.9474 152.897 60.6964 153.904 59.2387C154.938 57.7441 156.012 55.6923 157.51 54.6332C158.92 53.6405 160.632 53.1755 162.034 52.1016C164.732 50.0387 166.548 47.0421 168.644 44.422C168.385 44.2707 168.131 44.1231 167.872 43.9717C166.924 47.2488 166.47 51.6993 163.75 53.9431C161.543 55.7624 160.27 58.604 159.698 61.3754C159.591 61.8958 159.628 62.3202 159.661 62.8331C159.754 64.1912 159.695 64.7521 158.613 65.5603C157.598 66.3205 156.495 66.874 155.628 67.8188C153.923 69.6824 153.177 72.1734 153.484 74.6644C153.51 74.8747 153.609 75.0482 153.823 75.1109C156.222 75.8158 157.68 73.7713 158.713 71.9298C159.551 70.4352 160.392 69.6676 161.805 68.7746C162.872 68.0992 163.492 67.4571 164.042 66.3242C165.053 64.2502 166.429 64.3166 168.359 63.7889C169.312 63.5269 170.105 63.0656 170.887 62.4604C172.116 61.512 173.172 60.4491 174.596 59.7775C175.725 59.2424 176.925 58.8734 178.061 58.3493C179.039 57.8991 179.977 57.3419 180.696 56.5226C181.538 55.5631 181.848 54.3379 182.49 53.2604C184.136 50.5 188.121 50.8875 190.889 50.3118C196.163 49.2157 201.174 46.7912 204.425 42.3775C204.145 42.2594 203.864 42.1413 203.584 42.0232C202.879 43.7872 200.967 44.5142 199.857 45.9572C198.713 47.4444 199.613 48.7065 199.133 50.3228C198.639 51.9761 196.875 52.9356 196.203 54.5151C195.539 56.0798 196.199 57.3751 196.746 58.8697C197.845 61.8699 194.982 62.394 193.291 63.9476C191.985 65.1506 191.048 66.7781 190.612 68.4978C190.24 69.9629 190.081 71.9298 190.741 73.3432C191.616 75.2142 193.565 73.8267 194.768 75.0445C194.768 74.8267 194.768 74.609 194.768 74.3913C193.749 75.3286 191.756 76.5538 191.24 77.8381C191.085 78.2292 191.177 78.2551 191.151 78.6499C191.125 79.0633 191.218 79.6205 191.199 80.0264C191.144 81.1963 190.86 81.521 190.051 82.3108C187.715 84.6025 185.597 86.7872 183.741 89.5033C183.405 89.9941 184.206 90.4554 184.538 89.9682C185.568 88.4589 186.649 86.9901 187.893 85.6468C189.04 84.4069 190.487 83.4031 191.535 82.082C192.133 81.3291 192.476 80.5911 192.439 79.6316C192.402 78.5429 192.236 77.9709 193.148 77.1295C193.904 76.432 194.661 75.7383 195.421 75.0408C195.605 74.871 195.591 74.561 195.421 74.3876C195.015 73.978 194.679 73.823 194.111 73.7196C193.801 73.6643 193.45 73.7381 193.148 73.6717C192.291 73.4835 191.609 72.9114 191.354 72.0405C190.797 70.1363 191.649 67.6269 192.701 66.0585C194.458 63.4383 199.059 62.7519 197.731 58.8697C197.403 57.9176 196.893 57.0651 196.882 56.0355C196.871 54.8103 197.51 54.0759 198.266 53.1829C199.037 52.275 199.941 51.3488 200.133 50.1199C200.299 49.0607 199.764 48.0274 200.263 47.0052C200.606 46.3077 201.288 45.7911 201.868 45.3077C202.945 44.4072 203.946 43.6064 204.481 42.2742C204.691 41.7502 203.92 41.5324 203.639 41.9199C201.477 44.8574 198.421 46.8982 195.026 48.1751C191.989 49.3191 188.893 49.5479 185.756 50.1937C184.59 50.4335 183.423 50.8358 182.553 51.6846C181.564 52.6551 181.254 53.991 180.56 55.1461C178.918 57.877 175.327 58.0652 172.847 59.7C171.522 60.5709 170.496 61.8699 169.05 62.5526C167.762 63.1579 166.245 63.0176 164.987 63.6819C163.702 64.3646 163.555 65.6488 162.772 66.7449C161.857 68.0254 160.185 68.424 159.141 69.5975C158.174 70.6788 157.783 72.1475 156.809 73.2177C156.063 74.037 154.303 75.0555 154.336 73.3727C154.362 72.225 154.654 71.1143 155.178 70.0957C155.967 68.5605 157.163 67.6675 158.562 66.7338C159.407 66.1729 160.388 65.5234 160.713 64.5011C160.846 64.0841 160.794 63.8147 160.787 63.3867C160.761 62.0028 160.75 60.9769 161.204 59.6373C161.96 57.4083 163.005 55.8104 164.795 54.3084C165.939 53.3489 166.426 52.2861 166.85 50.869C167.514 48.6585 168.134 46.4369 168.777 44.219C168.898 43.802 168.304 43.3997 168.005 43.7688C166.068 46.1933 164.385 48.9316 162.001 50.9576C160.573 52.1717 158.968 52.6625 157.392 53.5888C156.248 54.2604 155.524 55.386 154.772 56.4414C153.683 57.9655 152.679 59.7148 151.303 60.9953C149.875 62.3202 148.055 63.0767 146.354 63.9697C145.203 64.575 144.014 65.1507 143.361 66.3205C142.808 67.3132 142.575 68.221 141.56 68.9185C140.608 69.5754 139.519 69.7931 138.383 69.6935C138.538 69.8485 138.689 69.9998 138.844 70.1548C138.744 68.745 137.992 67.7597 136.645 67.3058C136.737 67.5309 136.829 67.756 136.921 67.9848C137.575 67.0106 138.733 65.826 139.077 64.6857C139.324 63.8627 138.911 63.4457 138.497 62.7482C136.67 59.6557 139.221 56.5042 141.191 54.2604C141.52 53.8877 141.095 53.2345 140.634 53.5371C139.328 54.3822 138.479 55.6 137.46 56.744C136.689 57.6113 135.892 58.2349 134.763 58.5523C133.873 58.7996 132.999 58.914 132.161 59.3273C129.223 60.7702 127.574 63.9328 125.673 66.4349C125.301 66.9073 126.101 67.3649 126.456 66.8999Z" fill="#002247"/>
<path d="M138.021 76.0919C138.951 74.9774 139.955 76.5864 140.936 76.627C141.641 76.6565 142.066 76.1952 142.468 75.6417C142.966 74.9516 143.206 74.1139 143.94 73.5935C144.568 73.1507 145.406 73.04 146.07 72.6562C147.125 72.051 147.701 71.0693 148.243 70.0176C148.967 68.6189 149.72 67.486 151.03 66.5745C152.074 65.8475 153.229 65.2976 154.303 64.6186C155.148 64.0835 155.964 63.482 156.587 62.6886C157.333 61.7328 157.956 58.8912 159.355 58.7104C159.248 58.4483 159.137 58.1863 159.03 57.9243C158.159 58.6255 157.864 59.4927 157.661 60.574C157.536 61.253 157.632 62.1092 157.303 62.7181C157.023 63.2384 156.432 63.7108 156.056 64.1721C155.58 64.7515 155.148 65.2976 154.447 65.6593C154.041 65.8696 153.665 65.9656 153.292 66.2571C152.336 67.0063 151.653 68.2573 151.31 69.4013C150.886 70.811 151.17 72.0731 151.174 73.505C151.181 75.435 149.155 76.1731 148.446 77.8153C148.184 78.4242 147.786 79.6605 148.28 80.2878C148.819 80.9705 150.517 80.8893 151.317 80.9558C152.827 81.0776 154.325 81.0037 155.742 80.4317C157.237 79.8265 158.506 78.8117 160.1 78.4353C162.521 77.8633 165.44 78.2803 167.322 76.3207C168.26 75.3464 168.566 74.0105 169.134 72.8296C169.836 71.3609 170.972 70.4457 172.426 69.774C174.526 68.8035 176.936 68.3975 178.818 66.9915C179.744 66.2977 180.309 65.4785 180.766 64.423C181.608 62.4745 182.375 61.4781 184.328 60.6367C186.505 59.7031 189.029 59.1311 190.221 56.8689C190.465 56.4076 189.885 55.9463 189.498 56.3116C188.42 57.3228 187.298 58.3819 186.627 59.7215C186.28 60.4116 186.199 61.1275 185.959 61.8508C185.649 62.7882 184.962 63.3491 184.28 64.0097C183.586 64.6813 182.87 65.3936 182.855 66.4195C182.829 68.1576 185.7 69.3976 184.977 71.1468C184.841 71.479 185.235 71.8074 185.545 71.7151C187.365 71.1653 188.734 70.025 189.568 68.309C189.826 67.7775 189.099 67.3421 188.771 67.844C188.195 68.7149 187.822 69.5821 187.704 70.6228C187.594 71.5971 187.701 72.324 187.295 73.3057C187.106 73.7596 186.874 74.0954 186.734 74.5825C186.442 75.6306 186.582 76.7525 186.236 77.7821C185.87 78.8633 184.999 80.1956 184.029 80.7897C183.523 81.0997 183.988 81.8968 184.494 81.5868C185.844 80.7602 186.988 78.9519 187.295 77.3983C187.461 76.5458 187.368 75.6712 187.623 74.8261C187.804 74.2209 188.206 73.6821 188.402 73.0806C188.944 71.4088 188.498 69.9216 189.564 68.3016C189.298 68.1466 189.033 67.9916 188.767 67.8366C188.033 69.3496 186.922 70.3313 185.294 70.8221C185.483 71.0103 185.675 71.2022 185.863 71.3904C186.228 70.501 186.036 69.7224 185.486 68.9437C185.269 68.6374 184.97 68.4086 184.748 68.1097C184.331 67.5524 183.789 66.4195 183.988 65.6999C184.15 65.1094 185.195 64.4415 185.604 64.0281C186.427 63.1978 186.712 62.445 187.022 61.3305C187.535 59.4964 188.789 58.2306 190.144 56.9574C189.904 56.7729 189.66 56.5847 189.42 56.4002C187.527 60.002 182.084 59.0868 180.301 63.0207C179.656 64.4488 179.279 65.6002 177.921 66.4896C176.88 67.1723 175.677 67.5672 174.515 67.9805C172.792 68.5968 170.939 69.2057 169.603 70.5195C167.632 72.4606 167.813 75.793 164.839 76.7451C162.566 77.4721 160.171 77.151 157.975 78.2212C156.465 78.9593 155.166 79.8487 153.454 80.0258C152.631 80.1107 151.819 80.0775 150.996 80C149.767 79.8819 148.723 80.0664 149.133 78.6124C149.568 77.0809 151 76.6307 151.716 75.3575C152.351 74.2209 151.971 72.9772 151.937 71.7631C151.878 69.7519 152.738 67.3827 154.69 66.5413C155.484 66.1981 156 66.1021 156.525 65.3604C156.894 64.8363 157.13 64.3381 157.554 63.851C157.827 63.5373 158.082 63.2642 158.233 62.8694C158.798 61.3785 158.255 59.7215 159.68 58.5738C159.975 58.3339 159.743 57.7361 159.355 57.7878C158.274 57.928 157.894 58.5111 157.355 59.4078C156.513 60.8028 156.026 62.2199 154.683 63.2421C152.628 64.8068 150.004 65.5965 148.446 67.7739C147.299 69.3755 146.996 71.2834 145.011 72.1358C143.9 72.6156 143.036 72.9366 142.354 73.9847C141.826 74.8003 141.597 75.8151 140.449 75.4498C140.066 75.328 139.745 74.9811 139.35 74.8446C138.516 74.5567 137.929 74.7671 137.368 75.4387C136.992 75.8926 137.641 76.5458 138.021 76.0919Z" fill="#002247"/>
<path d="M125.12 51.6988C126.585 52.0715 127.725 52.9941 129.249 53.2746C130.434 53.4923 131.714 53.6621 132.895 53.3668C133.471 53.2229 133.227 52.3335 132.652 52.4775C131.419 52.7838 129.958 52.5291 128.751 52.2265C127.544 51.9239 126.57 51.1194 125.367 50.8094C124.788 50.6618 124.544 51.5512 125.12 51.6988Z" fill="#002247"/>
<path d="M112.484 65.2133C114.661 62.154 117.322 60.1427 120.802 58.792C124.337 57.4229 127.821 55.9394 131.238 54.3046C132.98 53.4706 134.703 52.6033 136.412 51.6955C137.493 51.1198 139.298 50.5404 139.936 49.4149C140.553 48.3262 140.077 46.6877 139.936 45.5142C139.719 43.6911 139.39 41.8829 138.977 40.0931C138.844 39.5137 137.955 39.7609 138.088 40.3366C138.53 42.2667 138.881 44.2115 139.091 46.1821C139.235 47.5328 139.56 48.5181 138.342 49.5957C137.722 50.1456 136.678 50.5072 135.947 50.8984C132.836 52.548 129.662 54.0795 126.437 55.4929C123.367 56.8362 119.791 57.7255 116.949 59.5154C114.883 60.8181 113.096 62.7666 111.687 64.7446C111.344 65.2317 112.144 65.693 112.484 65.2133Z" fill="#002247"/>
<path d="M150.399 33.4427C150.435 37.5722 150.384 42.377 151.731 46.3368C152.288 47.979 153.668 48.4329 155.163 49.0492C157.447 49.9902 159.776 50.8353 162.126 51.5992C162.691 51.7837 162.935 50.8906 162.37 50.7098C160.488 50.1009 158.624 49.433 156.783 48.7096C155.864 48.3517 154.897 48.0343 154.034 47.5656C152.738 46.8645 152.535 45.9493 152.273 44.6466C151.543 40.9821 151.354 37.1699 151.321 33.4427C151.317 32.8485 150.395 32.8485 150.399 33.4427Z" fill="#002247"/>
<path d="M165.64 52.9089C167.655 53.3555 169.574 54.1194 171.57 54.6434C173.818 55.2339 176.571 55.0383 178.087 57.1344C178.43 57.6104 179.231 57.1491 178.884 56.6694C177.563 54.8427 175.663 54.4884 173.556 54.1267C170.932 53.6728 168.481 52.5989 165.887 52.0233C165.304 51.8904 165.057 52.7798 165.64 52.9089Z" fill="#002247"/>
<path d="M91.5191 111.977C92.0505 111.881 93.0838 112.01 93.6964 111.995C94.2389 111.981 94.7481 111.992 95.2906 112.058C96.3165 112.184 97.3314 112.387 98.3536 112.527C98.933 112.608 99.1839 111.719 98.5972 111.637C97.4532 111.479 96.3202 111.254 95.1762 111.121C93.9658 110.981 92.4675 110.87 91.2755 111.088C90.6924 111.195 90.9397 112.084 91.5191 111.977Z" fill="#002247"/>
<path d="M95.7593 114.623C95.4752 115.616 95.1689 116.601 94.8146 117.568C94.5415 118.317 94.0507 119.151 94.0618 119.967C94.0691 120.679 94.4825 121.358 94.7629 122C95.346 123.332 95.8627 124.694 96.3129 126.074C96.9476 128.03 97.3794 130.064 98.2946 131.916C99.1729 133.695 100.446 135.238 101.697 136.762C102.074 137.219 102.723 136.566 102.35 136.108C101.151 134.647 99.9183 133.164 99.0917 131.448C98.1802 129.558 97.7595 127.48 97.0952 125.499C96.5491 123.864 95.4309 122.107 95.084 120.439C94.8736 119.421 95.4789 118.446 95.8073 117.516C96.1173 116.642 96.3941 115.756 96.6487 114.863C96.8111 114.295 95.9217 114.051 95.7593 114.623Z" fill="#002247"/>
<path d="M102.472 137.163C109.594 138.33 116.971 140.175 124.227 140.023C130.722 139.887 137.099 138.152 143.619 138.68C153.997 139.522 163.957 143.086 174.312 144.064C174.903 144.12 174.899 143.197 174.312 143.142C164.108 142.179 154.285 138.724 144.066 137.794C137.741 137.219 131.563 138.765 125.271 139.06C117.765 139.415 110.096 137.477 102.719 136.27C102.136 136.178 101.885 137.067 102.472 137.163Z" fill="#002247"/>
<path d="M143.808 165.675C131.821 169.17 119.104 166.056 108.056 160.978C107.52 160.73 107.052 161.528 107.591 161.775C118.865 166.956 131.821 170.13 144.051 166.565C144.623 166.399 144.38 165.509 143.808 165.675Z" fill="#002247"/>
<path d="M113.761 139.124C117.861 140.168 121.518 142.227 125.297 144.087C128.943 145.881 132.596 147.656 135.929 149.995C136.416 150.339 136.877 149.538 136.394 149.198C132.866 146.722 128.98 144.873 125.123 142.976C121.47 141.179 117.971 139.242 114.004 138.234C113.429 138.087 113.185 138.976 113.761 139.124Z" fill="#002247"/>
<path d="M100.387 133.868C93.224 130.753 85.6072 129.008 77.9128 127.816C71.8901 126.882 65.3029 126.639 60.9888 131.72C56.756 136.709 57.3575 142.872 60.6789 148.161C62.2657 150.689 63.8378 153.394 65.7346 155.704C68.3843 158.929 71.3882 161.922 74.3147 164.9C77.5991 168.243 80.9721 171.495 84.4299 174.657C86.1164 176.2 87.8251 177.72 89.5521 179.215C90.4969 180.034 91.4305 180.894 92.4195 181.665C92.8255 181.979 93.0395 182.211 93.5746 182.175C93.7665 182.16 93.9769 182.042 94.0211 181.835C94.0913 181.499 94.058 181.348 93.8108 181.101C93.6706 180.96 93.4233 180.92 93.2536 181.027C93.2203 181.049 93.1871 181.067 93.1539 181.09C92.652 181.403 93.1133 182.2 93.6189 181.887C93.8329 181.754 89.7588 178.167 89.434 177.886C87.9727 176.61 86.5224 175.314 85.0868 174.004C82.4704 171.613 79.9056 169.17 77.3888 166.679C72.6946 162.025 67.554 157.302 64.074 151.644C62.3358 148.818 60.1917 146.231 59.2544 142.99C58.3835 139.983 58.83 136.82 60.4095 134.123C64.0481 127.904 70.9675 127.676 77.3482 128.657C85.0647 129.842 92.7369 131.543 99.922 134.669C100.461 134.898 100.933 134.104 100.387 133.868Z" fill="#002247"/>
<path d="M93.5267 183.293C94.5305 179.503 98.3684 177.739 101.653 176.263C105.989 174.311 110.333 172.37 114.672 170.421C114.447 170.329 114.222 170.236 113.993 170.144C114.624 172.296 115.75 174.104 117.414 175.61C117.444 175.37 117.477 175.126 117.507 174.886C115.739 175.72 114.038 176.602 112.429 177.717C110.668 178.931 109.469 180.403 107.952 181.865C106.399 183.363 104.365 184.341 102.509 185.404C101.693 185.869 100.882 186.341 100.107 186.876C99.6527 187.186 97.1654 189.323 96.8738 188.592C96.6561 188.046 95.763 188.286 95.9845 188.836C96.6192 190.434 98.0806 189.736 99.0548 188.895C101.085 187.138 103.461 186.002 105.738 184.61C106.616 184.072 107.491 183.503 108.266 182.824C109.314 181.905 110.063 180.702 111.13 179.798C113.159 178.071 115.584 176.813 117.975 175.683C118.237 175.558 118.274 175.145 118.067 174.96C116.521 173.565 115.469 171.897 114.886 169.901C114.794 169.591 114.48 169.502 114.207 169.624C109.369 171.794 104.469 173.864 99.6859 176.156C96.6266 177.621 93.5562 179.58 92.6373 183.049C92.486 183.621 93.3754 183.865 93.5267 183.293Z" fill="#002247"/>
<path d="M92.8108 183.81C94.2943 185.367 95.549 187.05 96.7594 188.821C97.0916 189.308 97.8924 188.847 97.5565 188.356C96.2981 186.518 94.9991 184.773 93.4639 183.16C93.0543 182.728 92.4011 183.382 92.8108 183.81Z" fill="#002247"/>
<path d="M80.1343 134.47C79.0051 134.784 78.3888 135.776 78.4774 136.946C78.5991 138.518 80.0384 139.47 81.2599 140.231C81.378 139.95 81.4961 139.67 81.6141 139.389C79.5439 138.666 77.4699 137.943 75.3996 137.219C74.9678 137.068 74.6173 137.688 74.9494 137.991C76.2816 139.19 77.8684 139.725 79.507 140.375C82.0016 141.364 84.0129 143.006 85.9023 144.877C89.5816 148.523 92.9251 152.527 95.8921 156.771C101.044 164.133 105.129 172.318 111.654 178.629C111.838 178.389 112.026 178.145 112.211 177.905C111.727 177.57 111.248 177.226 110.768 176.891C110.281 176.551 109.819 177.348 110.303 177.688C110.786 178.023 111.266 178.367 111.746 178.702C112.178 179.005 112.676 178.337 112.303 177.979C105.513 171.41 101.387 162.801 95.9106 155.217C93.1539 151.398 90.1019 147.785 86.7733 144.452C85.2491 142.925 83.6291 141.441 81.7285 140.393C79.7173 139.282 77.337 138.913 75.5952 137.341C75.4439 137.599 75.2963 137.854 75.145 138.112C77.2153 138.836 79.2892 139.559 81.3595 140.282C81.8651 140.459 82.1456 139.707 81.7138 139.441C80.8982 138.935 77.481 136.168 80.3668 135.367C80.9499 135.204 80.7063 134.311 80.1343 134.47Z" fill="#002247"/>
<path d="M100.793 187.068C105.897 191.279 111.473 195.18 116.141 199.874C116.562 200.295 117.211 199.645 116.794 199.221C112.126 194.527 106.55 190.626 101.446 186.415C100.992 186.043 100.335 186.692 100.793 187.068Z" fill="#002247"/>
<path d="M114.632 177.012C118.027 185.769 127.076 189.84 132.559 196.995C132.917 197.46 133.718 197.002 133.357 196.53C127.961 189.489 118.853 185.359 115.521 176.768C115.307 176.218 114.418 176.458 114.632 177.012Z" fill="#002247"/>
<path d="M115.835 199.678C116.772 201.87 115.123 204.76 114.292 206.774C113.359 209.033 112.329 211.251 111.215 213.421C110.285 215.225 109.336 217.059 108.152 218.713C107.524 219.587 106.808 220.421 105.978 221.111C105.244 221.72 104.14 222.03 103.487 222.706C101.631 224.614 105.491 225.271 106.698 225.034C110.753 224.237 114.868 222.167 118.58 220.392C119.116 220.137 118.647 219.34 118.115 219.595C114.525 221.311 110.628 223.226 106.716 224.09C106.281 224.186 105.325 224.414 104.904 224.182C104.712 223.864 104.517 223.547 104.325 223.23C104.524 223.123 104.727 223.019 104.926 222.912C105.439 222.481 106.103 222.204 106.631 221.761C107.812 220.768 108.757 219.521 109.583 218.229C111.624 215.045 113.263 211.535 114.743 208.062C115.857 205.446 117.857 202.073 116.632 199.209C116.396 198.67 115.602 199.139 115.835 199.678Z" fill="#002247"/>
<path d="M102.76 224.466C103.627 225.994 104.598 228.005 105.904 229.212C106.686 229.935 107.192 229.607 108.115 229.194C111.119 227.843 114.499 227.452 117.008 225.153C117.447 224.75 116.794 224.101 116.355 224.5C114.292 226.393 111.561 226.88 109.019 227.832C107.62 228.356 107.111 229.009 105.915 227.699C104.967 226.658 104.247 225.215 103.561 224.001C103.262 223.485 102.465 223.946 102.76 224.466Z" fill="#002247"/>
<path d="M115.58 198.807C116.842 197.405 118.521 197.767 119.673 199.029C120.171 199.575 120.444 200.402 120.972 200.904C121.544 201.446 122.212 201.424 122.835 200.915C123.824 200.106 123.998 198.638 124.418 197.523C125.223 195.379 126.655 193.6 128.448 192.202C128.917 191.836 128.26 191.187 127.795 191.548C126.374 192.656 125.171 193.991 124.304 195.575C123.909 196.294 123.599 197.051 123.341 197.826C123.186 198.298 123.023 199.243 122.71 199.593C122.079 200.298 121.536 200.069 121.141 199.468C119.68 197.261 117.053 195.792 114.931 198.151C114.532 198.597 115.185 199.25 115.58 198.807Z" fill="#002247"/>
<path d="M116.303 203.937C117.547 203.841 118.632 204.004 119.787 204.528C119.865 204.24 119.942 203.956 120.02 203.668C118.104 203.778 116.34 204.218 114.591 205.007C114.255 205.159 114.329 205.631 114.591 205.804C115.488 206.391 116.381 206.982 117.278 207.568C117.278 207.303 117.278 207.037 117.278 206.771C116.654 207.155 114.908 207.79 114.901 208.76C114.894 209.709 116.68 210.724 117.285 211.244C117.392 210.982 117.503 210.72 117.61 210.458C115.783 210.506 114.1 210.904 112.436 211.657C112.037 211.838 112.215 212.377 112.547 212.499C113.097 212.705 113.724 212.86 114.244 213.137C115.244 213.665 114.879 213.525 114.023 213.812C113.314 214.052 112.598 214.396 112.222 215.06C112.141 215.2 112.133 215.385 112.222 215.525C112.262 215.588 112.299 215.65 112.34 215.713C112.654 216.215 113.451 215.754 113.137 215.248C113.019 215.06 115.702 214.429 115.931 214.255C116.211 214.041 116.396 213.739 116.326 213.373C116.13 212.34 113.58 211.905 112.794 211.609C112.831 211.89 112.868 212.17 112.905 212.451C114.432 211.761 115.931 211.425 117.613 211.377C117.986 211.366 118.256 210.864 117.938 210.591C117.676 210.366 116.584 209.639 116.458 209.321C116.089 208.395 117.16 207.926 117.743 207.568C118.049 207.38 118.034 206.963 117.743 206.771C116.846 206.185 115.953 205.594 115.056 205.007C115.056 205.273 115.056 205.539 115.056 205.804C116.665 205.077 118.252 204.694 120.02 204.59C120.433 204.568 120.702 203.933 120.252 203.73C118.953 203.144 117.732 202.904 116.303 203.015C115.717 203.059 115.713 203.981 116.303 203.937Z" fill="#002247"/>
<path d="M117.193 225.514C117.883 223.92 118.577 222.322 119.267 220.728C119.636 219.879 120.514 216.576 121.433 216.355C121.717 216.285 122.979 216.89 123.256 216.993C124.227 217.351 125.186 217.732 126.135 218.141C127.515 218.735 128.873 219.385 130.201 220.086C132.814 221.462 135.228 223.105 137.689 224.725C139.907 226.186 142.18 227.385 144.885 227.445C144.752 227.212 144.619 226.983 144.487 226.751C142.7 229.736 140.911 232.722 139.125 235.707C139.335 235.652 139.545 235.597 139.756 235.541C137.962 234.423 136.936 232.493 135.065 231.415C133.338 230.423 131.364 229.792 129.471 229.209C127.242 228.522 124.979 228.035 122.684 227.64C120.588 227.278 118.433 226.891 117.042 225.127C116.676 224.662 116.027 225.319 116.388 225.78C118.809 228.858 123.795 228.629 127.264 229.541C129.659 230.168 132.161 230.899 134.349 232.08C136.353 233.161 137.401 235.161 139.291 236.338C139.505 236.471 139.796 236.383 139.922 236.172C141.708 233.187 143.498 230.201 145.284 227.216C145.468 226.909 145.228 226.529 144.885 226.522C140.339 226.419 136.656 222.721 132.921 220.536C129.175 218.348 125.19 216.606 121.064 215.266C120.891 215.211 120.621 215.3 120.544 215.477C119.16 218.669 117.776 221.857 116.392 225.049C116.163 225.588 116.96 226.057 117.193 225.514Z" fill="#002247"/>
<path d="M122.728 216.362C129.031 201.42 139.106 188.548 148.568 175.521C148.775 175.237 148.498 174.816 148.17 174.827C147.557 174.849 147.24 175.023 146.959 175.572C146.808 175.871 146.989 176.277 147.358 176.266C148.767 176.229 150.041 175.986 151.369 175.488C151.919 175.281 151.712 174.465 151.126 174.598C149.469 174.971 148.225 175.838 147.265 177.233C147.158 177.388 147.188 177.672 147.339 177.79C147.682 178.071 148.029 178.351 148.373 178.635C148.782 178.971 149.325 178.562 149.096 178.078C147.096 173.772 145.771 169.085 144.276 164.59C142.804 160.169 141.457 155.682 139.789 151.327C139.578 150.777 138.685 151.017 138.899 151.57C142.291 160.427 144.298 169.926 148.302 178.543C148.542 178.359 148.786 178.17 149.026 177.986C147.524 176.761 150.384 175.713 151.373 175.491C151.292 175.196 151.21 174.897 151.129 174.602C149.893 175.067 148.69 175.314 147.365 175.351C147.498 175.584 147.631 175.812 147.764 176.045C147.9 175.949 148.04 175.853 148.177 175.753C148.044 175.521 147.911 175.292 147.778 175.06C138.261 188.16 128.183 201.091 121.846 216.118C121.61 216.664 122.503 216.901 122.728 216.362Z" fill="#002247"/>
<path d="M135.914 149.902C142.051 154.423 150.686 154.467 157.99 154.456C160.757 154.453 163.544 154.656 166.197 155.497C169.212 156.453 171.614 158.353 174.12 160.198C177.489 162.675 181.611 163.774 182.837 168.28C182.992 168.852 183.881 168.609 183.726 168.037C182.597 163.893 179.287 162.379 175.91 160.313C173.674 158.944 171.762 157.113 169.433 155.87C167.131 154.641 164.588 153.999 162.005 153.718C153.425 152.785 143.848 154.608 136.379 149.109C135.899 148.755 135.442 149.556 135.914 149.902Z" fill="#002247"/>
<path d="M180.556 151.239C181.375 155.438 182.173 159.642 182.948 163.849C183.357 166.078 183.627 167.945 182.043 169.757C181.043 170.897 179.888 171.971 178.526 172.658C177.995 172.923 178.464 173.72 178.991 173.455C181.165 172.366 184.545 169.543 184.405 166.834C184.276 164.343 183.494 161.73 183.036 159.28C182.516 156.516 181.988 153.756 181.449 150.995C181.335 150.412 180.445 150.656 180.556 151.239Z" fill="#002247"/>
<path d="M179.106 163.749C178.305 169.185 177.678 174.677 175.902 179.906C173.795 186.106 169.688 191.139 166.094 196.52C159.222 206.797 151.878 216.758 144.446 226.637C144.088 227.113 144.889 227.57 145.243 227.102C152.816 217.034 160.263 206.879 167.271 196.416C170.677 191.331 174.508 186.563 176.589 180.736C178.519 175.337 179.165 169.636 179.999 163.997C180.08 163.414 179.191 163.163 179.106 163.749Z" fill="#002247"/>
<path d="M104.952 245.103C101.332 247.778 96.9438 249.103 93.7332 252.351C93.6188 252.465 93.5671 252.642 93.6151 252.801C94.1613 254.587 94.4713 256.429 94.8661 258.252C95.2831 260.182 95.9585 262.008 96.512 263.901C97.5748 267.522 98.7115 271.083 100.199 274.555C101.402 277.36 102.922 281.235 105.421 283.169C107.683 284.918 111.753 285.187 114.252 283.925C114.783 283.656 114.314 282.862 113.787 283.128C111.679 284.195 108.244 283.888 106.266 282.615C104.516 281.49 103.313 278.888 102.383 277.072C100.357 273.12 98.8849 268.865 97.6708 264.599C97.0951 262.584 96.346 260.621 95.8773 258.576C95.6374 257.528 95.4418 256.473 95.2204 255.425C95.047 254.609 94.4602 253.358 94.8071 252.579C95.0949 251.934 96.405 251.185 96.9549 250.823C97.7335 250.31 98.5639 249.882 99.3831 249.432C101.42 248.313 103.542 247.288 105.417 245.904C105.889 245.553 105.432 244.749 104.952 245.103Z" fill="#002247"/>
<path d="M116.695 251.967C112.155 261.606 113.399 272.884 113.561 283.187C113.573 283.781 114.495 283.781 114.484 283.187C114.322 273.068 113.03 261.897 117.492 252.432C117.743 251.9 116.945 251.432 116.695 251.967Z" fill="#002247"/>
<path d="M104.797 246.615C103.97 247.929 104.162 249.331 104.915 250.649C105.384 251.468 106.022 252.734 107.144 252.391C107.709 252.217 108.096 251.686 108.454 251.265C109.506 250.018 110.532 250.247 111.694 251.106C113.178 252.206 114.646 253.096 116.495 253.38C117.075 253.468 117.326 252.583 116.739 252.49C115.141 252.243 113.823 251.527 112.532 250.586C111.834 250.081 111.03 249.21 110.122 249.125C109.229 249.04 108.62 249.623 108.07 250.243C107.292 251.121 106.959 251.487 106.004 250.638C105.048 249.785 104.948 248.103 105.59 247.077C105.911 246.578 105.111 246.113 104.797 246.615Z" fill="#002247"/>
<path d="M106.406 255.975C108.332 256.392 109.986 257.211 111.473 258.514C111.539 258.256 111.609 258.001 111.676 257.743C110.48 257.986 107.764 257.916 107.211 259.215C107.126 259.418 107.133 259.606 107.284 259.772C108.569 261.23 110.772 261.141 111.68 263.097C111.853 262.872 112.026 262.647 112.2 262.418C110.864 262.049 109.609 261.902 108.225 261.961C107.845 261.975 107.591 262.466 107.901 262.747C108.93 263.695 109.964 264.644 110.993 265.592C111.023 265.352 111.056 265.109 111.085 264.869C109.927 265.47 108.605 265.478 108.469 267.042C108.421 267.592 108.58 268.131 108.831 268.618C108.971 268.887 109.155 269.12 109.329 269.367C109.447 269.511 109.561 269.651 109.679 269.795C109.93 270.43 110.384 270.762 111.045 270.792C110.62 270.375 109.971 271.024 110.392 271.445C110.425 271.478 110.462 271.511 110.495 271.548C110.602 271.652 110.798 271.729 110.945 271.666C110.997 271.644 111.048 271.622 111.1 271.604C111.277 271.53 111.458 271.375 111.44 271.157C111.377 270.415 110.96 269.943 110.51 269.356C109.724 268.33 109.141 268.009 109.941 266.858C110.502 266.05 110.772 266.072 111.55 265.669C111.809 265.537 111.857 265.138 111.643 264.946C110.613 263.998 109.58 263.049 108.55 262.101C108.443 262.363 108.332 262.625 108.225 262.887C109.51 262.832 110.72 262.968 111.956 263.311C112.373 263.426 112.639 262.983 112.477 262.632C111.905 261.4 110.93 260.783 109.735 260.197C109.436 260.049 109.015 259.931 108.76 259.713C108.295 259.318 108.299 259.606 108.679 259.281C109.225 258.82 111.222 258.768 111.923 258.625C112.255 258.558 112.381 258.075 112.126 257.853C110.524 256.447 108.738 255.528 106.653 255.078C106.07 254.96 105.823 255.849 106.406 255.975Z" fill="#002247"/>
<path d="M93.8846 252.291C93.0395 252.542 91.8438 253.926 91.6298 254.778C91.3973 255.701 92.0136 256.867 92.2756 257.712C92.7147 259.144 93.1539 260.572 93.593 262.004C95.1947 267.215 96.5749 272.525 98.5197 277.618C99.2983 279.662 100.143 281.803 101.487 283.548C103.04 285.567 105.232 286.593 107.69 287.069C109.033 287.327 111.687 288.05 112.835 287.036C113.665 286.301 114.06 284.821 114.466 283.814C114.687 283.264 113.794 283.024 113.576 283.57C113.281 284.308 112.86 285.917 112.181 286.386C111.462 286.884 109.842 286.456 109.048 286.353C108 286.213 106.941 286.021 105.945 285.655C101.542 284.046 100.003 279.216 98.6045 275.153C97.3867 271.606 96.3866 267.99 95.2906 264.403C94.619 262.2 93.9399 260 93.2609 257.801C93.01 256.989 92.3273 255.686 92.5967 254.882C92.7406 254.454 93.6742 253.313 94.1245 253.18C94.6965 253.011 94.4529 252.121 93.8846 252.291Z" fill="#002247"/>
<path d="M117.562 252.347C122.547 244.686 129.607 239.195 135.829 232.641C136.239 232.209 135.585 231.556 135.176 231.987C128.895 238.604 121.791 244.154 116.761 251.882C116.44 252.38 117.237 252.845 117.562 252.347Z" fill="#002247"/>
<path d="M105.081 246.501C111.045 241.357 114.233 234.028 118.521 227.592C118.854 227.098 118.053 226.633 117.724 227.127C113.477 233.497 110.329 240.756 104.428 245.848C103.978 246.239 104.635 246.889 105.081 246.501Z" fill="#002247"/>
<path d="M132.286 31.4496C132.12 32.3316 131.681 34.0919 132.489 34.7894C133.486 35.6492 134.205 33.841 134.478 33.1767C134.803 32.3759 135.242 30.9662 134.246 30.4385C133.438 30.0104 132.666 30.5713 132.368 31.3168C132.146 31.8666 133.039 32.1065 133.257 31.5603C133.46 31.0548 133.943 31.1323 133.943 31.6784C133.943 32.1988 133.67 32.7745 133.452 33.2321C133.264 33.6343 133.024 34.3502 133.002 33.4941C132.987 32.8926 133.069 32.28 133.179 31.6932C133.283 31.1138 132.393 30.8666 132.286 31.4496Z" fill="#002247"/>
<path d="M139.578 19.1792C139.53 20.0132 139.423 20.7586 139.08 21.5299C138.84 22.0687 139.634 22.5374 139.877 21.9949C140.291 21.0686 140.442 20.1866 140.501 19.1792C140.534 18.5887 139.612 18.5887 139.578 19.1792Z" fill="#002247"/>
<path d="M132.323 18.3239C132.187 19.2575 132.024 20.1469 131.718 21.04C131.526 21.6046 132.416 21.8445 132.607 21.2835C132.914 20.3905 133.072 19.5011 133.213 18.5674C133.298 17.9881 132.408 17.7371 132.323 18.3239Z" fill="#002247"/>
<path d="M143.929 6.1825C146.446 9.8175 147.642 15.6003 146.413 19.9069C145.856 21.8628 145.096 23.5936 146.568 25.3612C148.004 27.0846 150.292 27.4057 152.384 27.6566C152.971 27.7267 152.967 26.8042 152.384 26.734C149.063 26.3318 145.642 25.1103 146.996 21.0362C147.513 19.4825 147.738 17.9769 147.716 16.331C147.668 12.6812 146.823 8.75468 144.719 5.71752C144.391 5.23409 143.59 5.69538 143.929 6.1825Z" fill="#002247"/>
<path d="M187.741 21.246C187.94 24.8515 187.955 28.4643 187.715 32.0661C187.483 35.5867 186.988 39.4209 184.534 42.1629C182.589 44.3365 179.571 45.1668 177.489 47.2445C176.663 48.0711 175.932 49.0011 175.327 50.0012C174.482 51.3887 173.969 53.0051 172.434 53.7912C171.906 54.0605 172.371 54.8577 172.899 54.5883C173.987 54.0273 174.644 53.1453 175.231 52.0899C176.076 50.5732 176.895 49.1413 178.143 47.8977C180.397 45.6429 183.649 44.8199 185.638 42.2773C187.557 39.8232 188.221 36.7159 188.512 33.6788C188.911 29.553 188.896 25.3792 188.664 21.246C188.631 20.6555 187.708 20.6518 187.741 21.246Z" fill="#002247"/>
<path d="M147.645 9.23046C148.42 10.9981 149.14 12.7658 149.295 14.7106C149.443 16.5706 149.14 18.4231 148.849 20.2535C148.756 20.8329 149.646 21.0839 149.738 20.4971C150.077 18.3678 150.428 16.2052 150.151 14.0464C149.915 12.1864 149.192 10.4667 148.443 8.76548C148.203 8.223 147.406 8.69167 147.645 9.23046Z" fill="#002247"/>
<path d="M170.659 19.2567C173.832 23.305 178.626 25.1133 183.512 26.1502C184.091 26.272 184.339 25.3827 183.756 25.2609C179.006 24.2534 174.393 22.5374 171.308 18.6035C170.946 18.1385 170.297 18.7954 170.659 19.2567Z" fill="#002247"/>
<path d="M89.2203 102.566C89.0727 102.12 88.6557 101.16 88.7627 100.725C88.973 99.8799 90.5857 99.0569 91.3828 98.9794C92.4272 98.8761 93.4679 98.7875 94.5122 98.6805C97.221 98.4074 99.7046 98.5403 102.362 99.1713C102.801 99.2747 103.631 99.3042 103.96 99.5773C104.764 100.242 103.86 100.659 103.122 100.751C101.919 100.898 100.705 100.802 99.5016 100.817C97.3759 100.839 95.2909 101.061 93.2169 101.526C92.6375 101.655 92.8811 102.544 93.4605 102.415C95.5603 101.946 97.6712 101.744 99.8226 101.74C101.262 101.736 103.255 102.05 104.594 101.352C105.155 101.061 105.786 100.356 105.616 99.6548C105.369 98.6547 103.668 98.5403 102.93 98.3595C98.9997 97.3963 95.3758 97.6657 91.3865 98.0569C90.3052 98.1639 89.0579 98.1713 88.342 99.1197C87.5006 100.238 87.9397 101.618 88.3346 102.81C88.5154 103.371 89.4085 103.131 89.2203 102.566Z" fill="#002247"/>
<path d="M89.3384 102.334C87.6629 102.01 86.0872 103.331 86.7551 105.106C86.8511 105.357 87.0503 105.556 87.1647 105.792C87.5559 106.589 87.4526 107.342 87.4083 108.161C87.3862 108.59 87.2681 109.007 87.364 109.435C87.4673 109.907 87.722 110.132 87.9545 110.531C88.6224 111.675 88.2792 112.35 88.4379 113.542C88.8069 116.306 91.5563 115.586 93.5564 115.184C95.457 114.8 98.9 114.631 98.9997 112.073C99.0218 111.479 98.0992 111.479 98.0771 112.073C98.007 113.878 93.8701 114.199 92.6449 114.424C91.1835 114.693 89.3716 114.959 89.342 112.896C89.3347 112.376 89.5007 111.83 89.4122 111.313C89.3273 110.822 89.2387 110.837 89.0321 110.361C88.6704 109.907 88.4121 109.387 88.2534 108.807C88.3346 108.32 88.4121 107.829 88.4859 107.339C88.5191 106.881 88.5376 106.512 88.3899 106.069C88.3124 105.881 88.2202 105.7 88.1095 105.527C87.3899 104.77 87.7183 103.999 89.0948 103.216C89.6742 103.338 89.9214 102.449 89.3384 102.334Z" fill="#002247"/>
<path d="M90.0285 107.157C92.7594 107.755 95.5419 107.164 98.2949 107.604C100.011 107.877 101.993 108.102 103.579 108.836C104.063 109.061 105.233 109.515 104.764 110.345C104.421 110.951 102.705 110.895 102.107 110.877C101.173 110.847 100.243 110.744 99.3134 110.681C96.852 110.515 94.4422 110.903 91.9844 111.013C91.3939 111.039 91.3902 111.962 91.9844 111.936C95.1396 111.792 98.0956 111.526 101.247 111.744C102.424 111.825 106.912 111.748 105.893 109.475C105.14 107.799 102.203 107.415 100.664 107.113C99.5385 106.891 98.3982 106.637 97.2579 106.522C94.9219 106.29 92.6007 106.777 90.2795 106.268C89.6964 106.139 89.4491 107.028 90.0285 107.157Z" fill="#002247"/>
<path d="M91.106 102.474C93.8368 103.072 96.6194 102.482 99.3724 102.921C101.088 103.194 103.07 103.419 104.657 104.154C105.14 104.379 106.31 104.833 105.842 105.663C105.498 106.268 103.782 106.213 103.184 106.194C102.251 106.165 101.321 106.061 100.391 105.999C97.863 105.825 95.4495 106.434 92.929 106.471C92.3349 106.478 92.3349 107.401 92.929 107.394C94.8997 107.368 96.8371 106.84 98.8004 106.836C99.9739 106.833 101.155 106.98 102.325 107.062C103.502 107.143 107.989 107.065 106.971 104.792C106.218 103.117 103.28 102.733 101.742 102.43C100.616 102.209 99.4757 101.954 98.3354 101.84C95.9994 101.607 93.6782 102.094 91.3569 101.585C90.7702 101.456 90.5229 102.345 91.106 102.474Z" fill="#002247"/>
<path d="M92.7225 98.5294C93.634 97.2894 94.2503 95.9166 94.6931 94.4479C94.9072 93.7319 95.0769 93.0012 95.2356 92.2705C95.3648 91.6727 95.7338 91.038 96.5383 91.2778C97.0845 91.4402 97.5126 92.2226 97.7709 92.6617C98.0698 93.1747 98.8706 92.7097 98.568 92.1967C97.9554 91.1524 95.9885 89.1264 94.7669 90.6283C94.1654 91.3701 94.1839 92.8315 93.9403 93.7245C93.5122 95.2893 92.8959 96.7543 91.9291 98.0644C91.5748 98.5404 92.3756 99.0017 92.7225 98.5294Z" fill="#002247"/>
<path d="M192.273 139.64C192.852 138.511 193.505 137.256 192.874 135.998C192.339 134.931 191.125 134.714 190.066 134.44C186.043 133.4 182.467 132.592 178.286 132.968C177.438 133.045 176.15 133.009 175.781 134.027C175.559 134.64 175.906 135.238 176.412 135.618C177.703 136.585 179.855 136.548 181.375 136.799C183.431 137.142 185.416 137.673 187.357 138.437C187.911 138.655 188.151 137.762 187.601 137.548C185.457 136.703 183.261 136.156 180.984 135.806C179.973 135.651 178.755 135.629 177.807 135.212C175.116 134.023 178.641 133.846 179.6 133.787C182.276 133.621 184.708 134.016 187.287 134.688C188.221 134.931 189.158 135.156 190.092 135.404C190.878 135.61 191.823 135.739 192.155 136.695C192.431 137.489 191.808 138.526 191.472 139.179C191.206 139.703 192.003 140.172 192.273 139.64Z" fill="#002247"/>
<path d="M191.424 139.891C192.727 140.847 192.959 141.648 192.125 142.286C192 142.449 191.878 142.607 191.752 142.77C191.535 143.176 191.483 143.548 191.435 143.999C191.31 145.18 191.239 145.91 190.461 146.918C190.206 147.246 190.099 147.338 189.959 147.678C189.8 148.054 189.826 148.505 189.774 148.896C189.9 150.235 189.125 150.877 187.449 150.818C187.018 150.678 186.59 150.534 186.162 150.383C184.804 149.9 181.006 149.069 181.231 147.172C181.301 146.586 180.379 146.589 180.309 147.172C180.025 149.575 183.239 150.272 184.959 150.922C187.055 151.715 189.922 152.951 190.579 149.892C190.723 149.213 190.59 148.427 190.952 147.829C191.251 147.335 191.797 147.08 192.077 146.56C192.288 146.172 192.339 145.777 192.365 145.346C192.391 144.929 192.247 144.408 192.358 144.002C192.538 143.331 193.118 142.796 193.428 142.198C194.269 140.581 193.299 138.902 191.424 138.969C190.834 138.991 190.83 139.913 191.424 139.891Z" fill="#002247"/>
<path d="M189.892 142.707C187.807 142.832 185.848 142.227 183.803 141.972C182.449 141.803 181.08 141.873 179.718 141.924C178.131 141.984 174.976 141.854 173.939 143.419C172.64 145.371 176.485 146.261 177.674 146.382C178.917 146.512 180.179 146.537 181.416 146.711C183.375 146.988 185.283 147.645 187.221 148.039C187.8 148.157 188.047 147.268 187.464 147.15C185.224 146.692 183.039 145.94 180.755 145.722C179.785 145.63 178.81 145.571 177.84 145.471C177.179 145.404 176.242 145.393 175.692 144.951C174.924 144.781 174.899 144.272 175.614 143.426C175.891 143.331 176.168 143.231 176.445 143.135C178.08 142.711 179.973 142.81 181.656 142.792C184.442 142.762 187.099 143.799 189.889 143.629C190.483 143.593 190.487 142.67 189.892 142.707Z" fill="#002247"/>
<path d="M189.553 137.917C187.468 138.042 185.508 137.437 183.464 137.182C182.109 137.013 180.74 137.083 179.379 137.134C177.792 137.193 174.637 137.064 173.6 138.629C172.301 140.581 176.146 141.471 177.334 141.592C178.578 141.722 179.84 141.74 181.076 141.921C183.091 142.216 184.981 143.065 186.992 143.408C187.571 143.508 187.822 142.618 187.235 142.519C184.925 142.124 182.759 141.157 180.419 140.932C179.449 140.84 178.474 140.781 177.504 140.681C176.843 140.614 175.906 140.603 175.356 140.161C174.589 139.991 174.563 139.482 175.279 138.636C175.555 138.54 175.832 138.441 176.109 138.345C177.744 137.92 179.637 138.02 181.32 138.002C184.106 137.972 186.763 139.009 189.553 138.839C190.143 138.802 190.147 137.88 189.553 137.917Z" fill="#002247"/>
<path d="M189.45 134.286C188.66 132.758 188.302 131.149 188.132 129.447C188.047 128.617 188.261 127.241 187.789 126.506C186.785 124.934 184.615 126.58 183.859 127.492C183.482 127.945 184.132 128.602 184.512 128.145C184.759 127.85 185.128 127.314 185.486 127.185C187.239 126.554 187.088 127.894 187.143 128.65C187.191 129.315 187.25 129.975 187.35 130.632C187.568 132.082 187.977 133.448 188.649 134.754C188.926 135.278 189.719 134.813 189.45 134.286Z" fill="#002247"/>
<path d="M190.834 82.1771C191.524 91.51 192.579 100.813 194.022 110.058C195.317 118.361 199.126 129.735 191.948 136.429C191.513 136.835 192.166 137.484 192.601 137.082C199.218 130.908 196.797 121.203 195.491 113.394C193.76 103.05 192.528 92.6319 191.756 82.1734C191.716 81.5867 190.789 81.583 190.834 82.1771Z" fill="#002247"/>
<path d="M184.46 119.329C185.985 118.812 187.531 118.701 189.11 119.022C189.69 119.14 189.937 118.251 189.354 118.133C187.616 117.779 185.896 117.871 184.213 118.439C183.656 118.627 183.896 119.517 184.46 119.329Z" fill="#002247"/>
<path d="M184.128 118.675C184.582 117.952 185.106 117.287 185.73 116.697C186.04 116.402 186.372 116.129 186.719 115.878C186.841 115.789 187.734 115.331 187.745 115.239C187.686 115.83 188.608 115.826 188.667 115.239C188.708 114.822 188.476 114.431 188.04 114.328C187.413 114.184 186.719 114.748 186.254 115.081C185.073 115.922 184.102 116.981 183.335 118.21C183.014 118.712 183.811 119.177 184.128 118.675Z" fill="#002247"/>
<path d="M113.58 169.879C111.425 165.55 108.019 161.583 105.107 157.76C102.033 153.719 98.8813 149.01 94.8072 145.895C94.3348 145.534 93.8772 146.335 94.3422 146.693C96.0656 148.01 97.4975 149.789 98.8924 151.435C100.952 153.867 102.915 156.38 104.838 158.922C107.568 162.535 110.753 166.27 112.783 170.348C113.049 170.875 113.842 170.407 113.58 169.879Z" fill="#002247"/>
<defs>
<linearGradient id="paint0_linear" x1="213.146" y1="66.0376" x2="101.063" y2="179.135" gradientUnits="userSpaceOnUse">
<stop stop-color="#0014C9"/>
<stop offset="1" stop-color="#6877FF"/>
</linearGradient>
<linearGradient id="paint1_linear" x1="124.57" y1="230.214" x2="97.7942" y2="269.483" gradientUnits="userSpaceOnUse">
<stop stop-color="#0014C9"/>
<stop offset="1" stop-color="#6877FF"/>
</linearGradient>
<linearGradient id="paint2_linear" x1="125" y1="179.471" x2="100.359" y2="209.638" gradientUnits="userSpaceOnUse">
<stop stop-color="#0014C9"/>
<stop offset="1" stop-color="#6877FF"/>
</linearGradient>
</defs>
</svg>
