<svg width="300" height="300" viewBox="0 0 300 300" fill="none" xmlns="http://www.w3.org/2000/svg">
<path d="M230.513 228.878C228.626 215.94 222.126 205.587 214.701 199.968C219.644 247.253 179.292 277.376 151.038 290.439C157.32 294.116 170 294.08 191.096 286.255C213.574 277.919 234.064 253.232 230.513 228.878Z" fill="#D7DBFF"/>
<path opacity="0.2" d="M147.259 286.628C144.545 281.554 149.448 274.761 162.917 269.302C176.386 263.843 183.476 254.788 187.868 245.027C192.26 235.266 183.756 205.94 195.41 197.631C200.874 193.738 208.146 195.006 214.698 199.965C214.294 196.094 213.587 192.106 212.544 188.007C195.596 121.37 130.952 128.731 114.959 142.87C98.9614 157.008 96.4689 169.158 103.464 182.064C108.638 191.609 134.833 191.825 134.774 201.089C134.715 210.354 125.368 196.235 114.822 207.434C111.104 211.383 124.062 216.185 122.332 231.392C118.999 260.659 103.721 263.402 93.061 264.02C85.7694 264.445 67.4884 268.233 71.1048 283.352C74.3499 296.925 102.226 304.59 133.106 297.01C137.752 295.869 144.021 293.679 151.038 290.433C149.305 289.423 148.061 288.125 147.259 286.628Z" fill="url(#paint0_linear)"/>
<path d="M214.701 199.968C208.149 195.009 200.874 193.741 195.413 197.634C183.759 205.944 192.263 235.269 187.871 245.031C183.479 254.792 176.39 263.843 162.921 269.306C149.452 274.765 144.548 281.561 147.262 286.631C148.064 288.128 149.308 289.426 151.042 290.439C179.292 277.377 219.64 247.25 214.701 199.968Z" fill="#6877FF"/>
<path fill-rule="evenodd" clip-rule="evenodd" d="M151.162 272.941C151.162 277.305 154.701 280.856 159.05 280.856C163.4 280.856 166.938 277.305 166.938 272.941C166.938 268.577 163.4 265.027 159.05 265.027C154.701 265.027 151.162 268.577 151.162 272.941ZM152.139 272.944C152.139 269.12 155.241 266.011 159.05 266.011C162.859 266.011 165.96 269.12 165.96 272.944C165.96 276.769 162.862 279.878 159.05 279.878C155.238 279.878 152.139 276.769 152.139 272.944Z" fill="#002247"/>
<path fill-rule="evenodd" clip-rule="evenodd" d="M189.503 157.743C189.503 162.107 193.042 165.657 197.391 165.657C201.737 165.657 205.279 162.107 205.279 157.743C205.279 153.379 201.741 149.829 197.391 149.829C193.042 149.829 189.503 153.379 189.503 157.743ZM190.481 157.746C190.481 153.922 193.582 150.813 197.391 150.813C201.2 150.813 204.301 153.922 204.301 157.746C204.301 161.571 201.203 164.68 197.391 164.68C193.579 164.68 190.481 161.571 190.481 157.746Z" fill="#D7DBFF"/>
<path d="M108.328 54.7918C109.205 54.393 110.088 53.579 110.466 52.6833C110.218 52.5787 109.97 52.4741 109.723 52.3695C109.527 53.5365 110.414 54.4616 111.476 54.7591C111.443 54.5106 111.411 54.2622 111.378 54.0138C110.176 54.6839 109.98 55.6384 109.589 56.861C109.85 56.9329 110.114 57.0048 110.374 57.0768C110.638 55.6319 109.553 54.2687 108.064 54.3047C107.54 54.3178 107.54 55.135 108.064 55.1219C108.99 55.099 109.762 55.9163 109.589 56.861C109.495 57.3742 110.212 57.5867 110.374 57.0768C110.697 56.0699 110.772 55.2854 111.792 54.7166C112.101 54.5433 112.026 54.0628 111.694 53.9713C111.114 53.8078 110.391 53.2946 110.508 52.5852C110.576 52.1701 109.957 51.8105 109.765 52.2714C109.433 53.0592 108.69 53.7392 107.921 54.0889C107.442 54.3014 107.856 55.0075 108.328 54.7918Z" fill="#002247"/>
<path d="M88.7995 85.8797C89.6759 85.4808 90.5588 84.6669 90.9368 83.7712C90.6892 83.6666 90.4416 83.562 90.1939 83.4574C89.9985 84.6244 90.8847 85.5495 91.9468 85.847C91.9142 85.5985 91.8816 85.3501 91.849 85.1016C90.6468 85.7718 90.4513 86.7263 90.0604 87.9489C90.321 88.0208 90.5849 88.0927 90.8456 88.1646C91.1095 86.7198 90.0245 85.3566 88.5356 85.3926C88.011 85.4057 88.011 86.2229 88.5356 86.2098C89.4609 86.1869 90.233 87.0042 90.0604 87.9489C89.9659 88.4621 90.6827 88.6746 90.8456 88.1646C91.1681 87.1578 91.243 86.3733 92.2628 85.8045C92.5723 85.6312 92.4974 85.1507 92.1651 85.0592C91.5851 84.8957 90.8618 84.3825 90.9791 83.6731C91.0476 83.258 90.4285 82.8984 90.2363 83.3593C89.904 84.1471 89.1611 84.8271 88.3922 85.1768C87.91 85.3893 88.3238 86.0954 88.7995 85.8797Z" fill="#002247"/>
<path d="M191.37 116.794C192.247 116.395 193.13 115.581 193.507 114.685C193.26 114.581 193.012 114.476 192.765 114.371C192.569 115.538 193.455 116.464 194.517 116.761C194.485 116.513 194.452 116.264 194.42 116.016C193.217 116.686 193.022 117.64 192.631 118.863C192.892 118.935 193.156 119.007 193.416 119.079C193.68 117.634 192.595 116.271 191.106 116.307C190.582 116.32 190.582 117.137 191.106 117.124C192.032 117.101 192.804 117.918 192.631 118.863C192.537 119.376 193.253 119.589 193.416 119.079C193.739 118.072 193.814 117.287 194.833 116.719C195.143 116.545 195.068 116.065 194.736 115.973C194.156 115.81 193.433 115.297 193.55 114.587C193.618 114.172 192.999 113.812 192.807 114.273C192.475 115.061 191.732 115.741 190.963 116.091C190.484 116.303 190.898 117.009 191.37 116.794Z" fill="#002247"/>
<path d="M143.939 7.75856C144.815 7.35975 145.698 6.54579 146.076 5.6501C145.829 5.54549 145.581 5.44089 145.334 5.33628C145.138 6.50329 146.024 7.4284 147.086 7.72587C147.054 7.47743 147.021 7.22899 146.989 6.98055C145.786 7.65069 145.591 8.60522 145.2 9.8278C145.461 9.89971 145.724 9.97163 145.985 10.0435C146.249 8.59868 145.164 7.23553 143.675 7.27149C143.151 7.28457 143.151 8.1018 143.675 8.08872C144.6 8.06584 145.373 8.88307 145.2 9.8278C145.105 10.341 145.822 10.5535 145.985 10.0435C146.308 9.03671 146.383 8.25217 147.402 7.68338C147.712 7.51012 147.637 7.02959 147.305 6.93806C146.725 6.77461 146.001 6.26139 146.119 5.55203C146.187 5.13688 145.568 4.77729 145.376 5.23821C145.044 6.02603 144.301 6.70596 143.532 7.05574C143.05 7.26822 143.463 7.97431 143.939 7.75856Z" fill="#002247"/>
<path d="M185.063 29.5554C185.939 29.1566 186.822 28.3427 187.2 27.447C186.952 27.3424 186.705 27.2378 186.457 27.1332C186.262 28.3002 187.148 29.2253 188.21 29.5227C188.177 29.2743 188.145 29.0259 188.112 28.7774C186.91 29.4476 186.714 30.4021 186.323 31.6247C186.584 31.6966 186.848 31.7685 187.109 31.8404C187.373 30.3956 186.288 29.0324 184.799 29.0684C184.274 29.0814 184.274 29.8987 184.799 29.8856C185.724 29.8627 186.496 30.6799 186.323 31.6247C186.229 32.1379 186.946 32.3504 187.109 31.8404C187.431 30.8336 187.506 30.049 188.526 29.4803C188.835 29.307 188.76 28.8265 188.428 28.7349C187.848 28.5715 187.125 28.0583 187.242 27.3489C187.311 26.9338 186.692 26.5742 186.499 27.0351C186.167 27.8229 185.424 28.5028 184.655 28.8526C184.176 29.0651 184.59 29.7712 185.063 29.5554Z" fill="#002247"/>
<path d="M55.0132 45.4722C55.6355 47.9926 59.392 46.9171 60.099 49.274C60.49 50.5816 59.7863 52.0003 60.2066 53.3242C60.4933 54.2264 61.1644 54.756 62.0181 55.0894C63.4125 55.6386 65.4162 55.4327 66.0776 57.1227C66.6543 58.6003 65.8333 60.3001 66.5207 61.7973C67.1495 63.1702 68.7329 64.1313 69.844 65.076C71.4013 66.3999 72.9587 67.7271 74.516 69.051C74.9135 69.3877 75.4935 68.8124 75.0927 68.4724C73.6135 67.2139 72.1344 65.9554 70.6552 64.6968C69.1663 63.4317 67.1169 62.2157 66.9997 60.0844C66.8693 57.6621 67.2082 55.6615 64.4421 54.8671C62.9466 54.4356 61.2068 54.452 60.9005 52.5495C60.692 51.2648 61.3045 49.9278 60.7539 48.6758C59.8579 46.636 56.2936 47.244 55.8016 45.2565C55.6746 44.7432 54.8894 44.959 55.0132 45.4722Z" fill="#002247"/>
<path d="M96.5732 11.8478C96.5113 12.9952 97.1825 13.796 98.1436 14.3583C98.8376 14.7637 99.639 14.9206 100.34 15.303C101.464 15.9209 101.701 16.7152 101.789 17.9051C101.861 18.8792 101.757 20.0397 102.5 20.7981C103.712 22.0338 106.207 20.5137 106.826 22.5012C107.227 23.7924 106.755 25.2014 107.25 26.4828C107.885 28.1238 109.381 27.6465 110.469 28.6599C111.404 29.5327 110.694 31.3273 111.567 32.3669C112.075 32.9749 112.919 33.1841 113.505 33.7039C114.395 34.4917 114.867 35.541 115.037 36.7015C115.112 37.2212 115.897 36.9989 115.822 36.4857C115.633 35.1912 115.066 34.0046 114.082 33.1285C113.388 32.5107 112.336 32.1773 111.906 31.2914C111.632 30.7291 111.814 29.8956 111.678 29.2843C111.41 28.0878 110.752 27.8427 109.723 27.3948C108.879 27.0254 108.107 26.7476 107.885 25.7473C107.797 25.3387 107.804 24.8973 107.797 24.4789C107.784 23.8055 107.82 23.1485 107.66 22.4881C107.436 21.55 106.918 20.7621 105.947 20.5333C104.973 20.3012 104.38 20.7164 103.461 20.1312C102.47 19.4971 102.679 18.7877 102.597 17.7122C102.522 16.7021 102.311 15.7672 101.506 15.0873C100.278 14.0478 97.2835 13.9955 97.3975 11.8543C97.4138 11.3215 96.5993 11.3247 96.5732 11.8478Z" fill="#002247"/>
<path d="M166.667 30.2389C167.045 28.7744 166.465 27.4472 166.599 25.9827C166.742 24.4234 167.86 23.1911 168.772 22.011C170.463 19.8241 171.033 17.7123 170.489 14.9566C170.339 14.1949 170.03 13.4464 169.912 12.6847C169.662 11.0666 170.222 10.6253 171.265 9.86687C171.994 9.33731 172.701 8.83716 173.053 7.96762C173.516 6.81369 173.203 5.55842 173.262 4.35872C173.34 2.79617 174.663 1.90702 174.747 0.393499C174.777 -0.1328 173.962 -0.129531 173.933 0.393499C173.861 1.66185 172.626 2.57061 172.477 3.88799C172.297 5.47669 172.942 7.25826 171.675 8.53315C170.965 9.24578 169.935 9.59882 169.362 10.4586C168.723 11.4163 168.997 12.4199 169.28 13.466C169.811 15.4273 170.313 17.5554 169.437 19.5037C168.929 20.638 168.055 21.5697 167.319 22.5536C166.671 23.4231 166.052 24.3613 165.85 25.4499C165.566 26.9896 166.273 28.4867 165.879 30.0199C165.752 30.5298 166.537 30.7488 166.667 30.2389Z" fill="#002247"/>
<path d="M191.201 46.8578C191.888 44.7134 195.11 44.8866 196.401 43.177C197.189 42.1309 196.971 40.8397 197.385 39.6661C197.994 37.9467 199.893 37.9663 201.314 37.355C202.164 36.9921 202.8 36.4757 203.142 35.5963C203.8 33.8932 203.849 32.4124 205.641 31.4219C206.765 30.8008 208.016 30.8269 208.83 29.722C210.036 28.081 210.788 26.8323 212.906 26.2537C213.411 26.1164 213.196 25.3253 212.691 25.4659C211.326 25.8385 210.107 26.5348 209.195 27.6397C208.729 28.202 208.478 28.9898 207.97 29.5063C207.328 30.1568 206.224 30.2026 205.432 30.6014C204.275 31.1832 203.363 32.1933 202.887 33.3996C202.611 34.1057 202.627 35.0046 202.226 35.6552C201.692 36.528 200.639 36.7306 199.743 37.0052C198.756 37.3092 197.701 37.6165 197.062 38.4926C196.153 39.7413 196.655 41.4869 195.716 42.6997C194.293 44.5368 191.22 44.1348 190.419 46.6322C190.256 47.1422 191.041 47.3547 191.201 46.8578Z" fill="#002247"/>
<path d="M215.516 63.3399C216.493 58.9073 222.895 61.9964 225.56 59.7474C226.463 58.9857 226.398 58.0181 226.505 56.9296C226.616 55.8181 226.932 54.4975 227.968 53.8796C228.994 53.2651 230.343 53.5822 231.461 53.5593C232.757 53.5331 233.803 53.1311 234.673 52.1504C235.237 51.5162 235.657 50.7545 236.24 50.1367C236.993 49.3424 237.908 48.9305 238.928 48.6036C241.437 47.7994 244.685 47.417 245.431 44.3834C245.558 43.8734 244.773 43.6544 244.646 44.1676C243.718 47.94 238.413 47.0051 235.986 49.2345C234.533 50.5682 233.976 52.5819 231.712 52.7421C230.236 52.8467 228.691 52.4086 227.375 53.301C226.424 53.9483 225.981 55.0565 225.785 56.1548C225.593 57.2368 225.86 58.5248 224.788 59.3028C223.863 59.9729 222.423 59.9141 221.335 59.9239C218.819 59.9435 215.395 60.0743 214.721 63.1275C214.616 63.6341 215.402 63.8532 215.516 63.3399Z" fill="#002247"/>
<path d="M108.126 79.59C108.126 79.59 111.042 80.8714 113.962 83.9802C116.878 87.089 118.52 88.7365 121.315 89.3478C124.11 89.9591 126.056 90.201 126.056 90.201L122.592 118.739C122.592 118.739 131.588 126.238 145.747 127.643C159.907 129.049 169.753 125.264 172.187 123.923C174.617 122.583 176.139 121.364 176.139 121.364L173.646 85.8729L175.226 85.752C175.226 85.752 178.631 83.8004 181.85 80.0804C185.072 76.3603 187.744 72.7612 187.744 72.7612C187.744 72.7612 175.223 59.8326 173.643 57.698C172.063 55.5633 169.085 52.6965 165.804 51.7844C162.523 50.8691 149.028 49.5289 149.028 49.5289L149.09 52.6998C149.09 52.6998 145.868 54.8344 142.284 53.1868C138.697 51.5393 136.025 48.3096 136.025 48.3096C136.025 48.3096 124.479 52.0917 122.472 52.9449C120.465 53.7981 115.604 55.7497 114.874 57.8843C114.144 60.0156 108.126 79.59 108.126 79.59Z" fill="#D7DBFF"/>
<path d="M138.462 32.8806C139.407 32.217 139.951 31.3474 140.381 30.2818C141.02 28.7061 141.561 25.8687 143.737 25.8066C144.682 25.7805 145.659 26.4604 146.559 26.7415C147.213 26.9475 147.888 27.0815 148.569 27.1632C150.055 27.343 151.583 27.2253 153.026 26.8429C155.408 26.2087 158.265 24.6592 159.259 22.25C160.454 19.3472 159.109 15.6892 157.343 13.3389C157.03 12.9237 156.323 13.3291 156.639 13.7508C158.692 16.4869 160.08 20.9294 157.261 23.6295C154.916 25.8753 151.361 26.82 148.194 26.2904C146.132 25.9472 143.939 24.1296 141.978 25.6366C139.824 27.2907 140.257 30.6283 138.049 32.1745C137.625 32.4752 138.032 33.1846 138.462 32.8806Z" fill="#002247"/>
<path d="M138.707 32.0342C137.892 30.8836 136.742 29.6871 135.191 29.9683C133.807 30.22 133.308 31.4654 133.399 32.7599C133.575 35.192 136.032 40.1085 139.101 37.9477C138.915 37.8987 138.73 37.8497 138.544 37.8006C140.16 41.2101 142.121 44.8386 145.692 46.5091C148.426 47.7872 151.387 47.4996 153.609 45.414C159.308 40.0693 158.298 31.8904 157.011 24.9864C156.916 24.4699 156.131 24.6889 156.225 25.2021C157.389 31.4458 158.441 38.5852 153.948 43.8612C151.749 46.4437 148.751 47.2282 145.666 45.5807C142.473 43.8743 140.74 40.5335 139.244 37.3855C139.156 37.1959 138.857 37.1207 138.687 37.2384C136.648 38.6767 135.006 35.7543 134.507 34.1688C134.286 33.466 134.005 32.5115 134.25 31.7858C135.116 29.2066 137.41 31.606 138.003 32.4428C138.303 32.8743 139.01 32.4657 138.707 32.0342Z" fill="#002247"/>
<path d="M136.071 29.9874C135.468 27.0878 135.292 23.7993 136.543 21.037C137.895 18.0492 140.919 16.5847 144.079 16.4409C145.852 16.3592 147.578 16.6893 149.295 17.0881C150.351 17.3333 151.413 17.5916 152.505 17.4771C154.544 17.2679 156.242 15.9571 157.151 14.1494C157.385 13.6819 156.685 13.2668 156.447 13.7375C155.655 15.3131 154.228 16.454 152.449 16.6468C150.693 16.8332 148.924 16.0911 147.204 15.8263C144.545 15.4177 141.724 15.5583 139.322 16.8789C134.592 19.4843 134.305 25.4828 135.286 30.2064C135.393 30.7163 136.178 30.5006 136.071 29.9874Z" fill="#002247"/>
<path d="M146.849 31.0334C146.914 31.6251 146.979 32.2167 147.044 32.8084C147.103 33.3249 147.917 33.3314 147.859 32.8084C147.793 32.2167 147.728 31.6251 147.663 31.0334C147.608 30.5169 146.79 30.5103 146.849 31.0334Z" fill="#002247"/>
<path d="M154.28 30.5559C154.329 31.0986 154.404 31.638 154.508 32.1741C154.609 32.6906 155.394 32.4715 155.293 31.9583C155.202 31.4941 155.137 31.0299 155.095 30.5592C155.046 30.0362 154.231 30.0296 154.28 30.5559Z" fill="#002247"/>
<path d="M151.045 30.9384C150.996 31.8145 151.058 32.6579 151.224 33.5176C151.28 33.802 151.602 33.8576 151.824 33.7628C152.387 33.5143 152.954 34.5964 152.762 35.0671C152.553 35.5738 151.957 35.613 151.501 35.6228C150.977 35.6359 150.977 36.4531 151.501 36.44C152.795 36.4073 153.837 35.7863 153.577 34.325C153.384 33.2496 152.436 32.6056 151.413 33.0567C151.612 33.1384 151.811 33.2201 152.013 33.3019C151.863 32.514 151.817 31.7393 151.863 30.9384C151.889 30.4121 151.074 30.4154 151.045 30.9384Z" fill="#002247"/>
<path d="M146.885 35.6932C147.199 35.3209 146.994 34.6299 146.428 34.1499C145.862 33.6698 145.148 33.5824 144.835 33.9548C144.521 34.3271 144.726 35.0181 145.292 35.4981C145.859 35.9782 146.572 36.0655 146.885 35.6932Z" fill="#6877FF"/>
<path d="M156.488 34.9541C157.09 34.5203 157.349 33.8477 157.065 33.4517C156.782 33.0557 156.064 33.0864 155.462 33.5202C154.86 33.954 154.601 34.6267 154.884 35.0226C155.168 35.4186 155.886 35.3879 156.488 34.9541Z" fill="#6877FF"/>
<path d="M137.149 38.1665C137.208 41.6838 137.123 45.2208 136.934 48.7317C136.905 49.258 137.719 49.2547 137.749 48.7317C137.938 45.2176 138.026 41.6838 137.964 38.1665C137.954 37.6402 137.139 37.6369 137.149 38.1665Z" fill="#002247"/>
<path d="M150.967 38.9869C150.758 39.5982 150.81 40.3043 151.175 40.8502C151.498 41.334 152.179 41.5432 152.527 40.9712C152.703 40.6835 152.782 40.2978 152.873 39.9774C152.957 39.6799 153.111 39.3106 153.052 38.9935C152.928 38.3168 152.029 38.2285 151.491 38.3364C150.977 38.441 151.195 39.2288 151.706 39.1242C151.817 39.1013 152.127 39.0654 152.221 39.1667C152.237 39.1863 152.192 39.3563 152.169 39.4511C152.097 39.7322 152.016 40.0101 151.925 40.2847C151.899 40.3599 151.876 40.4351 151.85 40.5103C151.863 40.4874 151.876 40.4678 151.889 40.4449C151.798 40.3566 151.736 40.1637 151.703 40.0461C151.625 39.7584 151.661 39.4805 151.755 39.2059C151.921 38.7058 151.136 38.4901 150.967 38.9869Z" fill="#002247"/>
<path d="M136.016 48.8428C139.772 53.5337 147.986 56.7798 151.804 50.4674C152.078 50.0163 151.374 49.6044 151.1 50.0556C149.263 53.0924 146.744 53.5076 143.486 52.8243C140.58 52.2131 138.413 50.5361 136.592 48.2642C136.263 47.8556 135.69 48.4374 136.016 48.8428Z" fill="#002247"/>
<path d="M135.716 47.9082C131.402 50.1735 126.662 51.2882 122.068 52.8116C119.155 53.7792 115.887 54.6291 114.45 57.63C114.226 58.1007 114.926 58.5159 115.154 58.0419C116.751 54.7108 121.266 53.8936 124.475 52.9031C128.44 51.6805 132.438 50.5527 136.13 48.611C136.592 48.3723 136.182 47.6663 135.716 47.9082Z" fill="#002247"/>
<path d="M114.388 57.8685C111.691 65.0471 109.462 72.3826 107.713 79.8521C107.66 80.0776 107.784 80.2803 107.996 80.3555C111.736 81.6794 113.821 85.0235 116.874 87.3118C119.386 89.198 122.703 90.6755 125.899 90.2898C126.414 90.2277 126.42 89.4105 125.899 89.4726C122.286 89.9073 118.507 87.9133 115.965 85.4583C113.59 83.1635 111.404 80.6955 108.214 79.5644C108.309 79.7311 108.403 79.9011 108.498 80.0678C110.251 72.6016 112.479 65.2628 115.174 58.0842C115.359 57.5939 114.574 57.3814 114.388 57.8685Z" fill="#002247"/>
<path d="M124.811 73.0261C126.095 80.5152 125.88 88.2267 125.26 95.7714C124.635 103.398 123.488 110.975 122.071 118.494C122.038 118.667 122.09 118.866 122.257 118.955C123.967 119.88 125.508 121.109 127.209 122.063C130.737 124.041 134.533 125.522 138.41 126.646C147.624 129.314 157.31 128.971 166.488 126.261C169.919 125.247 173.662 123.933 176.38 121.508C176.771 121.158 176.194 120.583 175.803 120.929C173.871 122.652 171.346 123.721 168.948 124.594C165.745 125.757 162.406 126.558 159.04 127.078C151.009 128.314 143.242 127.542 135.566 124.888C132.676 123.887 129.861 122.652 127.209 121.125C125.88 120.36 124.309 119.556 123.149 118.536C122.726 118.164 122.768 118.481 123.025 117.791C123.293 117.075 123.322 116.173 123.455 115.421C123.781 113.587 124.084 111.75 124.368 109.906C124.951 106.124 125.446 102.329 125.821 98.5205C126.661 90.0082 127.039 81.2736 125.59 72.8071C125.508 72.2939 124.723 72.5129 124.811 73.0261Z" fill="#002247"/>
<path d="M172.343 72.3622C173.548 88.6481 173.47 105.094 175.78 121.282C175.855 121.802 176.64 121.579 176.565 121.066C174.268 104.95 174.36 88.5762 173.157 72.3622C173.118 71.8392 172.304 71.836 172.343 72.3622Z" fill="#002247"/>
<path d="M151.387 50.2879C154.899 50.9384 158.408 51.164 161.96 51.4811C163.908 51.6543 166.035 51.8178 167.752 52.8442C169.137 53.6712 170.33 54.835 171.463 55.9693C173.985 58.4962 176.259 61.2617 178.54 64.0011C181.29 67.3027 184.613 69.9767 187.597 73.0495C187.597 72.8566 187.597 72.6638 187.597 72.4709C185.434 74.9651 183.391 77.5639 181.254 80.081C179.361 82.3104 177.002 85.2982 173.829 85.3865C173.304 85.3995 173.304 86.2168 173.829 86.2037C176.647 86.1252 178.888 84.0004 180.664 82.0064C183.258 79.1003 185.62 75.9915 188.171 73.0495C188.317 72.8828 188.334 72.6376 188.171 72.4709C185.089 69.3 181.694 66.5247 178.853 63.1119C176.474 60.2516 174.099 57.3553 171.411 54.7794C169.026 52.4912 166.866 51.2359 163.536 50.824C159.545 50.3304 155.564 50.2356 151.599 49.5001C151.091 49.4053 150.872 50.1931 151.387 50.2879Z" fill="#002247"/>
<path d="M174.428 122.312C175.976 128.275 176.243 134.845 175.735 140.971C175.239 146.953 173.483 153.396 170.027 158.365C165.82 164.409 161.751 170.545 157.675 176.681C155.681 179.685 153.678 182.686 151.651 185.667C149.465 188.887 146.849 192.025 145.047 195.481C143.773 197.923 143.467 200.711 142.825 203.359C142.313 205.464 141.733 207.55 141.118 209.625C139.678 214.499 138.062 219.318 136.364 224.107C133.174 233.122 129.773 242.109 125.86 250.84C125.248 252.207 124.625 253.576 123.925 254.9C123.723 255.279 123.423 255.659 123.26 256.051C123.228 256.133 123.133 256.26 123.061 256.316C123.071 256.309 122.954 256.401 123.003 256.374C123.436 256.142 122.602 256.083 122.289 255.959C115.239 253.115 107.426 250.304 99.7075 251.275C99.8248 251.481 99.9421 251.683 100.059 251.889C108.26 238.546 113.916 223.672 116.555 208.213C117.226 204.287 117.575 200.319 118.223 196.393C118.914 192.222 120.194 188.348 122.071 184.559C125.362 177.917 128.965 171.428 132.308 164.812C136.305 156.894 140.186 148.911 143.779 140.801C143.991 140.324 143.288 139.909 143.076 140.389C136.882 154.377 129.858 167.966 122.736 181.493C120.953 184.876 119.266 188.315 118.298 192.032C117.278 195.948 116.933 199.995 116.386 203.99C115.317 211.829 113.476 219.56 110.909 227.039C107.976 235.591 104.086 243.779 99.3589 251.474C99.2123 251.716 99.398 252.128 99.7108 252.089C107.191 251.147 114.747 253.812 121.595 256.551C122.615 256.96 123.166 257.492 123.869 256.597C124.41 255.91 124.778 255.031 125.163 254.253C129.03 246.401 132.106 238.095 135.133 229.893C138.58 220.563 142.046 211.057 144.125 201.306C144.522 199.439 144.864 197.599 145.747 195.886C146.774 193.899 148.207 192.107 149.478 190.273C151.671 187.102 153.831 183.909 155.971 180.702C160.177 174.406 164.331 168.071 168.619 161.827C170.362 159.287 172.112 156.93 173.298 154.076C174.79 150.487 175.832 146.679 176.347 142.821C177.246 136.104 176.917 128.654 175.21 122.09C175.08 121.586 174.295 121.802 174.428 122.312Z" fill="#002247"/>
<path d="M121.608 198.086C125.235 200.776 130.177 199.675 132.35 195.726C132.604 195.265 131.901 194.853 131.646 195.314C129.675 198.897 125.287 199.805 122.019 197.38C121.598 197.066 121.191 197.775 121.608 198.086Z" fill="#002247"/>
<path d="M159.812 141.592C161.555 143.458 165.198 141.798 166.703 140.287C169.098 137.882 171.03 134.642 172.086 131.419C172.248 130.919 171.463 130.703 171.3 131.203C170.466 133.746 169.036 136.162 167.391 138.261C166.648 139.209 165.856 140.196 164.752 140.716C163.579 141.268 161.451 142.154 160.392 141.02C160.031 140.631 159.454 141.209 159.812 141.592Z" fill="#002247"/>
<path d="M126.189 121.27C125.401 129.697 125.567 138.245 125.857 146.695C126.143 155.025 126.564 163.436 127.893 171.673C127.978 172.19 128.763 171.971 128.678 171.458C127.333 163.138 126.932 154.632 126.655 146.221C126.381 137.931 126.228 129.543 127.004 121.273C127.052 120.747 126.238 120.75 126.189 121.27Z" fill="#002247"/>
<path d="M157.988 177.135C157.499 180.616 156.805 184.068 156.209 187.53C155.997 188.763 155.424 190.446 155.707 191.695C156.053 193.208 158.509 193.944 159.734 194.454C164.058 196.249 168.769 196.794 173.291 197.87C177.911 198.965 182.511 200.099 187.184 200.953C192.364 201.897 197.587 202.558 202.816 203.146C202.685 202.973 202.555 202.803 202.422 202.63C200.402 210.374 197.978 218.007 195.958 225.751C195.824 226.261 196.609 226.476 196.743 225.966C198.763 218.222 201.187 210.589 203.207 202.845C203.278 202.564 203.076 202.358 202.812 202.329C197.163 201.695 191.523 200.962 185.936 199.89C180.55 198.857 175.269 197.396 169.899 196.298C167.358 195.778 164.797 195.304 162.318 194.526C160.894 194.078 159.5 193.529 158.177 192.832C156.766 192.09 156.47 190.891 156.707 189.416C157.356 185.389 158.196 181.391 158.767 177.354C158.848 176.838 158.063 176.615 157.988 177.135Z" fill="#002247"/>
<path d="M141.065 212.748C141.766 214.111 143.431 214.742 144.789 215.206C147.49 216.131 150.357 216.595 153.163 217.066C161.803 218.517 170.483 219.658 179.042 221.58C184.769 222.868 190.422 224.463 195.925 226.51C196.417 226.693 196.629 225.902 196.14 225.722C187.122 222.371 177.722 220.263 168.257 218.648C161.272 217.455 154.117 216.781 147.233 215.062C145.519 214.634 142.675 214.101 141.769 212.336C141.528 211.868 140.824 212.28 141.065 212.748Z" fill="#002247"/>
<path d="M199.121 223.492C199.936 224.192 200.979 224.437 202.021 224.594C203.272 224.78 205.107 224.296 205.752 225.588C206.341 226.765 206.468 228.137 206.954 229.357C207.765 231.387 208.71 233.368 209.524 235.398C211.036 239.173 212.294 243.024 213.591 246.875C214.395 249.268 216.305 252.233 219.025 250.128C219.436 249.81 219.028 249.101 218.615 249.421C216.031 251.419 214.76 247.843 214.141 245.93C213.551 244.106 212.949 242.285 212.31 240.478C211.167 237.258 209.902 234.084 208.544 230.952C207.961 229.612 207.472 228.34 207.074 226.941C206.833 226.091 206.579 225.006 205.921 224.365C205.325 223.783 204.696 223.93 203.927 223.927C202.585 223.924 200.76 223.836 199.695 222.917C199.304 222.574 198.724 223.149 199.121 223.492Z" fill="#002247"/>
<path d="M208.931 209.838C209.003 210.75 209.156 211.891 208.902 212.773C208.387 214.578 205.908 213.931 204.585 213.62C203.207 213.296 201.839 212.692 200.93 214.12C199.955 215.653 199.525 217.752 199.281 219.517C199.112 220.733 198.18 222.619 199.336 223.558C199.74 223.884 200.32 223.309 199.913 222.979C199.239 222.433 199.867 221.279 199.981 220.632C200.174 219.556 200.239 218.491 200.529 217.432C200.91 216.046 201.216 214.038 203.054 214.061C203.924 214.071 204.953 214.565 205.833 214.682C206.875 214.82 208.791 215.196 209.43 214.097C210.078 212.979 209.84 211.06 209.746 209.838C209.707 209.315 208.892 209.312 208.931 209.838Z" fill="#002247"/>
<path d="M222.087 211.449C222.873 218.615 224.036 225.744 224.202 232.966C224.316 238.032 224.58 247.682 218.458 249.634C217.959 249.794 218.171 250.582 218.673 250.422C224.668 248.513 225.003 240.079 225.033 234.914C225.078 227.039 223.756 219.256 222.902 211.449C222.847 210.933 222.029 210.926 222.087 211.449Z" fill="#002247"/>
<path d="M222.169 210.985C218.979 210.854 215.63 210.916 212.58 209.851C211.763 209.566 208.449 207.781 208.954 210.249C209.058 210.766 209.844 210.547 209.739 210.034C209.655 209.625 212.685 210.746 212.887 210.808C213.805 211.086 214.75 211.263 215.698 211.394C217.839 211.685 220.009 211.717 222.166 211.806C222.693 211.822 222.693 211.005 222.169 210.985Z" fill="#002247"/>
<path d="M219.693 211.606C220.931 218.15 221.602 224.789 221.657 231.455C221.683 234.593 221.576 237.731 221.335 240.86C221.103 243.851 220.879 247.113 218.666 249.365C218.298 249.741 218.875 250.32 219.243 249.944C221.012 248.146 221.625 245.77 221.921 243.324C222.345 239.814 222.465 236.244 222.475 232.71C222.498 225.554 221.807 218.418 220.478 211.39C220.38 210.87 219.595 211.089 219.693 211.606Z" fill="#002247"/>
<path d="M207.136 220.236C207.048 220.982 206.872 221.717 206.598 222.417C206.413 222.888 205.97 223.417 206.116 223.94C206.162 224.107 206.331 224.247 206.51 224.241C206.739 224.234 206.866 224.159 206.983 223.96C207.068 223.813 207.055 223.581 206.918 223.466C206.905 223.453 206.888 223.44 206.875 223.43C206.481 223.087 205.904 223.662 206.299 224.009C206.312 224.022 206.328 224.035 206.341 224.045C206.318 223.881 206.299 223.715 206.276 223.551C206.263 223.577 206.247 223.6 206.234 223.626C206.351 223.558 206.468 223.492 206.585 223.424C206.559 223.424 206.533 223.427 206.507 223.427C206.638 223.528 206.768 223.626 206.901 223.728C206.866 223.6 207.188 223.12 207.244 222.986C207.374 222.682 207.491 222.371 207.589 222.054C207.771 221.462 207.879 220.858 207.954 220.243C208.016 219.717 207.198 219.72 207.136 220.236Z" fill="#002247"/>
<path d="M208.41 220.909C208.247 222.269 207.876 223.58 207.306 224.826C207.087 225.3 207.791 225.715 208.009 225.237C208.645 223.855 209.042 222.423 209.225 220.909C209.287 220.386 208.469 220.393 208.41 220.909Z" fill="#002247"/>
<path d="M209.726 222.851C209.544 224.799 209.075 226.676 208.306 228.477C208.104 228.951 208.71 229.337 209.01 228.889C209.101 228.751 209.195 228.611 209.287 228.474C209.576 228.036 208.873 227.624 208.583 228.062C208.492 228.199 208.397 228.34 208.306 228.477C208.54 228.614 208.775 228.751 209.01 228.889C209.837 226.95 210.345 224.95 210.541 222.851C210.59 222.328 209.775 222.331 209.726 222.851Z" fill="#002247"/>
<path d="M210.929 226.735C210.86 228.349 210.492 229.892 209.814 231.36C209.596 231.834 210.296 232.249 210.518 231.772C211.258 230.173 211.668 228.497 211.743 226.735C211.766 226.208 210.951 226.208 210.929 226.735Z" fill="#002247"/>
<path d="M212.121 229.998C211.909 231.286 211.508 232.502 210.902 233.659C210.658 234.123 211.362 234.538 211.606 234.071C212.245 232.855 212.681 231.57 212.906 230.213C212.991 229.7 212.206 229.478 212.121 229.998Z" fill="#002247"/>
<path d="M213.066 233.135C212.763 234.165 212.46 235.195 212.154 236.221C212.004 236.728 212.789 236.943 212.939 236.437C213.242 235.407 213.545 234.377 213.851 233.351C214.001 232.847 213.216 232.632 213.066 233.135Z" fill="#002247"/>
<path d="M114.173 264.874C114.349 267.443 114.466 270.019 114.502 272.595C114.538 275.099 114.76 277.839 114.398 280.323C114.128 282.176 113.251 282.317 111.596 282.954C110.527 283.366 109.433 283.71 108.358 284.115C106.24 284.909 104.464 286.014 102.61 287.302C99.0818 289.757 94.8886 290.914 90.5977 290.62C88.3757 290.47 86.17 289.924 84.1435 288.992C83.2052 288.557 82.117 288.221 82.0029 287.116C81.8759 285.864 82.0779 284.455 82.1137 283.196C82.13 282.67 81.3155 282.67 81.2992 283.196C81.2764 284 81.2536 284.805 81.2308 285.609C81.2145 286.184 80.9278 287.508 81.1624 288.021C81.423 288.593 82.0779 288.839 82.6317 289.143C84.5345 290.192 86.6261 290.888 88.77 291.231C93.1781 291.934 97.8404 291.159 101.695 288.868C104.23 287.364 106.292 285.723 109.107 284.703C110.364 284.249 111.638 283.84 112.867 283.314C113.557 283.02 114.519 282.719 114.929 282.023C115.411 281.206 115.226 279.937 115.252 279.035C115.3 277.535 115.323 276.031 115.323 274.527C115.32 271.307 115.199 268.087 114.978 264.874C114.952 264.351 114.137 264.348 114.173 264.874Z" fill="#002247"/>
<path d="M102.952 258.381C103.167 261.241 101.16 263.592 99.4532 265.658C97.7166 267.756 95.954 269.806 94.022 271.728C90.109 275.621 85.8116 279.096 81.6022 282.653C81.2014 282.993 81.7781 283.568 82.1789 283.232C86.8314 279.302 91.5947 275.471 95.8172 271.068C97.7753 269.025 99.6454 266.851 101.353 264.592C102.731 262.768 103.949 260.751 103.77 258.384C103.728 257.861 102.913 257.855 102.952 258.381Z" fill="#002247"/>
<path d="M103.513 258.813C104.601 258.656 105.764 258.585 106.869 258.637C107.631 258.673 108.4 258.67 109.032 259.166C109.791 259.761 109.934 260.448 109.99 261.419C110.088 263.119 110.048 264.74 110.508 266.401C111.303 269.287 113.906 265.806 114.851 264.825C115.216 264.446 114.639 263.867 114.274 264.246C113.73 264.809 112.945 265.995 112.244 266.352C110.997 266.979 111.036 265.06 110.931 264.246C110.752 262.847 111.15 261.108 110.667 259.781C109.693 257.084 105.435 257.712 103.294 258.019C102.78 258.101 103.001 258.889 103.513 258.813Z" fill="#002247"/>
<path d="M114.685 278.754C111.632 280.189 108.566 281.634 105.344 282.65C103.842 283.124 102.294 283.399 100.782 283.834C99.4303 284.223 98.2574 284.899 96.9998 285.511C92.3375 287.776 85.9712 286.459 82.2342 282.944C81.853 282.585 81.2763 283.16 81.6575 283.523C85.1599 286.815 90.9952 288.374 95.6281 286.955C96.9933 286.537 98.1694 285.733 99.4662 285.164C101.219 284.396 103.158 284.157 104.982 283.615C108.481 282.572 111.795 281.009 115.092 279.46C115.568 279.237 115.157 278.531 114.685 278.754Z" fill="#002247"/>
<path d="M114.776 265.191C115.952 261.729 117.226 258.395 119.298 255.361C119.595 254.926 118.891 254.518 118.594 254.949C116.477 258.045 115.186 261.444 113.987 264.975C113.821 265.472 114.606 265.688 114.776 265.191Z" fill="#002247"/>
<path d="M94.5433 275.452C95.5924 275.713 96.5991 276.079 97.5537 276.596C98.0685 276.877 98.8602 277.717 99.4662 277.639C99.6259 277.619 99.8344 277.528 99.8605 277.338C99.8898 277.129 99.88 276.975 99.7106 276.828C99.5868 276.72 99.3652 276.651 99.2186 276.763C99.2056 276.772 99.1926 276.782 99.1795 276.792C98.7657 277.106 99.1697 277.815 99.59 277.498C99.6031 277.488 99.6161 277.479 99.6291 277.469C99.4662 277.446 99.3001 277.426 99.1372 277.403C99.1567 277.42 99.173 277.436 99.1926 277.452C99.1567 277.318 99.1241 277.188 99.0883 277.054C99.085 277.076 99.0818 277.096 99.0785 277.119C99.2088 277.018 99.3392 276.92 99.4727 276.818C99.2577 276.848 98.7364 276.338 98.5214 276.204C98.1141 275.955 97.6938 275.73 97.2605 275.53C96.459 275.158 95.625 274.873 94.7648 274.661C94.2501 274.536 94.035 275.324 94.5433 275.452Z" fill="#002247"/>
<path d="M96.5014 273.719C98.2249 274.572 99.9386 275.451 101.265 276.883C101.604 277.249 102.076 276.785 101.903 276.39C101.867 276.305 101.828 276.22 101.792 276.135C101.584 275.654 100.883 276.069 101.089 276.547C101.125 276.632 101.164 276.717 101.199 276.802C101.411 276.638 101.626 276.471 101.838 276.308C100.466 274.827 98.6973 273.902 96.9119 273.016C96.446 272.781 96.0322 273.487 96.5014 273.719Z" fill="#002247"/>
<path d="M98.7461 271C100.678 271.5 102.441 272.366 104.001 273.618C104.327 273.88 104.946 273.523 104.64 273.124C104.585 273.053 104.529 272.981 104.477 272.909C104.164 272.497 103.454 272.902 103.773 273.321C103.829 273.393 103.884 273.464 103.936 273.536C104.148 273.373 104.363 273.206 104.575 273.043C102.903 271.702 101.033 270.748 98.9612 270.212C98.4562 270.081 98.2379 270.869 98.7461 271Z" fill="#002247"/>
<path d="M100.971 268.257C102.711 269.022 104.379 269.915 105.976 270.944C106.419 271.229 106.826 270.523 106.386 270.238C104.787 269.209 103.122 268.313 101.382 267.551C100.906 267.342 100.492 268.045 100.971 268.257Z" fill="#002247"/>
<path d="M102.802 265.681C103.536 266.018 104.265 266.355 104.998 266.691C105.311 266.835 105.624 266.979 105.94 267.126C106.149 267.221 106.357 267.319 106.566 267.414C106.82 267.656 106.992 267.603 107.084 267.26C106.572 267.368 106.787 268.156 107.299 268.048C107.96 267.907 107.8 267.192 107.367 266.897C106.8 266.512 106.031 266.276 105.409 265.989C104.676 265.652 103.946 265.315 103.213 264.978C102.741 264.756 102.327 265.459 102.802 265.681Z" fill="#002247"/>
<path d="M105.367 257.803C106.084 255.959 106.628 254.066 107.155 252.161C107.315 251.589 106.429 251.343 106.269 251.915C105.741 253.821 105.197 255.714 104.481 257.558C104.269 258.113 105.155 258.352 105.367 257.803Z" fill="#002247"/>
<path d="M197.899 221.109C198.238 221.145 198.564 221.197 198.886 221.073C198.974 221.04 198.802 221.079 198.89 221.079C199.098 221.076 199.31 221.102 199.519 221.125C200.04 221.184 200.033 220.363 199.519 220.308C199.18 220.272 198.854 220.22 198.531 220.344C198.443 220.377 198.616 220.337 198.528 220.337C198.32 220.341 198.108 220.314 197.899 220.292C197.381 220.233 197.385 221.05 197.899 221.109Z" fill="#002247"/>
<path d="M201.115 210.874C203.757 211.469 206.413 211.79 209.117 211.907C209.641 211.93 209.641 211.113 209.117 211.09C206.488 210.972 203.904 210.665 201.333 210.087C200.822 209.972 200.603 210.76 201.115 210.874Z" fill="#002247"/>
<path d="M148.142 47.0874C148.155 48.9507 148.308 50.8041 148.474 52.6576C148.52 53.1774 149.338 53.1807 149.289 52.6576C149.119 50.8009 148.966 48.9507 148.957 47.0874C148.953 46.5611 148.139 46.5578 148.142 47.0874Z" fill="#002247"/>
<path d="M149.048 49.9544C149.784 49.804 150.54 50.2911 151.289 50.2747C151.814 50.2649 151.814 49.4477 151.289 49.4575C150.439 49.4771 149.699 48.99 148.833 49.1665C148.318 49.2712 148.536 50.059 149.048 49.9544Z" fill="#002247"/>
<path d="M156.03 191.698C153.84 192.744 151.954 194.251 150.455 196.164C150.136 196.572 150.706 197.154 151.032 196.742C152.492 194.879 154.306 193.424 156.44 192.404C156.913 192.179 156.499 191.473 156.03 191.698Z" fill="#002247"/>
<path d="M156.124 192.718C155.486 193.715 154.929 194.748 154.469 195.843C154.267 196.33 154.082 196.821 153.919 197.324C153.834 197.589 153.629 198.697 153.518 198.762C153.681 198.785 153.847 198.805 154.01 198.828C154.036 198.916 154.062 199.004 154.091 199.096C153.925 199.191 153.756 199.285 153.59 199.38C153.606 199.383 153.622 199.387 153.638 199.387C154.15 199.465 154.371 198.681 153.853 198.599C153.837 198.596 153.821 198.592 153.805 198.592C153.583 198.556 153.375 198.648 153.303 198.877C153.238 199.093 153.283 199.24 153.433 199.406C153.554 199.537 153.779 199.56 153.925 199.472C154.57 199.086 154.609 197.785 154.841 197.134C155.339 195.722 156.017 194.398 156.822 193.14C157.112 192.689 156.405 192.277 156.124 192.718Z" fill="#002247"/>
<path d="M217.314 77.652C219.337 76.4229 221.66 75.3703 222.915 73.2619C224.078 71.3103 224.964 69.6987 226.72 68.1885C228.239 66.8809 229.714 65.6027 230.891 63.9617C231.106 63.661 231.311 63.357 231.506 63.0432C231.816 62.1508 232.347 62.275 233.1 63.4126C233.354 64.3736 232.842 65.4458 232.422 66.2598C231.65 67.7668 230.617 69.143 229.516 70.4179C229.174 70.8134 229.747 71.3953 230.092 70.9965C231.572 69.2868 236.986 62.0658 231.76 61.3826C231.624 61.3662 231.471 61.4708 231.409 61.5852C230.431 63.3243 229.252 64.8607 227.776 66.201C226.737 67.1457 225.593 67.9825 224.635 69.0122C223.563 70.1662 223.016 71.5195 222.211 72.8467C221.025 74.795 218.79 75.7953 216.904 76.9427C216.454 77.2173 216.865 77.9234 217.314 77.652Z" fill="#002247"/>
<path d="M232.468 71.7388C230.874 72.5462 229.382 73.5334 228.053 74.7364C227.444 75.2856 226.515 76.1911 227.134 77.077C227.857 78.1099 229.894 77.2535 230.78 76.9331C232.347 76.3643 233.728 75.4686 234.953 74.3409C235.341 73.9845 234.764 73.4059 234.377 73.7622C233.585 74.4912 232.728 75.1254 231.767 75.6157C231.236 75.8871 230.682 76.1159 230.115 76.2957C229.444 76.5114 228.88 76.8547 228.388 76.2564C227.893 75.655 228.261 75.6288 228.805 75.1548C229.258 74.756 229.728 74.3833 230.216 74.0336C231.06 73.4288 231.95 72.9123 232.875 72.4449C233.347 72.2095 232.937 71.5034 232.468 71.7388Z" fill="#002247"/>
<path d="M228.949 77.2729C228.398 77.8156 227.737 78.7341 228.483 79.4206C229.291 80.1659 231.383 79.4598 232.318 79.2441C234.683 78.6916 238.283 77.7567 237.547 74.6022C237.426 74.089 236.641 74.308 236.762 74.818C237.28 77.0343 234.803 77.6881 233.201 78.1621C232.656 78.3223 232.103 78.4628 231.545 78.5772C231.242 78.6393 227.991 79.3585 229.525 77.8483C229.9 77.4821 229.323 76.9035 228.949 77.2729Z" fill="#002247"/>
<path d="M230.926 71.2837C231.796 71.0516 232.608 70.6757 233.464 70.4109C234.344 70.1396 236.136 69.9925 236.534 71.1922C236.915 72.3396 235.748 73.6308 236.768 74.6834C237.133 75.0626 237.71 74.484 237.345 74.1048C236.732 73.4706 237.469 72.0715 237.371 71.287C237.276 70.5155 236.846 70.048 236.159 69.744C234.217 68.881 232.591 69.9925 230.708 70.4926C230.203 70.6299 230.418 71.421 230.926 71.2837Z" fill="#002247"/>
<path d="M236.595 77.9075C237.462 79.0712 236.175 80.1336 235.11 80.454C234.341 80.6861 233.513 80.7645 232.725 80.8986C231.975 81.0228 230.258 81.6145 230.131 80.5651C230.096 80.2709 230.262 79.895 230.291 79.5975C230.343 79.0745 229.529 79.0778 229.477 79.5975C229.408 80.2742 229.079 81.0064 229.623 81.5883C230.441 82.4611 232.223 81.8073 233.181 81.6471C234.517 81.4216 236.198 81.317 237.143 80.1925C237.798 79.4112 237.908 78.3194 237.296 77.4956C236.986 77.0772 236.279 77.4858 236.595 77.9075Z" fill="#002247"/>
<path d="M236.094 81.091C236.283 82.732 234.204 83.1537 232.966 83.2681C232.63 83.3008 232.292 83.2943 231.956 83.2975C231.676 83.2975 231.396 83.2975 231.115 83.3041C230.477 83.2289 230.447 82.8268 231.031 82.1044C231.542 81.9965 231.327 81.2054 230.816 81.3166C229.985 81.4931 229.395 82.1992 229.685 83.0916C229.965 83.9448 230.783 84.1115 231.565 84.1148C233.474 84.1213 237.231 83.8467 236.911 81.091C236.85 80.5745 236.035 80.568 236.094 81.091Z" fill="#002247"/>
<path d="M230.431 83.3068C228.222 84.2646 225.847 83.5944 223.596 84.1894C223.091 84.3234 223.303 85.1112 223.811 84.9772C226.14 84.3594 228.542 85.0099 230.842 84.0129C231.321 83.8069 230.907 83.1008 230.431 83.3068Z" fill="#002247"/>
<path d="M217.04 76.7794C209.358 78.9075 200.942 79.8816 193.804 83.6082C193.338 83.8501 193.749 84.5562 194.214 84.3143C201.281 80.627 209.651 79.6724 217.259 77.5672C217.76 77.4267 217.545 76.6389 217.04 76.7794Z" fill="#002247"/>
<path d="M185.225 75.7591C188.161 78.5181 190.996 81.3784 193.925 84.1472C194.306 84.5067 194.882 83.9314 194.501 83.5686C191.572 80.803 188.738 77.9427 185.802 75.1805C185.418 74.8242 184.841 75.3995 185.225 75.7591Z" fill="#002247"/>
<path d="M223.54 84.2029C219.367 85.8929 215.424 88.1354 211.437 90.2177C207.182 92.4406 203.034 94.3071 198.355 95.4447C197.277 95.7062 196.114 95.8697 195.081 96.2848C193.784 96.8046 192.722 98.0533 191.237 97.4094C190.341 97.0204 189.52 96.3993 188.62 95.9808C187.558 95.4872 186.516 94.9577 185.499 94.3758C181.488 92.0712 178.282 88.8644 175.243 85.4156C174.894 85.0201 174.321 85.602 174.666 85.9942C177.751 89.4953 181.019 92.7446 185.089 95.0819C186.261 95.7553 187.473 96.347 188.702 96.9125C189.559 97.308 190.308 97.9389 191.175 98.292C193.009 99.0406 194.833 97.1315 196.554 96.7163C199.154 96.092 201.793 95.533 204.288 94.549C206.266 93.771 208.175 92.8132 210.068 91.8456C214.603 89.528 219.034 86.9063 223.762 84.9907C224.238 84.7945 224.029 84.0035 223.54 84.2029Z" fill="#002247"/>
<path d="M81.6642 101.64C79.465 101.499 77.015 101.653 75.0764 100.469C73.7536 99.6619 72.6361 98.7237 71.1537 98.2006C69.8277 97.7332 68.4299 97.5207 67.0713 97.1677C65.1458 96.6642 63.393 95.847 61.7248 94.7617C61.6108 94.6865 61.4251 94.6833 61.3143 94.7617C56.9615 97.8182 65.2957 101.728 67.257 102.503C67.7457 102.695 67.9575 101.904 67.4721 101.715C65.9049 101.097 64.3639 100.348 62.9792 99.3742C62.2591 98.8675 61.3762 98.2889 61.2035 97.3573C60.8484 96.7427 61.0569 96.2229 61.8258 95.8012C62.1516 96.0072 62.4807 96.2001 62.8195 96.3831C64.6994 97.403 66.6966 97.9261 68.7655 98.3968C69.6191 98.5929 70.4728 98.7956 71.2905 99.1159C72.5514 99.6161 73.5223 100.469 74.6626 101.172C76.7445 102.457 79.3054 102.306 81.661 102.457C82.1855 102.489 82.1855 101.672 81.6642 101.64Z" fill="#002247"/>
<path d="M65.4618 105.075C66.5728 105.062 67.674 105.111 68.772 105.285C69.2803 105.363 72.2158 105.611 70.9549 106.906C70.4434 107.432 68.7883 107.347 68.1074 107.367C66.9508 107.4 65.8267 107.236 64.7092 106.939C64.2009 106.805 63.9859 107.592 64.4942 107.726C66.1623 108.171 67.863 108.315 69.5768 108.05C70.4499 107.916 72.3559 107.743 72.6426 106.658C73.2942 104.167 66.7618 104.245 65.4651 104.258C64.9405 104.261 64.9373 105.079 65.4618 105.075Z" fill="#002247"/>
<path d="M70.9257 108.311C71.359 109.07 71.2222 109.482 70.5184 109.547C70.3392 109.609 70.16 109.668 69.9808 109.73C69.3488 109.933 68.7069 110.103 68.0553 110.24C66.423 110.587 63.6732 111.218 63.0965 108.962C62.9662 108.452 62.181 108.668 62.3113 109.178C63.1324 112.401 67.0095 111.41 69.3781 110.76C70.2578 110.518 72.2094 110.224 72.5645 109.204C72.9001 108.243 71.8738 107.746 71.144 107.524C70.639 107.37 70.4239 108.158 70.9257 108.311Z" fill="#002247"/>
<path d="M66.4458 102.346C64.5235 102.784 62.4123 102.535 61.171 104.369C60.8224 104.883 60.7018 105.406 60.8875 106.014C61.1384 106.831 62.5166 107.74 62.2494 108.642C62.0995 109.149 62.8847 109.364 63.0346 108.858C63.4679 107.396 61.5587 106.73 61.5978 105.448C61.6336 104.314 63.1551 103.702 64.012 103.542C64.895 103.376 65.7844 103.336 66.6641 103.137C67.1724 103.019 66.9573 102.228 66.4458 102.346Z" fill="#002247"/>
<path d="M63.8719 111.512C63.7318 112.512 64.1651 113.411 65.11 113.862C66.423 114.487 67.938 113.856 69.2086 113.441C70.147 113.133 72.0334 112.891 72.4863 111.816C72.8284 111.002 72.167 110.427 71.7499 109.815C71.4534 109.384 70.7497 109.792 71.0462 110.227C71.1993 110.453 71.5968 110.789 71.6522 111.022C71.8607 111.907 70.0199 112.313 69.4595 112.496C68.2964 112.878 64.2857 114.366 64.6571 111.728C64.7288 111.214 63.9436 110.992 63.8719 111.512Z" fill="#002247"/>
<path d="M65.8301 114.529C66.7325 117.082 70.0199 115.826 71.7402 114.94C72.5026 114.548 73.366 114.051 73.1933 113.028C73.0402 112.113 72.167 111.707 71.3492 111.982C70.854 112.149 71.0658 112.937 71.5643 112.77C72.2615 113.46 72.2908 113.891 71.6425 114.068C71.5382 114.123 71.4339 114.179 71.3264 114.231C70.9778 114.411 70.639 114.591 70.2741 114.735C69.2054 115.156 67.1431 115.803 66.612 114.31C66.4426 113.819 65.6541 114.032 65.8301 114.529Z" fill="#002247"/>
<path d="M72.6067 114.382C75.1057 114.198 76.9335 112.502 79.2858 111.966C79.7973 111.848 79.579 111.06 79.0708 111.178C76.8031 111.694 75.0112 113.388 72.6067 113.564C72.0887 113.604 72.0822 114.421 72.6067 114.382Z" fill="#002247"/>
<path d="M81.6772 102.352C89.3923 100.685 97.2476 97.6477 105.214 97.6346C105.738 97.6346 105.738 96.8174 105.214 96.8174C97.1694 96.8337 89.2522 99.8804 81.4622 101.564C80.9474 101.672 81.1657 102.46 81.6772 102.352Z" fill="#002247"/>
<path d="M109.55 81.2476C107.761 86.4942 106.409 91.8815 104.591 97.1216C104.419 97.6184 105.204 97.8342 105.376 97.3373C107.191 92.0972 108.547 86.71 110.335 81.4634C110.505 80.9632 109.716 80.7507 109.55 81.2476Z" fill="#002247"/>
<path d="M79.2337 111.966C84.0133 111.495 88.8483 111.705 93.6409 111.682C95.9313 111.669 98.2315 111.649 100.512 111.433C103.154 111.182 105.728 110.502 108.296 109.851C109.032 109.665 109.729 109.459 110.498 109.436C111.186 109.416 111.876 109.563 112.567 109.478C113.316 109.387 113.828 109.194 114.313 108.638C115.027 107.815 115.522 106.736 116.184 105.86C116.881 104.941 117.558 104.009 118.184 103.035C120.755 99.0407 122.165 94.608 123.296 90.025C123.423 89.515 122.638 89.296 122.511 89.8092C121.416 94.2386 120.067 98.5406 117.611 102.418C116.887 103.558 116.096 104.653 115.265 105.719C114.74 106.389 114.401 107.226 113.864 107.867C112.818 109.109 111.316 108.501 109.925 108.645C108.758 108.769 107.589 109.187 106.452 109.469C97.4724 111.698 88.34 110.25 79.2305 111.142C78.7157 111.198 78.7092 112.015 79.2337 111.966Z" fill="#002247"/>
<defs>
<linearGradient id="paint0_linear" x1="178.867" y1="142.337" x2="110.261" y2="262.565" gradientUnits="userSpaceOnUse">
<stop stop-color="#0014C9"/>
<stop offset="1" stop-color="#6877FF"/>
</linearGradient>
</defs>
</svg>
