<svg width="29" height="29" viewBox="0 0 29 29" fill="none" xmlns="http://www.w3.org/2000/svg">
<circle cx="14.3" cy="14.3" r="14.3" fill="#D0F8CF"/>
<path fill-rule="evenodd" clip-rule="evenodd" d="M20.9001 6.23331H10.6334C9.82673 6.23331 9.16673 6.89331 9.16673 7.69998V17.9666C9.16673 18.7733 9.82673 19.4333 10.6334 19.4333H20.9001C21.7067 19.4333 22.3667 18.7733 22.3667 17.9666V7.69998C22.3667 6.89331 21.7067 6.23331 20.9001 6.23331ZM6.2334 9.16663H7.70007V20.9H19.4334V22.3666H7.70007C6.8934 22.3666 6.2334 21.7066 6.2334 20.9V9.16663ZM17.2334 16.5H15.7667V10.6333H14.3001V9.16663H17.2334V16.5ZM10.6334 17.9667H20.9001V7.7H10.6334V17.9667Z" fill="#04903F"/>
</svg>
