<svg width="29" height="29" viewBox="0 0 29 29" fill="none" xmlns="http://www.w3.org/2000/svg">
<circle cx="14.3" cy="14.5" r="14.3" fill="#D0F8CF"/>
<path fill-rule="evenodd" clip-rule="evenodd" d="M20.9001 6.43335H10.6334C9.82673 6.43335 9.16673 7.09335 9.16673 7.90002V18.1667C9.16673 18.9733 9.82673 19.6333 10.6334 19.6333H20.9001C21.7067 19.6333 22.3667 18.9733 22.3667 18.1667V7.90002C22.3667 7.09335 21.7067 6.43335 20.9001 6.43335ZM6.2334 9.36668H7.70007V21.1H19.4334V22.5667H7.70007C6.8934 22.5667 6.2334 21.9067 6.2334 21.1V9.36668ZM17.9667 16.7H16.5001V13.7667H13.5667V9.36668H15.0334V12.3H16.5001V9.36668H17.9667V16.7ZM10.6334 18.1667H20.9001V7.90002H10.6334V18.1667Z" fill="#04903F"/>
</svg>
