<svg width="29" height="30" viewBox="0 0 29 30" fill="none" xmlns="http://www.w3.org/2000/svg">
<circle cx="14.3" cy="14.9" r="14.3" fill="#D0F8CF"/>
<path fill-rule="evenodd" clip-rule="evenodd" d="M10.6334 6.83333H20.9001C21.7067 6.83333 22.3667 7.49333 22.3667 8.3V18.5667C22.3667 19.3733 21.7067 20.0333 20.9001 20.0333H10.6334C9.82673 20.0333 9.16673 19.3733 9.16673 18.5667V8.3C9.16673 7.49333 9.82673 6.83333 10.6334 6.83333ZM6.2334 9.76666H7.70007V21.5H19.4334V22.9667H7.70007C6.8934 22.9667 6.2334 22.3067 6.2334 21.5V9.76666ZM20.9001 18.5667H10.6334V8.3H20.9001V18.5667ZM15.0334 15.6333H17.9667V17.1H13.5667V14.1667C13.5667 13.3527 14.2267 12.7 15.0334 12.7H16.5001V11.2333H13.5667V9.76666H16.5001C17.3067 9.76666 17.9667 10.4193 17.9667 11.2333V12.7C17.9667 13.514 17.3067 14.1667 16.5001 14.1667H15.0334V15.6333Z" fill="#04903F"/>
</svg>
