<svg width="29" height="30" viewBox="0 0 29 30" fill="none" xmlns="http://www.w3.org/2000/svg">
<circle cx="14.3" cy="14.9" r="14.3" fill="#D0F8CF"/>
<path fill-rule="evenodd" clip-rule="evenodd" d="M10.6334 6.83334H20.9001C21.7067 6.83334 22.3667 7.49334 22.3667 8.3V18.5667C22.3667 19.3733 21.7067 20.0333 20.9001 20.0333H10.6334C9.82673 20.0333 9.16673 19.3733 9.16673 18.5667V8.3C9.16673 7.49334 9.82673 6.83334 10.6334 6.83334ZM10.6334 18.5667H20.9001V8.3H10.6334V18.5667ZM7.70007 9.76667H6.2334V21.5C6.2334 22.3067 6.8934 22.9667 7.70007 22.9667H19.4334V21.5H7.70007V9.76667ZM17.9667 14.5333V15.6333C17.9667 16.4473 17.3067 17.1 16.5001 17.1H13.5667V15.6333H16.5001V14.1667H15.0334V12.7H16.5001V11.2333H13.5667V9.76667H16.5001C17.3067 9.76667 17.9667 10.4193 17.9667 11.2333V12.3333C17.9667 12.942 17.4754 13.4333 16.8667 13.4333C17.4754 13.4333 17.9667 13.9247 17.9667 14.5333Z" fill="#04903F"/>
</svg>
