<svg width="300" height="300" viewBox="0 0 300 300" fill="none" xmlns="http://www.w3.org/2000/svg">
<path d="M84.6634 224.778C69.5839 212.335 63.56 178.605 91.9316 165.441C108.308 157.841 125.57 164.849 137.763 180.751C128.039 186.581 119.75 198.184 115.333 218.774C110.204 242.662 124.299 263.407 142.845 277.604C133.766 291.578 120.599 299.28 108.759 299.899C84.5186 301.16 86.1579 290.376 93.3899 276.844C102.975 258.894 102.426 239.436 84.6634 224.778Z" fill="#D7DBFF"/>
<path opacity="0.2" d="M137.763 180.748C142.022 178.194 146.555 176.746 151.157 176.14C162.168 174.685 170.713 175.156 177.524 166.383C183.485 158.7 188.551 153.789 198.653 157.239C224.553 166.084 231.288 206.424 209.447 225.095C180.486 249.855 204.519 272.463 198.871 283.458C194.196 292.556 183.011 298.919 161.091 288.892C154.794 286.012 148.645 282.039 142.848 277.602C148.178 269.399 148.119 259.632 149.537 247.271C152.618 220.411 149.55 196.124 137.763 180.748Z" fill="url(#paint0_linear)"/>
<path d="M115.333 218.771C119.753 198.181 128.042 186.578 137.763 180.748C149.55 196.124 152.516 221.605 149.432 248.469C148.013 260.83 148.174 269.398 142.845 277.601C124.299 263.404 110.204 242.659 115.333 218.771Z" fill="#6877FF"/>
<path d="M131.617 118.34C131.617 118.34 143.793 118.778 154.87 111.431C163.82 105.496 173.844 105.107 173.844 105.107C173.844 105.107 186.425 165.123 186.576 167.433C186.727 169.748 185.773 174.929 185.352 177.901C184.512 183.833 177.382 243.756 177.382 243.756C177.382 243.756 160.917 242.788 160.644 242.808C160.37 242.824 161.256 204.36 162.444 195.4C163.633 186.437 164.742 172.15 164.482 168.204C164.222 164.257 155.574 134.621 155.601 135.029C155.627 135.438 152.615 168.576 152.898 185.367C153.181 202.158 155.699 248.736 155.699 248.736L139.731 251.152C139.731 251.152 133.743 178.836 133.799 175.551C133.865 172.269 131.617 118.34 131.617 118.34Z" fill="#6877FF"/>
<path opacity="0.2" d="M142.213 251.202L142.713 258.783C142.713 258.783 141.288 258.418 141.245 262.226C141.235 263.079 142.325 263.517 142.262 265.396C142.006 272.931 142.216 284.159 143.079 285.117C144.399 286.582 146.841 288.873 149.05 288.336C151.259 287.8 153.145 286.799 153.658 285.69C154.172 284.58 155.791 278.033 156.417 272.72C157.042 267.407 157.431 262.891 156.493 261.976C155.554 261.061 154.738 260.531 154.738 260.531L152.266 257.081L150.393 256.815L150.327 249.889L142.213 251.202Z" fill="url(#paint1_linear)"/>
<path d="M173.445 105.121C175.529 114.15 177.244 123.268 179.081 132.35C180.226 138.009 181.372 143.664 182.544 149.316C183.518 154.013 184.644 158.691 185.401 163.431C185.849 166.239 186.369 169.04 185.832 171.871C185.671 172.727 185.48 173.573 185.332 174.429C184.851 177.213 184.433 180.008 184.018 182.803C182.623 192.151 181.345 201.52 180.157 210.898C178.781 221.744 177.441 232.623 176.717 243.536C176.681 244.066 177.504 244.062 177.54 243.536C178.847 223.91 181.678 204.321 184.538 184.873C184.993 181.782 185.454 178.691 185.964 175.607C186.441 172.723 187.096 169.988 186.737 167.029C186.178 162.397 185.177 157.871 184.216 153.312C183.057 147.815 181.935 142.308 180.815 136.801C178.659 126.165 176.674 115.48 174.235 104.903C174.12 104.383 173.327 104.604 173.445 105.121Z" fill="#002247"/>
<path d="M155.248 135.569C157.638 142.515 160.14 149.434 161.914 156.571C162.819 160.208 163.438 163.898 164.116 167.581C164.686 170.676 164.498 173.47 164.133 176.575C162.503 190.301 161.552 204.163 160.831 217.965C160.4 226.188 160.11 234.42 159.86 242.65C159.85 242.946 160.13 243.081 160.38 243.048C161.312 242.916 162.381 243.107 163.316 243.167C165.16 243.279 167.003 243.413 168.846 243.542C171.388 243.72 174.298 244.315 176.839 243.957C177.362 243.884 177.138 243.091 176.622 243.163C175.69 243.295 174.62 243.104 173.685 243.045C171.842 242.933 169.999 242.798 168.155 242.67C165.614 242.492 162.704 241.896 160.163 242.255C160.337 242.386 160.508 242.518 160.683 242.653C161.111 228.456 161.717 214.268 162.809 200.107C163.376 192.773 163.988 185.436 164.775 178.122C165.068 175.399 165.63 172.605 165.308 169.863C164.906 166.456 164.192 163.006 163.471 159.655C161.693 151.353 158.8 143.367 156.042 135.355C155.87 134.855 155.074 135.066 155.248 135.569Z" fill="#002247"/>
<path d="M131.205 118.534C132.601 139.015 132.114 159.599 133.776 180.063C135.294 198.754 136.838 217.428 138.033 236.145C138.358 241.27 138.668 246.395 138.977 251.521C139.01 252.047 139.833 252.051 139.8 251.521C138.99 238.143 138.144 224.769 137.18 211.401C136.492 201.861 135.764 192.325 134.846 182.805C133.918 173.19 133.687 163.506 133.388 153.854C133.026 142.083 132.825 130.289 132.025 118.534C131.992 118.007 131.169 118.004 131.205 118.534Z" fill="#002247"/>
<path d="M156.351 119.13C155.169 136.01 153.438 152.887 152.734 169.797C151.911 189.59 153.201 209.508 154.182 229.275C154.498 235.678 154.616 242.153 155.281 248.532C155.337 249.052 156.16 249.059 156.104 248.532C155.555 243.269 155.443 237.929 155.173 232.646C154.689 223.159 154.254 213.666 153.892 204.172C153.517 194.383 153.145 184.577 153.389 174.777C153.593 166.544 154.244 158.338 154.853 150.128C155.62 139.796 156.447 129.463 157.171 119.127C157.214 118.6 156.391 118.603 156.351 119.13Z" fill="#002247"/>
<path d="M208.199 197.579C214.348 203.764 220.652 209.788 227.114 215.648C227.209 215.414 227.308 215.18 227.403 214.947C223.035 214.677 219.168 215.891 215.092 217.303C213.558 217.833 211.801 218.765 210.178 218.953C209.062 219.081 208.822 217.722 208.4 216.866C206.846 213.709 204.927 210.74 203.367 207.58C201.362 203.521 199.16 199.676 196.721 195.861C196.603 196.068 196.484 196.272 196.366 196.48C200.144 196.944 203.927 197.405 207.706 197.869C208.229 197.935 208.226 197.109 207.706 197.046C203.927 196.582 200.144 196.121 196.366 195.657C196.053 195.617 195.855 196.035 196.01 196.276C198.578 200.288 200.809 204.364 202.962 208.603C204.661 211.954 206.586 215.18 208.282 218.528C209.355 220.645 211.139 219.539 213.002 218.897C217.745 217.264 222.285 215.453 227.4 215.769C227.752 215.793 227.95 215.302 227.69 215.068C221.228 209.209 214.921 203.185 208.775 197C208.407 196.621 207.827 197.204 208.199 197.579Z" fill="#002247"/>
<path d="M218.085 240.879C222.574 252.12 225.609 263.888 227.087 275.903C227.357 275.867 227.627 275.831 227.897 275.794C226.607 272.456 224.731 269.398 222.262 266.795C221.067 265.534 219.73 264.474 218.364 263.411C217.324 262.598 216.373 261.768 216.198 260.356C216.077 259.375 216.31 258.338 216.248 257.344C215.761 249.892 214.582 242.38 212.482 235.207C212.281 235.362 212.08 235.516 211.876 235.671C214.302 237.037 217.09 238.759 218.213 241.438C218.414 241.919 219.21 241.708 219.006 241.221C217.788 238.314 214.938 236.451 212.291 234.96C211.985 234.789 211.583 235.075 211.685 235.424C212.683 238.831 213.463 242.291 214.046 245.793C214.727 249.875 215.58 254.326 215.451 258.473C215.405 259.951 215.244 261.205 216.162 262.456C217.202 263.865 218.884 264.767 220.175 265.919C223.262 268.681 225.609 272.157 227.101 276.015C227.252 276.407 227.97 276.403 227.91 275.906C226.423 263.816 223.401 251.979 218.878 240.665C218.687 240.174 217.89 240.385 218.085 240.879Z" fill="#002247"/>
<path d="M107.791 173.108C101.938 165.939 93.8769 160.425 85.2426 157.183C85.3019 157.413 85.3644 157.641 85.4237 157.871C88.8833 153.707 92.3594 149.391 93.6497 144.016C93.449 144.098 93.2482 144.181 93.0441 144.263C100.813 148.608 108.591 152.933 116.346 157.298C118.499 158.51 120.56 160.08 119.062 162.769C118.134 164.438 116.481 165.867 115.145 167.213C113.124 169.254 110.375 172.496 107.39 173C106.869 173.089 107.09 173.882 107.607 173.793C110.741 173.263 113.627 169.912 115.728 167.796C117.818 165.689 122.169 162.144 119.77 158.855C118.611 157.265 116.455 156.416 114.796 155.488C112.456 154.178 110.115 152.871 107.778 151.561C103.005 148.891 98.2319 146.221 93.4588 143.552C93.235 143.427 92.919 143.535 92.8532 143.799C91.5957 149.036 88.2085 153.233 84.8377 157.288C84.6304 157.538 84.7159 157.861 85.0188 157.976C93.5247 161.169 101.445 166.63 107.205 173.691C107.544 174.099 108.124 173.513 107.791 173.108Z" fill="#002247"/>
<path d="M155.4 256.854C156.503 255.573 157.645 254.312 158.642 252.943C159.13 252.275 159.577 251.584 159.953 250.846C160.097 250.563 161.118 248.341 161.174 248.417C161.477 248.845 162.191 248.433 161.885 248.002C160.983 246.728 160.153 248.114 159.834 249.016C158.83 251.847 156.746 254.036 154.821 256.271C154.475 256.669 155.054 257.255 155.4 256.854Z" fill="#002247"/>
<path d="M174.44 249.553C174.351 250.873 173.248 251.969 172.412 252.894C172.047 253.299 171.823 253.51 171.826 254.089C171.829 254.866 172.376 255.663 172.754 256.298C173.278 257.173 173.725 258.036 174.127 258.977C175.213 261.519 176.375 264.024 177.633 266.483C178.235 267.658 178.854 268.823 179.489 269.982C180.421 271.683 182.198 274.047 180.503 275.844C180.141 276.229 180.72 276.812 181.086 276.427C182.85 274.554 181.695 272.273 180.635 270.357C179.111 267.595 177.656 264.797 176.332 261.933C175.658 260.468 175.078 258.954 174.387 257.503C173.956 256.594 173.222 255.784 172.883 254.84C172.445 253.618 173.396 253.138 174.074 252.226C174.67 251.426 175.194 250.567 175.263 249.556C175.299 249.023 174.476 249.026 174.44 249.553Z" fill="#002247"/>
<path d="M161.062 248.329C161.713 249.036 162.902 250.498 163.965 250.597C164.88 250.679 165.621 249.537 166.091 248.918C166.532 248.335 166.802 247.588 167.257 247.035C168.277 245.797 169.462 246.406 170.697 247.045C171.539 247.483 172.231 248.075 173.024 248.575C173.439 248.835 174.406 249.082 174.36 249.718C174.321 250.248 175.144 250.244 175.183 249.718C175.259 248.661 174.429 248.483 173.669 248.016C172.082 247.041 170.611 245.731 168.715 245.363C167.441 245.116 166.983 245.827 166.417 246.864C165.999 247.627 165.255 249.283 164.396 249.589C163.445 249.932 162.21 248.355 161.648 247.746C161.282 247.357 160.703 247.94 161.062 248.329Z" fill="#002247"/>
<path d="M155.064 257.463C159.623 261.96 163.899 266.749 168.626 271.075C170.535 272.822 172.527 274.58 174.765 275.9C176.066 276.667 177.688 277.477 179.232 277.029C179.739 276.881 179.525 276.088 179.015 276.236C177.323 276.726 175.417 275.397 174.097 274.498C171.875 272.98 169.87 271.144 167.922 269.297C163.698 265.288 159.788 260.972 155.643 256.884C155.268 256.509 154.686 257.091 155.064 257.463Z" fill="#002247"/>
<path d="M155.979 255.584C159.271 260.083 162.938 264.294 166.99 268.128C169.034 270.064 171.171 271.911 173.393 273.639C175.259 275.094 177.224 276.381 179.673 276.358C180.203 276.351 180.203 275.528 179.673 275.535C176.691 275.564 174.327 273.385 172.158 271.598C170.285 270.051 168.475 268.431 166.733 266.739C163.063 263.174 159.712 259.297 156.694 255.169C156.381 254.744 155.667 255.156 155.979 255.584Z" fill="#002247"/>
<path d="M168.333 253.111C168.768 253.43 169.222 253.707 169.712 253.931C170.16 254.135 170.637 254.247 171.088 254.438C171.006 254.375 170.924 254.313 170.842 254.25C170.861 254.283 170.881 254.316 170.901 254.349C170.924 254.184 170.944 254.016 170.967 253.852C170.95 253.868 170.937 253.881 170.921 253.898C171.056 253.862 171.187 253.829 171.322 253.793C171.299 253.786 171.276 253.783 171.253 253.776C171.355 253.908 171.454 254.039 171.556 254.174C171.556 254.158 171.556 254.145 171.559 254.128C171.579 253.598 170.756 253.598 170.736 254.128C170.736 254.145 170.736 254.158 170.733 254.174C170.726 254.346 170.865 254.533 171.036 254.573C171.246 254.619 171.395 254.592 171.549 254.438C171.678 254.309 171.707 254.095 171.615 253.941C171.362 253.519 170.766 253.493 170.341 253.318C169.772 253.088 169.245 252.772 168.751 252.41C168.323 252.087 167.912 252.802 168.333 253.111Z" fill="#002247"/>
<path d="M168.024 254.244C169.002 254.961 170.071 255.508 171.22 255.89C171.724 256.057 171.941 255.261 171.437 255.096C170.351 254.734 169.357 254.214 168.435 253.536C168.014 253.22 167.603 253.934 168.024 254.244Z" fill="#002247"/>
<path d="M168.36 256.051C169.726 257.115 171.21 257.937 172.836 258.523C172.909 258.26 172.981 257.993 173.054 257.73C172.919 257.707 172.787 257.684 172.652 257.664C172.135 257.579 171.911 258.372 172.435 258.458C172.57 258.481 172.701 258.504 172.836 258.523C173.356 258.609 173.561 257.911 173.054 257.73C171.566 257.194 170.187 256.44 168.939 255.469C168.531 255.146 167.945 255.725 168.36 256.051Z" fill="#002247"/>
<path d="M169.999 258.928C171.095 259.873 172.333 260.574 173.709 261.025C174.212 261.19 174.43 260.396 173.926 260.232C172.685 259.827 171.569 259.198 170.578 258.346C170.183 258.003 169.597 258.583 169.999 258.928Z" fill="#002247"/>
<path d="M171.431 261.575C172.365 262.2 173.386 262.661 174.469 262.957C174.979 263.099 175.2 262.305 174.686 262.164C173.662 261.884 172.724 261.453 171.842 260.864C171.404 260.567 170.989 261.282 171.431 261.575Z" fill="#002247"/>
<path d="M172.767 263.886C173.551 264.277 174.331 264.669 175.114 265.061C175.585 265.298 176.003 264.587 175.529 264.35C174.746 263.958 173.965 263.566 173.182 263.175C172.711 262.941 172.293 263.649 172.767 263.886Z" fill="#002247"/>
<path d="M177.26 235.621C174.66 235.812 172.053 235.895 169.442 235.835C168.139 235.806 166.835 235.743 165.535 235.648C164.113 235.542 162.408 235.595 161.144 234.887C160.68 234.627 160.265 235.338 160.729 235.598C162.803 236.76 165.831 236.527 168.139 236.619C171.18 236.737 174.222 236.668 177.26 236.444C177.784 236.405 177.79 235.582 177.26 235.621Z" fill="#002247"/>
<path d="M156.19 125.329C159.584 132.264 162.586 139.391 165.022 146.722C166.2 150.267 167.247 153.858 168.123 157.489C169.008 161.153 169.996 165.021 170.051 168.806C170.111 172.74 168.929 176.677 168.234 180.525C167.546 184.34 166.954 188.171 166.44 192.016C165.397 199.847 164.683 207.718 164.146 215.598C163.537 224.555 163.159 233.525 162.78 242.495C162.757 243.025 163.58 243.025 163.603 242.495C164.288 226.277 164.976 210.035 167.013 193.919C167.543 189.722 168.172 185.538 168.913 181.374C169.564 177.707 170.595 174.027 170.835 170.304C171.069 166.722 170.216 163.078 169.449 159.599C168.629 155.866 167.622 152.176 166.47 148.532C163.906 140.425 160.634 132.551 156.898 124.914C156.667 124.437 155.96 124.855 156.19 125.329Z" fill="#002247"/>
<path d="M183.327 175.929C181.464 176.666 179.502 176.683 177.645 175.896C177.165 175.692 176.744 176.4 177.231 176.607C179.285 177.479 181.461 177.548 183.548 176.722C184.035 176.528 183.821 175.735 183.327 175.929Z" fill="#002247"/>
<path d="M172.882 243.683C172.593 244.822 172.23 245.931 171.796 247.024C171.598 247.515 172.395 247.728 172.589 247.241C173.024 246.152 173.386 245.039 173.676 243.9C173.807 243.387 173.014 243.169 172.882 243.683Z" fill="#002247"/>
<path d="M162.678 243.081C162.424 244.95 162.118 246.81 161.756 248.66C161.654 249.177 162.447 249.398 162.549 248.877C162.908 247.024 163.218 245.168 163.471 243.298C163.54 242.781 162.747 242.557 162.678 243.081Z" fill="#002247"/>
<path d="M108.341 197.371C100.082 202.181 93.2152 209.92 89.2552 218.606C89.1598 218.814 89.1992 219.044 89.4033 219.169C95.7795 223.096 101.303 228.218 105.678 234.298C105.905 234.614 106.445 234.525 106.445 234.091C106.448 224.153 114.233 217.105 122.192 212.471C122.416 212.339 122.469 212.007 122.275 211.825C117.512 207.309 113.041 202.51 108.874 197.441C108.538 197.032 107.959 197.615 108.291 198.023C112.459 203.092 116.932 207.892 121.692 212.408C121.718 212.194 121.748 211.977 121.774 211.763C113.558 216.549 105.622 223.86 105.618 234.094C105.875 234.025 106.129 233.956 106.385 233.887C101.925 227.688 96.316 222.464 89.8148 218.462C89.8642 218.649 89.9136 218.837 89.9629 219.025C93.867 210.459 100.605 202.829 108.752 198.086C109.213 197.816 108.798 197.105 108.341 197.371Z" fill="#002247"/>
<path d="M117.344 211.799C114.187 208.168 110.872 204.682 107.402 201.344C107.021 200.976 106.438 201.558 106.82 201.927C110.286 205.265 113.601 208.751 116.761 212.381C117.11 212.783 117.689 212.197 117.344 211.799Z" fill="#002247"/>
<path d="M114.819 213.696C111.698 209.996 108.239 206.625 104.463 203.6C104.055 203.271 103.469 203.85 103.88 204.182C107.656 207.211 111.115 210.582 114.236 214.278C114.578 214.683 115.158 214.101 114.819 213.696Z" fill="#002247"/>
<path d="M112.356 216.361C109.769 211.907 105.391 208.872 101.464 205.689C101.056 205.357 100.47 205.936 100.881 206.272C104.746 209.409 109.098 212.395 111.645 216.779C111.912 217.234 112.623 216.819 112.356 216.361Z" fill="#002247"/>
<path d="M109.904 218.745C106.803 215.239 103.215 212.26 99.2027 209.85C98.7484 209.577 98.3337 210.288 98.7879 210.561C102.741 212.935 106.267 215.871 109.322 219.327C109.674 219.722 110.256 219.14 109.904 218.745Z" fill="#002247"/>
<path d="M107.929 221.622C104.66 218.008 100.878 214.96 96.658 212.524C96.1972 212.257 95.7824 212.968 96.2433 213.235C100.404 215.634 104.127 218.64 107.346 222.205C107.705 222.6 108.284 222.017 107.929 221.622Z" fill="#002247"/>
<path d="M105.941 225.177C102.616 221.52 98.9392 218.242 94.9364 215.345C94.5052 215.035 94.097 215.746 94.5217 216.056C98.4685 218.91 102.083 222.156 105.358 225.76C105.717 226.152 106.296 225.569 105.941 225.177Z" fill="#002247"/>
<path d="M155.732 248.318C150.647 250.172 145.047 250.373 139.708 250.85C139.185 250.896 139.181 251.719 139.708 251.673C145.11 251.192 150.808 250.988 155.953 249.115C156.443 248.931 156.233 248.134 155.732 248.318Z" fill="#002247"/>
<path d="M154.689 240.75C149.751 242.725 144.191 243.466 138.905 243.634C138.378 243.65 138.375 244.473 138.905 244.456C144.257 244.289 149.912 243.541 154.909 241.543C155.393 241.349 155.179 240.552 154.689 240.75Z" fill="#002247"/>
<path d="M138.681 181.94C140.123 183.714 141.643 185.419 143.243 187.055C143.615 187.434 144.195 186.851 143.826 186.472C142.226 184.836 140.705 183.131 139.264 181.357C138.928 180.949 138.352 181.535 138.681 181.94Z" fill="#002247"/>
<path d="M137.894 184.448C140.047 188.664 142.506 192.7 145.264 196.548C145.571 196.976 146.285 196.565 145.975 196.133C143.217 192.285 140.758 188.25 138.605 184.033C138.365 183.559 137.654 183.977 137.894 184.448Z" fill="#002247"/>
<path d="M155.633 261.228C155.452 260.711 155.1 260.323 154.761 259.901C154.313 259.345 153.876 258.792 153.474 258.203C153.151 257.726 152.911 256.959 152.444 256.629C151.828 256.198 150.357 256.445 149.659 256.458C148.062 256.485 146.578 257.13 145.12 257.716C143.003 258.568 140.383 258.624 140.834 261.501C141.057 262.926 142.015 264.154 142.157 265.589C142.226 266.284 142.124 267.028 142.098 267.723C141.986 270.484 141.894 273.246 141.936 276.011C141.979 278.799 142.012 281.838 142.805 284.534C143.345 286.37 144.613 288.28 146.663 288.513C148.954 288.777 151.354 288.638 152.332 286.275C153.889 282.506 154.623 278.069 155.192 274.049C155.785 269.852 155.943 265.619 155.525 261.399C155.472 260.876 154.649 260.872 154.702 261.399C155.294 267.354 154.725 273.345 153.421 279.175C153.115 280.537 152.773 281.89 152.391 283.233C151.858 285.123 151.519 287.555 149.126 287.71C148.24 287.766 147.025 287.885 146.17 287.588C144.794 287.108 143.981 285.626 143.595 284.316C142.302 279.915 142.677 274.77 142.825 270.241C142.871 268.776 143.039 267.275 142.983 265.807C142.901 263.756 140.1 260.721 142.835 259.388C144.04 258.802 145.528 258.39 146.798 257.93C148.253 257.4 149.458 257.403 150.976 257.354C151.868 257.324 151.96 257.446 152.48 258.19C152.832 258.693 153.165 259.207 153.54 259.694C153.958 260.237 154.603 260.787 154.833 261.445C155.011 261.946 155.808 261.732 155.633 261.228Z" fill="#002247"/>
<path d="M141.795 251.518C141.891 253.931 142.065 256.334 142.322 258.737C142.378 259.257 143.201 259.263 143.145 258.737C142.888 256.337 142.713 253.931 142.618 251.518C142.598 250.988 141.775 250.985 141.795 251.518Z" fill="#002247"/>
<path d="M149.942 250.747C149.965 252.795 149.992 254.845 150.015 256.893C150.021 257.423 150.844 257.423 150.838 256.893C150.814 254.845 150.788 252.795 150.765 250.747C150.759 250.217 149.936 250.217 149.942 250.747Z" fill="#002247"/>
<path d="M148.424 262.581C147.088 263.227 145.676 263.513 144.195 263.464C143.665 263.447 143.665 264.27 144.195 264.287C145.821 264.339 147.374 264 148.839 263.292C149.317 263.062 148.902 262.351 148.424 262.581Z" fill="#002247"/>
<path d="M148.059 265.438C146.838 265.803 145.6 265.892 144.34 265.682C143.823 265.593 143.599 266.386 144.122 266.475C145.528 266.712 146.91 266.643 148.28 266.231C148.783 266.08 148.569 265.287 148.059 265.438Z" fill="#002247"/>
<path d="M148.237 267.983C147.724 268.164 147.2 268.305 146.66 268.381C146.361 268.424 145.35 268.621 145.09 268.427C145.153 268.582 145.215 268.737 145.278 268.891C145.281 268.865 145.288 268.839 145.291 268.812C145.195 268.908 145.1 269.003 145.005 269.099C145.028 269.095 145.047 269.092 145.07 269.089C145.59 269 145.37 268.207 144.853 268.296C144.83 268.299 144.81 268.302 144.787 268.305C144.662 268.328 144.521 268.467 144.501 268.592C144.498 268.618 144.491 268.644 144.488 268.671C144.455 268.872 144.517 269.016 144.675 269.135C145.077 269.434 145.897 269.283 146.357 269.24C147.078 269.171 147.776 269.013 148.458 268.776C148.951 268.605 148.737 267.808 148.237 267.983Z" fill="#002247"/>
<path d="M148.316 270.843C147.816 271.123 147.299 271.35 146.749 271.501C146.486 271.574 145.347 271.933 145.123 271.742C145.159 271.877 145.192 272.008 145.228 272.143C145.235 272.114 145.241 272.081 145.248 272.051C145.353 271.534 144.56 271.314 144.455 271.834C144.448 271.864 144.442 271.896 144.435 271.926C144.405 272.064 144.425 272.229 144.54 272.328C145.024 272.739 145.758 272.545 146.338 272.44C147.187 272.288 147.983 271.972 148.734 271.554C149.195 271.297 148.78 270.586 148.316 270.843Z" fill="#002247"/>
<path d="M155.15 261.58C157.477 262.548 156.674 266.686 156.522 268.595C156.338 270.932 156.022 273.259 155.706 275.583C155.449 277.463 155.193 279.349 154.735 281.192C154.261 283.111 153.389 286.913 150.897 287.019C150.37 287.042 150.367 287.865 150.897 287.842C153.04 287.753 154.05 285.758 154.735 283.974C155.818 281.156 156.183 278.131 156.585 275.158C156.996 272.12 157.401 269.072 157.49 266.004C157.546 264.042 157.444 261.652 155.364 260.79C154.88 260.583 154.669 261.379 155.15 261.58Z" fill="#002247"/>
<path d="M145.166 43.8479C132.927 47.1923 123.062 55.2571 115.556 65.2871C112.321 69.6124 109.065 74.211 107.495 79.4251C107.093 80.7616 106.738 82.1145 106.451 83.4806C106.218 84.6063 105.875 85.8638 106.353 86.9665C106.843 88.1022 108.061 89.0634 108.963 89.8534C110.247 90.9759 111.646 91.9733 113.134 92.8127C118.996 96.1242 128.085 98.0663 133.957 93.7805C134.402 93.4546 133.97 92.7073 133.523 93.0365C128.187 96.9307 119.977 95.377 114.5 92.5691C113.107 91.8548 111.781 91.0121 110.55 90.0476C109.312 89.0798 107.212 87.5755 107.001 85.9428C106.856 84.8006 107.337 83.4016 107.607 82.2988C107.933 80.969 108.305 79.649 108.742 78.352C110.28 73.7765 113.436 69.5598 116.304 65.7216C119.536 61.3962 123.22 57.3836 127.413 53.9733C132.713 49.6644 138.803 46.4813 145.396 44.6807C145.929 44.5359 145.702 43.7031 145.166 43.8479Z" fill="#002247"/>
<path d="M132.209 89.33C134.402 90.2879 136.64 90.673 139.027 90.4426C139.244 90.4228 139.481 90.2615 139.458 90.0113C139.086 85.6893 140.08 81.4989 142.365 77.8088C142.513 77.5685 142.368 77.2525 142.108 77.1735C138.642 76.1597 135.287 76.3308 133.286 79.6391C131.354 82.8353 131.044 86.7887 132.048 90.3372C132.2 90.8705 133.032 90.6434 132.881 90.1068C132.022 87.0652 132.18 83.8262 133.559 80.9558C134.175 79.672 135.027 78.4211 136.367 77.8253C138.056 77.0748 140.179 77.5093 141.877 78.0063C141.792 77.7957 141.706 77.585 141.621 77.371C139.264 81.1796 138.214 85.5477 138.595 90.0081C138.74 89.8632 138.882 89.7217 139.027 89.5768C136.808 89.7908 134.688 89.4781 132.647 88.5827C132.14 88.3622 131.703 89.1061 132.209 89.33Z" fill="#002247"/>
<path d="M135.396 76.3573C130.376 72.9471 123.907 72.4599 118.413 75.0143C117.91 75.248 118.348 75.992 118.848 75.7582C124.072 73.3322 130.205 73.8721 134.958 77.1013C135.419 77.4173 135.853 76.6701 135.396 76.3573Z" fill="#002247"/>
<path d="M142.108 78.7532C144.063 78.6544 146.018 78.6116 147.974 78.6544C149.718 78.6906 152.006 78.447 153.547 79.3556C154.593 79.9744 155.449 82.0811 155.42 83.3419C155.403 84.0858 154.88 84.1911 154.867 84.9713C154.853 85.7021 155.235 86.2057 154.853 86.9694C154.541 87.5948 154.109 87.5915 153.668 88.0096C153.487 88.1808 153.445 88.3684 153.306 88.5395C152.566 89.4514 152.075 89.6653 150.9 89.6785C147.095 89.718 143.158 89.109 139.379 88.7009C138.826 88.6416 138.832 89.504 139.379 89.5633C141.966 89.8431 144.557 90.0867 147.151 90.2875C148.935 90.4257 151.229 90.9458 152.964 90.2282C153.412 90.0439 153.698 89.8266 153.942 89.402C154.333 88.7272 154.31 88.7206 154.936 88.2565C155.314 87.9734 155.568 87.6574 155.755 87.2196C156.111 86.3835 155.762 85.9753 155.815 85.2017C155.867 84.3821 156.73 83.9278 156.414 82.8119C156.236 82.1832 155.92 81.696 155.762 81.0377C155.601 80.3596 155.311 79.7242 154.83 79.2107C153.655 77.9533 151.851 77.9533 150.252 77.8743C147.536 77.7393 144.82 77.7558 142.104 77.894C141.555 77.9204 141.551 78.7828 142.108 78.7532Z" fill="#002247"/>
<path d="M152.042 82.1967C153.01 82.3054 153.991 82.2626 154.952 82.4107C155.495 82.4963 155.729 81.6635 155.183 81.5779C154.142 81.4166 153.089 81.4495 152.042 81.3343C151.493 81.2718 151.496 82.1342 152.042 82.1967Z" fill="#002247"/>
<path d="M151.901 85.1229C152.895 85.1426 153.922 84.9681 154.886 85.2677C155.416 85.4323 155.647 84.5995 155.117 84.4349C154.07 84.109 152.977 84.2802 151.901 84.2571C151.344 84.2472 151.344 85.1097 151.901 85.1229Z" fill="#002247"/>
<path d="M150.831 87.7469C151.904 87.8983 152.97 88.0168 153.988 88.4217C154.504 88.6258 154.728 87.793 154.218 87.5889C153.201 87.184 152.138 87.0655 151.061 86.9141C150.518 86.8383 150.281 87.6679 150.831 87.7469Z" fill="#002247"/>
<path d="M149.751 33.6467C149.751 33.6467 150.894 33.6336 152.237 34.8614C153.58 36.0859 155.176 37.689 157.29 37.5112C161.352 37.1722 161.496 31.4775 161.496 31.4775C161.496 31.4775 158.929 32.883 155.996 32.0831C152.273 31.0693 149.225 28.3174 149.225 28.3174L149.751 33.6467Z" fill="#6877FF"/>
<path d="M154.357 21.4186C154.822 21.051 154.744 20.1785 154.184 19.4698C153.624 18.761 152.793 18.4845 152.328 18.852C151.863 19.2196 151.94 20.0921 152.501 20.8009C153.061 21.5096 153.892 21.7862 154.357 21.4186Z" fill="#6877FF"/>
<path d="M164.759 19.107C165.257 18.3534 165.261 17.4774 164.766 17.1504C164.272 16.8234 163.467 17.1691 162.969 17.9227C162.47 18.6762 162.467 19.5522 162.961 19.8793C163.455 20.2063 164.26 19.8605 164.759 19.107Z" fill="#6877FF"/>
<path d="M163.968 13.1882C165.634 18.4451 165.282 33.9558 156.414 31.9742C152.714 31.148 149.472 28.4454 147.292 25.4368C146.927 24.9299 146.588 24.3834 146.071 24.0147C145.393 23.5276 144.534 23.3729 143.82 22.9482C142.941 22.4215 142.2 21.648 142.065 20.6045C141.986 19.9823 142.246 18.9981 142.865 18.6656C143.695 18.2213 144.735 18.8006 144.866 19.6894C144.949 20.2358 145.778 20.0054 145.699 19.459C145.502 18.1159 144.024 17.2963 142.75 17.7769C141.236 18.3463 140.854 20.2819 141.44 21.648C141.818 22.5335 142.569 23.2148 143.385 23.6954C143.955 24.0312 144.61 24.1695 145.179 24.4888C146.094 25.0056 146.545 25.9207 147.171 26.7173C148.672 28.6331 150.558 30.2361 152.691 31.4047C154.61 32.4581 156.983 33.416 159.212 32.9025C161.381 32.4021 163.086 30.4106 163.945 28.4487C165.94 23.8962 166.296 17.6847 164.801 12.9643C164.633 12.4311 163.801 12.6549 163.968 13.1882Z" fill="#002247"/>
<path d="M146.213 18.3263C146.901 15.2715 147.493 12.2398 146.99 9.10939C146.713 9.1851 146.433 9.26081 146.157 9.33981C146.957 12.388 147.523 15.4723 147.842 18.6061C147.882 18.9846 148.445 19.2513 148.645 18.8234C149.778 16.4368 153.162 16.1932 155.44 15.6699C158.353 14.9983 161.269 14.3268 164.183 13.6553C164.722 13.5302 164.495 12.6974 163.952 12.8225C160.413 13.6388 156.875 14.4519 153.336 15.2715C151.256 15.7521 148.899 16.2854 147.902 18.3921C148.168 18.4645 148.438 18.537 148.705 18.6094C148.376 15.3966 147.809 12.2333 146.99 9.11269C146.845 8.56297 146.071 8.80655 146.157 9.34311C146.638 12.3057 146.032 15.2123 145.38 18.1025C145.258 18.639 146.091 18.8694 146.213 18.3263Z" fill="#002247"/>
<path d="M175.167 46.267C174.927 40.6316 171.931 35.6939 169.66 30.6872C168.606 28.3665 167.593 25.8977 167.737 23.3005C167.918 20.0219 168.08 16.7795 167.698 13.5042C167.435 11.2494 167.023 8.76083 165.726 6.83515C164.321 4.75148 162.326 2.83568 160.133 1.59469C155.242 -1.17696 149.669 -0.0709356 145.136 2.88176C139.392 6.62448 136.716 12.6056 134.352 18.7941C134.155 19.3142 134.988 19.538 135.185 19.0245C137.203 13.738 139.409 8.40861 143.961 4.78769C148.563 1.12726 154.765 -0.693075 160.084 2.56905C162.181 3.85612 164.409 5.9398 165.496 8.1749C166.628 10.512 166.891 13.2969 167.03 15.848C167.178 18.5867 166.829 21.2794 166.845 24.0049C166.859 25.9964 167.556 27.9419 168.317 29.7556C170.565 35.131 174.048 40.2793 174.304 46.267C174.327 46.82 175.193 46.8233 175.167 46.267Z" fill="#002247"/>
<path d="M148.794 28.6627C149.327 31.5957 149.554 34.5681 149.281 37.5439C149.09 39.6308 148.863 43.6204 146.703 44.6277C146.2 44.8614 146.638 45.6053 147.138 45.3716C149.435 44.3018 149.735 40.8191 150.021 38.6367C150.466 35.2298 150.239 31.8063 149.626 28.4356C149.524 27.8891 148.695 28.1196 148.794 28.6627Z" fill="#002247"/>
<path d="M156.059 24.9365C156.753 25.5949 157.75 25.9701 158.692 26.0623C159.752 26.1643 160.552 25.8253 161.51 25.4764C162.026 25.2887 161.803 24.4526 161.279 24.6436C160.624 24.8806 160.078 25.1834 159.354 25.2163C158.429 25.2558 157.359 24.9793 156.668 24.3276C156.266 23.9424 155.654 24.5547 156.059 24.9365Z" fill="#002247"/>
<path d="M141.209 22.4377C139.85 24.2021 139.824 26.8717 141.469 28.4879C142.961 29.9528 145.528 30.1832 147.207 28.9126C148.78 27.7177 149.396 25.3838 148.537 23.5898C147.572 21.572 145.271 20.7787 143.168 21.0914C142.622 21.1737 142.852 22.0065 143.398 21.9242C145.081 21.674 146.947 22.3357 147.727 23.9289C148.471 25.4464 147.902 27.4741 146.46 28.3826C145.127 29.222 143.201 28.9685 142.082 27.8757C140.689 26.5162 140.837 24.3272 141.957 22.8722C142.292 22.4344 141.545 22.0032 141.209 22.4377Z" fill="#D7DBFF"/>
<path d="M154.798 18.2183C154.93 18.6693 155.058 19.1236 155.19 19.5745C155.344 20.1078 156.177 19.8807 156.022 19.3441C155.891 18.8932 155.762 18.4389 155.631 17.9879C155.476 17.458 154.643 17.6818 154.798 18.2183Z" fill="#002247"/>
<path d="M158.517 18.1651C158.613 18.4383 158.708 18.7148 158.804 18.988C158.886 19.225 159.09 19.3304 159.334 19.2909C160.209 19.1394 160.427 20.3409 159.6 20.5845C159.07 20.7425 159.294 21.5753 159.831 21.4173C160.608 21.1869 161.187 20.3936 160.98 19.5674C160.769 18.728 159.91 18.3198 159.107 18.458C159.284 18.5601 159.462 18.6588 159.637 18.7609C159.541 18.4877 159.446 18.2112 159.35 17.9379C159.169 17.4113 158.333 17.6384 158.517 18.1651Z" fill="#002247"/>
<path d="M161.365 16.7039C161.526 17.0956 161.651 17.4972 161.734 17.9119C161.842 18.4551 162.675 18.2247 162.567 17.6815C162.484 17.2668 162.359 16.8652 162.198 16.4734C162.109 16.2595 161.912 16.1048 161.668 16.1706C161.464 16.2266 161.276 16.4866 161.365 16.7039Z" fill="#002247"/>
<path d="M161.206 31.2928C161.177 35.0487 161.019 39.6933 162.684 43.1661C162.925 43.6665 163.669 43.2287 163.428 42.7316C162.595 40.9969 162.467 38.9659 162.302 37.0863C162.135 35.154 162.052 33.2349 162.065 31.2961C162.075 30.7365 161.21 30.7365 161.206 31.2928Z" fill="#002247"/>
<path d="M134.484 18.7056C132.683 25.0093 126.6 27.9258 121.182 30.5658C116.442 32.8766 111.735 35.6351 108.413 39.8321C105.513 43.4958 103.69 48.338 104.602 53.0386C105.401 57.1697 108.249 60.7808 112.284 62.1106C112.814 62.2851 113.042 61.4523 112.515 61.2778C107.781 59.7175 105 54.7832 105.247 49.9312C105.517 44.5952 108.752 39.9604 112.782 36.6753C116.919 33.3045 121.85 31.4546 126.462 28.8837C130.406 26.6848 134.04 23.4095 135.32 18.936C135.468 18.3995 134.635 18.1691 134.484 18.7056Z" fill="#002247"/>
<path d="M175.838 62.4817C177.171 76.8634 179.508 91.2516 179.719 105.712C179.9 105.574 180.085 105.436 180.266 105.298C176.078 104.103 171.256 104.61 167.066 105.571C161.756 106.792 157.24 110.048 152.368 112.339C143.115 116.694 132.163 119.785 122.015 117.072C121.478 116.927 121.248 117.76 121.784 117.905C131.465 120.496 141.699 117.882 150.676 114.034C155.719 111.871 160.347 108.425 165.617 106.841C170.055 105.508 175.516 104.84 180.032 106.13C180.299 106.206 180.582 105.992 180.578 105.716C180.368 91.2516 178.03 76.8667 176.697 62.485C176.651 61.932 175.789 61.9254 175.838 62.4817Z" fill="#002247"/>
<path d="M145.729 44.7762C150.67 48.7493 158.724 48.2753 163.534 44.4536C163.968 44.108 163.353 43.5023 162.925 43.8446C160.584 45.7044 157.753 46.6426 154.771 46.6459C151.963 46.6492 148.566 45.9546 146.341 44.1672C145.91 43.8216 145.297 44.4305 145.729 44.7762Z" fill="#002247"/>
<path d="M125.883 95.8476C124.148 103.047 123.009 110.377 121.278 117.58C121.149 118.12 121.979 118.35 122.11 117.81C123.845 110.611 124.984 103.28 126.715 96.0781C126.847 95.5382 126.014 95.3078 125.883 95.8476Z" fill="#002247"/>
<path d="M163.531 44.1474C165.565 44.8814 167.793 45.2369 169.894 45.7241C172.603 46.3496 175.322 46.9454 178.008 47.6696C185.368 49.6512 193.643 52.0542 199.434 57.2683C199.845 57.6403 200.457 57.0313 200.043 56.6593C194.417 51.5966 186.556 49.1805 179.423 47.1692C176.549 46.3594 173.633 45.7077 170.723 45.0362C168.422 44.5029 165.98 44.1243 163.754 43.3211C163.238 43.1269 163.01 43.9597 163.531 44.1474Z" fill="#002247"/>
<path d="M176.786 68.9343C178.827 70.2642 181.079 71.4262 183.324 72.3643C186.816 73.8259 191.076 74.1122 194.832 74.2242C199.918 74.3789 204.641 73.4045 208.957 70.6757C209.424 70.3794 208.993 69.6322 208.522 69.9317C204.332 72.5816 199.776 73.5132 194.832 73.3617C191.04 73.2465 186.823 72.9536 183.311 71.4262C181.227 70.5177 179.13 69.4314 177.224 68.1904C176.757 67.8843 176.322 68.6315 176.786 68.9343Z" fill="#002247"/>
<path d="M209.427 69.9873C210.675 67.2584 211.85 64.4835 212.492 61.5406C213.2 58.2884 213.242 54.9571 213.075 51.6456C212.765 45.6185 211.817 39.7131 209.263 34.2027C209.029 33.699 208.285 34.1368 208.519 34.6372C211.004 40.0027 211.909 45.7732 212.212 51.6456C212.377 54.8024 212.357 57.9921 211.708 61.0996C211.093 64.0457 209.931 66.8239 208.687 69.5495C208.453 70.0531 209.197 70.4909 209.427 69.9873Z" fill="#002247"/>
<path d="M198.123 54.5227C198.166 47.8997 197.669 41.3261 199.173 34.8183C199.298 34.2784 198.466 34.048 198.341 34.5879C196.82 41.1747 197.3 47.8207 197.258 54.5227C197.258 55.079 198.12 55.079 198.123 54.5227Z" fill="#002247"/>
<path d="M198.36 34.6205C201.948 34.6172 205.708 33.4552 209.138 34.9793C209.641 35.2031 210.079 34.4592 209.572 34.2353C205.951 32.6257 202.153 33.7547 198.36 33.758C197.804 33.758 197.804 34.6205 198.36 34.6205Z" fill="#002247"/>
<path d="M198.413 34.0018C198.38 32.7575 197.989 31.556 199.259 31.0162C200.263 30.5882 201.488 30.394 202.554 30.2031C203.884 29.9661 205.599 29.6007 206.843 30.3381C208.094 31.0787 209.161 32.7213 209.006 34.1762C208.947 34.7293 209.813 34.7227 209.868 34.1762C210.082 32.1716 208.41 29.8575 206.501 29.2485C203.904 28.419 200.293 29.7159 197.863 30.5849C197.679 30.6508 197.551 30.7989 197.547 30.9997C197.524 32.0004 197.528 33.0011 197.554 34.0018C197.564 34.5548 198.43 34.5581 198.413 34.0018Z" fill="#002247"/>
<path d="M207.192 29.5156C205.257 25.8585 203.301 21.7965 200.684 18.5739C198.472 15.8483 194.022 17.323 191.323 18.5969C190.174 19.14 189.911 19.9004 189.865 21.1348C189.822 22.3166 189.855 24.476 190.934 25.2726C192.123 26.1449 193.844 25.3088 195.095 25.1277C195.79 25.0257 195.885 24.9368 196.425 25.6412C196.715 26.0198 196.922 26.4905 197.146 26.9086C197.771 28.0771 198.311 29.2852 198.792 30.5229C198.989 31.0364 199.825 30.8126 199.625 30.2925C199.118 28.9857 198.555 27.7085 197.893 26.4741C197.531 25.8025 197.001 24.285 196.201 23.9954C195.898 23.8867 195.691 24.0184 195.411 24.0777C194.473 24.285 193.703 24.792 192.682 24.7294C191.175 24.6405 190.885 23.5839 190.76 22.2804C190.618 20.8057 190.599 20.0058 192.165 19.1795C193.558 18.4455 195.714 17.9715 197.274 17.9122C199.621 17.8266 200.484 19.749 201.563 21.4706C203.298 24.2357 204.918 27.0666 206.445 29.9501C206.708 30.4406 207.452 30.0061 207.192 29.5156Z" fill="#002247"/>
<path d="M131.531 64.8395C131.597 63.9771 133.124 64.3655 133.645 64.0462C133.99 63.8356 134.046 63.4833 134.26 63.1805C134.313 63.0587 134.369 62.9336 134.421 62.8118C134.731 62.6505 135.06 62.5715 135.402 62.5715C135.656 62.509 135.903 62.4826 136.153 62.3872C136.65 62.1996 137.045 61.9033 137.417 61.528C137.809 61.133 137.2 60.5241 136.808 60.9191C136.301 61.426 135.784 61.6531 135.076 61.7321C134.81 61.7618 134.523 61.7157 134.267 61.8342C133.756 62.0679 133.74 62.4892 133.447 62.8974C132.947 63.592 132.124 63.197 131.429 63.5689C130.903 63.852 130.708 64.2701 130.666 64.8395C130.626 65.3925 131.488 65.3893 131.531 64.8395Z" fill="#002247"/>
<path d="M110.494 80.0602C110.559 79.1978 112.087 79.5862 112.607 79.2669C112.953 79.0563 113.009 78.704 113.222 78.4012C113.275 78.2794 113.331 78.1543 113.384 78.0325C113.693 77.8712 114.022 77.7922 114.365 77.7922C114.618 77.7297 114.865 77.7033 115.115 77.6079C115.612 77.4203 116.007 77.124 116.379 76.7487C116.771 76.3537 116.162 75.7448 115.77 76.1398C115.263 76.6467 114.747 76.8738 114.039 76.9528C113.772 76.9825 113.486 76.9364 113.229 77.0549C112.719 77.2886 112.702 77.7099 112.409 78.1181C111.909 78.8127 111.086 78.4177 110.392 78.7896C109.865 79.0727 109.671 79.4908 109.628 80.0602C109.588 80.6165 110.451 80.6133 110.494 80.0602Z" fill="#002247"/>
<path d="M113.851 86.8972C113.917 86.0347 115.444 86.4231 115.965 86.1038C116.31 85.8932 116.366 85.541 116.58 85.2381C116.633 85.1163 116.689 84.9912 116.741 84.8694C117.051 84.7081 117.38 84.6291 117.722 84.6291C117.976 84.5666 118.223 84.5403 118.473 84.4448C118.97 84.2572 119.365 83.9609 119.737 83.5857C120.129 83.1906 119.52 82.5817 119.128 82.9767C118.621 83.4836 118.104 83.7107 117.396 83.7897C117.13 83.8194 116.843 83.7733 116.587 83.8918C116.076 84.1255 116.06 84.5468 115.767 84.955C115.267 85.6496 114.444 85.2546 113.749 85.6265C113.223 85.9096 113.028 86.3277 112.986 86.8972C112.946 87.4502 113.812 87.4502 113.851 86.8972Z" fill="#002247"/>
<path d="M116.998 93.3063C117.064 92.4439 118.592 92.8323 119.112 92.513C119.457 92.3024 119.513 91.9501 119.727 91.6473C119.78 91.5255 119.836 91.4004 119.889 91.2786C120.198 91.1173 120.527 91.0383 120.869 91.0383C121.123 90.9758 121.37 90.9495 121.62 90.854C122.117 90.6664 122.512 90.3701 122.884 89.9948C123.276 89.5998 122.667 88.9909 122.275 89.3859C121.768 89.8928 121.251 90.1199 120.544 90.1989C120.277 90.2286 119.991 90.1825 119.734 90.301C119.224 90.5347 119.207 90.956 118.914 91.3642C118.414 92.0588 117.591 91.6638 116.896 92.0357C116.37 92.3188 116.175 92.7369 116.133 93.3063C116.093 93.8594 116.959 93.8561 116.998 93.3063Z" fill="#002247"/>
<path d="M137.987 54.1768C137.641 54.5258 137.532 54.9603 137.71 55.4343C137.973 56.1288 138.829 56.119 139.135 56.6621C139.376 57.09 139.063 57.5476 139.527 58.0084C140.182 58.6569 141.512 58.3969 141.472 59.6675C141.456 60.2238 142.318 60.2238 142.335 59.6675C142.351 59.1671 142.338 58.6503 141.996 58.2487C141.647 57.8373 141.163 57.8406 140.699 57.6496C139.787 57.2744 140.337 56.8366 140.004 56.2572C139.813 55.9248 138.2 55.1874 138.596 54.7891C138.987 54.3908 138.378 53.7818 137.987 54.1768Z" fill="#002247"/>
<path d="M135.814 53.3346C135.742 52.6104 136.561 52.663 136.969 52.2944C137.289 52.008 137.322 51.557 137.588 51.2509C137.917 50.8723 138.352 51.1324 138.77 50.925C139.28 50.6748 139.527 50.1449 140.1 49.9144C140.61 49.7103 140.386 48.8742 139.869 49.0816C139.563 49.2067 139.277 49.3351 139.01 49.5392C138.767 49.7268 138.586 50.0395 138.303 50.1284C137.72 50.3094 137.368 50.0922 136.946 50.6518C136.782 50.869 136.722 51.1455 136.571 51.3661C136.304 51.7512 135.9 51.7479 135.544 51.9849C135.093 52.2845 134.892 52.8079 134.945 53.3346C135.007 53.8843 135.87 53.8876 135.814 53.3346Z" fill="#002247"/>
<path d="M144.952 55.3254C144.909 55.0983 146.147 54.9139 146.348 54.779C146.746 54.5058 146.736 53.9462 147.059 53.7026C147.299 53.5215 147.812 53.719 148.145 53.5545C148.451 53.403 148.616 53.1529 148.596 52.8105C148.57 52.2575 147.704 52.2542 147.733 52.8105C147.724 52.613 146.588 52.85 146.456 52.9619C146.035 53.3142 146.213 53.9133 145.627 54.1536C145.225 54.3181 144.817 54.2391 144.461 54.542C144.136 54.8185 144.04 55.1477 144.119 55.5558C144.224 56.099 145.057 55.8686 144.952 55.3254Z" fill="#002247"/>
<path d="M134.787 66.2541C134.866 66.8401 135.083 67.3371 135.61 67.6498C135.985 67.8737 136.693 67.9428 136.791 68.4958C136.854 68.8415 136.6 69.1838 136.712 69.5755C136.91 70.2734 137.45 70.1845 137.967 70.5104C138.441 70.8132 138.286 71.1523 138.497 71.5341C138.579 71.6822 139.053 71.9094 139.069 72.0246C139.148 72.571 139.981 72.3406 139.902 71.7942C139.866 71.544 139.764 71.5407 139.649 71.3432C139.57 71.2774 139.484 71.2214 139.389 71.1819C139.326 70.9943 139.283 70.8033 139.26 70.6058C139.043 69.9903 138.671 70.0034 138.194 69.6776C137.265 69.0423 137.999 68.4102 137.598 67.6202C137.213 66.8598 135.781 67.2515 135.646 66.2574C135.58 65.711 134.714 65.7044 134.787 66.2541Z" fill="#002247"/>
<path d="M127.387 55.1545C127.466 55.7405 127.683 56.2375 128.21 56.5502C128.585 56.7741 129.293 56.8432 129.392 57.3962C129.454 57.7419 129.201 58.0842 129.313 58.4759C129.51 59.1738 130.05 59.0849 130.567 59.4108C131.041 59.7136 130.886 60.0527 131.097 60.4345C131.179 60.5826 131.653 60.8098 131.67 60.925C131.749 61.4714 132.581 61.241 132.502 60.6945C132.466 60.4444 132.364 60.4411 132.249 60.2436C132.17 60.1777 132.084 60.1218 131.989 60.0823C131.926 59.8947 131.884 59.7037 131.861 59.5062C131.643 58.8907 131.271 58.9038 130.794 58.578C129.866 57.9426 130.6 57.3106 130.198 56.5206C129.813 55.7602 128.381 56.1519 128.246 55.1578C128.18 54.6114 127.315 54.6048 127.387 55.1545Z" fill="#002247"/>
<path d="M114.757 67.5247C114.836 68.1106 115.053 68.6076 115.58 68.9204C115.955 69.1442 116.662 69.2133 116.761 69.7663C116.824 70.112 116.57 70.4543 116.682 70.846C116.88 71.5439 117.42 71.455 117.936 71.7809C118.41 72.0837 118.256 72.4228 118.466 72.8046C118.549 72.9528 119.023 73.1799 119.039 73.2951C119.118 73.8415 119.951 73.6111 119.872 73.0647C119.836 72.8145 119.734 72.8112 119.618 72.6137C119.539 72.5479 119.454 72.4919 119.358 72.4524C119.296 72.2648 119.253 72.0739 119.23 71.8763C119.013 71.2608 118.641 71.274 118.164 70.9481C117.235 70.3128 117.969 69.6808 117.568 68.8907C117.183 68.1303 115.751 68.5221 115.616 67.5279C115.547 66.9815 114.684 66.9749 114.757 67.5247Z" fill="#002247"/>
<path d="M146.558 56.3172C146.446 57.0315 146.789 57.3311 147.408 57.6208C147.875 57.8413 148.3 58.0026 148.326 58.582C148.333 58.7597 148.286 58.9309 148.316 59.1054C148.365 59.395 148.454 59.5629 148.708 59.7143C149.044 59.9151 149.494 59.8625 149.811 60.1225C150.189 60.4352 150.074 60.8631 150.265 61.2351C150.367 61.4326 150.522 61.561 150.732 61.6235C150.861 61.663 151.022 61.6762 151.154 61.6433C151.605 61.5281 151.298 61.4952 151.512 61.1791C151.2 61.64 151.947 62.0712 152.256 61.6137C152.543 61.1923 152.296 60.6459 151.786 60.5702C151.601 60.5438 151.47 60.6525 151.312 60.6459C150.742 60.6261 151.154 60.6689 150.972 60.3463C150.798 60.0336 150.772 59.7999 150.475 59.5464C150.163 59.2765 149.764 59.2634 149.448 59.0428C149.195 58.8683 149.304 59.0165 149.208 58.7202C149.162 58.5787 149.218 58.3515 149.188 58.1935C149.109 57.8018 148.905 57.4397 148.589 57.1896C148.405 57.0414 147.358 56.7353 147.388 56.5477C147.473 56.0045 146.644 55.7708 146.558 56.3172Z" fill="#002247"/>
<path d="M130.899 73.5947C131.031 73.4203 131.103 73.2425 131.176 73.0352C131.321 72.6336 131.34 72.5118 131.781 72.6039C132.199 72.6928 132.621 72.8245 133.006 72.5545C133.371 72.3011 133.273 71.8666 133.523 71.5934C133.796 71.2938 134.303 71.5999 134.523 71.0831C134.741 70.5795 133.997 70.1384 133.779 70.6486C133.793 70.6157 133.299 70.6585 133.23 70.6881C133.072 70.754 132.95 70.856 132.855 70.9943C132.743 71.1556 132.736 71.3531 132.647 71.5177C132.44 71.9028 132.213 71.804 131.834 71.7316C131.449 71.6592 131.084 71.6724 130.777 71.939C130.412 72.2616 130.438 72.7883 130.155 73.1602C129.82 73.598 130.567 74.0293 130.899 73.5947Z" fill="#002247"/>
<path d="M121.524 62.3835C121.386 61.5112 122.923 61.6923 123.41 61.3137C123.779 61.0273 123.753 60.6422 123.94 60.2538C124.312 59.4868 124.925 59.602 125.573 59.2366C126.067 58.9601 126.442 58.5585 126.758 58.0944C127.071 57.6335 126.324 57.2023 126.014 57.6599C125.692 58.1306 125.264 58.496 124.714 58.677C124.437 58.7659 124.135 58.7692 123.868 58.891C123.206 59.2037 123.328 59.7106 123.052 60.2768C122.716 60.9615 121.659 60.7475 121.1 61.2709C120.705 61.6429 120.612 62.0972 120.691 62.6107C120.777 63.1604 121.61 62.93 121.524 62.3835Z" fill="#002247"/>
<path d="M122.426 71.2222C122.538 71.0082 122.594 70.8107 122.627 70.5737C122.676 70.2215 122.673 70.0635 123.055 70.0141C123.499 69.9582 123.881 70.1359 124.273 69.8232C124.655 69.5171 124.526 69.1517 124.681 68.7567C124.77 68.5328 124.753 68.6184 124.974 68.5723C125.07 68.5526 125.178 68.5262 125.267 68.4736C125.448 68.3649 125.547 68.2069 125.593 68.0029C125.718 67.463 124.885 67.2326 124.76 67.7724C124.783 67.6704 124.309 67.8284 124.247 67.8646C124.095 67.9601 123.996 68.0917 123.924 68.253C123.829 68.467 123.871 68.6843 123.802 68.8982C123.7 69.2208 123.516 69.1747 123.206 69.1583C122.798 69.1385 122.393 69.155 122.1 69.4743C121.745 69.8561 121.906 70.3565 121.682 70.7811C121.422 71.2749 122.166 71.7127 122.426 71.2222Z" fill="#002247"/>
<path d="M141.627 75.2146C141.795 74.6978 141.716 74.418 142.157 74.0691C142.545 73.7629 142.723 73.865 143.174 73.7695C143.658 73.6675 143.958 73.4469 144.274 73.0815C144.721 72.5647 144.718 72.2882 145.534 72.1697C145.699 72.1467 145.9 72.2092 146.064 72.1467C146.621 71.9426 147.019 71.1164 147.348 70.6884C147.687 70.2473 146.937 69.8161 146.604 70.2539C146.199 70.7806 146.008 71.0801 145.334 71.2612C145.13 71.3172 144.995 71.2875 144.807 71.3567C143.928 71.6825 143.796 72.6865 142.806 72.9466C142.269 73.0881 141.802 72.9169 141.357 73.3613C140.933 73.786 140.965 74.4443 140.794 74.9809C140.623 75.5141 141.456 75.7413 141.627 75.2146Z" fill="#002247"/>
<path d="M144.326 67.3279C144.313 67.0349 144.277 66.788 144.626 66.8407C144.837 66.8736 145.004 66.9361 145.225 66.8868C145.584 66.8045 145.785 66.528 145.88 66.1856C145.923 66.0276 145.91 65.8202 145.982 65.6721C146.117 65.3989 146.42 65.4581 146.673 65.3693C147.062 65.2343 147.259 64.9545 147.309 64.5595C147.378 64.0098 146.512 64.0131 146.446 64.5595C146.446 64.5694 145.814 64.6681 145.745 64.6977C145.571 64.7767 145.422 64.892 145.314 65.05C145.166 65.2738 145.159 65.9651 144.945 66.0309C144.804 66.0737 144.494 65.9058 144.313 65.9289C144.129 65.9519 143.968 66.021 143.829 66.1428C143.5 66.4358 143.451 66.9098 143.467 67.3246C143.487 67.8809 144.349 67.8842 144.326 67.3279Z" fill="#002247"/>
<path d="M152.566 66.2912C152.457 66.0378 153.974 65.6461 154.208 65.4321C154.636 65.0371 154.494 64.438 154.794 64.0298C155.071 63.648 155.805 63.7401 156.236 63.49C156.72 63.2102 157.009 62.7855 157.217 62.2819C157.427 61.7684 156.591 61.5445 156.384 62.0515C156.144 62.6407 155.65 62.881 155.054 62.9172C154.847 62.9304 154.643 62.8942 154.448 63.0028C153.885 63.3188 153.955 64.1845 153.596 64.6355C153.174 65.1589 152.427 65.0272 151.973 65.5638C151.66 65.9357 151.637 66.2945 151.818 66.7258C152.039 67.236 152.783 66.7982 152.566 66.2912Z" fill="#002247"/>
<path d="M154.366 57.1955C154.432 56.2113 155.261 56.705 155.851 56.3067C156.2 56.0697 156.308 55.6846 156.394 55.2928C156.446 55.0591 156.437 54.8386 156.667 54.73C156.838 54.6477 157.092 54.7036 157.283 54.6115C157.757 54.3843 157.98 53.8675 158.165 53.4034C158.369 52.8866 157.536 52.6627 157.332 53.173C157.134 53.6733 156.878 53.7095 156.4 53.8939C156.242 53.9564 156.104 53.9959 155.972 54.1144C155.604 54.4469 155.706 54.8978 155.508 55.3027C155.265 55.7998 154.491 55.5002 154.063 55.8393C153.648 56.1652 153.537 56.6951 153.504 57.1955C153.464 57.7485 154.327 57.7452 154.366 57.1955Z" fill="#002247"/>
<path d="M119.938 76.8932C119.658 77.3606 119.609 77.9532 120.014 78.3844C120.356 78.7531 120.909 78.628 120.952 79.3126C120.971 79.6287 120.748 79.8887 120.827 80.231C121.001 80.9651 121.854 80.8104 122.015 81.5444C122.163 82.2226 121.936 82.634 122.571 83.1113C123.016 83.4438 123.447 82.6966 123.006 82.3674C122.644 82.0975 122.963 81.1396 122.756 80.7149C122.515 80.2179 122.189 80.3956 121.857 80.106C121.524 79.8163 121.979 79.0592 121.755 78.5852C121.584 78.2198 120.445 77.726 120.682 77.331C120.968 76.8537 120.224 76.4192 119.938 76.8932Z" fill="#002247"/>
<path d="M125.889 87.4637C125.61 87.9311 125.56 88.5236 125.965 88.9548C126.307 89.3235 126.86 89.1984 126.903 89.8831C126.923 90.1991 126.699 90.4592 126.778 90.8015C126.953 91.5356 127.805 91.3809 127.966 92.1149C128.115 92.793 127.887 93.2045 128.523 93.6818C128.967 94.0143 129.398 93.267 128.957 92.9379C128.595 92.6679 128.914 91.71 128.707 91.2854C128.467 90.7883 128.141 90.9661 127.808 90.6764C127.476 90.3867 127.93 89.6296 127.706 89.1556C127.535 88.7902 126.396 88.2965 126.633 87.9015C126.92 87.4209 126.176 86.9864 125.889 87.4637Z" fill="#002247"/>
<path d="M126.877 78.5557C126.794 79.01 126.939 79.3655 127.367 79.5926C127.89 79.8691 128.154 79.7736 128.167 80.4583C128.174 80.7546 128.081 80.9686 128.206 81.2648C128.493 81.9429 129.431 81.8738 129.734 82.5025C130.056 83.1707 129.721 83.8027 130.297 84.4117C130.679 84.8166 131.291 84.2043 130.906 83.8027C130.458 83.3287 130.751 82.486 130.435 81.933C130.165 81.459 129.773 81.5084 129.421 81.1891C128.75 80.5867 129.395 79.958 128.957 79.3391C128.829 79.1548 127.726 78.7071 127.713 78.7828C127.808 78.2397 126.979 78.0093 126.877 78.5557Z" fill="#002247"/>
<path d="M133.431 109.126C133.516 109.027 133.602 108.925 133.687 108.827C133.826 108.866 133.964 108.906 134.099 108.948C134.208 108.978 134.303 109.027 134.418 109.041C134.586 109.06 134.764 109.041 134.919 108.958C135.34 108.738 135.406 108.28 135.498 107.869C135.544 107.655 135.488 107.592 135.639 107.391C135.834 107.138 135.824 107.237 136.11 107.214C136.354 107.194 136.578 107.121 136.785 106.99C137.223 106.707 137.407 106.282 137.453 105.782C137.506 105.229 136.64 105.232 136.591 105.782C136.548 106.219 136.084 106.322 135.765 106.338C135.646 106.345 135.481 106.345 135.366 106.384C135.162 106.453 135.004 106.588 134.886 106.766C134.774 106.934 134.724 107.128 134.688 107.326C134.629 107.642 134.757 108.086 134.329 108.109C134.138 108.119 133.901 107.961 133.691 107.964C133.483 107.964 133.243 108.023 133.065 108.129C132.614 108.402 132.496 108.876 132.601 109.357C132.716 109.9 133.549 109.669 133.431 109.126Z" fill="#002247"/>
<path d="M133.299 100.242C133.253 99.2285 134.56 99.7288 135.07 99.5017C135.458 99.3305 135.633 99.0145 135.764 98.6294C135.85 98.3891 135.873 98.1158 136.12 97.9677C136.265 97.8821 136.64 97.971 136.828 97.8821C137.078 97.7636 137.424 97.0427 137.601 97.0296C138.154 96.9934 138.158 96.1309 137.601 96.1671C136.953 96.2066 136.877 96.7662 136.37 97.0065C135.797 97.2764 135.393 97.1514 135.106 97.8229C134.902 98.3002 134.856 98.6392 134.231 98.7215C133.891 98.7643 133.575 98.6721 133.246 98.8236C132.68 99.0803 132.41 99.6399 132.437 100.239C132.46 100.799 133.322 100.802 133.299 100.242Z" fill="#002247"/>
<path d="M138.319 100.156C138.23 100.518 138.19 100.923 138.47 101.213C138.599 101.345 138.757 101.41 138.938 101.447C139.267 101.512 139.356 101.381 139.339 101.772C139.323 102.115 139.303 102.474 139.54 102.753C139.932 103.218 140.909 102.895 140.85 103.695C140.807 104.248 141.673 104.248 141.713 103.695C141.745 103.247 141.587 102.826 141.242 102.533C140.919 102.256 140.251 102.316 140.192 101.924C140.136 101.565 140.281 101.249 140.044 100.923C139.932 100.768 139.777 100.68 139.593 100.627C139.346 100.558 139.069 100.719 139.152 100.387C139.287 99.8468 138.454 99.6164 138.319 100.156Z" fill="#002247"/>
<path d="M141.008 110.098C140.919 110.46 140.88 110.865 141.16 111.154C141.288 111.286 141.446 111.352 141.627 111.388C141.956 111.454 142.045 111.322 142.029 111.714C142.012 112.056 141.992 112.415 142.229 112.695C142.621 113.159 143.599 112.836 143.539 113.636C143.497 114.189 144.362 114.189 144.402 113.636C144.435 113.189 144.277 112.767 143.931 112.474C143.609 112.198 142.94 112.257 142.881 111.865C142.825 111.506 142.97 111.19 142.733 110.865C142.621 110.71 142.466 110.621 142.282 110.568C142.035 110.499 141.759 110.661 141.841 110.328C141.973 109.788 141.14 109.558 141.008 110.098Z" fill="#002247"/>
<path d="M139.257 90.9069C139.293 91.1801 139.323 91.371 139.527 91.5817C139.761 91.8253 140.063 91.8023 140.307 91.98C140.955 92.4507 140.412 93.3691 140.992 93.9386C141.453 94.3896 142.246 94.304 142.506 94.9327C142.71 95.4232 142.881 95.7524 143.48 95.6503C144.027 95.5581 143.796 94.7286 143.25 94.8175C143.661 94.7484 142.865 93.9057 142.753 93.8366C142.308 93.5535 141.62 93.6193 141.492 92.984C141.397 92.5067 141.657 92.0985 141.347 91.6475C141.153 91.3645 140.146 91.1209 140.119 90.9069C140.05 90.3638 139.185 90.3572 139.257 90.9069Z" fill="#002247"/>
<path d="M144.935 99.3464C144.846 98.8691 145.976 98.8164 146.262 98.5827C146.664 98.2601 146.657 97.6841 147.045 97.3746C147.421 97.0751 147.299 97.2495 147.727 97.322C147.908 97.3516 148.039 97.3516 148.211 97.3022C148.609 97.1804 148.971 96.4069 149.333 96.4167C149.889 96.4266 149.889 95.5642 149.333 95.5543C148.997 95.5477 148.777 95.5938 148.517 95.8275C148.132 96.1699 148.214 96.4694 147.595 96.3641C147.016 96.2686 146.621 96.2884 146.252 96.8315C146.025 97.1672 146.018 97.6018 145.673 97.8322C145.39 98.0231 145.054 97.9178 144.744 98.0758C144.172 98.3687 143.997 98.981 144.109 99.5735C144.205 100.12 145.037 99.8895 144.935 99.3464Z" fill="#002247"/>
<path d="M150.317 99.6001C150.192 99.9852 150.107 100.456 150.373 100.805C150.775 101.335 151.368 100.913 151.555 101.697C151.67 102.171 151.578 102.652 151.99 103.02C152.187 103.195 152.375 103.152 152.579 103.257C153.096 103.521 153.201 103.735 153.25 104.264C153.303 104.814 154.169 104.817 154.113 104.264C154.067 103.787 154.001 103.287 153.698 102.895C153.31 102.395 152.618 102.497 152.421 101.809C152.293 101.368 152.398 100.923 152.046 100.545C151.901 100.39 151.723 100.285 151.512 100.245C151.17 100.179 150.996 100.285 151.144 99.8272C151.325 99.3005 150.489 99.0734 150.317 99.6001Z" fill="#002247"/>
<path d="M125.28 106.694C125.165 106.378 126.179 106.49 126.347 106.411C126.64 106.272 126.679 106.003 126.804 105.742C126.985 105.364 127.206 105.515 127.552 105.354C127.874 105.203 128.052 104.943 128.174 104.617C128.375 104.097 127.538 103.873 127.341 104.386C127.242 104.643 126.824 104.587 126.62 104.676C126.456 104.748 126.334 104.847 126.225 104.992C126.11 105.14 126.084 105.38 125.972 105.512C125.853 105.65 125.804 105.581 125.59 105.578C124.862 105.565 124.168 106.157 124.448 106.924C124.635 107.441 125.468 107.217 125.28 106.694Z" fill="#002247"/>
<path d="M148.454 71.4361C148.438 71.9891 148.632 72.4862 149.112 72.7923C149.405 72.9799 149.751 72.9602 149.965 73.2466C150.199 73.5593 150.051 73.9016 150.12 74.2769C150.205 74.7377 150.446 74.9319 150.847 75.136C151.064 75.2447 151.318 75.2644 151.473 75.5014C151.552 75.6265 151.552 75.8734 151.621 76.0215C151.746 76.2783 151.881 76.3968 152.128 76.5284C152.618 76.7885 153.056 76.0412 152.562 75.7845C152.213 75.6002 152.269 74.9188 151.943 74.6357C151.733 74.4546 151.548 74.4941 151.328 74.369C150.959 74.1584 150.966 74.0464 150.966 73.658C150.966 73.3058 150.962 72.9569 150.739 72.6606C150.36 72.157 149.287 72.2821 149.313 71.4394C149.336 70.8798 148.474 70.8831 148.454 71.4361Z" fill="#002247"/>
<path d="M144.376 109.495C144.353 109.04 145.649 109.169 145.949 108.971C146.242 108.777 146.311 108.468 146.469 108.178C146.614 107.905 146.574 107.944 146.848 107.813C147.012 107.737 147.22 107.727 147.391 107.651C147.825 107.46 148.135 107.167 148.424 106.795C148.763 106.354 148.013 105.926 147.68 106.361C147.368 106.769 146.999 106.904 146.509 106.983C146.367 107.006 146.202 107.006 146.081 107.085C145.936 107.181 145.857 107.339 145.788 107.493C145.603 107.901 145.732 108.026 145.261 108.168C144.794 108.306 144.376 108.119 143.958 108.454C143.628 108.714 143.5 109.09 143.52 109.498C143.539 110.048 144.405 110.051 144.376 109.495Z" fill="#002247"/>
<path d="M128.496 109.15C128.332 109.653 128.197 110.453 128.74 110.779C128.983 110.927 129.293 110.819 129.533 110.94C130.076 111.214 129.836 111.836 130.06 112.274C130.372 112.892 131.028 112.54 131.344 113.017C131.525 113.294 131.502 113.61 131.748 113.88C131.982 114.137 132.275 114.268 132.601 114.364C133.134 114.522 133.365 113.689 132.831 113.531C131.943 113.268 132.374 112.349 131.689 111.977C131.557 111.905 131.413 111.915 131.271 111.875C130.767 111.73 130.87 111.747 130.82 111.24C130.781 110.848 130.623 110.535 130.29 110.318C130.05 110.16 129.783 110.173 129.53 110.068C129.415 110.052 129.299 110.038 129.184 110.032C129.197 109.808 129.247 109.591 129.332 109.38C129.5 108.85 128.667 108.623 128.496 109.15Z" fill="#002247"/>
<path d="M154.327 92.6444C154.425 92.0617 155.133 92.2593 155.548 92.0321C156.071 91.749 156.104 91.2388 156.433 90.8109C157.098 89.9419 157.375 90.7319 158.119 90.4323C158.682 90.2052 158.892 89.5403 159.468 89.2638C159.969 89.0235 159.531 88.2795 159.034 88.5198C158.714 88.6712 158.481 88.8556 158.221 89.086C157.845 89.4185 157.826 89.537 157.286 89.5041C156.664 89.4679 156.279 89.5172 155.877 90.0702C155.591 90.462 155.564 90.8372 155.13 91.1006C154.754 91.3277 154.623 91.1796 154.251 91.2915C153.754 91.4429 153.579 91.9498 153.5 92.414C153.398 92.9604 154.231 93.1941 154.327 92.6444Z" fill="#002247"/>
<path d="M157.066 95.4096C157.033 95.7948 157.043 96.1667 157.388 96.4136C157.823 96.723 158.521 96.4037 158.721 97.0193C158.846 97.4044 158.744 97.7369 159.113 98.0233C159.584 98.3887 160.078 98.2866 160.361 98.9252C160.584 99.4321 161.328 98.9943 161.105 98.4907C160.923 98.0792 160.627 97.7501 160.222 97.5493C160.094 97.4867 159.877 97.467 159.768 97.3913C159.515 97.2168 159.604 96.9864 159.548 96.7329C159.472 96.3906 159.264 96.1206 158.958 95.9495C158.626 95.7651 157.885 95.8803 157.928 95.4096C157.977 94.8566 157.115 94.8599 157.066 95.4096Z" fill="#002247"/>
<path d="M175.282 94.4648C175.249 94.85 175.259 95.2219 175.605 95.4688C176.039 95.7782 176.737 95.4589 176.938 96.0745C177.063 96.4596 176.961 96.7921 177.33 97.0785C177.8 97.4439 178.294 97.3418 178.577 97.9804C178.801 98.4874 179.545 98.0495 179.321 97.5459C179.14 97.1344 178.844 96.8053 178.439 96.6045C178.31 96.5419 178.093 96.5222 177.985 96.4465C177.731 96.272 177.82 96.0416 177.764 95.7881C177.688 95.4458 177.481 95.1758 177.175 95.0047C176.842 94.8203 176.102 94.9355 176.144 94.4648C176.194 93.9085 175.331 93.9118 175.282 94.4648Z" fill="#002247"/>
<path d="M160.4 103.145C160.305 102.628 161.615 102.585 161.885 102.47C162.187 102.342 162.362 102.19 162.553 101.924C162.668 101.766 162.704 101.568 162.813 101.41C163.613 100.265 163.247 101.012 163.991 100.772C164.564 100.587 164.627 99.8137 165.087 99.4812C165.617 99.0993 166.138 99.0335 166.542 98.4739C166.872 98.0229 166.121 97.5917 165.798 98.0394C165.39 98.599 164.511 98.7768 164.018 99.2968C163.761 99.5701 163.57 99.7511 163.228 99.8795C162.846 100.024 162.691 100.001 162.405 100.34C162.046 100.768 161.875 101.433 161.358 101.726C161.078 101.884 160.634 101.805 160.324 101.94C159.679 102.22 159.445 102.707 159.57 103.372C159.669 103.922 160.502 103.691 160.4 103.145Z" fill="#002247"/>
<path d="M163.412 89.9226C163.221 90.3209 163.247 90.7126 163.527 91.0681C163.879 91.5125 164.409 91.5092 164.893 91.7133C165.413 91.9339 165.133 92.6218 165.528 93.0037C165.663 93.1321 165.831 93.2045 166.012 93.2506C166.141 93.2835 166.519 93.2473 166.595 93.3493C166.924 93.7904 167.671 93.3592 167.339 92.9148C167.154 92.6679 166.964 92.5395 166.661 92.477C166.388 92.421 166.206 92.5165 166.101 92.1709C166.048 92.0063 166.088 91.8252 166.022 91.6541C165.9 91.3348 165.653 91.1241 165.354 90.9727C165.156 90.8739 164.008 90.6698 164.159 90.3604C164.399 89.8601 163.655 89.419 163.412 89.9226Z" fill="#002247"/>
<path d="M167.421 101.676C167.428 101.617 167.434 101.555 167.438 101.495C167.487 101.005 166.71 100.919 166.589 101.38C166.496 101.729 166.602 102.052 166.918 102.256C167.105 102.378 167.28 102.358 167.49 102.401C167.902 102.486 167.895 102.575 167.938 102.944C167.984 103.332 168.225 103.457 168.564 103.546C168.978 103.655 169.209 103.671 169.485 104.047C169.67 104.293 169.788 104.593 169.913 104.873C170.14 105.38 170.884 104.942 170.657 104.438C170.43 103.931 170.183 103.428 169.739 103.075C169.581 102.95 169.403 102.842 169.209 102.779C169.176 102.769 168.613 102.601 168.758 102.75C168.876 102.868 168.81 102.46 168.787 102.371C168.745 102.19 168.639 102.006 168.511 101.871C168.376 101.732 167.507 101.288 167.421 101.614C167.138 101.574 166.855 101.538 166.572 101.499C166.565 101.558 166.559 101.621 166.556 101.68C166.503 102.23 167.369 102.226 167.421 101.676Z" fill="#002247"/>
<path d="M154.83 106.622C154.837 106.563 154.844 106.5 154.847 106.441C154.896 105.95 154.119 105.865 153.998 106.326C153.905 106.674 154.011 106.997 154.327 107.201C154.514 107.323 154.689 107.303 154.9 107.346C155.311 107.432 155.304 107.52 155.347 107.889C155.393 108.278 155.634 108.403 155.973 108.492C156.387 108.6 156.618 108.617 156.894 108.992C157.079 109.239 157.197 109.538 157.322 109.818C157.549 110.325 158.293 109.887 158.066 109.384C157.839 108.877 157.592 108.373 157.148 108.021C156.99 107.896 156.812 107.787 156.618 107.725C156.585 107.715 156.022 107.547 156.167 107.695C156.285 107.813 156.22 107.405 156.197 107.316C156.154 107.135 156.048 106.951 155.92 106.816C155.785 106.678 154.916 106.233 154.83 106.559C154.547 106.52 154.264 106.484 153.981 106.444C153.975 106.503 153.968 106.566 153.965 106.625C153.915 107.175 154.778 107.172 154.83 106.622Z" fill="#002247"/>
<path d="M169.656 95.6694C169.808 95.8866 170.489 95.4554 170.614 95.3303C170.763 95.1822 170.828 94.988 170.93 94.8135C171.102 94.5272 171.296 94.3494 171.582 94.1749C172.007 93.9149 172.557 94.0959 172.925 93.7668C173.212 93.5133 173.238 93.1216 173.205 92.7661C173.152 92.2163 172.29 92.2131 172.343 92.7661C172.379 93.1413 172.237 93.036 171.944 93.0788C171.691 93.115 171.46 93.25 171.243 93.3717C170.733 93.6647 170.476 93.984 170.147 94.4514C169.943 94.7411 169.785 94.7576 169.462 94.886C169.288 94.9551 169.14 95.011 169.008 95.1559C168.758 95.4291 168.695 95.7945 168.909 96.1039C169.225 96.5582 169.972 96.1269 169.656 95.6694Z" fill="#002247"/>
<path d="M164.208 86.443C164.116 85.5147 164.89 85.8867 165.44 85.6793C165.818 85.5378 165.963 85.1757 166.111 84.8334C166.187 84.6556 166.312 84.1092 166.463 84.0038C166.641 83.8853 166.96 83.994 167.161 83.9742C167.527 83.938 167.813 83.7997 167.984 83.464C168.238 82.9702 167.494 82.5324 167.24 83.0295C167.145 83.2204 166.7 83.0821 166.523 83.0953C166.295 83.1118 166.081 83.1776 165.907 83.3323C165.775 83.4508 165.713 83.5924 165.634 83.7471C165.515 83.9874 165.393 84.6293 165.193 84.7807C165.028 84.9058 164.623 84.7741 164.426 84.7971C164.212 84.8202 164.024 84.8992 163.853 85.0309C163.412 85.3699 163.29 85.9098 163.343 86.4397C163.399 86.9927 164.261 86.996 164.208 86.443Z" fill="#002247"/>
<path d="M168.28 86.2813C168.172 86.6401 168.28 86.9561 168.573 87.1932C168.744 87.3347 168.929 87.394 169.143 87.4466C169.235 87.4697 169.399 87.4565 169.478 87.5125C169.65 87.631 169.65 87.914 169.683 88.0885C169.752 88.4736 169.811 88.8028 170.157 89.0398C170.338 89.1649 170.538 89.2176 170.759 89.2472C170.835 89.2571 171.605 89.2867 171.565 89.3591C171.296 89.8463 172.043 90.2808 172.309 89.7936C172.507 89.4381 172.477 89.0332 172.184 88.7271C172.03 88.5658 171.816 88.4835 171.605 88.4374C171.355 88.3848 170.96 88.4835 170.739 88.3716C170.394 88.1971 170.535 87.4335 170.318 87.1043C170.203 86.9298 170.051 86.8179 169.864 86.7323C169.814 86.7093 169.1 86.5644 169.116 86.5052C169.274 85.9785 168.442 85.7514 168.28 86.2813Z" fill="#002247"/>
<path d="M157.845 77.8617C157.971 78.4311 158.283 78.5628 158.794 78.7208C159.386 78.9019 159.297 79.4977 159.784 79.8334C160.005 79.9848 160.202 79.8993 160.413 79.9914C160.765 80.1461 160.798 80.5214 160.983 80.8012C161.111 80.9987 161.275 81.1699 161.486 81.2818C161.647 81.3674 162.49 81.4365 162.503 81.6373C162.543 82.187 163.405 82.1936 163.366 81.6373C163.333 81.1699 163.102 80.867 162.661 80.6992C162.214 80.528 161.898 80.6202 161.624 80.1725C161.466 79.9124 161.437 79.603 161.213 79.3825C161.039 79.2113 160.923 79.2014 160.693 79.1224C160.301 78.9907 160.518 79.4253 160.097 78.757C160.038 78.6616 160.031 78.5332 159.969 78.4377C159.844 78.2534 159.738 78.0559 159.537 77.9407C159.363 77.8419 158.724 77.8551 158.675 77.6312C158.56 77.0881 157.727 77.3185 157.845 77.8617Z" fill="#002247"/>
<path d="M157.691 74.5525C157.707 74.2234 157.569 73.8909 157.967 73.8053C158.194 73.7559 158.445 73.8777 158.685 73.7954C159.119 73.6473 159.297 73.272 159.478 72.8836C159.761 72.2714 160.215 72.4195 160.729 72.1265C161.177 71.8731 161.453 71.4287 161.555 70.9349C161.667 70.3918 160.834 70.1613 160.722 70.7045C160.548 71.5669 159.87 71.3233 159.307 71.6756C158.846 71.9652 158.886 72.515 158.533 72.8507C158.201 73.1667 157.582 72.7585 157.157 73.1173C156.73 73.4761 156.855 74.0621 156.828 74.5525C156.799 75.1088 157.661 75.1056 157.691 74.5525Z" fill="#002247"/>
<path d="M160.393 65.1883C160.37 65.1817 160.351 65.1751 160.328 65.1685C160.43 65.3463 160.528 65.524 160.63 65.6985C160.634 65.6721 160.637 65.6458 160.644 65.6162C160.505 65.7215 160.367 65.8269 160.229 65.9322C159.972 65.9124 159.929 65.6359 159.988 66.0145C160.008 66.133 160.061 66.2252 160.133 66.3206C160.314 66.5543 160.604 66.6728 160.881 66.7354C161.348 66.8407 161.759 66.7979 161.967 67.2785C162.102 67.5879 162.036 67.9336 162.26 68.2233C162.707 68.8026 163.497 68.4241 163.902 68.931C164.093 69.168 164.123 69.4445 164.39 69.6321C164.571 69.7605 165.157 69.7473 165.236 69.8592C165.558 70.3069 166.305 69.8757 165.979 69.4247C165.779 69.1482 165.7 69.1416 165.397 69.01C164.732 68.717 164.817 68.5919 164.422 68.1344C164.212 67.8908 164.037 67.8414 163.734 67.7558C163.126 67.5847 162.958 67.7032 162.8 67.0514C162.635 66.37 162.349 66.1593 161.713 65.9487C161.414 65.8499 161.052 65.8598 160.808 65.5899C160.755 65.5306 160.798 65.3956 160.719 65.3331C160.522 65.1718 160.512 65.0961 160.229 65.073C160.061 65.0599 159.837 65.2146 159.814 65.3891C159.811 65.4154 159.807 65.4417 159.801 65.4713C159.768 65.7084 159.857 65.9256 160.104 66.0013C160.127 66.0079 160.146 66.0145 160.17 66.0211C160.696 66.189 160.923 65.3561 160.393 65.1883Z" fill="#002247"/>
<path d="M193.482 68.075C193.459 68.0684 193.439 68.0618 193.416 68.0552C193.518 68.233 193.617 68.4107 193.719 68.5852C193.722 68.5589 193.726 68.5325 193.732 68.5029C193.594 68.6082 193.456 68.7136 193.318 68.8189C193.061 68.7992 193.018 68.5227 193.077 68.9012C193.097 69.0197 193.15 69.1119 193.222 69.2073C193.403 69.4411 193.693 69.5596 193.969 69.6221C194.437 69.7274 194.848 69.6846 195.056 70.1652C195.191 70.4747 195.125 70.8203 195.349 71.11C195.796 71.6893 196.586 71.3108 196.991 71.8177C197.182 72.0547 197.212 72.3312 197.478 72.5188C197.659 72.6472 198.245 72.6341 198.324 72.746C198.647 73.1937 199.394 72.7624 199.068 72.3115C198.867 72.035 198.788 72.0284 198.486 71.8967C197.821 71.6037 197.906 71.4787 197.511 71.0211C197.301 70.7775 197.126 70.7281 196.823 70.6425C196.214 70.4714 196.046 70.5899 195.888 69.9381C195.724 69.2567 195.437 69.046 194.802 68.8354C194.503 68.7366 194.141 68.7465 193.897 68.4766C193.844 68.4173 193.887 68.2824 193.808 68.2198C193.611 68.0585 193.601 67.9828 193.318 67.9598C193.15 67.9466 192.926 68.1013 192.903 68.2758C192.9 68.3021 192.896 68.3284 192.89 68.3581C192.857 68.5951 192.946 68.8123 193.193 68.888C193.216 68.8946 193.235 68.9012 193.258 68.9078C193.785 69.0724 194.012 68.2396 193.482 68.075Z" fill="#002247"/>
<path d="M202.525 56.6492C202.502 56.6426 202.482 56.636 202.459 56.6295C202.561 56.8072 202.66 56.985 202.762 57.1594C202.765 57.1331 202.768 57.1067 202.775 57.0771C202.636 57.1825 202.498 57.2878 202.36 57.3931C202.103 57.3734 202.06 57.0969 202.12 57.4754C202.139 57.5939 202.192 57.6861 202.265 57.7816C202.446 58.0153 202.735 58.1338 203.012 58.1963C203.479 58.3017 203.891 58.2589 204.098 58.7395C204.233 59.0489 204.167 59.3945 204.391 59.6842C204.839 60.2635 205.629 59.885 206.034 60.3919C206.224 60.6289 206.254 60.9054 206.521 61.0931C206.702 61.2214 207.288 61.2083 207.367 61.3202C207.689 61.7679 208.437 61.3367 208.111 60.8857C207.91 60.6092 207.831 60.6026 207.528 60.4709C206.863 60.178 206.949 60.0529 206.554 59.5953C206.343 59.3517 206.169 59.3023 205.866 59.2168C205.257 59.0456 205.089 59.1641 204.931 58.5123C204.766 57.8309 204.48 57.6203 203.845 57.4096C203.545 57.3108 203.183 57.3207 202.939 57.0508C202.887 56.9915 202.929 56.8566 202.85 56.794C202.653 56.6327 202.643 56.557 202.36 56.534C202.192 56.5208 201.968 56.6755 201.945 56.85C201.942 56.8763 201.939 56.9027 201.932 56.9323C201.899 57.1693 201.988 57.3866 202.235 57.4623C202.258 57.4688 202.278 57.4754 202.301 57.482C202.827 57.6499 203.055 56.8171 202.525 56.6492Z" fill="#002247"/>
<path d="M205.5 45.408C205.477 45.4014 205.457 45.3948 205.434 45.3882C205.536 45.566 205.635 45.7437 205.737 45.9182C205.741 45.8919 205.744 45.8655 205.75 45.8359C205.612 45.9412 205.474 46.0466 205.336 46.1519C205.079 46.1322 205.036 45.8557 205.095 46.2342C205.115 46.3527 205.168 46.4449 205.24 46.5403C205.421 46.7741 205.711 46.8926 205.987 46.9551C206.455 47.0604 206.866 47.0176 207.074 47.4982C207.209 47.8077 207.143 48.1533 207.367 48.443C207.814 49.0223 208.604 48.6438 209.009 49.1507C209.2 49.3877 209.23 49.6642 209.496 49.8518C209.678 49.9802 210.263 49.9671 210.342 50.079C210.665 50.5267 211.412 50.0954 211.086 49.6445C210.886 49.368 210.807 49.3614 210.504 49.2297C209.839 48.9367 209.924 48.8117 209.529 48.3541C209.319 48.1105 209.144 48.0611 208.841 47.9756C208.232 47.8044 208.065 47.9229 207.907 47.2711C207.742 46.5897 207.456 46.3791 206.82 46.1684C206.521 46.0696 206.159 46.0795 205.915 45.8096C205.862 45.7503 205.905 45.6154 205.826 45.5528C205.629 45.3915 205.619 45.3158 205.336 45.2928C205.168 45.2796 204.944 45.4343 204.921 45.6088C204.918 45.6351 204.914 45.6614 204.908 45.6911C204.875 45.9281 204.964 46.1453 205.211 46.221C205.234 46.2276 205.253 46.2342 205.276 46.2408C205.803 46.4087 206.03 45.5759 205.5 45.408Z" fill="#002247"/>
<path d="M175.154 48.2849C175.13 48.2784 175.111 48.2718 175.088 48.2652C175.19 48.4429 175.288 48.6207 175.391 48.7952C175.394 48.7688 175.397 48.7425 175.404 48.7129C175.265 48.8182 175.127 48.9235 174.989 49.0289C174.732 49.0091 174.689 48.7326 174.749 49.1112C174.768 49.2297 174.821 49.3251 174.893 49.4173C175.075 49.651 175.364 49.7695 175.641 49.8321C176.108 49.9374 176.52 49.8946 176.727 50.3752C176.862 50.6846 176.796 51.0303 177.02 51.3199C177.468 51.8993 178.258 51.5207 178.663 52.0277C178.853 52.2647 178.883 52.5412 179.15 52.7288C179.331 52.8572 179.917 52.844 179.996 52.9559C180.318 53.4036 181.066 52.9724 180.74 52.5214C180.539 52.2449 180.46 52.2383 180.157 52.1067C179.492 51.8137 179.578 51.6886 179.183 51.2311C178.972 50.9875 178.797 50.9381 178.495 50.8525C177.886 50.6813 177.718 50.7998 177.56 50.1481C177.395 49.4667 177.109 49.256 176.474 49.0453C176.174 48.9466 175.812 48.9565 175.568 48.6865C175.516 48.6273 175.558 48.4923 175.479 48.4298C175.282 48.2685 175.272 48.1928 174.989 48.1697C174.821 48.1566 174.597 48.3113 174.574 48.4857C174.571 48.5121 174.568 48.5384 174.561 48.568C174.528 48.805 174.617 49.0223 174.864 49.098C174.887 49.1046 174.907 49.1112 174.93 49.1178C175.456 49.2856 175.683 48.4528 175.154 48.2849Z" fill="#002247"/>
<path d="M164.781 77.0676C164.627 76.7681 164.679 76.5179 164.949 76.3171C165.058 76.3402 165.17 76.3599 165.282 76.3731C165.417 76.3698 165.578 76.3369 165.696 76.2677C166.091 76.0307 165.897 75.7147 166.022 75.3855C166.108 75.1584 166.114 75.2308 166.401 75.1716C166.579 75.1354 166.743 75.0959 166.895 74.9872C167.382 74.6317 167.408 74.0293 168.001 73.7265C168.494 73.473 168.06 72.7291 167.566 72.9826C167.24 73.1504 166.977 73.348 166.76 73.6409C166.503 73.9865 166.523 74.1775 166.042 74.3519C165.588 74.5165 165.236 74.5593 165.163 75.1321C165.11 75.5435 165.275 75.3855 164.906 75.4514C164.666 75.4942 164.482 75.5007 164.281 75.662C163.771 76.0768 163.83 76.722 163.958 77.3046C164.067 77.8379 164.9 77.6075 164.781 77.0676Z" fill="#002247"/>
<path d="M168.185 77.9629C168.162 78.4402 168.392 78.8385 168.847 79.0327C169.126 79.1512 169.377 79.1281 169.67 79.138C170.377 79.1644 170.66 79.2565 170.897 79.8951C171.042 80.2901 171.18 80.6555 171.582 80.8464C171.895 80.9946 172.247 80.8794 172.56 81.0143C172.938 81.1822 173.152 81.6957 173.33 82.0446C173.583 82.5384 174.327 82.1039 174.074 81.6101C173.82 81.1131 173.508 80.5469 172.994 80.2704C172.491 79.9972 172.01 80.2309 171.73 79.6647C171.536 79.2763 171.516 78.8516 171.161 78.5521C170.858 78.292 169.038 78.2163 169.047 77.9629C169.074 77.4066 168.211 77.4099 168.185 77.9629Z" fill="#002247"/>
<path d="M165.67 65.0929C165.759 64.9481 165.848 64.8032 165.937 64.6584C166.039 64.6913 166.141 64.7209 166.239 64.7538C166.368 64.8032 166.463 64.8592 166.595 64.8822C166.776 64.9151 166.944 64.9119 167.115 64.8361C167.533 64.6485 167.675 64.1877 167.74 63.7729C167.8 63.4009 167.77 63.2594 168.168 63.2199C168.402 63.1968 168.629 63.2265 168.847 63.0981C169.261 62.8479 169.324 62.3509 169.307 61.9131C169.288 61.3601 168.422 61.3568 168.445 61.9131C168.465 62.443 168.129 62.3015 167.764 62.3673C167.53 62.4101 167.342 62.522 167.191 62.7031C167.039 62.8874 166.977 63.108 166.931 63.3384C166.865 63.6643 166.95 63.9836 166.592 63.9671C166.381 63.9572 166.167 63.7959 165.933 63.7927C165.68 63.7894 165.413 63.8651 165.206 64.0132C164.784 64.3128 164.646 64.8493 164.834 65.32C165.041 65.8303 165.877 65.6097 165.67 65.0929Z" fill="#002247"/>
<path d="M160.986 55.9285C161.118 56.2708 161.312 56.5177 161.648 56.679C162.191 56.9423 162.833 56.7646 163.27 57.2616C163.583 57.6138 163.461 58.1339 163.807 58.4499C163.929 58.5586 164.873 58.7199 164.821 58.5783C165.012 59.0951 165.848 58.8713 165.654 58.3479C165.512 57.9693 165.282 57.8048 164.874 57.7587C164.814 57.7521 164.449 57.8179 164.399 57.7718C164.311 57.6863 164.291 57.2781 164.225 57.1398C164.034 56.7481 163.718 56.4222 163.33 56.2247C162.964 56.0404 161.977 56.1194 161.819 55.7013C161.621 55.1845 160.785 55.4084 160.986 55.9285Z" fill="#002247"/>
<path d="M166.421 53.5087C166.398 53.4922 166.374 53.4791 166.348 53.4626C166.414 53.5482 166.48 53.6338 166.546 53.7194C166.602 53.9037 166.398 53.8379 166.644 53.9037C166.723 53.9234 166.829 53.907 166.911 53.8938C167.089 53.8642 167.244 53.7951 167.372 53.6667C167.602 53.4363 167.639 53.117 167.655 52.8075C167.665 52.6726 167.632 52.4487 167.711 52.3269C167.816 52.1722 168.132 52.1229 168.284 52.0044C168.573 51.7805 168.731 51.425 168.596 51.0728C168.396 50.5593 167.563 50.7831 167.764 51.3032C167.773 51.3328 167.319 51.5369 167.263 51.5764C167.105 51.6883 167 51.82 166.924 51.9912C166.819 52.2249 166.881 52.9491 166.71 53.0347C166.559 53.1104 166.305 53.0149 166.128 53.0939C165.979 53.1598 165.861 53.2618 165.782 53.4033C165.601 53.7259 165.69 54.0518 165.989 54.2526C166.45 54.5588 166.881 53.8115 166.421 53.5087Z" fill="#002247"/>
<path d="M171.012 75.1226C170.838 74.3194 171.661 73.6775 172.395 73.9145C172.678 74.0067 172.925 73.7631 172.941 73.4998C172.997 72.5551 173.57 71.7387 174.452 71.3832C174.963 71.1791 174.739 70.343 174.222 70.5504C172.958 71.0573 172.158 72.1337 172.076 73.4998C172.257 73.3615 172.441 73.2233 172.622 73.085C171.22 72.6308 169.867 73.9475 170.176 75.353C170.298 75.8929 171.131 75.6658 171.012 75.1226Z" fill="#002247"/>
<path d="M170.736 55.1384C170.779 55.5927 170.927 55.991 171.316 56.2642C171.908 56.6822 173.044 56.2148 173.35 57.0344C173.564 57.6039 173.162 58.3051 173.511 58.8482C173.613 59.0062 174.653 59.4308 174.643 59.2695C174.676 59.8226 175.539 59.8258 175.506 59.2695C175.483 58.8647 175.292 58.598 174.894 58.4565C174.667 58.3775 174.393 58.4729 174.232 58.259C174.117 58.1043 174.265 57.357 174.239 57.1398C174.186 56.6921 174.018 56.2543 173.656 55.9679C173.205 55.6091 171.661 55.8165 171.595 55.1384C171.546 54.5887 170.684 54.5821 170.736 55.1384Z" fill="#002247"/>
<path d="M184.232 69.5333C184.321 69.3885 184.41 69.2437 184.499 69.0988C184.601 69.1317 184.703 69.1614 184.802 69.1943C184.93 69.2437 185.025 69.2996 185.157 69.3227C185.338 69.3556 185.506 69.3523 185.677 69.2766C186.095 69.0889 186.237 68.6281 186.303 68.2133C186.362 67.8414 186.332 67.6998 186.73 67.6603C186.964 67.6373 187.191 67.6669 187.409 67.5385C187.823 67.2884 187.886 66.7913 187.869 66.3535C187.85 65.8005 186.984 65.7972 187.007 66.3535C187.027 66.8835 186.691 66.7419 186.326 66.8078C186.092 66.8506 185.904 66.9625 185.753 67.1435C185.601 67.3279 185.539 67.5484 185.493 67.7788C185.427 68.1047 185.513 68.424 185.154 68.4076C184.943 68.3977 184.729 68.2364 184.495 68.2331C184.242 68.2298 183.975 68.3055 183.768 68.4536C183.347 68.7532 183.208 69.2897 183.396 69.7605C183.603 70.274 184.439 70.0501 184.232 69.5333Z" fill="#002247"/>
<path d="M207.08 56.3732C207.169 56.2283 207.258 56.0835 207.347 55.9387C207.449 55.9716 207.551 56.0012 207.65 56.0341C207.778 56.0835 207.873 56.1395 208.005 56.1625C208.186 56.1954 208.354 56.1921 208.525 56.1164C208.943 55.9288 209.085 55.4679 209.151 55.0532C209.21 54.6812 209.18 54.5397 209.579 54.5002C209.812 54.4771 210.039 54.5067 210.257 54.3784C210.675 54.1282 210.734 53.6311 210.718 53.1933C210.698 52.6403 209.832 52.637 209.855 53.1933C209.875 53.7233 209.539 53.5818 209.174 53.6476C208.94 53.6904 208.752 53.8023 208.601 53.9834C208.449 54.1677 208.387 54.3882 208.341 54.6187C208.275 54.9445 208.361 55.2638 208.002 55.2474C207.791 55.2375 207.577 55.0762 207.343 55.0729C207.09 55.0696 206.823 55.1453 206.616 55.2935C206.195 55.593 206.056 56.1296 206.244 56.6003C206.451 57.1138 207.284 56.89 207.08 56.3732Z" fill="#002247"/>
<path d="M201.369 52.4064C201.458 52.2615 201.547 52.1167 201.636 51.9719C201.738 52.0048 201.84 52.0344 201.939 52.0673C202.067 52.1167 202.162 52.1727 202.294 52.1957C202.475 52.2286 202.643 52.2253 202.814 52.1496C203.232 51.962 203.374 51.5011 203.44 51.0864C203.499 50.7144 203.469 50.5729 203.868 50.5334C204.101 50.5103 204.328 50.54 204.546 50.4116C204.964 50.1614 205.023 49.6643 205.006 49.2265C204.987 48.6735 204.121 48.6702 204.144 49.2265C204.164 49.7565 203.828 49.615 203.463 49.6808C203.229 49.7236 203.041 49.8355 202.89 50.0166C202.738 50.2009 202.676 50.4215 202.63 50.6519C202.564 50.9778 202.65 51.2971 202.291 51.2806C202.08 51.2707 201.866 51.1094 201.632 51.1061C201.379 51.1028 201.112 51.1786 200.905 51.3267C200.484 51.6262 200.345 52.1628 200.533 52.6335C200.737 53.147 201.573 52.9232 201.369 52.4064Z" fill="#002247"/>
<path d="M203.907 68.2726C203.996 68.1277 204.085 67.9829 204.174 67.8381C204.276 67.871 204.378 67.9006 204.476 67.9335C204.605 67.9829 204.7 68.0389 204.832 68.0619C205.013 68.0948 205.181 68.0915 205.352 68.0158C205.77 67.8282 205.912 67.3674 205.978 66.9526C206.037 66.5806 206.007 66.4391 206.405 66.3996C206.639 66.3765 206.866 66.4062 207.084 66.2778C207.502 66.0276 207.561 65.5306 207.544 65.0928C207.525 64.5397 206.659 64.5364 206.682 65.0928C206.702 65.6227 206.366 65.4812 206.001 65.547C205.767 65.5898 205.579 65.7017 205.428 65.8828C205.276 66.0671 205.214 66.2877 205.168 66.5181C205.102 66.844 205.188 67.1633 204.829 67.1468C204.618 67.1369 204.404 66.9756 204.17 66.9723C203.917 66.969 203.65 67.0448 203.443 67.1929C203.022 67.4924 202.883 68.029 203.071 68.4997C203.278 69.0099 204.111 68.7894 203.907 68.2726Z" fill="#002247"/>
<path d="M179.548 60.3718C179.68 60.7142 179.874 60.961 180.21 61.1223C180.753 61.3857 181.395 61.2079 181.832 61.705C182.145 62.0572 182.023 62.5773 182.369 62.8933C182.491 63.0019 183.436 63.1632 183.383 63.0217C183.574 63.5385 184.41 63.3146 184.216 62.7913C184.074 62.4127 183.844 62.2481 183.436 62.202C183.376 62.1954 183.011 62.2613 182.962 62.2152C182.873 62.1296 182.853 61.7214 182.787 61.5832C182.596 61.1915 182.28 60.8656 181.892 60.6681C181.526 60.4837 180.539 60.5627 180.381 60.1447C180.183 59.6279 179.347 59.8517 179.548 60.3718Z" fill="#002247"/>
<path d="M184.983 57.9491C184.96 57.9327 184.937 57.9195 184.91 57.903C184.976 57.9886 185.042 58.0742 185.108 58.1598C185.164 58.3441 184.96 58.2783 185.206 58.3441C185.285 58.3639 185.391 58.3474 185.473 58.3342C185.651 58.3046 185.806 58.2355 185.934 58.1071C186.164 57.8767 186.201 57.5574 186.217 57.248C186.227 57.113 186.194 56.8892 186.273 56.7674C186.378 56.6127 186.694 56.5633 186.846 56.4448C187.135 56.2209 187.293 55.8654 187.159 55.5132C186.958 54.9997 186.125 55.2235 186.326 55.7436C186.336 55.7733 185.881 55.9774 185.825 56.0169C185.667 56.1288 185.562 56.2604 185.486 56.4316C185.381 56.6653 185.444 57.3895 185.272 57.4751C185.121 57.5508 184.867 57.4554 184.69 57.5344C184.542 57.6002 184.423 57.7022 184.344 57.8438C184.163 58.1664 184.252 58.4923 184.551 58.693C185.012 59.0025 185.443 58.2552 184.983 57.9491Z" fill="#002247"/>
<path d="M197.91 63.1503C197.886 63.1338 197.863 63.1207 197.837 63.1042C197.903 63.1898 197.969 63.2754 198.035 63.361C198.091 63.5453 197.886 63.4795 198.133 63.5453C198.212 63.565 198.318 63.5486 198.4 63.5354C198.578 63.5058 198.732 63.4367 198.861 63.3083C199.091 63.0779 199.127 62.7586 199.144 62.4491C199.154 62.3142 199.121 62.0903 199.2 61.9686C199.305 61.8138 199.621 61.7645 199.773 61.646C200.062 61.4221 200.22 61.0666 200.085 60.7144C199.885 60.2009 199.052 60.4247 199.253 60.9448C199.262 60.9744 198.808 61.1785 198.752 61.218C198.594 61.3299 198.489 61.4616 198.413 61.6328C198.308 61.8665 198.37 62.5907 198.199 62.6763C198.048 62.752 197.794 62.6565 197.617 62.7355C197.468 62.8014 197.35 62.9034 197.271 63.045C197.09 63.3675 197.179 63.6934 197.478 63.8942C197.939 64.2036 198.37 63.4564 197.91 63.1503Z" fill="#002247"/>
<path d="M189.298 59.5793C189.341 60.0335 189.489 60.4318 189.878 60.7051C190.47 61.1231 191.606 60.6557 191.912 61.4753C192.126 62.0448 191.724 62.7459 192.073 63.2891C192.175 63.4471 193.215 63.8717 193.206 63.7104C193.238 64.2634 194.101 64.2667 194.068 63.7104C194.045 63.3055 193.854 63.0389 193.456 62.8974C193.229 62.8184 192.955 62.9138 192.794 62.6999C192.679 62.5451 192.827 61.7979 192.801 61.5807C192.748 61.133 192.58 60.6952 192.218 60.4088C191.767 60.05 190.223 60.2574 190.157 59.5793C190.108 59.0329 189.246 59.0263 189.298 59.5793Z" fill="#002247"/>
<path d="M203.91 38.0808C203.953 38.535 204.101 38.9333 204.49 39.2066C205.082 39.6246 206.218 39.1572 206.524 39.9768C206.738 40.5463 206.336 41.2474 206.685 41.7906C206.787 41.9486 207.827 42.3732 207.818 42.2119C207.85 42.7649 208.713 42.7682 208.68 42.2119C208.657 41.807 208.466 41.5404 208.068 41.3989C207.841 41.3199 207.567 41.4153 207.406 41.2014C207.291 41.0466 207.439 40.2994 207.413 40.0822C207.36 39.6345 207.192 39.1967 206.83 38.9103C206.379 38.5515 204.835 38.7589 204.769 38.0808C204.72 37.5311 203.858 37.5245 203.91 38.0808Z" fill="#002247"/>
<path d="M197.347 40.6511C197.389 41.1054 197.538 41.5036 197.926 41.7769C198.518 42.1949 199.654 41.7275 199.96 42.5471C200.174 43.1166 199.773 43.8178 200.122 44.3609C200.224 44.5189 201.264 44.9435 201.254 44.7822C201.287 45.3352 202.149 45.3385 202.116 44.7822C202.093 44.3773 201.902 44.1107 201.504 43.9692C201.277 43.8902 201.004 43.9856 200.842 43.7717C200.727 43.617 200.875 42.8697 200.849 42.6525C200.796 42.2048 200.628 41.767 200.266 41.4806C199.815 41.1218 198.272 41.3292 198.206 40.6511C198.156 40.1014 197.294 40.0948 197.347 40.6511Z" fill="#002247"/>
<path d="M137.496 21.8453C134.909 29.176 129.698 34.377 122.983 38.0539C117.821 40.8782 110.879 45.2891 112.778 52.2709C112.923 52.8075 113.756 52.5804 113.611 52.0405C111.33 43.6466 121.969 40.1013 127.255 36.5331C132.417 33.0471 136.265 27.9284 138.332 22.0724C138.513 21.549 137.68 21.3252 137.496 21.8453Z" fill="#002247"/>
<path d="M165.127 31.141C165.506 33.2115 166.124 35.2096 167.026 37.1122C167.599 38.3203 168.32 39.4493 168.745 40.7233C169.169 41.9972 169.334 43.3468 169.502 44.6701C169.571 45.2132 170.433 45.2198 170.364 44.6701C170.078 42.3757 169.637 40.2986 168.57 38.2314C167.356 35.8745 166.44 33.5275 165.96 30.9105C165.861 30.3674 165.028 30.5978 165.127 31.141Z" fill="#002247"/>
<defs>
<linearGradient id="paint0_linear" x1="201.461" y1="163.54" x2="137.098" y2="243.773" gradientUnits="userSpaceOnUse">
<stop stop-color="#0014C9"/>
<stop offset="1" stop-color="#6877FF"/>
</linearGradient>
<linearGradient id="paint1_linear" x1="153.122" y1="251.963" x2="135.005" y2="267.031" gradientUnits="userSpaceOnUse">
<stop stop-color="#0014C9"/>
<stop offset="1" stop-color="#6877FF"/>
</linearGradient>
</defs>
</svg>
