<svg width="300" height="300" viewBox="0 0 300 300" fill="none" xmlns="http://www.w3.org/2000/svg">
<path opacity="0.2" d="M133.621 258.772C139.521 253.896 147.434 256.43 156.471 247.194C169.368 234.018 138.666 187.934 183.461 186.266C169.949 168.354 171.341 156.195 166.005 136.534C153.798 91.5514 117.547 28.1087 90.8301 48.0791C74.1924 60.515 108.016 99.9403 113.754 119.936C119.222 138.99 122.139 153.407 115.982 159.921C108.241 168.108 105.133 155.871 90.3293 144.768C80.1397 137.126 69.534 167.018 75.9858 187.662C82.4376 208.306 87.5453 214.898 80.2097 221.398C73.9125 226.973 63.1706 216.883 61.1489 230.884C58.9799 245.89 80.8873 269.55 102.423 277.928C110.237 280.97 120.718 282.314 131.872 282.031C125.472 272.872 128.723 262.819 133.621 258.772Z" fill="url(#paint0_linear)"/>
<path d="M230.951 237.829C208.016 218.322 215.451 187.223 188.885 186.273C186.966 186.203 185.162 186.207 183.464 186.27C185.736 189.278 188.425 192.449 191.64 195.848C200.735 205.459 204.359 228.773 201.91 240.23C199.207 252.887 193.415 261.677 181.391 269.093C168.259 277.191 149.25 281.585 131.876 282.03C134.163 285.297 137.676 288.453 142.787 291.174C203.505 323.518 254.725 258.053 230.951 237.829Z" fill="#DBF0FF"/>
<path d="M201.91 240.23C204.355 228.773 200.735 205.459 191.639 195.848C188.425 192.453 185.736 189.282 183.464 186.27C138.666 187.934 169.371 234.021 156.475 247.197C147.434 256.433 139.524 253.899 133.625 258.775C128.727 262.822 125.475 272.875 131.879 282.03C149.253 281.588 168.263 277.191 181.395 269.093C193.414 261.677 199.207 252.887 201.91 240.23Z" fill="#31A0EE"/>
<path fill-rule="evenodd" clip-rule="evenodd" d="M103.708 161.932C103.708 166.848 107.707 170.847 112.623 170.847C117.539 170.847 121.539 166.848 121.539 161.932C121.539 157.016 117.539 153.017 112.623 153.017C107.707 153.017 103.708 157.016 103.708 161.932ZM104.812 161.936C104.812 157.627 108.318 154.125 112.623 154.125C116.928 154.125 120.434 157.627 120.434 161.936C120.434 166.244 116.932 169.746 112.623 169.746C108.315 169.746 104.812 166.244 104.812 161.936Z" fill="#DBF0FF"/>
<path d="M215.609 50.8705C226.691 50.8705 235.675 41.8866 235.675 30.8044C235.675 19.7222 226.691 10.7383 215.609 10.7383C204.527 10.7383 195.543 19.7222 195.543 30.8044C195.543 41.8866 204.527 50.8705 215.609 50.8705Z" fill="#DBF0FF"/>
<path d="M198.99 64.2678C199.98 63.8186 200.978 62.9016 201.406 61.8926C201.126 61.7748 200.846 61.6569 200.566 61.5391C200.345 62.8537 201.347 63.8959 202.547 64.231C202.51 63.9511 202.474 63.6713 202.437 63.3914C201.078 64.1463 200.857 65.2216 200.415 66.5989C200.71 66.6799 201.008 66.7609 201.302 66.8419C201.601 65.2142 200.374 63.6786 198.692 63.7191C198.099 63.7339 198.099 64.6545 198.692 64.6398C199.737 64.614 200.61 65.5346 200.415 66.5989C200.308 67.177 201.118 67.4164 201.302 66.8419C201.667 65.7077 201.752 64.8239 202.904 64.1831C203.254 63.988 203.17 63.4466 202.794 63.3435C202.138 63.1594 201.321 62.5812 201.453 61.7821C201.531 61.3144 200.831 60.9094 200.614 61.4286C200.238 62.3161 199.399 63.0821 198.53 63.4761C197.985 63.7191 198.452 64.5109 198.99 64.2678Z" fill="#002247"/>
<path d="M188.263 43.9544C189.253 43.5051 190.251 42.5881 190.678 41.5791C190.399 41.4613 190.119 41.3434 189.839 41.2256C189.618 42.5403 190.619 43.5824 191.82 43.9175C191.783 43.6377 191.746 43.3578 191.71 43.0779C190.351 43.8328 190.13 44.9081 189.688 46.2854C189.982 46.3664 190.281 46.4474 190.575 46.5284C190.874 44.9008 189.647 43.3651 187.964 43.4057C187.371 43.4204 187.371 44.341 187.964 44.3263C189.01 44.3005 189.883 45.2211 189.688 46.2854C189.581 46.8636 190.391 47.1029 190.575 46.5284C190.94 45.3942 191.025 44.5104 192.177 43.8697C192.527 43.6745 192.442 43.1331 192.067 43.03C191.411 42.8459 190.594 42.2678 190.726 41.4686C190.804 41.001 190.104 40.5959 189.887 41.1151C189.511 42.0026 188.671 42.7686 187.802 43.1626C187.261 43.402 187.729 44.1974 188.263 43.9544Z" fill="#002247"/>
<path d="M234.85 3.08228C235.841 2.63301 236.839 1.71606 237.266 0.707048C236.986 0.589207 236.706 0.471366 236.426 0.353525C236.205 1.66819 237.207 2.71035 238.408 3.04546C238.371 2.76559 238.334 2.48571 238.297 2.20584C236.938 2.96076 236.717 4.03606 236.275 5.41333C236.57 5.49434 236.868 5.57536 237.163 5.65637C237.461 4.02869 236.235 2.49308 234.552 2.53359C233.959 2.54832 233.959 3.46895 234.552 3.45422C235.598 3.42844 236.471 4.34907 236.275 5.41333C236.169 5.99149 236.979 6.23085 237.163 5.65637C237.528 4.52215 237.612 3.63835 238.765 2.99758C239.115 2.80241 239.03 2.26108 238.654 2.15797C237.999 1.97384 237.181 1.39568 237.314 0.596572C237.391 0.12889 236.692 -0.276188 236.474 0.243049C236.099 1.13054 235.259 1.89651 234.39 2.29054C233.845 2.53359 234.313 3.32533 234.85 3.08228Z" fill="#002247"/>
<path opacity="0.2" d="M177.76 250.158C177.76 250.158 179.546 253.417 179.653 255.203C179.759 256.989 179.653 258.672 179.653 258.672L177.657 260.145C177.657 260.145 179.233 261.721 179.549 265.087C179.866 268.453 179.549 270.029 178.92 274.338C178.378 278.028 178.92 282.958 179.236 283.168C179.73 283.5 184.282 283.798 188.384 283.695C192.483 283.588 198.478 282.432 202.157 280.753C205.835 279.073 205.942 278.65 205.309 276.337C204.679 274.025 203.416 268.136 200.787 267.716C198.157 267.297 194.795 268.556 194.795 268.556L187.121 261.092C187.121 261.092 188.067 257.516 187.96 257.096C187.854 256.676 185.228 257.096 185.228 257.096V249.738L177.76 250.158Z" fill="url(#paint1_linear)"/>
<path opacity="0.2" d="M155.289 105.699C153.827 106.042 156.504 129.584 156.707 143.419C156.802 149.952 155.02 156.724 153.816 156.875C152.608 157.026 152.759 156.271 152.91 159.137C153.061 162.002 162.415 249.944 162.415 249.944C162.415 249.944 170.56 250.246 178.706 250.699C186.852 251.152 195.451 247.683 195.451 247.683C195.451 247.683 185.25 190.088 184.893 185.839C184.609 182.495 183.324 179.133 184.182 176.095C195.624 135.642 194.036 104.882 194.036 104.882L167.036 104.462C167.036 104.462 158.165 105.025 155.289 105.699Z" fill="url(#paint2_linear)"/>
<path d="M149.795 79.3254C149.795 79.3254 147.073 82.5661 146.425 86.1933C145.777 89.8206 145.387 92.6746 145.387 92.6746C145.387 92.6746 142.017 92.0265 140.85 92.0265C139.682 92.0265 141.107 93.1938 140.202 94.2286C139.296 95.2634 131.905 99.9329 123.612 95.396C115.315 90.8591 111.452 87.6222 111.452 85.0481C111.452 82.4777 115.772 74.8769 121.041 68.716C129.695 58.6001 141.277 53.9307 141.277 53.9307C141.277 53.9307 145.928 58.4086 145.339 66.2046C144.646 75.3667 140.29 76.0811 140.29 76.0811L143.972 78.5116C143.972 78.5116 144.668 78.5116 146.543 78.7215C148.417 78.9314 149.795 79.3254 149.795 79.3254Z" fill="#DBF0FF"/>
<path d="M162.801 35.6575C162.801 35.6575 163.965 36.0257 164.915 37.716C165.865 39.4063 166.959 41.509 169.146 42.0872C172.107 42.8716 173.893 39.9329 173.893 39.9329C173.893 39.9329 171.474 40.6142 168.771 38.8245C165.338 36.5523 163.173 32.752 163.173 32.752L162.801 35.6575Z" fill="#31A0EE"/>
<path d="M170.672 27.4842C171.266 27.2671 171.48 26.3571 171.149 25.4517C170.818 24.5463 170.068 23.9883 169.474 24.2055C168.88 24.4226 168.666 25.3326 168.997 26.238C169.328 27.1434 170.078 27.7014 170.672 27.4842Z" fill="#31A0EE"/>
<path d="M181.963 28.6083C182.72 28.0114 183.016 27.1249 182.624 26.6282C182.232 26.1316 181.301 26.2129 180.544 26.8098C179.787 27.4067 179.491 28.2932 179.883 28.7899C180.275 29.2865 181.206 29.2053 181.963 28.6083Z" fill="#31A0EE"/>
<path opacity="0.2" d="M111.242 249.266C111.242 249.266 114.118 247.764 114.744 246.265C115.37 244.763 113.242 242.262 113.242 242.262C113.242 242.262 116.994 238.134 118.747 236.506C120.5 234.879 120.997 234.131 120.997 234.131L115.116 228.125C115.116 228.125 112.866 231.878 109.486 235.004C106.105 238.13 102.982 240.635 102.982 240.635C102.982 240.635 102.231 238.882 101.48 238.756C100.729 238.631 98.3533 241.758 96.6004 242.885C94.8475 244.011 91.8463 245.635 91.8463 245.635C91.8463 245.635 98.6 261.271 100.979 265.274C103.354 269.277 106.109 274.282 109.986 275.405C113.864 276.532 113.864 273.652 113.989 272.153C114.115 270.655 111.242 249.266 111.242 249.266Z" fill="url(#paint3_linear)"/>
<path opacity="0.2" d="M153.127 160.514C153.127 160.514 130.528 191.834 127.412 195.535C124.297 199.236 106.775 218.12 106.775 218.12C106.775 218.12 111.279 225.264 119.068 232.272C126.856 239.279 131.699 243.82 131.699 243.82L157.204 202.933L153.127 160.514Z" fill="url(#paint4_linear)"/>
<path d="M218.271 104.344L216.054 111.912L208.181 110.155L207.953 108.473C207.953 108.473 197.785 107.022 196.106 106.256C194.423 105.49 194.04 104.882 194.04 104.882L197.94 103.81C197.94 103.81 194.04 96.2428 193.429 91.3524C192.818 86.462 192.895 84.4734 192.895 84.4734C192.895 84.4734 195.8 83.9395 200.157 87.9903C204.513 92.0374 218.271 104.344 218.271 104.344Z" fill="#DBF0FF"/>
<path d="M149.588 88.5318L149.835 99.7267C149.835 99.7267 136.018 99.6531 132.877 99.1007C129.736 98.5483 128.075 98.7325 128.075 98.7325C128.075 98.7325 124.75 137.156 125.118 141.958C125.486 146.76 127.151 151.75 131.953 154.887C136.755 158.025 149.084 160.71 153.82 156.876C158.555 153.042 156.523 147.128 156.338 137.893C156.154 128.657 155.421 95.5471 155.421 95.5471C155.421 95.5471 151.927 91.0691 150.804 89.5445C148.031 85.7847 149.588 88.5318 149.588 88.5318Z" fill="#31A0EE"/>
<path d="M146.094 52.2549C146.094 52.2549 150.089 52.4464 152.472 58.4415C154.851 64.4367 155.086 67.519 155.436 70.4466C155.786 73.3742 155.904 80.2201 155.904 80.2201C155.904 80.2201 151.22 79.5756 150.579 79.6934C149.934 79.8113 149.798 79.3252 149.798 79.3252C149.798 79.3252 149.058 70.9732 148.237 67.5779C147.416 64.1826 144.959 57.392 143.788 55.9301C142.617 54.4681 141.281 53.9341 141.281 53.9341L146.094 52.2549Z" fill="#31A0EE"/>
<path d="M183.151 22.379C183.103 26.2235 181.744 29.9245 179.914 33.2682C178.014 36.7408 174.67 41.3219 170.115 39.3076C166.546 37.7278 163.851 33.8537 162.536 30.2854C162.05 28.967 161.859 27.6965 160.805 26.7059C160.091 26.032 159.314 25.4797 158.835 24.5922C158.452 23.8814 158.18 22.8209 158.644 22.0991C159.13 21.3478 161.984 20.0921 161.652 22.46C161.571 23.0381 162.459 23.2885 162.54 22.703C162.761 21.1306 161.516 19.6981 159.855 19.9411C158.253 20.1768 157.388 21.9444 157.52 23.4211C157.624 24.5811 158.294 25.627 159.1 26.4334C159.494 26.8275 159.999 27.1294 160.371 27.5419C161.118 28.3741 161.28 29.5194 161.652 30.5284C162.562 33.0031 163.98 35.2862 165.795 37.1938C167.449 38.9283 169.684 40.7401 172.21 40.7548C174.578 40.7695 176.927 39.1897 178.36 37.4147C181.645 33.3566 184.005 27.6192 184.072 22.379C184.079 21.7861 183.158 21.7861 183.151 22.379Z" fill="#002247"/>
<path d="M163.468 21.6052C165.158 18.7843 166.775 15.9414 167.301 12.6529C166.999 12.6124 166.697 12.5719 166.395 12.5314C166.189 15.8862 165.725 19.1968 165 22.4779C164.904 22.9088 165.434 23.2734 165.769 22.9272C167.743 20.8797 171.363 21.804 173.864 22.036C176.986 22.3233 180.109 22.6105 183.232 22.9014C183.821 22.9567 183.817 22.036 183.232 21.9808C179.387 21.6273 175.546 21.2627 171.702 20.9165C169.389 20.7066 166.867 20.4636 165.118 22.2754C165.375 22.4264 165.629 22.5737 165.887 22.7247C166.627 19.3625 167.102 15.9672 167.316 12.5314C167.349 12.0232 166.495 11.8943 166.41 12.4099C165.898 15.6247 164.318 18.3866 162.669 21.1449C162.367 21.6494 163.162 22.1134 163.468 21.6052Z" fill="#002247"/>
<path d="M184.569 48.5687C184.396 45.1881 182.915 42.1132 182.654 38.7879C182.359 35.0575 184.705 31.4302 185.777 27.9539C186.763 24.7574 187.699 21.1706 187.294 17.7937C186.966 15.065 185.434 12.1816 183.74 10.0531C179.461 4.67287 172.501 3.98424 166.278 6.00227C159.023 8.35541 154.018 14.2622 149.467 20.0806C144.146 26.8786 138.647 35.4515 130.148 38.4343C129.592 38.6295 129.831 39.5207 130.391 39.3218C137.384 36.8656 142.293 30.7194 146.745 25.0815C150.999 19.6976 154.998 13.7209 160.717 9.75845C166.602 5.67452 175.642 3.79643 181.461 8.97407C183.777 11.0363 185.688 14.2696 186.292 17.3187C186.962 20.7029 185.88 24.496 184.889 27.7108C183.825 31.165 181.597 34.645 181.707 38.346C181.814 41.8296 183.468 45.0629 183.648 48.5724C183.678 49.1579 184.598 49.1616 184.569 48.5687Z" fill="#002247"/>
<path d="M129.935 39.0896C130.358 42.0024 131.769 44.7349 133.267 47.2353C134.486 49.2754 136.184 51.0026 138.585 51.4776C139.163 51.5918 139.41 50.7043 138.828 50.5901C136.228 50.0746 134.704 47.9976 133.514 45.7881C132.321 43.5675 131.187 41.3654 130.819 38.8428C130.738 38.261 129.85 38.5077 129.935 39.0896Z" fill="#002247"/>
<path d="M162.614 32.9803C162.024 37.4178 161.339 42.2456 158.257 45.7256C155.212 49.1688 150.678 50.7412 146.289 51.5919C145.707 51.706 145.954 52.5935 146.532 52.4794C151.257 51.5661 156.154 49.7727 159.284 45.9281C162.249 42.2861 162.934 37.4878 163.53 32.9803C163.611 32.3948 162.691 32.4022 162.614 32.9803Z" fill="#002247"/>
<path d="M173.694 39.8486C173.367 42.2827 173.274 44.7426 175.709 46.1015C177.863 47.3057 180.253 48.0127 182.381 49.32C182.886 49.6294 183.35 48.8339 182.845 48.5246C181.409 47.6445 179.881 46.8859 178.338 46.212C177.627 45.9026 176.854 45.6817 176.173 45.3061C174.158 44.1939 174.313 42.0802 174.582 40.0916C174.663 39.5134 173.775 39.263 173.694 39.8486Z" fill="#002247"/>
<path d="M146.786 85.9169C149.725 88.1891 151.779 91.8642 154.177 94.6887C155.37 96.0955 156.6 97.4727 157.863 98.8169C158.633 99.6344 159.48 101.052 160.721 100.975C160.942 100.96 161.085 100.839 161.166 100.636C161.998 98.5112 159.8 95.5357 158.949 93.7018C158.71 93.886 158.467 94.0738 158.228 94.2579C160.787 96.8246 163.416 99.3214 166.119 101.741C166.322 101.921 166.708 101.929 166.841 101.649C167.574 100.109 166.554 98.8353 165.681 97.5574C164.407 95.6904 163.041 93.8933 161.615 92.1441C161.398 92.3614 161.181 92.5787 160.964 92.7959C163.118 94.4715 165.283 96.1544 167.231 98.0693C167.913 98.7395 169.474 100.967 170.645 99.6528C171.735 98.4265 169.897 96.5632 169.253 95.6683C167.662 93.4661 165.95 91.3597 164.142 89.3343C163.924 89.5516 163.707 89.7689 163.49 89.9861C165.324 91.588 167.158 93.19 168.992 94.7919C169.695 95.4068 170.796 96.7878 171.897 96.2023C174.622 94.7513 169.684 90.406 168.745 89.4816C165.836 86.6166 162.566 83.9431 159.295 81.5053C156.795 79.6419 152.777 78.4561 149.702 79.2921C149.132 79.4467 149.375 80.3342 149.945 80.1796C152.497 79.4836 156.169 80.4705 158.327 81.9324C160.691 83.5343 162.897 85.5376 165.07 87.39C166.027 88.2038 166.97 89.0361 167.872 89.9125C168.804 90.8184 170.682 92.3319 171.135 93.5545C171.238 93.7055 171.345 93.8528 171.448 94.0038C170.744 94.8287 170.144 94.8766 169.643 94.14C169.084 93.8013 168.487 93.131 167.994 92.7002C166.708 91.5807 165.427 90.4575 164.142 89.338C163.696 88.9477 163.096 89.5442 163.49 89.9898C164.801 91.4592 166.068 92.9616 167.261 94.5267C167.666 95.057 168.067 95.5946 168.458 96.136C168.741 96.53 170.498 98.3308 169.025 98.5959C168.704 98.6548 166.167 95.8266 165.707 95.4363C164.377 94.2984 162.996 93.2231 161.615 92.1478C161.151 91.7869 160.584 92.3319 160.964 92.7996C161.991 94.059 162.985 95.3442 163.932 96.6663C164.642 97.6569 166.683 99.859 166.049 101.192C166.289 101.163 166.532 101.129 166.771 101.1C164.072 98.6806 161.439 96.1875 158.879 93.6171C158.489 93.2268 157.944 93.7202 158.158 94.1732C158.61 95.1527 159.063 96.1323 159.516 97.1155C159.84 97.8189 161.07 99.9364 159.472 99.1778C158.695 98.8095 157.933 97.5538 157.344 96.9056C156.567 96.0513 155.804 95.1859 155.057 94.3094C152.501 91.3192 150.391 87.552 147.257 85.1326C146.782 84.7606 146.322 85.5597 146.786 85.9169Z" fill="#002247"/>
<path d="M171.231 31.6368C171.702 32.5206 172.6 33.2276 173.499 33.6254C174.567 34.0967 175.469 34.012 176.578 33.9789C177.17 33.9605 177.17 33.0398 176.578 33.0582C175.767 33.084 175.075 33.2056 174.269 32.933C173.377 32.6348 172.479 32.0198 172.026 31.1728C171.746 30.6499 170.951 31.1139 171.231 31.6368Z" fill="#002247"/>
<path d="M146.042 51.7287C134.961 54.9214 125.718 62.3307 118.567 71.2093C116.832 73.3635 115.168 75.5988 113.695 77.9409C112.505 79.8264 110.653 82.7245 110.988 85.0777C111.305 87.3019 114.052 89.5556 115.639 90.9219C117.661 92.6637 119.933 94.1036 122.371 95.1862C127.6 97.5099 134.519 98.7878 139.719 95.7533C140.231 95.4551 139.767 94.6596 139.255 94.9579C134.641 97.6499 128.506 96.6703 123.763 94.7812C121.31 93.8053 118.994 92.4685 116.939 90.8151C115.112 89.3421 111.809 86.6943 111.949 84.1865C112.093 81.6272 114.1 78.9315 115.495 76.884C116.998 74.6819 118.611 72.5534 120.327 70.5169C123.534 66.7129 127.125 63.2071 131.12 60.2353C135.702 56.8326 140.794 54.1996 146.285 52.6198C146.856 52.4541 146.613 51.5666 146.042 51.7287Z" fill="#002247"/>
<path d="M138.338 90.888C140.555 92.1364 142.916 92.7625 145.46 92.7735C145.711 92.7735 145.917 92.5599 145.921 92.3132C145.987 87.6879 147.515 83.3499 150.329 79.6821C150.531 79.4206 150.295 79.1039 150.052 79.0045C146.385 77.5204 142.79 77.4689 140.327 80.8936C138.036 84.079 137.355 88.1446 138.029 91.9597C138.132 92.5415 139.02 92.2948 138.916 91.7166C138.346 88.5054 138.839 85.1764 140.493 82.3372C141.461 80.6764 142.864 79.0782 144.901 78.8867C146.561 78.7283 148.288 79.2807 149.806 79.8957C149.714 79.671 149.622 79.4464 149.529 79.2181C146.62 83.0111 145.066 87.5369 144.996 92.3132C145.151 92.1585 145.302 92.0075 145.457 91.8529C143.067 91.8418 140.883 91.2673 138.799 90.0963C138.287 89.8017 137.823 90.5971 138.338 90.888Z" fill="#002247"/>
<path d="M143.118 77.4873C138.161 73.3407 131.375 72.0555 125.258 74.1767C124.702 74.3682 124.941 75.2593 125.501 75.0642C131.294 73.0535 137.753 74.1951 142.466 78.1391C142.919 78.5147 143.575 77.8666 143.118 77.4873Z" fill="#002247"/>
<path d="M157.697 47.5997C163.321 51.3707 172.354 51.0834 177.657 46.8669C178.121 46.4987 177.465 45.8505 177.005 46.2151C172.022 50.1775 163.413 50.3248 158.161 46.8043C157.668 46.4729 157.208 47.272 157.697 47.5997Z" fill="#002247"/>
<path d="M159.973 45.026C164.587 47.2466 170.056 46.9483 174.236 43.9065C174.711 43.5604 174.25 42.7613 173.772 43.1111C169.872 45.9503 164.771 46.3149 160.437 44.2306C159.907 43.9765 159.439 44.7683 159.973 45.026Z" fill="#002247"/>
<path d="M155.403 106.027C161.431 105.287 167.629 104.981 173.702 105.232C181.66 105.563 189.75 106.731 197.506 104.296C198.069 104.12 197.83 103.232 197.262 103.409C189.36 105.887 181.129 104.562 173.028 104.285C167.18 104.086 161.21 104.392 155.403 105.107C154.821 105.18 154.814 106.101 155.403 106.027Z" fill="#002247"/>
<path d="M186.543 57.6424C187.717 59.6531 188.888 61.6637 190.063 63.6744C191.311 65.814 192.795 67.9572 193.005 70.4945C193.326 74.3906 192.53 78.4635 192.516 82.3817C192.49 89.813 193.554 97.3401 197.458 103.792C197.763 104.296 198.559 103.836 198.253 103.328C193.985 96.2722 193.23 87.9644 193.484 79.8886C193.595 76.335 194.563 72.2694 193.65 68.7931C193.149 66.8929 192.026 65.2063 191.046 63.5271C189.813 61.4096 188.575 59.2959 187.342 57.1784C187.04 56.6665 186.241 57.1305 186.543 57.6424Z" fill="#002247"/>
<path d="M152.354 158.389C153.19 162.591 153.282 166.925 153.613 171.189C154.858 187.157 156.43 203.11 158.077 219.04C159.159 229.517 160.356 239.979 161.763 250.419C161.789 250.614 162.024 250.762 162.208 250.758C168.435 250.647 174.666 250.533 180.894 250.423C186.042 250.331 191.297 250.338 196.01 247.989C196.541 247.724 196.077 246.932 195.546 247.193C190.575 249.672 184.871 249.429 179.457 249.528C176.581 249.58 173.709 249.631 170.833 249.683C169.636 249.705 168.435 249.727 167.239 249.749C166.521 249.76 165.802 249.775 165.084 249.789C163.843 249.812 162.915 250.283 162.477 248.85C162.068 247.521 162.087 245.879 161.91 244.498C161.726 243.047 161.542 241.592 161.365 240.141C161.008 237.236 160.669 234.326 160.338 231.417C159.678 225.599 159.067 219.777 158.482 213.951C156.843 197.619 155.281 181.28 154.066 164.911C153.897 162.639 153.691 160.392 153.245 158.153C153.127 157.56 152.24 157.807 152.354 158.389Z" fill="#002247"/>
<path d="M183.317 120.315C180.231 153.775 183.935 186.966 189.916 219.895C191.628 229.329 193.488 238.738 195.348 248.147C195.462 248.729 196.349 248.482 196.235 247.904C189.746 215.085 183.236 182.013 183.018 148.432C182.956 139.045 183.376 129.662 184.237 120.315C184.293 119.722 183.372 119.726 183.317 120.315Z" fill="#002247"/>
<path d="M177.837 251.527C178.92 253.726 179.421 256.05 179.358 258.495C179.343 259.088 180.264 259.088 180.279 258.495C180.341 255.888 179.781 253.398 178.632 251.06C178.371 250.533 177.579 250.997 177.837 251.527Z" fill="#002247"/>
<path d="M184.657 250.92C184.506 252.54 184.473 254.157 184.561 255.784C184.595 256.374 185.515 256.377 185.482 255.784C185.394 254.16 185.427 252.54 185.578 250.92C185.633 250.327 184.712 250.331 184.657 250.92Z" fill="#002247"/>
<path d="M186.594 260.631C186.572 260.667 186.55 260.701 186.528 260.737C186.425 260.899 186.451 261.165 186.602 261.293C186.642 261.33 186.683 261.363 186.723 261.4C186.863 261.522 187.113 261.599 187.279 261.474C187.725 261.143 187.732 260.782 187.887 260.222C188.163 259.205 188.653 258.079 188.616 257.014C188.609 256.801 188.476 256.635 188.277 256.569C186.859 256.097 184.797 256.617 183.372 256.948C181.501 257.386 179.745 258.123 178.076 259.062C177.561 259.353 178.025 260.148 178.54 259.857C180.411 258.8 182.411 258.02 184.532 257.648C185.298 257.512 187.239 256.922 187.541 257.913C187.625 258.189 187.253 258.999 187.18 259.287C187.088 259.629 186.999 259.971 186.907 260.318C186.69 260.704 186.852 260.966 187.39 261.095C187.703 260.594 186.907 260.13 186.594 260.631Z" fill="#002247"/>
<path d="M177.421 260.929C178.043 262.468 178.92 264.078 179.266 265.709C179.667 267.598 178.942 269.763 178.758 271.675C178.389 275.471 178.504 279.29 178.614 283.098C178.633 283.691 179.553 283.691 179.535 283.098C179.417 279.054 179.299 274.993 179.752 270.968C179.932 269.362 180.477 267.635 180.253 266.007C180.002 264.188 178.99 262.373 178.308 260.686C178.088 260.141 177.196 260.377 177.421 260.929Z" fill="#002247"/>
<path d="M186.937 261.452C189.01 264.277 191.473 266.715 194.324 268.755C194.806 269.101 195.266 268.302 194.788 267.959C192.074 266.019 189.706 263.68 187.728 260.988C187.386 260.517 186.587 260.973 186.937 261.452Z" fill="#002247"/>
<path d="M192.111 269.009C193.237 269.248 194.346 269.344 195.491 269.145C197.682 268.766 199.435 267.013 201.542 268.839C204.016 270.983 204.878 275.033 204.731 278.127C204.701 278.72 205.622 278.716 205.651 278.127C205.813 274.724 204.83 271.222 202.58 268.611C201.615 267.492 200.496 266.825 198.986 267.072C198.098 267.219 197.318 267.672 196.474 267.944C195.101 268.386 193.764 268.423 192.357 268.121C191.775 267.996 191.529 268.884 192.111 269.009Z" fill="#002247"/>
<path d="M180.157 283.069C183.983 282.719 187.677 281.736 191.37 280.712C195.134 279.666 199.413 278.123 203.368 278.399C203.71 278.447 204.049 278.499 204.392 278.547C204.392 278.886 204.388 279.221 204.388 279.559C204.237 279.777 203.578 279.935 203.346 280.035C202.462 280.421 201.575 280.797 200.691 281.176C198.533 282.104 196.618 282.763 194.254 282.896C189.89 283.143 185.508 283.319 181.14 283.076C180.547 283.043 180.551 283.964 181.14 283.997C183.865 284.148 186.594 284.137 189.319 284.041C191.698 283.956 194.184 284.001 196.537 283.599C198.662 283.235 200.669 282.178 202.631 281.334C203.994 280.749 206.053 280.274 206.06 278.488C206.06 278.341 205.975 278.153 205.832 278.09C202.315 276.591 197.87 278.024 194.361 278.937C189.654 280.163 185.029 281.699 180.161 282.145C179.571 282.2 179.564 283.124 180.157 283.069Z" fill="#002247"/>
<path d="M192.575 108.292C193.539 129.143 191.179 150.038 185.589 170.148C185.43 170.719 186.318 170.965 186.476 170.391C192.089 150.207 194.46 129.217 193.495 108.289C193.469 107.703 192.549 107.699 192.575 108.292Z" fill="#002247"/>
<path d="M152.663 160.462C138.114 180.307 123.656 200.609 106.536 218.355C106.352 218.547 106.374 218.812 106.536 219.007C113.938 227.922 122.113 236.153 130.984 243.606C131.216 243.801 131.537 243.779 131.706 243.514C139.97 230.625 148.23 217.736 156.493 204.848C156.814 204.347 156.018 203.886 155.698 204.384C147.434 217.272 139.174 230.161 130.911 243.05C131.15 243.021 131.393 242.988 131.632 242.958C122.761 235.505 114.582 227.274 107.18 218.359C107.18 218.576 107.18 218.793 107.18 219.011C124.352 201.213 138.861 180.834 153.451 160.93C153.809 160.451 153.009 159.991 152.663 160.462Z" fill="#002247"/>
<path d="M156.839 16.847C153.024 20.408 150.693 25.1916 147.246 29.073C143.737 33.0317 139.579 36.2282 135.223 39.1926C134.737 39.524 135.197 40.3232 135.687 39.988C139.936 37.0936 144.002 34.0002 147.486 30.1815C151.124 26.1933 153.532 21.1887 157.487 17.4951C157.922 17.09 157.27 16.4419 156.839 16.847Z" fill="#002247"/>
<path d="M143.321 35.9119C140.054 38.497 136.788 41.0785 133.522 43.6636C133.058 44.0319 133.713 44.68 134.173 44.3155C137.44 41.7303 140.706 39.1489 143.973 36.5637C144.433 36.1955 143.777 35.551 143.321 35.9119Z" fill="#002247"/>
<path d="M194.821 85.2906C198.242 86.7857 201.07 89.7391 203.718 92.2948C206.977 95.4397 210.549 98.2053 213.823 101.328C213.852 101.089 213.885 100.846 213.915 100.606C211.82 101.645 210.148 103.46 208.98 105.464C208.34 106.561 206.76 109.315 207.791 110.472C207.92 110.619 208.185 110.649 208.347 110.545C208.402 110.509 208.461 110.472 208.516 110.439C208.741 110.295 208.789 110.045 208.682 109.809C208.66 109.761 208.638 109.713 208.616 109.665C208.369 109.128 207.574 109.595 207.82 110.129C207.842 110.177 207.864 110.225 207.887 110.273C207.942 110.063 207.997 109.853 208.052 109.643C208.734 109.205 208.752 108.115 209.065 107.371C209.415 106.528 209.86 105.732 210.383 104.985C211.422 103.504 212.755 102.212 214.383 101.405C214.648 101.273 214.681 100.875 214.475 100.684C211.087 97.454 207.404 94.5596 204.02 91.3116C201.431 88.8259 198.629 85.9609 195.289 84.5026C194.751 84.2632 194.28 85.055 194.821 85.2906Z" fill="#002247"/>
<path d="M214.265 101.568C215.141 102.301 216.482 102.986 217.214 103.84C217.885 104.087 218.025 104.595 217.638 105.365C217.483 105.825 217.332 106.282 217.178 106.742C216.909 107.545 216.644 108.347 216.375 109.154C216.106 109.964 216.099 110.863 215.196 111.154C214.913 111.246 213.996 110.995 213.694 110.973C211.952 110.837 210.181 110.627 208.575 109.898C208.041 109.655 207.57 110.45 208.111 110.693C209.893 111.496 211.772 111.699 213.694 111.894C215.193 112.045 215.992 112.582 216.688 111.124C217.248 109.957 217.538 108.568 217.951 107.335C218.205 106.572 219.048 105.074 218.835 104.241C218.728 103.818 218.485 103.66 218.176 103.387C217.17 102.496 215.951 101.793 214.913 100.92C214.464 100.54 213.808 101.189 214.265 101.568Z" fill="#002247"/>
<path d="M219.35 105.544C220.93 107.143 223.217 107.179 224.554 109.161C225.901 111.157 226.933 113.466 227.894 115.664C230.015 120.521 231.466 125.636 232.298 130.869C232.486 130.681 232.677 130.49 232.865 130.302C231.282 130.085 230.648 128.328 229.985 127.091C229.334 125.872 228.685 124.653 228.034 123.434C226.973 121.449 226.038 118.783 224.204 117.362C223.036 116.456 221.409 116.11 220.138 116.993C218.783 117.932 217.804 122.296 215.609 121.641C215.042 121.471 214.799 122.359 215.366 122.528C216.662 122.915 217.664 122.05 218.441 121.081C219.052 120.319 219.343 119.398 219.899 118.61C221.725 116.006 224.09 118.179 225.18 120.061C226.538 122.41 227.754 124.859 229.032 127.253C229.864 128.811 230.641 130.921 232.626 131.193C232.99 131.245 233.252 130.998 233.193 130.626C232.346 125.312 230.854 120.135 228.693 115.2C227.669 112.862 226.59 110.287 225.036 108.244C223.67 106.447 221.504 106.417 220.006 104.896C219.586 104.473 218.934 105.125 219.35 105.544Z" fill="#002247"/>
<path d="M217.144 109.897C218.124 111.002 218.396 111.89 218.01 113.311C217.734 114.324 217.284 115.329 216.927 116.316C216.246 118.209 215.565 120.098 214.883 121.991C214.681 122.55 215.572 122.79 215.771 122.234C216.772 119.453 217.789 116.673 218.772 113.889C219.464 111.937 219.162 110.788 217.793 109.245C217.402 108.8 216.75 109.455 217.144 109.897Z" fill="#002247"/>
<path d="M223.872 119.008C224.465 119.008 224.465 118.087 223.872 118.087C223.279 118.087 223.279 119.008 223.872 119.008Z" fill="#002247"/>
<path d="M223.747 118.095C223.46 120.12 220.849 120.835 220.639 122.996C220.613 123.247 220.871 123.453 221.099 123.457C222.119 123.468 223.114 123.291 224.049 122.867C224.635 122.602 225.783 122.094 225.942 121.383C225.986 121.177 225.909 120.978 225.732 120.864C225.699 120.842 225.666 120.824 225.636 120.802C225.463 120.691 225.224 120.735 225.08 120.875C225.058 120.897 225.036 120.919 225.014 120.942C224.583 121.35 225.235 122.002 225.666 121.593C225.688 121.571 225.71 121.549 225.732 121.527C225.548 121.553 225.36 121.575 225.176 121.601C225.209 121.623 225.242 121.641 225.272 121.663C225.202 121.49 225.132 121.317 225.062 121.144C224.97 121.557 223.567 122.098 223.268 122.205C222.565 122.459 221.851 122.551 221.107 122.543C221.261 122.698 221.412 122.849 221.567 123.004C221.755 121.063 224.362 120.338 224.642 118.349C224.716 117.76 223.828 117.509 223.747 118.095Z" fill="#002247"/>
<path d="M225.835 120.783C224.708 121.877 223.316 122.938 222.403 124.216C221.766 125.107 221.648 126.182 222.414 127.025C222.55 127.176 222.801 127.195 222.97 127.099C224.723 126.097 226.133 124.709 227.165 122.975C227.47 122.463 226.671 122.002 226.369 122.511C225.412 124.116 224.126 125.376 222.502 126.304C222.687 126.329 222.874 126.351 223.059 126.377C221.865 125.066 225.64 122.256 226.483 121.435C226.914 121.019 226.262 120.371 225.835 120.783Z" fill="#002247"/>
<path d="M227.739 125.537C226.87 127.054 225.909 128.509 224.852 129.904C225.091 129.875 225.334 129.842 225.574 129.812C224.856 129.101 224.679 128.144 225.036 127.205C225.246 126.653 224.358 126.413 224.149 126.962C223.677 128.195 223.99 129.536 224.922 130.464C225.15 130.692 225.471 130.604 225.644 130.372C226.697 128.976 227.658 127.522 228.531 126.004C228.829 125.489 228.034 125.025 227.739 125.537Z" fill="#002247"/>
<path d="M207.853 107.993C204.602 107.293 201.354 106.597 198.102 105.898C197.524 105.773 197.277 106.66 197.859 106.785C201.111 107.485 204.359 108.181 207.61 108.881C208.188 109.006 208.435 108.118 207.853 107.993Z" fill="#002247"/>
<path d="M182.521 49.412C187.618 51.5553 191.157 56.4272 191.643 61.9326C191.694 62.5182 192.615 62.5218 192.563 61.9326C192.037 55.978 188.27 50.8408 182.764 48.5245C182.223 48.2925 181.984 49.1837 182.521 49.412Z" fill="#002247"/>
<path d="M115.005 245.212C114.431 246.608 112.855 247.3 111.647 248.029C111.146 248.331 110.807 248.497 110.619 249.097C110.402 249.786 110.601 250.64 110.737 251.329C111.006 252.695 111.238 253.98 111.356 255.376C111.599 258.292 111.927 261.202 112.358 264.096C112.582 265.613 112.836 267.123 113.105 268.629C113.492 270.787 114.534 273.929 112.074 275.251C111.551 275.53 112.015 276.326 112.538 276.046C115.068 274.687 114.622 271.818 114.18 269.421C113.507 265.75 112.936 262.06 112.549 258.344C112.376 256.672 112.336 254.967 112.096 253.306C111.942 252.224 111.378 251.034 111.459 249.933C111.547 248.688 113.131 248.32 114.048 247.624C114.836 247.028 115.51 246.383 115.889 245.463C116.118 244.91 115.23 244.671 115.005 245.212Z" fill="#002247"/>
<path d="M101.27 239.161C101.723 240.17 102.407 241.956 103.461 242.512C104.326 242.969 105.405 242.181 106.108 241.724C106.734 241.319 107.25 240.782 107.858 240.365C108.55 239.89 109.692 239.629 110.572 239.949C110.984 240.1 111.43 240.697 111.728 240.995C112.523 241.787 113.102 242.711 113.805 243.573C114.155 244 115.116 244.7 114.862 245.355C114.648 245.908 115.539 246.147 115.749 245.598C116.239 244.328 114.924 243.518 114.254 242.586C113.234 241.165 111.96 239.544 110.399 238.686C109.007 237.92 108.241 238.786 107.206 239.71C106.664 240.192 104.727 242.019 103.803 241.614C103.063 241.29 102.374 239.382 102.065 238.69C101.822 238.16 101.03 238.627 101.27 239.161Z" fill="#002247"/>
<path d="M114.195 242.115C116.224 239.206 118.798 236.823 121.31 234.349C121.733 233.933 121.082 233.281 120.658 233.697C118.088 236.231 115.473 238.676 113.4 241.651C113.061 242.137 113.86 242.598 114.195 242.115Z" fill="#002247"/>
<path d="M103.188 241.235C108.178 237.726 112.185 233.225 115.411 228.074C115.727 227.569 114.928 227.109 114.615 227.61C111.474 232.629 107.581 237.026 102.724 240.443C102.242 240.778 102.702 241.574 103.188 241.235Z" fill="#002247"/>
<path d="M91.6622 246.722C94.9028 253.115 97.7347 259.71 101.215 265.981C102.621 268.515 104.113 271.078 106.02 273.277C107.132 274.558 108.561 275.965 110.362 276.039C110.955 276.064 110.955 275.144 110.362 275.118C108.337 275.033 106.694 272.757 105.612 271.292C103.873 268.942 102.441 266.364 101.071 263.787C98.0145 258.035 95.3999 252.065 92.4576 246.258C92.1888 245.728 91.3933 246.195 91.6622 246.722Z" fill="#002247"/>
<path d="M92.2476 246.155C94.0152 245.105 95.827 244.096 97.4768 242.859C98.1213 242.376 98.7399 241.865 99.307 241.294C99.4065 241.194 101.285 239.092 101.347 239.301C101.517 239.869 102.408 239.626 102.235 239.058C101.587 236.912 99.8189 239.349 99.2407 240.023C97.2411 242.358 94.3835 243.82 91.7836 245.367C91.2754 245.661 91.7394 246.457 92.2476 246.155Z" fill="#002247"/>
<path d="M162.584 112.744C162.194 116.677 159.2 119.848 155.337 120.573C154.969 120.643 154.932 121.104 155.134 121.343C155.296 121.535 155.458 121.722 155.617 121.914C156 122.367 156.648 121.711 156.268 121.262C156.106 121.071 155.944 120.883 155.786 120.691C155.72 120.949 155.65 121.203 155.584 121.461C159.877 120.654 163.077 117.068 163.505 112.741C163.564 112.155 162.639 112.162 162.584 112.744Z" fill="#002247"/>
<path d="M146.609 52.3878C151.08 53.4741 152.619 59.9075 153.621 63.6968C154.994 68.8966 155.58 74.2546 155.462 79.6275C155.447 80.2204 156.368 80.2204 156.383 79.6275C156.519 73.496 155.735 67.3757 153.956 61.502C152.836 57.8084 151.12 52.5351 146.856 51.5003C146.278 51.3603 146.035 52.2478 146.609 52.3878Z" fill="#002247"/>
<path d="M149.209 87.9604C149.15 89.6985 149.238 91.4514 149.29 93.1895C149.319 94.2869 149.356 95.3843 149.397 96.4817C149.415 96.9826 149.75 98.4556 149.507 98.8975C148.984 99.8439 145.051 99.4204 144.087 99.4241C142.525 99.4278 140.964 99.3799 139.406 99.2841C135.757 99.0558 132.137 98.5366 128.52 97.9953C127.942 97.9069 127.692 98.7944 128.277 98.8827C131.971 99.4388 135.676 99.9728 139.406 100.205C141.376 100.33 143.35 100.367 145.324 100.334C146.311 100.315 147.298 100.282 148.285 100.234C148.749 100.212 149.68 100.297 150.096 99.9323C150.605 99.4867 150.406 98.5734 150.376 97.9842C150.321 96.8132 150.284 95.6458 150.247 94.4748C150.181 92.3131 150.056 90.1294 150.13 87.9677C150.152 87.3675 149.231 87.3675 149.209 87.9604Z" fill="#002247"/>
<path d="M127.475 98.4742C126.267 111.462 125.438 124.488 125.015 137.524C124.845 142.701 124.547 147.651 128.219 151.753C131.529 155.454 136.545 157.583 141.369 158.352C144.238 158.809 147.165 158.794 150.027 158.304C151.794 158.002 155.079 157.715 155.76 155.701C155.952 155.137 155.061 154.898 154.873 155.458C154.412 156.82 151.297 157.144 150.089 157.365C148.487 157.66 146.856 157.789 145.228 157.767C141.77 157.722 138.298 156.979 135.145 155.539C132.641 154.393 130.281 152.821 128.51 150.689C126.175 147.875 125.759 144.594 125.829 141.059C126.109 126.844 127.077 112.622 128.395 98.4705C128.451 97.885 127.526 97.8887 127.475 98.4742Z" fill="#002247"/>
<path d="M154.807 98.7988C154.7 108.686 155.123 118.563 155.595 128.436C155.827 133.293 156.081 138.15 156.261 143.011C156.431 147.552 156.431 152.236 154.074 156.276C153.775 156.788 154.571 157.252 154.869 156.74C156.924 153.216 157.3 149.194 157.244 145.191C157.174 140.095 156.832 134.991 156.589 129.898C156.088 119.539 155.617 109.172 155.731 98.7988C155.735 98.2095 154.814 98.2059 154.807 98.7988Z" fill="#002247"/>
<path d="M141.082 54.2653C143.089 55.1344 144.109 57.0052 144.948 58.9238C145.876 61.0449 146.646 63.2434 147.29 65.4676C148.568 69.8572 149.286 74.372 149.504 78.9383C149.533 79.5275 150.454 79.5312 150.424 78.9383C150.181 73.8417 149.327 68.8003 147.788 63.932C146.661 60.3747 145.324 55.1086 141.546 53.4699C141.008 53.2342 140.54 54.0297 141.082 54.2653Z" fill="#002247"/>
<path d="M162.58 241.692C163.862 239.361 167.246 239.876 169.467 239.987C172.173 240.119 174.876 240.318 177.587 240.41C182.757 240.583 187.935 240.315 192.843 238.558C193.396 238.359 193.16 237.472 192.6 237.67C186.671 239.792 180.404 239.674 174.202 239.335C171.51 239.188 168.715 238.805 166.02 239.004C164.296 239.132 162.661 239.641 161.789 241.231C161.501 241.747 162.297 242.211 162.58 241.692Z" fill="#002247"/>
<path d="M156.769 188.42C162.164 185.43 164.123 193.826 165.6 197.291C166.874 200.278 168.638 204.561 171.739 206.118C172.689 206.597 173.893 206.711 174.854 206.181C175.362 205.901 175.524 205.466 175.911 205.094C177.299 203.761 178.673 205.157 179.73 206.207C181.475 207.93 183.217 209.657 184.963 211.381C185.828 212.239 187.305 214.551 188.667 214.415C188.91 214.389 189.131 214.223 189.128 213.955C189.128 213.903 189.128 213.852 189.124 213.8C189.12 213.653 189.043 213.465 188.896 213.402C188.837 213.376 188.782 213.351 188.723 213.325C188.428 213.196 188.17 213.303 188.045 213.601C188.03 213.634 188.019 213.664 188.005 213.697C187.78 214.246 188.671 214.481 188.892 213.94C188.907 213.907 188.918 213.877 188.933 213.844C188.708 213.936 188.483 214.028 188.255 214.12C188.237 214.065 188.218 214.01 188.203 213.955C188.358 213.8 188.509 213.649 188.664 213.494C187.916 213.568 186.115 211.23 185.611 210.729C184.698 209.827 183.784 208.921 182.871 208.018C181.391 206.556 179.874 204.498 178.084 203.426C177.112 202.844 176.217 202.94 175.524 203.872C174.574 205.153 173.86 206.063 172.166 205.268C170.94 204.693 170.034 203.415 169.283 202.336C166.782 198.742 165.685 194.47 163.792 190.571C162.352 187.602 159.447 185.879 156.305 187.621C155.786 187.912 156.25 188.707 156.769 188.42Z" fill="#002247"/>
<path d="M115.562 210.31C120.18 220.503 126.996 229.543 135.517 236.794C135.967 237.177 136.622 236.529 136.169 236.143C127.699 228.94 120.946 219.973 116.357 209.846C116.11 209.308 115.319 209.776 115.562 210.31Z" fill="#002247"/>
<path d="M145.121 222.137C146.116 215.693 147.114 208.313 142.96 202.701C141.925 201.301 140.356 200.303 139.62 198.705C138.795 196.916 138.806 194.739 138.71 192.806C138.504 188.549 138.832 184.299 139.616 180.112C139.727 179.534 138.839 179.284 138.729 179.869C138.036 183.548 137.679 187.275 137.734 191.02C137.775 193.844 137.613 197.696 139.351 200.127C140.345 201.519 141.756 202.487 142.695 203.945C143.696 205.5 144.33 207.282 144.698 209.086C145.56 213.321 144.878 217.681 144.23 221.894C144.146 222.472 145.033 222.723 145.121 222.137Z" fill="#002247"/>
<path d="M155.893 127.791C160.96 125.121 164.933 120.846 167.206 115.587C167.438 115.049 166.646 114.578 166.41 115.123C164.193 120.253 160.374 124.392 155.429 126.996C154.906 127.272 155.37 128.067 155.893 127.791Z" fill="#002247"/>
<path d="M168.285 249.16C167.979 245.89 167.673 242.616 167.368 239.346C167.312 238.76 166.392 238.757 166.447 239.346C166.753 242.616 167.058 245.89 167.364 249.16C167.419 249.745 168.34 249.749 168.285 249.16Z" fill="#002247"/>
<path d="M167.401 239.331C167.427 243.139 167.913 246.88 168.863 250.566C169.01 251.141 169.898 250.898 169.75 250.323C168.819 246.714 168.344 243.061 168.321 239.331C168.318 238.742 167.397 238.738 167.401 239.331Z" fill="#002247"/>
<path d="M168.038 239.618C166.679 231.708 165.622 223.754 164.874 215.763C164.819 215.177 163.899 215.174 163.954 215.763C164.709 223.835 165.777 231.874 167.15 239.861C167.25 240.447 168.137 240.2 168.038 239.618Z" fill="#002247"/>
<path d="M164.149 207.904C161.192 190.324 158.835 172.644 157.086 154.901C157.027 154.316 156.106 154.312 156.165 154.901C157.922 172.725 160.29 190.486 163.262 208.147C163.361 208.733 164.248 208.486 164.149 207.904Z" fill="#002247"/>
<path d="M93.2935 245.057C95.2673 251.248 97.7898 257.25 100.894 262.958C102.441 265.805 104.087 268.644 105.969 271.288C107.294 273.155 108.83 274.786 111.065 275.49C111.632 275.666 111.876 274.779 111.308 274.602C108.513 273.722 106.926 271.148 105.424 268.813C103.859 266.379 102.404 263.879 101.056 261.316C98.2759 256.027 95.9928 250.504 94.1773 244.81C94.0042 244.251 93.113 244.49 93.2935 245.057Z" fill="#002247"/>
<path d="M179.292 281.22C183.191 280.41 187.091 279.6 190.991 278.789C192.847 278.403 194.699 277.99 196.566 277.659C197.822 277.434 199.082 277.254 200.356 277.184C200.945 277.151 203.342 276.863 203.707 277.401C204.038 277.887 204.837 277.427 204.502 276.937C203.722 275.788 201.538 276.197 200.356 276.263C198.043 276.392 195.764 276.863 193.499 277.331C188.682 278.325 183.865 279.334 179.049 280.332C178.467 280.454 178.71 281.341 179.292 281.22Z" fill="#002247"/>
<path d="M186.399 282.296C190.192 282.31 193.978 282.439 197.763 282.686C198.356 282.723 198.352 281.802 197.763 281.765C193.978 281.519 190.192 281.39 186.399 281.375C185.806 281.371 185.806 282.292 186.399 282.296Z" fill="#002247"/>
<path d="M192.781 280.469C195.734 280.709 198.688 280.823 201.652 280.812C202.245 280.808 202.245 279.887 201.652 279.891C198.691 279.902 195.734 279.792 192.781 279.549C192.192 279.501 192.195 280.421 192.781 280.469Z" fill="#002247"/>
<path d="M199.317 278.941C200.838 279.232 202.363 279.523 203.884 279.814C204.462 279.924 204.712 279.037 204.127 278.926C202.606 278.635 201.081 278.344 199.56 278.053C198.986 277.943 198.736 278.83 199.317 278.941Z" fill="#002247"/>
<path d="M185.11 264.321C185.81 264.089 186.513 263.986 187.25 264.005C187.842 264.019 187.842 263.099 187.25 263.084C186.436 263.066 185.637 263.18 184.867 263.434C184.304 263.618 184.543 264.509 185.11 264.321Z" fill="#002247"/>
<path d="M186.137 265.65C186.955 265.286 187.828 265.3 188.656 265.617C189.212 265.827 189.452 264.939 188.899 264.73C187.828 264.324 186.708 264.394 185.67 264.858C185.132 265.094 185.6 265.89 186.137 265.65Z" fill="#002247"/>
<path d="M187.489 267.046C187.902 266.936 188.31 266.877 188.737 266.881C188.962 266.884 189.183 266.903 189.404 266.94C189.47 266.954 189.533 266.965 189.599 266.98C189.835 267.102 189.886 267.017 189.743 266.726C189.967 266.634 190.192 266.542 190.42 266.45C190.406 266.442 190.391 266.439 190.376 266.431C189.839 266.196 189.371 266.987 189.912 267.227C189.927 267.234 189.942 267.238 189.956 267.245C190.199 267.352 190.575 267.293 190.634 266.969C190.884 265.562 187.983 265.964 187.25 266.155C186.672 266.31 186.915 267.197 187.489 267.046Z" fill="#002247"/>
<path d="M188.863 268.77C189.853 268.486 190.825 268.542 191.786 268.91C192.339 269.123 192.578 268.232 192.029 268.022C190.925 267.599 189.75 267.558 188.616 267.882C188.049 268.044 188.288 268.932 188.863 268.77Z" fill="#002247"/>
<path d="M107.221 246.726C107.549 247.19 107.906 247.632 108.311 248.033C108.499 248.217 108.698 248.394 108.904 248.56C109.014 248.648 109.541 248.935 109.567 249.049C109.637 248.876 109.707 248.703 109.776 248.53C109.762 248.541 109.747 248.552 109.732 248.563C109.85 248.549 109.968 248.534 110.086 248.515C110.123 248.538 110.159 248.556 110.193 248.578C110.218 248.762 110.24 248.95 110.266 249.134C110.274 249.123 110.285 249.112 110.292 249.101C110.642 248.622 109.846 248.162 109.497 248.637C109.489 248.648 109.478 248.659 109.471 248.67C109.346 248.84 109.416 249.086 109.544 249.226C109.721 249.418 110.023 249.488 110.24 249.322C110.414 249.193 110.502 249.02 110.45 248.803C110.333 248.283 109.626 247.985 109.25 247.65C108.782 247.234 108.37 246.77 108.013 246.262C107.677 245.779 106.878 246.236 107.221 246.726Z" fill="#002247"/>
<path d="M106.488 247.816C107.291 248.961 108.252 249.944 109.371 250.784C109.846 251.137 110.307 250.338 109.835 249.989C108.848 249.252 107.99 248.361 107.283 247.352C106.948 246.869 106.149 247.33 106.488 247.816Z" fill="#002247"/>
<path d="M106.271 249.948C107.313 251.524 108.576 252.909 110.06 254.076C110.244 253.837 110.432 253.594 110.616 253.354C110.484 253.284 110.347 253.211 110.215 253.141C109.692 252.864 109.224 253.656 109.751 253.936C109.883 254.006 110.02 254.08 110.152 254.15C110.59 254.382 111.139 253.767 110.708 253.428C109.287 252.308 108.064 250.994 107.062 249.484C106.738 248.99 105.943 249.451 106.271 249.948Z" fill="#002247"/>
<path d="M106.985 253.583C107.81 254.975 108.885 256.154 110.185 257.115C110.66 257.468 111.121 256.669 110.649 256.319C109.482 255.454 108.521 254.368 107.781 253.119C107.479 252.611 106.683 253.071 106.985 253.583Z" fill="#002247"/>
<path d="M107.497 256.798C108.292 257.829 109.22 258.709 110.307 259.431C110.8 259.762 111.261 258.963 110.771 258.635C109.828 258.006 108.988 257.232 108.292 256.334C107.935 255.874 107.136 256.33 107.497 256.798Z" fill="#002247"/>
<path d="M108.171 259.82C108.863 260.513 109.552 261.209 110.244 261.901C110.664 262.321 111.312 261.669 110.896 261.249C110.204 260.557 109.515 259.861 108.823 259.169C108.403 258.749 107.751 259.401 108.171 259.82Z" fill="#002247"/>
<path d="M110.119 221.935C112.347 218.783 114.939 215.954 117.874 213.45C118.324 213.064 117.672 212.416 117.223 212.799C114.229 215.358 111.596 218.256 109.324 221.471C108.981 221.957 109.78 222.417 110.119 221.935Z" fill="#002247"/>
<path d="M111.242 223.28C113.179 220.205 115.411 217.421 117.9 214.777C118.305 214.346 117.657 213.694 117.248 214.125C114.704 216.828 112.428 219.671 110.447 222.816C110.134 223.316 110.929 223.78 111.242 223.28Z" fill="#002247"/>
<path d="M119.259 213.557C131.249 198.709 144.028 184.133 153.532 167.503C153.827 166.988 153.032 166.524 152.737 167.039C143.269 183.603 130.55 198.116 118.607 212.905C118.239 213.365 118.887 214.021 119.259 213.557Z" fill="#002247"/>
<path d="M157.086 24.0692C155.234 25.3397 154.228 27.6965 155.057 29.8839C155.834 31.9425 158.18 33.2387 160.334 32.8337C162.54 32.4175 164.201 30.2412 164.072 28.0059C163.928 25.5717 161.825 23.8372 159.55 23.4321C158.972 23.329 158.721 24.2165 159.307 24.3196C161.001 24.6216 162.621 25.6748 163.063 27.4387C163.512 29.2285 162.4 31.1434 160.699 31.7657C156.386 33.3418 153.985 27.3099 157.55 24.8683C158.036 24.5332 157.576 23.7341 157.086 24.0692Z" fill="#DBF0FF"/>
<path d="M148.141 104.437C147.887 104.985 147.607 105.674 147.854 106.274C148.171 107.055 149.077 106.712 149.441 107.287C149.695 107.692 149.379 108.473 149.592 108.951C149.857 109.544 151.433 109.784 151.378 110.354C151.492 110.207 151.603 110.06 151.717 109.909C151.511 109.986 151.304 110.063 151.098 110.144C150.55 110.351 150.789 111.242 151.341 111.032C151.548 110.955 151.754 110.877 151.96 110.796C152.17 110.719 152.277 110.572 152.299 110.351C152.354 109.795 152.174 109.264 151.699 108.926C151.058 108.469 150.527 108.903 150.388 107.957C150.318 107.475 150.439 106.996 150.111 106.572C149.625 105.946 148.377 106.101 148.937 104.897C149.183 104.367 148.392 103.899 148.141 104.437Z" fill="#002247"/>
<path d="M134.803 113.017C134.527 112.225 135.094 111.651 135.882 111.647C136.177 111.647 136.445 111.772 136.747 111.717C137.355 111.61 137.62 111.15 137.771 110.598C137.922 110.03 137.966 109.721 138.64 109.555C138.983 109.474 139.299 109.544 139.642 109.408C140.191 109.191 140.474 108.83 140.5 108.244C140.526 107.652 139.605 107.652 139.579 108.244C139.561 108.672 137.782 108.661 137.388 109.058C137.145 109.305 137.049 109.633 136.965 109.957C136.928 110.093 136.943 110.366 136.858 110.476C136.633 110.782 136.04 110.671 135.753 110.704C134.468 110.837 133.437 111.89 133.919 113.26C134.111 113.82 135.002 113.58 134.803 113.017Z" fill="#002247"/>
<path d="M140.614 119.594C140.599 120.183 140.816 120.607 141.118 121.097C141.266 121.336 141.56 121.686 141.593 121.969C141.641 122.382 141.332 122.669 141.262 123.048C141.185 123.457 141.251 123.803 141.542 124.12C141.851 124.455 143.372 124.867 143.148 125.409C142.919 125.954 143.81 126.193 144.035 125.652C144.683 124.109 142.19 124.146 142.301 122.919C142.352 122.33 142.636 122.135 142.396 121.476C142.157 120.817 141.52 120.342 141.538 119.594C141.549 119.001 140.629 119.001 140.614 119.594Z" fill="#002247"/>
<path d="M130.918 133.411C130.866 133.109 130.796 132.741 130.844 132.428C130.973 131.632 131.43 131.695 132.067 131.618C132.494 131.566 132.91 131.577 133.29 131.323C133.588 131.124 133.794 130.848 133.842 130.487C133.93 129.839 133.29 128.815 134.472 128.716C135.057 128.668 135.064 127.743 134.472 127.795C133.787 127.854 133.201 128.185 132.907 128.834C132.796 129.077 132.741 129.349 132.759 129.614C132.767 129.747 132.925 130.082 132.899 130.203C132.796 130.656 132.266 130.682 131.92 130.697C130.119 130.774 129.754 132.048 130.027 133.654C130.13 134.239 131.017 133.993 130.918 133.411Z" fill="#002247"/>
<path d="M137.432 137.248C137.712 137.178 137.672 138.743 137.734 138.939C137.845 139.274 138.051 139.535 138.32 139.76C139.189 140.482 140.835 140.618 140.478 142.164C140.345 142.743 141.233 142.986 141.365 142.407C141.767 140.666 140.562 140.047 139.277 139.292C138.268 138.696 138.872 137.893 138.493 137.024C138.25 136.468 137.753 136.221 137.182 136.357C136.611 136.501 136.854 137.388 137.432 137.248Z" fill="#002247"/>
<path d="M145.596 147.728C145.869 147.146 146.259 146.797 146.981 146.826C147.117 146.833 147.53 147.08 147.688 147.106C148.027 147.157 148.369 147.099 148.609 146.83C148.738 146.686 148.749 146.495 148.844 146.325C149.205 145.692 149.493 145.6 150.17 145.519C150.741 145.452 151.172 145.423 151.691 145.147C152.214 144.871 151.75 144.075 151.227 144.351C150.454 144.76 149.533 144.462 148.767 144.889C148.572 144.999 148.399 145.125 148.259 145.301C148.207 145.368 147.953 146.078 147.957 146.075C147.563 146.296 146.686 145.64 146.145 145.791C145.464 145.979 145.081 146.668 144.801 147.257C144.551 147.795 145.346 148.266 145.596 147.728Z" fill="#002247"/>
<path d="M149.78 136.677C149.404 136.014 150.465 136.254 150.748 136.313C151.024 136.368 151.304 136.401 151.573 136.287C152.394 135.941 152.184 134.895 153.33 134.947C153.923 134.972 153.923 134.052 153.33 134.026C152.748 134 152.184 134.177 151.768 134.597C151.522 134.843 151.385 135.381 150.995 135.425C150.756 135.451 150.402 135.248 150.152 135.226C149.11 135.145 148.484 136.258 148.984 137.141C149.275 137.657 150.071 137.193 149.78 136.677Z" fill="#002247"/>
<path d="M130.958 146.686C130.605 145.817 132.667 145.732 133.146 145.537C133.444 145.415 133.72 145.253 133.916 144.996C134.008 144.874 134.07 144.749 134.122 144.605C134.159 144.517 134.181 144.425 134.184 144.329C134.243 144.097 134.14 143.909 133.871 143.766C133.669 144.322 134.56 144.565 134.759 144.009C134.947 143.489 134.405 143.036 133.897 143.162C133.109 143.357 133.507 144.403 132.785 144.686C132.067 144.97 131.308 144.889 130.653 145.356C130.137 145.725 129.817 146.307 130.071 146.925C130.288 147.47 131.179 147.235 130.958 146.686Z" fill="#002247"/>
<path d="M141.741 151.227C141.623 151.857 141.807 152.38 142.267 152.829C142.643 153.197 144.775 154.052 143.961 154.762C143.637 155.046 143.921 155.521 144.285 155.547C144.742 155.58 145.096 155.779 145.401 156.11C145.803 156.548 146.454 155.897 146.053 155.458C145.567 154.928 145 154.678 144.289 154.626C144.396 154.888 144.506 155.149 144.613 155.41C145.129 154.957 145.173 154.247 144.849 153.658C144.433 152.892 142.452 152.424 142.628 151.466C142.735 150.892 141.848 150.645 141.741 151.227Z" fill="#002247"/>
<path d="M150.015 125.426C150.108 125.205 150.2 124.985 150.292 124.76C150.185 124.867 150.078 124.973 149.971 125.08C150.52 124.896 151.091 125.22 151.636 124.992C152.103 124.797 152.173 124.252 152.645 124.086C153.079 123.931 153.455 124.045 153.842 123.725C154.184 123.442 154.331 123.055 154.173 122.639C153.963 122.09 153.076 122.329 153.286 122.882C153.352 123.059 152.096 123.261 151.927 123.368C151.54 123.607 151.503 124.086 151.028 124.156C150.594 124.219 150.163 123.979 149.728 124.193C149.353 124.381 149.286 124.808 149.132 125.18C148.903 125.728 149.795 125.968 150.015 125.426Z" fill="#002247"/>
<path d="M129.047 114.092C128.775 114.545 128.826 114.961 129.176 115.37C129.725 116.007 130.874 115.665 130.638 116.784C130.509 117.388 130.141 117.664 130.413 118.331C130.539 118.637 130.771 118.861 131.017 119.071C131.161 119.193 132.91 120.216 132.159 120.511C131.614 120.725 131.853 121.616 132.402 121.398C132.936 121.189 133.253 120.82 133.242 120.22C133.227 119.321 132.501 119.115 131.938 118.589C130.756 117.48 132.1 116.994 131.732 115.897C131.599 115.499 129.876 114.49 129.843 114.549C130.148 114.048 129.353 113.584 129.047 114.092Z" fill="#002247"/>
<path d="M131.577 102.621C131.268 103.033 131.268 103.527 131.511 103.98C131.647 104.234 131.868 104.469 132.104 104.635C132.339 104.797 132.767 104.863 132.859 105.118C133.006 105.526 132.476 105.957 132.671 106.454C132.752 106.664 132.918 106.819 133.12 106.911C133.201 106.948 133.267 106.955 133.352 106.974C133.466 106.999 133.58 107.003 133.691 106.992C133.871 107.01 133.989 106.911 134.044 106.69C133.51 106.94 133.974 107.736 134.508 107.485C134.932 107.287 134.958 106.797 134.704 106.44C134.589 106.274 134.427 106.163 134.236 106.104C134.089 106.057 133.956 106.082 133.805 106.068C133.536 106.042 133.617 106.171 133.58 106.016C133.544 105.858 133.838 105.5 133.875 105.313C133.919 105.088 133.912 104.852 133.809 104.642C133.551 104.123 131.816 103.821 132.365 103.092C132.73 102.613 131.931 102.153 131.577 102.621Z" fill="#002247"/>
<path d="M155.48 181.677C157.734 179.512 160.883 181.092 162.459 183.22C163.899 185.157 164.738 187.566 165.596 189.794C167.195 193.94 168.656 198.146 171.26 201.795C171.444 202.053 171.739 202.09 171.982 201.887C172.645 201.342 173.308 200.793 173.967 200.248C174.243 200.02 174.63 199.552 174.961 199.427C175.517 199.394 176.073 199.357 176.629 199.324C176.776 199.508 176.927 199.696 177.075 199.88C178.507 201.136 179.667 203.113 180.857 204.601C183.306 207.658 185.751 210.71 188.2 213.767C188.572 214.231 189.216 213.575 188.851 213.115C185.589 209.042 182.326 204.969 179.06 200.893C178.36 200.016 177.17 197.659 175.753 197.851C175.193 197.928 174.722 198.433 174.309 198.772C173.315 199.589 172.324 200.41 171.33 201.232C171.569 201.261 171.812 201.294 172.052 201.324C168.505 196.352 167.206 190.368 164.543 184.958C162.864 181.541 158.511 177.479 154.821 181.018C154.401 181.438 155.053 182.09 155.48 181.677Z" fill="#002247"/>
<path d="M140.945 178.043C140.688 181.899 140.677 185.762 140.964 189.617C141.093 191.344 141.273 193.064 141.516 194.78C141.652 195.749 141.708 196.599 142.569 197.181C142.908 197.409 143.324 197.443 143.7 197.568C144.772 197.925 145.361 198.466 145.869 199.479C146.661 201.055 147.025 202.955 147.335 204.679C148.034 208.615 147.909 212.622 147.088 216.529C146.966 217.107 147.854 217.354 147.975 216.772C148.705 213.3 148.918 209.757 148.487 206.229C148.167 203.618 147.751 200.249 146.097 198.087C145.306 197.052 144.473 197.111 143.439 196.559C141.811 195.69 142.076 191.985 141.94 190.346C141.597 186.251 141.59 182.145 141.862 178.05C141.903 177.45 140.982 177.454 140.945 178.043Z" fill="#002247"/>
<path d="M172.181 24.4072C172.162 24.908 172.144 25.4125 172.122 25.9133C172.1 26.5062 173.02 26.5062 173.042 25.9133C173.061 25.4125 173.079 24.908 173.101 24.4072C173.127 23.8143 172.206 23.8179 172.181 24.4072Z" fill="#002247"/>
<path d="M175.966 25.5966C175.97 25.9059 175.974 26.2152 175.981 26.5245C175.985 26.705 176.121 26.9407 176.32 26.9701C177.296 27.1138 177.27 28.4174 176.235 28.3879C175.642 28.3695 175.642 29.2901 176.235 29.3085C177.082 29.3343 177.896 28.7304 177.984 27.8539C178.073 26.9922 177.402 26.2079 176.563 26.0826C176.677 26.2299 176.787 26.3772 176.902 26.5282C176.898 26.2189 176.894 25.9096 176.887 25.6002C176.88 25.0037 175.959 25.0037 175.966 25.5966Z" fill="#002247"/>
<path d="M179.339 25.0665C179.373 25.5158 179.362 25.965 179.31 26.4143C179.28 26.661 179.542 26.8746 179.77 26.8746C180.043 26.8746 180.201 26.661 180.231 26.4143C180.286 25.965 180.293 25.5158 180.26 25.0665C180.22 24.481 179.295 24.4773 179.339 25.0665Z" fill="#002247"/>
<path d="M161.847 48.3773C162.219 47.4861 162.742 46.6649 162.956 45.7111C163.085 45.1329 162.197 44.8862 162.068 45.4681C161.859 46.4145 161.328 47.243 160.96 48.1342C160.732 48.6792 161.623 48.9186 161.847 48.3773Z" fill="#002247"/>
<path d="M165.232 46.3704C165.243 47.4347 165.243 48.499 165.228 49.5632C165.221 50.1561 166.141 50.1561 166.149 49.5632C166.163 48.499 166.163 47.4347 166.152 46.3704C166.149 45.7776 165.228 45.7776 165.232 46.3704Z" fill="#002247"/>
<path d="M168.52 46.286C168.789 47.2582 169.058 48.2267 169.327 49.1988C169.485 49.7696 170.373 49.5266 170.214 48.9558C169.945 47.9836 169.677 47.0151 169.408 46.0429C169.249 45.4684 168.362 45.7115 168.52 46.286Z" fill="#002247"/>
<path d="M171.514 45.5561C172.225 46.4252 172.884 47.3274 173.503 48.2628C173.827 48.7562 174.626 48.2959 174.298 47.7988C173.635 46.7971 172.925 45.836 172.166 44.9043C171.79 44.4476 171.142 45.0995 171.514 45.5561Z" fill="#002247"/>
<defs>
<linearGradient id="paint0_linear" x1="153.002" y1="57.099" x2="39.4" y2="175.699" gradientUnits="userSpaceOnUse">
<stop stop-color="#3E51FF"/>
<stop offset="1" stop-color="#0071EB"/>
</linearGradient>
<linearGradient id="paint1_linear" x1="198.653" y1="251.568" x2="184.319" y2="275.468" gradientUnits="userSpaceOnUse">
<stop stop-color="#3E51FF"/>
<stop offset="1" stop-color="#0071EB"/>
</linearGradient>
<linearGradient id="paint2_linear" x1="184.845" y1="112.338" x2="123.569" y2="148.546" gradientUnits="userSpaceOnUse">
<stop stop-color="#3E51FF"/>
<stop offset="1" stop-color="#0071EB"/>
</linearGradient>
<linearGradient id="paint3_linear" x1="113.747" y1="230.685" x2="91.5421" y2="258.287" gradientUnits="userSpaceOnUse">
<stop stop-color="#3E51FF"/>
<stop offset="1" stop-color="#0071EB"/>
</linearGradient>
<linearGradient id="paint4_linear" x1="144.661" y1="164.999" x2="105.642" y2="212.878" gradientUnits="userSpaceOnUse">
<stop stop-color="#3E51FF"/>
<stop offset="1" stop-color="#0071EB"/>
</linearGradient>
</defs>
</svg>
