<svg width="251" height="251" viewBox="0 0 251 251" fill="none" xmlns="http://www.w3.org/2000/svg">
<path d="M132.583 56.475L128.417 60.6583L129.667 70.28L130.5 69.4433L135.917 62.3317L140.5 55.22L142.167 51.0367L144.25 48.1083L145.083 44.7617L144.667 41.415L140.917 38.4867H138L135.917 39.7417L135.5 40.9967L133.833 49.3633V52.71L132.583 56.475Z" fill="#B58356"/>
<path d="M108 27.1917L105.917 30.12L115.083 34.3033V29.2833L116.333 27.1917L117.583 28.0283L119.667 28.865L122.167 25.1L125.083 17.57V11.7133L115.083 10.04L108.417 20.4983L109.25 22.59L108 27.1917Z" fill="#B58356"/>
<path d="M106.333 17.1517L109.25 21.7533L111.75 19.2433L112.167 17.1517L113 16.7333L113.833 17.1517L114.25 15.4783L115.083 11.295L119.25 12.55H123.833L127.167 10.4583L129.49 7.94834L129.667 5.43834H128.833L126.75 5.02L123 2.51L119.667 0.836668L114.667 0.418335L110.917 1.255L107.167 3.765L104.667 7.94834V12.1317L106.333 17.1517Z" fill="#422210"/>
<path d="M74.25 51.8733L80.9167 44.3433L85.0833 47.69L88.4167 51.455L84.6667 55.22L89.25 58.1483L95.9167 61.0767H99.25L102.583 59.8217L107.167 58.1483L111.333 57.3117L113 57.73L113.417 58.985L114.25 60.24V61.495V63.5867L113.417 64.4233L114.25 64.8417V66.515L113 67.3517L107.583 68.1883H100.5L95.0833 66.9333L79.6667 63.1683L72.5833 60.6583L70.5 58.985L70.9167 56.475L74.25 51.8733Z" fill="#B58356"/>
<path d="M55.5 179.883L60.9167 174.863L63.8333 178.628L68 181.138L63.8333 187.832L59.25 184.485L58.8333 184.903L57.5833 186.158L55.9167 183.23L55.5 179.883Z" fill="#B58356"/>
<path d="M132.167 174.445L135.5 166.915L129.25 159.803L125.5 164.823L123 167.333L123.417 170.262L125.083 173.608H126.333L127.167 171.517L132.167 174.445Z" fill="#B58356"/>
<path opacity="0.2" d="M92.7035 230.48H46.9635V250.997H92.7035V230.48Z" fill="url(#paint0_linear)"/>
<path opacity="0.2" d="M149.256 204.772H103.516V251H149.256V204.772Z" fill="url(#paint1_linear)"/>
<path opacity="0.2" d="M205.809 160.336H160.069V250.997H205.809V160.336Z" fill="url(#paint2_linear)"/>
<path d="M92.7268 84.4058C92.7268 84.4058 94.7092 85.6045 100.023 86.532C105.336 87.4596 109.029 87.7485 112.35 87.0769C115.671 86.4053 119.485 85.6222 123.286 85.8478C127.085 86.0733 129.297 86.8589 129.297 86.8589C129.297 86.8589 129.827 75.6472 129.556 71.2097C129.284 66.7721 128.695 59.3087 128.502 57.5448C128.308 55.7809 127.324 45.1141 126.685 42.6051C126.046 40.0987 125.299 38.5376 123.528 37.2122C121.757 35.8842 117.963 34.6145 117.963 34.6145C117.963 34.6145 117.487 35.1645 116.071 34.721C114.655 34.2775 109.271 31.9611 107.027 30.661C104.783 29.3609 103.603 28.5424 103.603 28.5424C103.603 28.5424 96.7873 29.2824 94.4123 30.2606C92.0374 31.2388 89.2474 33.3981 86.5831 36.2922C83.9189 39.1864 80.032 43.7633 80.032 43.7633C80.032 43.7633 80.8924 43.6898 83.1138 45.958C85.3353 48.2287 87.0108 50.0179 88.1404 50.9683C89.27 51.9187 90.7443 52.2684 90.7443 52.2684C90.7443 52.2684 90.8349 51.6044 92.3947 50.3677C93.9545 49.1309 94.3293 48.8446 94.3293 48.8446C94.3293 48.8446 94.4073 52.7651 94.445 55.0865C94.4853 57.4079 94.3998 60.6011 94.3998 60.6011C94.3998 60.6011 97.7181 62.0609 99.8566 61.0928C101.995 60.1247 107.14 57.4358 110 57.3902C112.861 57.3446 113.349 57.9173 113.545 58.4369C113.741 58.9564 113.505 59.3289 113.505 59.3289C113.505 59.3289 114.088 59.4379 114.35 60.2616C114.614 61.0852 114.151 62.2358 114.151 62.2358C114.151 62.2358 114.486 63.2039 114.451 63.5739C114.413 63.9439 113.663 64.5166 113.663 64.5166C113.663 64.5166 114.551 65.2794 114.531 65.7255C114.511 66.1715 113.809 67.1346 113.437 67.2587C113.065 67.3829 108.846 68.1381 106.217 68.3307C103.587 68.5233 99.283 68.0114 98.2867 67.8366C97.2904 67.6592 94.0979 66.9369 94.0979 66.9369L92.7268 84.4058Z" fill="#FFD467"/>
<path d="M122.038 85.7717C121.83 87.1098 122.66 88.3237 123.467 89.307C124.916 91.0683 126.74 92.523 128.524 93.9169C133.576 97.8653 138.95 101.378 144.12 105.159C149.42 109.036 154.912 113.134 159.006 118.347C160.583 120.357 162.903 123.631 162.503 126.353C162.289 127.81 161.527 129.318 160.976 130.672C160.15 132.699 158.945 134.595 157.871 136.496C151.748 147.317 144.92 157.796 137.045 167.414C136.766 167.756 137.251 168.25 137.533 167.906C144.489 159.408 150.628 150.244 156.201 140.776C158.414 137.015 160.762 133.264 162.301 129.164C162.852 127.699 163.423 126.414 163.094 124.823C162.835 123.563 162.342 122.349 161.74 121.221C158.91 115.907 153.873 111.806 149.234 108.162C143.838 103.92 138.127 100.111 132.572 96.0862C130.107 94.2996 127.616 92.485 125.415 90.3689C124.36 89.3552 122.441 87.6369 122.705 85.9592C122.773 85.5182 122.106 85.3307 122.038 85.7717Z" fill="#002247"/>
<path d="M98.5835 86.3521C97.2904 90.3917 96.6564 94.7786 97.7432 98.9475C98.7672 102.873 101.426 106.082 104.42 108.692C111.107 114.521 119.153 118.5 127.281 121.84C132.273 123.89 137.319 125.803 142.233 128.046C142.635 128.229 142.985 127.631 142.58 127.446C134.688 123.844 126.411 121.128 118.66 117.21C114.846 115.281 111.215 113.028 107.774 110.486C104.415 108.005 101.054 105.045 99.2628 101.17C97.1269 96.5526 97.7407 91.2432 99.2477 86.5396C99.3835 86.1088 98.7194 85.9263 98.5835 86.3521Z" fill="#002247"/>
<path d="M142.464 127.94C136.346 136.967 130.439 146.182 125.354 155.847C125.281 155.989 125.299 156.152 125.407 156.268C127.915 158.967 130.421 161.664 132.929 164.363C134.079 165.599 135.216 167.234 136.57 168.24C137.085 168.623 137.76 168.871 138.215 168.293C138.489 167.946 138.004 167.452 137.727 167.802C137.292 168.352 134.751 165.305 134.444 164.976C133.475 163.934 132.507 162.89 131.538 161.849C129.656 159.824 127.777 157.801 125.895 155.777C125.913 155.916 125.93 156.058 125.948 156.197C131.032 146.531 136.94 137.317 143.058 128.29C143.312 127.922 142.713 127.572 142.464 127.94Z" fill="#002247"/>
<path d="M128.57 151.037C131.493 156.113 135.408 160.493 140.102 163.967C140.459 164.233 140.804 163.63 140.449 163.367C135.853 159.966 132.026 155.655 129.163 150.688C128.944 150.3 128.346 150.65 128.57 151.037Z" fill="#002247"/>
<path d="M113.48 87.1834C112.098 91.6564 114.715 95.8608 117.633 99.0414C121.777 103.555 127.002 107.045 132.092 110.372C136.95 113.55 142.074 116.447 146.63 120.066C147.78 120.978 148.95 121.88 150.075 122.823C151.609 124.108 152.658 125.502 152.017 127.565C150.842 131.351 148.439 134.714 146.188 137.92C140.779 145.622 134.544 152.773 131.025 161.633C130.859 162.049 131.528 162.229 131.689 161.818C134.897 153.749 140.411 147.074 145.453 140.13C147.762 136.949 150.241 133.642 151.815 130.013C152.356 128.766 153.088 127.291 152.95 125.892C152.807 124.453 151.735 123.335 150.696 122.44C141.518 114.572 130.323 109.531 121.228 101.555C117.354 98.1594 112.39 93.0554 114.146 87.3659C114.277 86.9401 113.61 86.7551 113.48 87.1834Z" fill="#002247"/>
<path d="M135.392 167.092C134.16 169.12 133.108 171.233 132.225 173.436C132.059 173.851 132.726 174.031 132.889 173.621C133.752 171.471 134.786 169.419 135.989 167.442C136.22 167.062 135.624 166.712 135.392 167.092Z" fill="#002247"/>
<path d="M128.323 160.571C126.889 162.852 125.206 164.928 123.274 166.798C122.954 167.11 123.442 167.599 123.762 167.29C125.734 165.379 127.455 163.253 128.919 160.921C129.156 160.544 128.559 160.194 128.323 160.571Z" fill="#002247"/>
<path d="M122.627 166.195C122.348 168.562 122.967 170.954 124.423 172.845C124.753 173.273 125.402 174.257 126.086 174.092C126.922 173.894 127.05 172.097 127.223 171.484C127.055 171.552 126.886 171.623 126.718 171.692C127.812 172.315 128.901 172.949 129.981 173.598C130.559 173.942 131.307 174.246 131.797 174.7C132.315 175.179 132.144 175.721 132.122 176.398C132.041 178.816 132.328 181.238 132.846 183.598C133.931 188.537 136.001 193.188 138.067 197.775C138.25 198.183 138.844 197.828 138.663 197.425C135.458 190.299 132.185 182.782 132.919 174.774C132.929 174.652 132.846 174.533 132.748 174.474C130.874 173.314 128.979 172.186 127.065 171.094C126.871 170.982 126.62 171.084 126.559 171.302C126.449 171.694 126.36 172.358 126.164 172.713C125.895 173.202 125.965 173.344 125.337 172.86C124.776 172.429 124.323 171.507 124.023 170.868C123.336 169.401 123.13 167.797 123.319 166.195C123.369 165.751 122.68 165.757 122.627 166.195Z" fill="#002247"/>
<path d="M122.431 165.648C120.564 166.73 118.697 167.814 116.831 168.897C115.975 169.393 115.07 169.847 114.247 170.397C113.812 170.688 113.429 170.959 113.321 171.507C113.203 172.1 113.459 172.678 113.693 173.21C114.116 174.175 114.597 175.121 115.052 176.071C115.9 177.84 116.763 179.604 117.668 181.345C120.899 187.549 124.876 194.485 130.826 198.431C132.849 199.772 137.893 202.228 138.912 198.434C139.028 198 138.363 197.818 138.248 198.249C137.48 201.105 133.631 199.283 132.036 198.365C130.408 197.43 128.969 196.196 127.661 194.85C124.919 192.03 122.662 188.73 120.667 185.344C118.675 181.966 116.944 178.443 115.258 174.903C114.896 174.14 114.103 173.038 114.033 172.181C113.93 170.906 116.325 169.994 117.18 169.5C119.047 168.418 120.914 167.333 122.78 166.251C123.165 166.025 122.818 165.425 122.431 165.648Z" fill="#002247"/>
<path d="M116.131 169.548C118.194 175.686 120.841 181.616 124.071 187.222C126.864 192.068 130.029 197.23 135.083 199.947C135.475 200.157 135.823 199.556 135.43 199.346C130.351 196.614 127.218 191.348 124.436 186.472C121.337 181.036 118.788 175.298 116.793 169.363C116.655 168.942 115.988 169.122 116.131 169.548Z" fill="#002247"/>
<path d="M128.008 176.88C128.821 177.46 129.686 177.944 130.602 178.337C131.007 178.509 131.359 177.911 130.949 177.736C130.031 177.343 129.168 176.859 128.355 176.279C127.993 176.02 127.649 176.624 128.008 176.88Z" fill="#002247"/>
<path d="M128.315 179.675C129.299 180.367 130.376 180.876 131.53 181.206C131.958 181.327 132.142 180.658 131.714 180.536C130.612 180.222 129.603 179.736 128.662 179.077C128.298 178.818 127.953 179.421 128.315 179.675Z" fill="#002247"/>
<path d="M128.919 182.65C129.556 182.612 130.19 183.274 130.751 183.535C131.304 183.791 131.88 183.953 132.482 184.047C132.917 184.115 133.103 183.446 132.665 183.377C131.875 183.253 131.131 183.007 130.446 182.587C129.948 182.28 129.533 181.92 128.917 181.958C128.479 181.981 128.474 182.678 128.919 182.65Z" fill="#002247"/>
<path d="M129.631 185.423C130.876 186.173 132.154 186.862 133.465 187.488C133.865 187.678 134.215 187.08 133.812 186.887C132.502 186.261 131.224 185.575 129.978 184.822C129.598 184.591 129.251 185.192 129.631 185.423Z" fill="#002247"/>
<path d="M130.723 188.824C131.855 189.333 133.02 189.708 134.237 189.941C134.67 190.025 134.856 189.353 134.421 189.272C133.264 189.052 132.147 188.707 131.07 188.226C130.668 188.043 130.315 188.641 130.723 188.824Z" fill="#002247"/>
<path d="M117.621 34.9922C119.535 35.5649 121.525 36.1579 123.16 37.3567C125.085 38.7632 125.908 40.8692 126.343 43.1526C127.241 47.8512 127.709 52.679 128.159 57.4409C129.075 67.1422 129.372 76.8967 129.078 86.6385C129.065 87.0871 129.754 87.0845 129.767 86.6385C130.086 76.0731 129.707 65.4898 128.602 54.9776C128.34 52.4839 128.036 49.9926 127.696 47.509C127.382 45.2256 127.188 42.8105 126.393 40.6335C124.992 36.7915 121.417 35.4027 117.802 34.3231C117.379 34.1939 117.195 34.8655 117.621 34.9922Z" fill="#002247"/>
<path d="M129.113 86.4053C123.367 84.3323 117.372 86.494 111.552 86.9832C105.354 87.5052 99.1193 86.5726 93.3129 84.35C92.8977 84.1904 92.7166 84.8619 93.1292 85.0191C98.7017 87.1504 104.679 88.1084 110.634 87.7434C116.685 87.3734 122.977 84.9253 128.929 87.0719C129.349 87.2264 129.528 86.5549 129.113 86.4053Z" fill="#002247"/>
<path d="M103.731 29.0391C105.854 30.6382 108.194 31.8724 110.624 32.9267C111.668 33.3803 112.722 33.801 113.782 34.2141C114.919 34.6576 116.058 35.2101 117.294 35.243C117.739 35.2557 117.736 34.5588 117.294 34.5486C116.063 34.5157 114.886 33.9075 113.759 33.4665C112.551 32.9926 111.346 32.506 110.164 31.9713C108.018 30.9981 105.965 29.8627 104.078 28.441C103.723 28.1698 103.379 28.773 103.731 29.0391Z" fill="#002247"/>
<path d="M103.776 28.2915C99.3811 28.8009 94.5658 29.1633 90.8575 31.8496C88.8122 33.3322 87.1593 35.2836 85.4687 37.1463C83.4963 39.3156 81.5239 41.4875 79.554 43.6569C79.3703 43.8596 79.4584 44.1485 79.7075 44.2372C84.3315 45.9073 86.1781 51.5892 91.0814 52.7854C91.5116 52.8893 91.6978 52.2202 91.2651 52.1163C86.4247 50.9379 84.5202 45.2408 79.8911 43.5682C79.9414 43.7608 79.9917 43.9559 80.0446 44.1485C81.7981 42.2199 83.5491 40.2913 85.3026 38.3602C87.031 36.4595 88.699 34.427 90.7166 32.8278C94.4073 29.9033 99.2804 29.5079 103.779 28.9859C104.211 28.9352 104.216 28.2408 103.776 28.2915Z" fill="#002247"/>
<path d="M91.2928 52.0555C93.2752 48.7761 97.4389 48.0031 99.8415 45.1267C100.126 44.7871 99.6402 44.2929 99.3534 44.6351C96.9055 47.5647 92.7318 48.3377 90.6965 51.7032C90.4651 52.0884 91.0613 52.4381 91.2928 52.0555Z" fill="#002247"/>
<path d="M94.0325 49.0397C93.6953 52.499 94.4853 55.938 94.2312 59.3999C94.1985 59.8459 94.8878 59.8434 94.9205 59.3999C95.1746 55.938 94.3847 52.499 94.7218 49.0397C94.7646 48.5962 94.0752 48.5987 94.0325 49.0397Z" fill="#002247"/>
<path d="M93.7381 67.4589C93.6525 73.0926 93.2399 78.7086 92.4978 84.2917C92.4399 84.7326 93.1292 84.7301 93.1871 84.2917C93.9293 78.7086 94.3419 73.0926 94.4274 67.4589C94.4349 67.0103 93.7431 67.0103 93.7381 67.4589Z" fill="#002247"/>
<path d="M85.4486 55.084C86.4625 53.9942 87.4738 52.9019 88.4877 51.8122C88.7896 51.4853 88.304 50.9936 87.9996 51.3205C86.9857 52.4103 85.9744 53.5026 84.9605 54.5923C84.6586 54.9192 85.1467 55.4134 85.4486 55.084Z" fill="#002247"/>
<path d="M80.9301 53.7256C83.7126 55.2487 86.495 56.7719 89.2775 58.2975C91.582 59.5596 94.0098 61.2652 96.6614 61.6428C99.1319 61.995 101.348 60.8571 103.504 59.8029C104.893 59.1237 106.305 58.5433 107.804 58.1708C108.619 57.968 113.666 56.7566 113.12 59.0907C113.019 59.5266 113.683 59.7116 113.784 59.2757C114.385 56.7136 110.981 56.9214 109.459 57.1419C106.239 57.6107 103.673 59.1668 100.709 60.3452C99.0565 61.0016 97.3935 61.2271 95.6652 60.7076C93.9921 60.2058 92.4651 59.2529 90.938 58.4191C87.7152 56.6553 84.495 54.8914 81.2722 53.125C80.8873 52.9121 80.5376 53.5128 80.9301 53.7256Z" fill="#002247"/>
<path d="M110.629 60.5707C111.336 60.2767 112.27 59.8332 113.047 59.8256C113.751 59.818 114.114 60.2261 114.184 60.8824C114.227 61.2727 114.134 61.7213 113.711 61.8531C113.289 61.9848 113.47 62.6564 113.895 62.5221C115.148 62.1318 115.032 60.6442 114.526 59.6786C114.262 59.1743 113.905 59.0096 113.351 59.0679C112.358 59.1743 111.366 59.5164 110.448 59.8991C110.041 60.0689 110.217 60.7405 110.629 60.5707Z" fill="#002247"/>
<path d="M111.092 63.2571C111.56 63.0822 112.033 62.9276 112.516 62.8034C112.748 62.7451 113.004 62.6564 113.246 62.6387C113.867 62.5981 113.995 62.7223 113.945 63.3331C113.9 63.8653 113.782 63.8374 113.334 63.9844C113.08 64.068 112.826 64.1491 112.572 64.2302C112.021 64.4076 111.47 64.585 110.921 64.7624C110.501 64.8993 110.68 65.5683 111.105 65.4315C112.063 65.1223 113.087 64.8815 114.008 64.4761C114.582 64.2252 114.934 63.7436 114.783 63.0949C114.637 62.479 114.28 61.8581 113.585 61.886C112.695 61.924 111.739 62.2763 110.911 62.5855C110.496 62.7426 110.675 63.4142 111.092 63.2571Z" fill="#002247"/>
<path d="M113.029 64.8234C113.726 64.798 114.348 65.4975 114.053 66.1868C113.799 66.7824 112.939 67.0763 112.375 67.2031C111.386 67.4235 110.325 67.4539 109.318 67.5629C107.253 67.7859 105.177 68.0672 103.097 68.0064C98.8904 67.8848 94.6438 66.6556 90.5556 65.7382C86.4925 64.8259 82.4446 63.8248 78.4747 62.5577C76.5098 61.9292 74.4695 61.3108 72.6002 60.4264C71.7147 60.0082 70.7209 59.3721 70.6832 58.2671C70.6429 57.1292 71.6644 55.9255 72.2732 55.0308C74.8242 51.2649 77.7954 47.8157 81.0986 44.7011C81.4232 44.3944 80.9351 43.9028 80.6106 44.2094C77.0029 47.613 73.7676 51.4271 71.0656 55.6011C70.1247 57.0557 69.4203 58.7841 70.887 60.1527C72.4191 61.582 75.0255 62.1421 76.9501 62.7883C82.0194 64.4939 87.2272 65.7306 92.4475 66.866C95.079 67.4387 97.7181 68.0799 100.385 68.4575C102.943 68.8199 105.437 68.6755 107.995 68.4018C109.329 68.2599 110.674 68.1585 112 67.9659C112.888 67.8366 113.792 67.5933 114.403 66.8787C115.384 65.7332 114.529 64.0757 113.034 64.129C112.587 64.1442 112.584 64.8386 113.029 64.8234Z" fill="#002247"/>
<path d="M141.048 42.8788C141.415 43.6619 142.017 44.3006 142.766 44.7238C143.154 44.9417 143.503 44.3436 143.113 44.1232C142.459 43.7531 141.964 43.2108 141.642 42.5266C141.453 42.1236 140.859 42.4759 141.048 42.8788Z" fill="#002247"/>
<path d="M141.692 42.6457C142.017 42.0248 142.995 42.7699 143.383 42.9878C144.303 43.5099 144.88 44.0903 144.656 45.2307C144.384 46.6144 143.846 47.9703 143.169 49.1969C142.547 50.3246 141.73 51.3307 141.134 52.4737C140.53 53.6293 140.361 54.9345 139.712 56.0673C138.243 58.6346 136.509 61.0903 134.814 63.5105C133.136 65.9029 131.392 68.2421 129.151 70.1326C128.811 70.419 129.299 70.9107 129.639 70.6243C132.293 68.3865 134.286 65.5126 136.24 62.6666C137.34 61.0675 138.411 59.4455 139.45 57.8058C139.933 57.0456 140.462 56.2853 140.794 55.4413C141.111 54.6354 141.254 53.7915 141.642 53.0059C142.99 50.2689 145.378 47.8157 145.456 44.5566C145.491 43.1703 144.233 42.6381 143.156 42.078C142.253 41.6066 141.637 41.2671 141.101 42.296C140.889 42.6913 141.486 43.0411 141.692 42.6457Z" fill="#002247"/>
<path d="M141.023 41.0162C141.81 40.4865 142.806 40.3928 143.606 40.9604C143.934 41.1936 144.183 41.5002 144.349 41.8677C144.412 42.0096 144.688 42.7268 144.507 42.8282C144.12 43.0462 144.467 43.6468 144.854 43.4288C145.79 42.9017 144.89 41.2291 144.406 40.7323C143.405 39.7009 141.838 39.635 140.673 40.4181C140.308 40.6614 140.653 41.2646 141.023 41.0162Z" fill="#002247"/>
<path d="M143.212 39.6729C142.563 38.8417 141.682 38.4793 140.658 38.6896C139.601 38.9076 138.054 39.3333 137.395 40.2761C136.887 41.0034 137.023 41.6345 137.901 41.9006C138.91 42.2047 140.14 41.5812 141.025 41.1301C141.423 40.9274 141.073 40.3293 140.678 40.5295C140.193 40.7753 139.664 41.011 139.133 41.1428C138.771 41.234 137.828 41.5382 137.906 40.7475C137.936 40.4332 138.723 40.0885 138.962 39.9796C140.238 39.4068 141.725 38.8848 142.726 40.162C142.998 40.5168 143.483 40.0226 143.212 39.6729Z" fill="#002247"/>
<path d="M139.241 41.8296C138.849 42.4227 138.967 43.3553 139.604 43.7405C140.195 44.0978 141.035 43.8165 141.483 43.3452C141.79 43.0233 141.302 42.5291 140.995 42.8535C140.776 43.0841 140.331 43.3097 140.009 43.1703C139.629 43.0056 139.646 42.4683 139.835 42.1794C140.084 41.8068 139.488 41.4596 139.241 41.8296Z" fill="#002247"/>
<path d="M140.502 38.0257C139 38.0054 137.103 38.1777 135.88 39.156C135.002 39.858 134.731 41.0263 135.45 41.9335C135.727 42.2833 136.212 41.7891 135.938 41.4419C134.977 40.2305 136.763 39.346 137.641 39.085C138.577 38.8088 139.531 38.7048 140.504 38.7201C140.945 38.7277 140.945 38.0307 140.502 38.0257Z" fill="#002247"/>
<path d="M136.039 42.1211C137.065 42.1642 136.872 43.9863 136.726 44.6224C136.625 45.0583 137.292 45.2433 137.39 44.8074C137.657 43.6493 137.652 41.4951 136.036 41.4267C135.594 41.4064 135.596 42.1008 136.039 42.1211Z" fill="#002247"/>
<path d="M135.229 41.5484C134.54 43.0411 134.097 44.6047 133.757 46.2115C133.445 47.694 132.977 49.354 133.191 50.8796C133.307 51.7058 133.845 52.4737 133.624 53.2796C133.405 54.0754 132.794 54.9396 132.368 55.639C131.392 57.2458 130.23 58.7157 128.924 60.0664C128.615 60.3883 129.103 60.8799 129.412 60.5581C130.56 59.3695 131.604 58.0897 132.512 56.706C133.015 55.9381 133.475 55.1448 133.89 54.3263C134.13 53.8574 134.512 53.2619 134.494 52.7094C134.467 51.9237 133.885 51.2648 133.84 50.4412C133.79 49.5162 133.994 48.5937 134.167 47.6889C134.547 45.7046 134.975 43.738 135.825 41.8981C136.011 41.4977 135.418 41.1429 135.229 41.5484Z" fill="#002247"/>
<path d="M114.383 23.0075C114.383 23.0075 112.959 24.5509 113.14 26.7582C113.322 28.9656 114.871 30.7016 114.871 30.7016L116.127 26.6138L114.383 23.0075Z" fill="#76461D"/>
<path d="M117.385 14.434C117.395 14.51 117.412 14.5835 117.427 14.657C117.44 14.7153 117.457 14.8116 117.455 14.804C117.488 15.098 117.445 15.4021 117.41 15.6935C117.357 16.137 118.049 16.132 118.099 15.6935C118.134 15.3869 118.174 15.0752 118.139 14.766C118.119 14.5911 118.071 14.4213 118.049 14.249C118.024 14.0615 117.787 13.9626 117.624 14.0057C117.427 14.0589 117.359 14.249 117.385 14.434Z" fill="#002247"/>
<path d="M121.87 14.7457C121.989 15.1866 121.82 15.6403 121.941 16.0914C122.056 16.5222 122.723 16.3397 122.605 15.9064C122.487 15.4654 122.655 15.0118 122.534 14.5607C122.419 14.1298 121.755 14.3123 121.87 14.7457Z" fill="#002247"/>
<path d="M120.685 15.9444C120.856 16.6794 121.025 17.4143 121.196 18.1493C121.236 18.3267 121.447 18.4458 121.621 18.3926C122.069 18.2507 122.59 18.608 122.29 19.0895C122.255 19.3455 122.119 19.4291 121.878 19.3429C121.661 19.4038 121.498 19.3379 121.382 19.1427C121.083 18.8107 120.597 19.3024 120.894 19.6344C121.548 20.3592 122.766 20.2147 123.053 19.2111C123.342 18.2 122.371 17.4295 121.435 17.7235C121.576 17.8046 121.717 17.8857 121.86 17.9668C121.689 17.2319 121.52 16.4969 121.349 15.762C121.249 15.3235 120.585 15.5085 120.685 15.9444Z" fill="#002247"/>
<path d="M120.909 22.3385C119.681 22.1839 118.537 21.7024 117.563 20.9319C117.218 20.6582 116.725 21.1474 117.075 21.4236C118.207 22.3207 119.48 22.8529 120.909 23.0354C121.347 23.0886 121.344 22.3942 120.909 22.3385Z" fill="#002247"/>
<path d="M114.894 11.299C117.49 13.1516 121.259 13.1288 124.263 12.5561C127.531 11.9326 130.338 8.38715 130.376 5.03681C130.378 4.77324 130.082 4.60345 129.858 4.73776C127.687 6.02012 125.611 4.10166 123.968 2.83451C122.753 1.89682 121.405 1.16188 119.95 0.675294C116.999 -0.310546 113.736 -0.231983 110.871 1.00982C108.181 2.17559 105.847 4.30947 104.687 7.04397C103.603 9.60107 104.302 12.5028 105.188 15.0169C105.595 16.1725 106.063 17.3408 106.682 18.4001C107.532 19.8523 108.841 20.5644 109.044 22.3714C109.095 22.8098 109.784 22.8149 109.734 22.3714C109.553 20.7697 108.886 20.0981 107.897 18.9349C106.891 17.7514 106.297 16.1294 105.796 14.6798C105.233 13.0477 104.77 11.2914 104.818 9.55039C104.876 7.43932 106.113 5.48285 107.575 4.04337C110.788 0.880572 115.54 -0.0621839 119.764 1.34942C122.033 2.10717 123.586 3.64549 125.548 4.90756C126.97 5.81991 128.678 6.2406 130.202 5.34093C130.029 5.24209 129.855 5.14072 129.684 5.04188C129.664 6.84123 128.748 8.37448 127.624 9.71765C126.351 11.2408 124.917 11.8236 122.982 12.0517C120.418 12.3558 117.412 12.2545 115.236 10.701C114.879 10.4399 114.534 11.0405 114.894 11.299Z" fill="#002247"/>
<path d="M114.164 16.7604C113.153 15.3437 111.565 16.6387 111.299 17.9312C111.002 19.3834 112.036 21.0535 113.656 20.5745C114.081 20.4503 113.9 19.7787 113.472 19.9054C112.547 20.1791 111.905 19.3251 111.928 18.4609C111.938 18.0985 112.038 17.7133 112.23 17.4041C112.491 16.9809 113.168 16.5526 113.568 17.1127C113.827 17.47 114.426 17.1228 114.164 16.7604Z" fill="#002247"/>
<path d="M124.879 12.2291C124.799 16.3144 123.951 20.5112 122.253 24.2315C121.855 25.1033 121.405 25.9523 120.882 26.7557C120.353 27.5666 119.734 28.8743 118.68 28.4435C116.658 27.6148 115.055 24.9664 114.713 22.9061C114.64 22.4651 113.976 22.6526 114.049 23.0911C114.446 25.4834 116.049 27.5311 118.031 28.849C118.67 29.2747 119.246 29.6523 119.905 29.1176C120.7 28.4714 121.334 27.3791 121.85 26.5124C124.356 22.2978 125.478 17.1051 125.574 12.2291C125.579 11.7805 124.889 11.7805 124.879 12.2291Z" fill="#002247"/>
<path d="M109.102 22.3359C108.604 25.0603 107.638 27.6909 105.716 29.7285C105.409 30.0529 105.897 30.5445 106.204 30.2201C108.207 28.0964 109.246 25.3644 109.769 22.5209C109.847 22.0851 109.183 21.8975 109.102 22.3359Z" fill="#002247"/>
<path d="M114.174 16.5476C114.743 14.8395 115.261 13.1415 115.251 11.3244C115.249 10.8784 114.559 10.8759 114.562 11.3244C114.574 13.0782 114.059 14.7178 113.51 16.3626C113.367 16.7884 114.033 16.9708 114.174 16.5476Z" fill="#002247"/>
<path d="M115.747 26.5758C114.917 29.0036 114.464 31.467 114.371 34.0291C114.353 34.4777 115.045 34.4752 115.06 34.0291C115.153 31.5253 115.603 29.1278 116.411 26.7608C116.557 26.3376 115.89 26.1551 115.747 26.5758Z" fill="#002247"/>
<path d="M118.05 18.5463C118.295 18.1912 118.058 17.5976 117.519 17.2203C116.981 16.843 116.346 16.8249 116.101 17.18C115.856 17.535 116.093 18.1287 116.632 18.506C117.17 18.8832 117.805 18.9013 118.05 18.5463Z" fill="#76461D"/>
<path d="M122.051 9.71518C119.156 10.1714 116.293 9.45415 113.92 7.7359C113.558 7.47487 113.213 8.07803 113.573 8.33653C116.107 10.1714 119.161 10.8734 122.238 10.3868C122.673 10.3158 122.487 9.64675 122.051 9.71518Z" fill="#002247"/>
<path d="M116.868 117.453C116.005 121.252 115.137 125.048 114.269 128.847C113.648 131.564 113.024 134.278 112.395 136.992C111.653 140.188 110.785 143.277 108.986 146.052C106.709 149.562 103.69 152.203 100.604 154.95C96.4097 158.688 92.1806 162.393 88.11 166.271C85.8911 168.384 83.8684 170.673 81.7022 172.837C78.2833 176.258 74.5875 179.381 71.3371 182.972C71.4855 182.972 71.634 182.972 71.7824 182.972C70.9245 181.986 69.7119 181.393 68.5672 180.815C67.0024 180.024 65.3822 179.294 63.9532 178.261C61.1053 176.195 60.4789 172.913 59.5405 169.725C59.4248 169.335 58.8184 169.502 58.9342 169.892C59.7895 172.792 60.3682 175.926 62.6928 178.05C64.0035 179.246 65.6287 180.057 67.2011 180.84C68.62 181.547 70.2729 182.194 71.3371 183.42C71.4453 183.545 71.6717 183.539 71.7824 183.42C74.6706 180.227 77.9059 177.404 80.9953 174.416C83.1589 172.325 85.1288 170.049 87.2798 167.946C91.3554 163.962 95.6474 160.201 99.9041 156.415C102.931 153.721 105.967 151.164 108.43 147.92C112.068 143.13 112.984 137.251 114.3 131.521C115.364 126.888 116.42 122.253 117.475 117.617C117.565 117.225 116.959 117.055 116.868 117.453Z" fill="#002247"/>
<path d="M98.5605 101.669C97.7126 111.994 96.6258 122.301 95.1213 132.552C94.9729 133.561 94.827 134.569 94.666 135.573C94.3892 137.289 93.6295 138.285 92.369 139.412C90.3061 141.252 88.2456 143.097 86.1902 144.95C81.8857 148.83 77.6012 152.73 73.3118 156.625C68.5318 160.964 63.7467 165.298 58.9239 169.588C58.6195 169.859 59.0673 170.305 59.3692 170.037C68.2223 162.16 76.9497 154.142 85.7449 146.202C87.979 144.187 90.2155 142.177 92.4621 140.175C93.2923 139.435 94.2308 138.728 94.7389 137.709C95.227 136.729 95.3025 135.57 95.4635 134.501C96.1579 129.927 96.7667 125.339 97.3076 120.745C98.0548 114.399 98.6661 108.04 99.1894 101.672C99.2221 101.264 98.5932 101.266 98.5605 101.669Z" fill="#002247"/>
<path d="M100.792 153.25C99.773 152.256 99.1591 151.017 98.9654 149.605C98.9101 149.202 98.3037 149.375 98.3591 149.773C98.5679 151.285 99.2598 152.636 100.347 153.698C100.636 153.979 101.081 153.533 100.792 153.25Z" fill="#002247"/>
<path d="M75.8728 178.321C73.5633 176.641 71.4501 174.71 69.5858 172.538C67.7518 170.402 65.626 167.822 65.0926 164.976C65.0171 164.575 64.4108 164.745 64.4863 165.143C65.0222 167.989 67.0499 170.488 68.8638 172.655C70.8287 175.001 73.0879 177.069 75.5559 178.866C75.8829 179.107 76.1974 178.557 75.8728 178.321Z" fill="#002247"/>
<path d="M62.2573 173.078C68.1997 167.736 74.142 162.396 80.0869 157.054C82.9348 154.494 85.7827 151.934 88.6306 149.375C91.3426 146.937 94.1276 144.552 96.6384 141.899C98.1604 140.292 99.7681 138.49 100.462 136.338C100.865 135.091 101.099 133.781 101.356 132.499C102.218 128.17 102.915 123.804 103.592 119.442C104.156 115.808 104.747 112.164 105.157 108.507C105.207 108.063 104.515 108.066 104.468 108.507C103.627 116.008 102.362 123.517 100.958 130.93C100.674 132.43 100.389 133.938 100.005 135.418C99.4863 137.403 98.3164 138.997 96.9705 140.515C94.7062 143.069 92.1124 145.322 89.5765 147.596C86.7437 150.138 83.9159 152.685 81.0831 155.226C74.6452 161.012 68.2072 166.801 61.7693 172.586C61.4372 172.885 61.9278 173.374 62.2573 173.078Z" fill="#002247"/>
<path d="M67.8728 180.828C66.4589 182.635 65.2463 184.561 64.1545 186.581C63.9406 186.973 64.5369 187.326 64.7507 186.93C65.8149 184.964 66.9847 183.078 68.3634 181.319C68.6326 180.972 68.147 180.478 67.8728 180.828Z" fill="#002247"/>
<path d="M60.6047 174.583C59.2537 176.274 57.7794 177.647 56.0561 178.947C55.7039 179.213 56.0485 179.817 56.4033 179.548C58.1694 178.215 59.7015 176.811 61.0902 175.075C61.3669 174.73 60.8814 174.236 60.6047 174.583Z" fill="#002247"/>
<path d="M55.4546 178.248C54.9011 180.574 55.2081 183.04 56.4433 185.103C56.7377 185.597 57.2761 186.672 58.0006 186.548C58.8182 186.408 59.173 184.622 59.4044 184.056C59.2359 184.125 59.0673 184.196 58.8987 184.264C59.9126 185.014 60.9189 185.772 61.9177 186.543C62.3907 186.907 63.4096 187.409 63.709 187.944C64.026 188.509 63.7417 189.155 63.6536 189.766C63.319 192.133 63.3316 194.536 63.5807 196.91C64.1014 201.885 65.5833 206.688 67.0827 211.437C67.216 211.863 67.8827 211.68 67.7469 211.252C65.3971 203.804 62.9945 195.942 64.6549 188.083C64.6776 187.972 64.6625 187.822 64.5669 187.746C62.8184 186.352 61.0447 184.992 59.2459 183.664C59.0472 183.517 58.8157 183.686 58.7403 183.871C58.5969 184.221 58.4736 184.675 58.2748 185.002C57.832 185.739 57.6937 185.749 57.2509 185.09C56.8232 184.449 56.4886 183.742 56.2521 183.007C55.7766 181.514 55.7565 179.951 56.1163 178.433C56.2244 177.999 55.5578 177.814 55.4546 178.248Z" fill="#002247"/>
<path d="M55.2786 177.751C53.2987 178.605 51.3187 179.462 49.3388 180.316C48.3802 180.729 47.3362 181.074 46.4229 181.581C45.96 181.839 45.643 182.12 45.5323 182.663C45.4166 183.233 45.6355 183.841 45.8091 184.373C46.1135 185.306 46.4355 186.234 46.7525 187.161C47.389 189.019 48.0406 190.871 48.7375 192.709C50.0834 196.252 51.5929 199.741 53.4672 203.033C55.2358 206.143 57.3089 209.24 60.1064 211.506C62.0059 213.044 66.4614 215.74 67.8727 212.197C68.0388 211.782 67.3721 211.602 67.2086 212.012C66.1243 214.734 62.4763 212.436 61.0046 211.333C59.4171 210.145 58.0661 208.647 56.8812 207.058C54.549 203.925 52.72 200.41 51.1552 196.837C49.5325 193.132 48.2041 189.305 46.9085 185.476C46.6116 184.599 45.7588 183.068 46.5965 182.262C46.8858 181.986 47.4821 181.864 47.857 181.702C48.3903 181.472 48.9237 181.241 49.457 181.013C51.5124 180.126 53.5704 179.239 55.6258 178.349C56.0333 178.177 55.6836 177.576 55.2786 177.751Z" fill="#002247"/>
<path d="M48.6117 180.901C49.9577 187.295 51.925 193.54 54.5138 199.536C56.7202 204.645 59.2486 210.041 63.9204 213.315C64.2852 213.571 64.6299 212.968 64.2676 212.714C59.5932 209.437 57.0975 203.867 54.9239 198.753C52.4559 192.944 50.5766 186.897 49.2784 180.716C49.1853 180.28 48.5211 180.465 48.6117 180.901Z" fill="#002247"/>
<path d="M59.5076 189.515C60.2674 190.207 61.0951 190.813 61.9832 191.325C62.3706 191.548 62.7178 190.947 62.3304 190.724C61.4901 190.243 60.7127 189.678 59.9932 189.024C59.6687 188.725 59.1781 189.214 59.5076 189.515Z" fill="#002247"/>
<path d="M59.4876 192.328C60.4109 193.155 61.4373 193.796 62.577 194.272C62.9871 194.445 63.1657 193.77 62.7606 193.603C61.7367 193.175 60.8033 192.579 59.9756 191.837C59.6461 191.54 59.1555 192.029 59.4876 192.328Z" fill="#002247"/>
<path d="M59.8171 195.387C60.4109 195.423 61.0499 196.213 61.5555 196.518C62.0688 196.827 62.6197 197.047 63.1933 197.207C63.621 197.326 63.8047 196.657 63.377 196.538C62.6147 196.325 61.9128 195.988 61.2939 195.491C60.8209 195.111 60.4511 194.731 59.8196 194.695C59.3743 194.668 59.3743 195.362 59.8171 195.387Z" fill="#002247"/>
<path d="M60.1944 198.243C61.3442 199.138 62.5316 199.972 63.7619 200.747C64.1392 200.986 64.4864 200.385 64.109 200.147C62.8788 199.371 61.6913 198.535 60.5416 197.643C60.1919 197.372 59.8473 197.975 60.1944 198.243Z" fill="#002247"/>
<path d="M60.8813 201.751C61.943 202.39 63.065 202.894 64.2474 203.266C64.6726 203.401 64.8537 202.729 64.4311 202.597C63.3065 202.24 62.2449 201.759 61.231 201.15C60.8486 200.922 60.5014 201.523 60.8813 201.751Z" fill="#002247"/>
<path d="M74.263 224.41C77.7222 216.81 82.7866 209.79 89.7151 205.051C96.9103 200.132 106.043 197.975 114.544 200.251C114.571 200.043 114.599 199.835 114.627 199.627C114.108 199.676 113.59 199.724 113.069 199.772C112.669 199.81 112.667 200.444 113.069 200.406C113.588 200.357 114.106 200.309 114.627 200.261C114.964 200.231 115.074 199.736 114.71 199.638C101.192 196.016 87.7226 203.219 79.6494 213.967C77.2946 217.101 75.3423 220.518 73.7171 224.086C73.5535 224.458 74.0944 224.783 74.263 224.41Z" fill="#002247"/>
<path d="M111.119 197.912C111.879 197.899 112.44 198.596 112.956 199.072C113.452 199.529 113.947 199.987 114.443 200.443C114.516 200.264 114.591 200.084 114.664 199.904C113.19 199.83 111.781 200.155 110.48 200.849C110.123 201.039 110.44 201.586 110.797 201.396C112.007 200.75 113.298 200.469 114.664 200.537C114.933 200.55 115.084 200.18 114.886 199.997C114.169 199.336 113.464 198.659 112.732 198.016C112.251 197.592 111.776 197.268 111.117 197.281C110.714 197.286 110.714 197.919 111.119 197.912Z" fill="#002247"/>
<path d="M145.943 177.911C148.419 163.488 158.477 151.248 172.183 146.298C176.078 144.892 180.156 144.096 184.289 143.919C184.732 143.898 184.735 143.204 184.289 143.224C169.401 143.865 155.75 152.647 149.071 166.089C147.247 169.761 145.974 173.679 145.279 177.724C145.204 178.164 145.868 178.352 145.943 177.911Z" fill="#002247"/>
<path d="M180.12 142.17C182.068 142.476 183.887 143.105 185.607 144.076C185.635 143.863 185.663 143.652 185.69 143.439C183.899 143.863 182.274 144.623 180.802 145.738C180.453 146.004 180.795 146.607 181.149 146.339C182.573 145.262 184.138 144.519 185.874 144.111C186.163 144.043 186.211 143.619 185.957 143.475C184.189 142.476 182.309 141.815 180.307 141.498C179.869 141.432 179.68 142.101 180.12 142.17Z" fill="#002247"/>
<defs>
<linearGradient id="paint0_linear" x1="81.3271" y1="231.584" x2="77.1872" y2="250.292" gradientUnits="userSpaceOnUse">
<stop stop-color="#FF9900"/>
<stop offset="1" stop-color="#FFD467"/>
</linearGradient>
<linearGradient id="paint1_linear" x1="137.88" y1="207.261" x2="120.224" y2="242.672" gradientUnits="userSpaceOnUse">
<stop stop-color="#FF9900"/>
<stop offset="1" stop-color="#FFD467"/>
</linearGradient>
<linearGradient id="paint2_linear" x1="194.433" y1="165.217" x2="151.087" y2="209.545" gradientUnits="userSpaceOnUse">
<stop stop-color="#FF9900"/>
<stop offset="1" stop-color="#FFD467"/>
</linearGradient>
</defs>
</svg>
