<svg width="375" height="197" viewBox="0 0 375 197" fill="none" xmlns="http://www.w3.org/2000/svg">
<path opacity="0.8" d="M17.3325 194V186.245H18.0915L21.0725 191.844L24.0315 186.245H24.7905V194H23.9545V187.939L21.3695 192.801H20.7755L18.1575 187.95V194H17.3325ZM28.8217 194.099C28.301 194.099 27.85 193.985 27.4687 193.758C27.0873 193.531 26.7903 193.212 26.5777 192.801C26.3723 192.383 26.2697 191.892 26.2697 191.327C26.2697 190.762 26.3723 190.275 26.5777 189.864C26.7903 189.446 27.0873 189.123 27.4687 188.896C27.85 188.669 28.301 188.555 28.8217 188.555C29.335 188.555 29.7823 188.669 30.1637 188.896C30.5523 189.123 30.8493 189.446 31.0547 189.864C31.2673 190.275 31.3737 190.762 31.3737 191.327C31.3737 191.892 31.2673 192.383 31.0547 192.801C30.8493 193.212 30.5523 193.531 30.1637 193.758C29.7823 193.985 29.335 194.099 28.8217 194.099ZM28.8217 193.384C29.3203 193.384 29.72 193.208 30.0207 192.856C30.3213 192.497 30.4717 191.987 30.4717 191.327C30.4717 190.66 30.3213 190.15 30.0207 189.798C29.72 189.446 29.3203 189.27 28.8217 189.27C28.3157 189.27 27.9123 189.446 27.6117 189.798C27.3183 190.15 27.1717 190.66 27.1717 191.327C27.1717 191.987 27.3183 192.497 27.6117 192.856C27.9123 193.208 28.3157 193.384 28.8217 193.384ZM32.712 194V188.654H33.581V189.567C33.757 189.23 34.0063 188.977 34.329 188.808C34.6516 188.639 35.0146 188.555 35.418 188.555C36.6866 188.555 37.321 189.259 37.321 190.667V194H36.43V190.722C36.43 190.223 36.331 189.86 36.133 189.633C35.9423 189.398 35.6343 189.281 35.209 189.281C34.7176 189.281 34.3253 189.435 34.032 189.743C33.746 190.044 33.603 190.447 33.603 190.953V194H32.712ZM41.1089 194.099C40.4783 194.099 40.0053 193.934 39.6899 193.604C39.3746 193.267 39.2169 192.783 39.2169 192.152V189.347H38.1719V188.654H39.2169V187.015H40.1079V188.654H41.8019V189.347H40.1079V192.064C40.1079 192.482 40.1959 192.801 40.3719 193.021C40.5479 193.234 40.8339 193.34 41.2299 193.34C41.3473 193.34 41.4646 193.325 41.5819 193.296C41.6993 193.267 41.8056 193.237 41.9009 193.208L42.0549 193.89C41.9596 193.941 41.8203 193.989 41.6369 194.033C41.4536 194.077 41.2776 194.099 41.1089 194.099ZM42.8096 194V186.245H43.7006V189.534C43.8766 189.211 44.1223 188.969 44.4376 188.808C44.7603 188.639 45.1196 188.555 45.5156 188.555C46.7843 188.555 47.4186 189.259 47.4186 190.667V194H46.5276V190.722C46.5276 190.223 46.4286 189.86 46.2306 189.633C46.04 189.398 45.732 189.281 45.3066 189.281C44.8153 189.281 44.423 189.435 44.1296 189.743C43.8436 190.044 43.7006 190.447 43.7006 190.953V194H42.8096ZM52.4148 194V193.23H54.1858V187.334L52.7888 188.214L52.4038 187.543L54.4388 186.245H55.0878V193.23H56.7488V194H52.4148Z" fill="#727272"/>
<path d="M22.8981 134V129.658L19.3881 124.835H20.6361L23.4571 128.722L26.2651 124.835H27.4741L23.9641 129.684V134H22.8981ZM29.8869 134.117C29.2716 134.117 28.7386 133.983 28.2879 133.714C27.8373 133.445 27.4863 133.068 27.2349 132.583C26.9923 132.089 26.8709 131.508 26.8709 130.841C26.8709 130.174 26.9923 129.597 27.2349 129.112C27.4863 128.618 27.8373 128.237 28.2879 127.968C28.7386 127.699 29.2716 127.565 29.8869 127.565C30.4936 127.565 31.0223 127.699 31.4729 127.968C31.9323 128.237 32.2833 128.618 32.5259 129.112C32.7773 129.597 32.9029 130.174 32.9029 130.841C32.9029 131.508 32.7773 132.089 32.5259 132.583C32.2833 133.068 31.9323 133.445 31.4729 133.714C31.0223 133.983 30.4936 134.117 29.8869 134.117ZM29.8869 133.272C30.4763 133.272 30.9486 133.064 31.3039 132.648C31.6593 132.223 31.8369 131.621 31.8369 130.841C31.8369 130.052 31.6593 129.45 31.3039 129.034C30.9486 128.618 30.4763 128.41 29.8869 128.41C29.2889 128.41 28.8123 128.618 28.4569 129.034C28.1103 129.45 27.9369 130.052 27.9369 130.841C27.9369 131.621 28.1103 132.223 28.4569 132.648C28.8123 133.064 29.2889 133.272 29.8869 133.272ZM36.7206 134.117C35.2039 134.117 34.4456 133.281 34.4456 131.608V127.682H35.4986V131.595C35.4986 132.158 35.6112 132.574 35.8366 132.843C36.0706 133.112 36.4346 133.246 36.9286 133.246C37.4659 133.246 37.9036 133.068 38.2416 132.713C38.5796 132.349 38.7486 131.868 38.7486 131.27V127.682H39.8016V134H38.7746V132.934C38.5752 133.315 38.2936 133.61 37.9296 133.818C37.5742 134.017 37.1712 134.117 36.7206 134.117ZM41.7717 134V127.682H42.7987V128.813C43.1367 128.05 43.83 127.63 44.8787 127.552L45.2557 127.513L45.3337 128.423L44.6707 128.501C44.0727 128.553 43.6177 128.744 43.3057 129.073C42.9937 129.394 42.8377 129.836 42.8377 130.399V134H41.7717ZM20.2879 153.117C19.5685 153.117 18.9185 153.026 18.3379 152.844C17.7572 152.653 17.2545 152.38 16.8299 152.025L17.2069 151.167C17.6489 151.505 18.1125 151.756 18.5979 151.921C19.0832 152.086 19.6465 152.168 20.2879 152.168C21.0679 152.168 21.6442 152.025 22.0169 151.739C22.3982 151.444 22.5889 151.059 22.5889 150.582C22.5889 150.201 22.4502 149.897 22.1729 149.672C21.9042 149.447 21.4492 149.269 20.8079 149.139L19.4559 148.866C18.6412 148.693 18.0302 148.411 17.6229 148.021C17.2242 147.622 17.0249 147.094 17.0249 146.435C17.0249 145.889 17.1635 145.412 17.4409 145.005C17.7269 144.598 18.1212 144.281 18.6239 144.056C19.1265 143.831 19.7072 143.718 20.3659 143.718C20.9812 143.718 21.5532 143.818 22.0819 144.017C22.6105 144.208 23.0569 144.485 23.4209 144.849L23.0439 145.681C22.6539 145.326 22.2422 145.07 21.8089 144.914C21.3755 144.749 20.8902 144.667 20.3529 144.667C19.6682 144.667 19.1222 144.827 18.7149 145.148C18.3075 145.46 18.1039 145.876 18.1039 146.396C18.1039 146.812 18.2295 147.141 18.4809 147.384C18.7409 147.627 19.1612 147.804 19.7419 147.917L21.0939 148.203C21.9692 148.385 22.6149 148.662 23.0309 149.035C23.4555 149.399 23.6679 149.897 23.6679 150.53C23.6679 151.041 23.5292 151.492 23.2519 151.882C22.9832 152.272 22.5932 152.575 22.0819 152.792C21.5792 153.009 20.9812 153.117 20.2879 153.117ZM27.8569 153.117C27.2243 153.117 26.6783 152.983 26.2189 152.714C25.7596 152.437 25.4043 152.051 25.1529 151.557C24.9103 151.054 24.7889 150.469 24.7889 149.802C24.7889 148.797 25.0619 148.008 25.6079 147.436C26.1539 146.855 26.9036 146.565 27.8569 146.565C28.2469 146.565 28.6326 146.634 29.0139 146.773C29.3953 146.912 29.7116 147.107 29.9629 147.358L29.5989 148.125C29.3476 147.882 29.0703 147.705 28.7669 147.592C28.4723 147.479 28.1906 147.423 27.9219 147.423C27.2633 147.423 26.7563 147.631 26.4009 148.047C26.0456 148.454 25.8679 149.044 25.8679 149.815C25.8679 150.569 26.0456 151.167 26.4009 151.609C26.7563 152.042 27.2633 152.259 27.9219 152.259C28.1906 152.259 28.4723 152.203 28.7669 152.09C29.0703 151.977 29.3476 151.795 29.5989 151.544L29.9629 152.311C29.7116 152.562 29.3909 152.762 29.0009 152.909C28.6196 153.048 28.2383 153.117 27.8569 153.117ZM33.6955 153.117C33.0802 153.117 32.5472 152.983 32.0965 152.714C31.6459 152.445 31.2949 152.068 31.0435 151.583C30.8009 151.089 30.6795 150.508 30.6795 149.841C30.6795 149.174 30.8009 148.597 31.0435 148.112C31.2949 147.618 31.6459 147.237 32.0965 146.968C32.5472 146.699 33.0802 146.565 33.6955 146.565C34.3022 146.565 34.8309 146.699 35.2815 146.968C35.7409 147.237 36.0919 147.618 36.3345 148.112C36.5859 148.597 36.7115 149.174 36.7115 149.841C36.7115 150.508 36.5859 151.089 36.3345 151.583C36.0919 152.068 35.7409 152.445 35.2815 152.714C34.8309 152.983 34.3022 153.117 33.6955 153.117ZM33.6955 152.272C34.2849 152.272 34.7572 152.064 35.1125 151.648C35.4679 151.223 35.6455 150.621 35.6455 149.841C35.6455 149.052 35.4679 148.45 35.1125 148.034C34.7572 147.618 34.2849 147.41 33.6955 147.41C33.0975 147.41 32.6209 147.618 32.2655 148.034C31.9189 148.45 31.7455 149.052 31.7455 149.841C31.7455 150.621 31.9189 151.223 32.2655 151.648C32.6209 152.064 33.0975 152.272 33.6955 152.272ZM38.2932 153V146.682H39.3202V147.813C39.6582 147.05 40.3515 146.63 41.4002 146.552L41.7772 146.513L41.8552 147.423L41.1922 147.501C40.5942 147.553 40.1392 147.744 39.8272 148.073C39.5152 148.394 39.3592 148.836 39.3592 149.399V153H38.2932ZM45.7232 153.117C44.7265 153.117 43.9379 152.827 43.3572 152.246C42.7765 151.657 42.4862 150.859 42.4862 149.854C42.4862 149.204 42.6162 148.632 42.8762 148.138C43.1362 147.635 43.4915 147.25 43.9422 146.981C44.4015 146.704 44.9302 146.565 45.5282 146.565C46.3862 146.565 47.0579 146.842 47.5432 147.397C48.0285 147.943 48.2712 148.697 48.2712 149.659V150.062H43.5132C43.5479 150.781 43.7559 151.332 44.1372 151.713C44.5185 152.086 45.0472 152.272 45.7232 152.272C46.1045 152.272 46.4685 152.216 46.8152 152.103C47.1619 151.982 47.4912 151.787 47.8032 151.518L48.1672 152.259C47.8812 152.528 47.5172 152.74 47.0752 152.896C46.6332 153.043 46.1825 153.117 45.7232 153.117ZM45.5542 147.345C44.9562 147.345 44.4839 147.531 44.1372 147.904C43.7905 148.277 43.5869 148.766 43.5262 149.373H47.3612C47.3352 148.732 47.1662 148.233 46.8542 147.878C46.5509 147.523 46.1175 147.345 45.5542 147.345Z" fill="#0057B6"/>
<path opacity="0.8" d="M310.686 194V186.245H311.445L314.426 191.844L317.385 186.245H318.144V194H317.308V187.939L314.723 192.801H314.129L311.511 187.95V194H310.686ZM322.175 194.099C321.655 194.099 321.204 193.985 320.822 193.758C320.441 193.531 320.144 193.212 319.931 192.801C319.726 192.383 319.623 191.892 319.623 191.327C319.623 190.762 319.726 190.275 319.931 189.864C320.144 189.446 320.441 189.123 320.822 188.896C321.204 188.669 321.655 188.555 322.175 188.555C322.689 188.555 323.136 188.669 323.517 188.896C323.906 189.123 324.203 189.446 324.408 189.864C324.621 190.275 324.727 190.762 324.727 191.327C324.727 191.892 324.621 192.383 324.408 192.801C324.203 193.212 323.906 193.531 323.517 193.758C323.136 193.985 322.689 194.099 322.175 194.099ZM322.175 193.384C322.674 193.384 323.074 193.208 323.374 192.856C323.675 192.497 323.825 191.987 323.825 191.327C323.825 190.66 323.675 190.15 323.374 189.798C323.074 189.446 322.674 189.27 322.175 189.27C321.669 189.27 321.266 189.446 320.965 189.798C320.672 190.15 320.525 190.66 320.525 191.327C320.525 191.987 320.672 192.497 320.965 192.856C321.266 193.208 321.669 193.384 322.175 193.384ZM326.065 194V188.654H326.934V189.567C327.11 189.23 327.36 188.977 327.682 188.808C328.005 188.639 328.368 188.555 328.771 188.555C330.04 188.555 330.674 189.259 330.674 190.667V194H329.783V190.722C329.783 190.223 329.684 189.86 329.486 189.633C329.296 189.398 328.988 189.281 328.562 189.281C328.071 189.281 327.679 189.435 327.385 189.743C327.099 190.044 326.956 190.447 326.956 190.953V194H326.065ZM334.462 194.099C333.832 194.099 333.359 193.934 333.043 193.604C332.728 193.267 332.57 192.783 332.57 192.152V189.347H331.525V188.654H332.57V187.015H333.461V188.654H335.155V189.347H333.461V192.064C333.461 192.482 333.549 192.801 333.725 193.021C333.901 193.234 334.187 193.34 334.583 193.34C334.701 193.34 334.818 193.325 334.935 193.296C335.053 193.267 335.159 193.237 335.254 193.208L335.408 193.89C335.313 193.941 335.174 193.989 334.99 194.033C334.807 194.077 334.631 194.099 334.462 194.099ZM336.163 194V186.245H337.054V189.534C337.23 189.211 337.476 188.969 337.791 188.808C338.114 188.639 338.473 188.555 338.869 188.555C340.138 188.555 340.772 189.259 340.772 190.667V194H339.881V190.722C339.881 190.223 339.782 189.86 339.584 189.633C339.393 189.398 339.085 189.281 338.66 189.281C338.169 189.281 337.776 189.435 337.483 189.743C337.197 190.044 337.054 190.447 337.054 190.953V194H336.163ZM347.968 194.099C347.052 194.099 346.344 193.769 345.845 193.109C345.354 192.442 345.108 191.51 345.108 190.315C345.108 188.973 345.383 187.943 345.933 187.224C346.483 186.505 347.253 186.146 348.243 186.146C348.639 186.146 349.035 186.23 349.431 186.399C349.835 186.568 350.165 186.795 350.421 187.081L350.091 187.785C349.82 187.506 349.523 187.297 349.2 187.158C348.885 187.019 348.559 186.949 348.221 186.949C347.503 186.949 346.949 187.217 346.56 187.752C346.179 188.287 345.988 189.083 345.988 190.139V190.678C346.128 190.194 346.384 189.816 346.758 189.545C347.14 189.274 347.587 189.138 348.1 189.138C348.555 189.138 348.958 189.244 349.31 189.457C349.662 189.662 349.937 189.948 350.135 190.315C350.333 190.682 350.432 191.103 350.432 191.58C350.432 192.071 350.326 192.508 350.113 192.889C349.908 193.263 349.618 193.56 349.244 193.78C348.878 193.993 348.452 194.099 347.968 194.099ZM347.913 193.329C348.405 193.329 348.801 193.171 349.101 192.856C349.409 192.541 349.563 192.126 349.563 191.613C349.563 191.107 349.409 190.696 349.101 190.381C348.801 190.058 348.405 189.897 347.913 189.897C347.422 189.897 347.022 190.058 346.714 190.381C346.414 190.696 346.263 191.107 346.263 191.613C346.263 192.126 346.414 192.541 346.714 192.856C347.022 193.171 347.422 193.329 347.913 193.329Z" fill="#727272"/>
<path d="M359 175V6.691C190.988 -6.33291 153.083 168.989 24 175H359Z" fill="#DBF0FF"/>
<path d="M24.5334 175.475C24.8092 175.461 25.0215 175.226 25.0077 174.95C24.9939 174.675 24.7591 174.462 24.4833 174.476L24.5334 175.475ZM32.4627 173.851C32.1881 173.88 31.9894 174.126 32.0188 174.401C32.0482 174.676 32.2946 174.874 32.5692 174.845L32.4627 173.851ZM33.5573 174.736C33.8317 174.704 34.0287 174.456 33.9973 174.182C33.966 173.908 33.7182 173.711 33.4438 173.742L33.5573 174.736ZM41.3382 172.609C41.0661 172.656 40.8838 172.915 40.9309 173.187C40.978 173.459 41.2368 173.641 41.5089 173.594L41.3382 172.609ZM42.4959 173.42C42.7676 173.371 42.9481 173.11 42.899 172.839C42.8499 172.567 42.5899 172.386 42.3181 172.436L42.4959 173.42ZM50.1003 170.796C49.8318 170.86 49.6667 171.13 49.7314 171.399C49.7961 171.667 50.0662 171.833 50.3347 171.768L50.1003 170.796ZM51.3125 171.528C51.5804 171.462 51.7436 171.19 51.6769 170.922C51.6103 170.654 51.339 170.491 51.071 170.558L51.3125 171.528ZM58.7274 168.419C58.4636 168.501 58.3161 168.781 58.3979 169.045C58.4798 169.308 58.7599 169.456 59.0236 169.374L58.7274 168.419ZM59.9851 169.072C60.2483 168.988 60.3938 168.707 60.3101 168.444C60.2264 168.181 59.9453 168.035 59.6821 168.119L59.9851 169.072ZM67.2049 165.495C66.9467 165.593 66.8169 165.882 66.915 166.14C67.013 166.398 67.3017 166.528 67.5599 166.43L67.2049 165.495ZM68.4925 166.072C68.75 165.972 68.8779 165.683 68.7781 165.425C68.6784 165.168 68.3887 165.04 68.1313 165.14L68.4925 166.072ZM75.4892 162.064C75.2372 162.177 75.1246 162.473 75.2377 162.725C75.3507 162.977 75.6466 163.089 75.8986 162.976L75.4892 162.064ZM76.8114 162.563C77.0626 162.448 77.1733 162.152 77.0587 161.901C76.9441 161.649 76.6475 161.539 76.3962 161.653L76.8114 162.563ZM83.5629 158.169C83.3175 158.296 83.2213 158.597 83.3479 158.843C83.4745 159.088 83.7761 159.184 84.0215 159.058L83.5629 158.169ZM84.9111 158.595C85.1558 158.467 85.2503 158.165 85.1223 157.92C84.9942 157.676 84.6921 157.581 84.4474 157.709L84.9111 158.595ZM91.4256 153.856C91.1868 153.995 91.1056 154.301 91.2443 154.539C91.383 154.778 91.689 154.859 91.9278 154.721L91.4256 153.856ZM92.7927 154.215C93.0307 154.075 93.1103 153.769 92.9703 153.531C92.8304 153.293 92.524 153.213 92.2859 153.353L92.7927 154.215ZM99.0822 149.172C98.8498 149.322 98.7824 149.631 98.9316 149.863C99.0809 150.096 99.3902 150.163 99.6225 150.014L99.0822 149.172ZM100.462 149.472C100.694 149.321 100.76 149.012 100.61 148.78C100.459 148.548 100.15 148.482 99.9182 148.633L100.462 149.472ZM106.54 144.168C106.314 144.326 106.258 144.638 106.417 144.864C106.575 145.091 106.887 145.146 107.113 144.987L106.54 144.168ZM107.932 144.412C108.158 144.253 108.211 143.941 108.052 143.715C107.893 143.49 107.581 143.436 107.356 143.595L107.932 144.412ZM113.801 138.898C113.581 139.064 113.536 139.378 113.702 139.598C113.868 139.819 114.181 139.864 114.402 139.698L113.801 138.898ZM115.204 139.093C115.424 138.926 115.468 138.613 115.301 138.393C115.134 138.172 114.821 138.129 114.6 138.296L115.204 139.093ZM120.898 133.399C120.682 133.571 120.647 133.886 120.819 134.101C120.991 134.317 121.306 134.353 121.521 134.18L120.898 133.399ZM122.304 133.554C122.519 133.381 122.554 133.067 122.381 132.851C122.208 132.636 121.893 132.602 121.678 132.774L122.304 133.554ZM127.852 127.708C127.64 127.885 127.612 128.201 127.79 128.412C127.967 128.624 128.283 128.652 128.494 128.474L127.852 127.708ZM129.26 127.831C129.471 127.653 129.498 127.338 129.32 127.127C129.142 126.916 128.827 126.888 128.616 127.066L129.26 127.831ZM134.686 121.862C134.478 122.044 134.457 122.359 134.638 122.568C134.819 122.776 135.135 122.797 135.343 122.616L134.686 121.862ZM136.095 121.96C136.303 121.778 136.324 121.462 136.142 121.254C135.96 121.046 135.644 121.025 135.436 121.207L136.095 121.96ZM141.418 115.9C141.213 116.085 141.196 116.401 141.38 116.607C141.565 116.812 141.881 116.829 142.087 116.644L141.418 115.9ZM142.833 115.973C143.038 115.788 143.054 115.472 142.87 115.267C142.685 115.062 142.369 115.045 142.163 115.23L142.833 115.973ZM148.068 109.858C147.864 110.044 147.851 110.361 148.038 110.564C148.224 110.767 148.541 110.781 148.744 110.594L148.068 109.858ZM149.482 109.916C149.685 109.729 149.698 109.413 149.511 109.21C149.324 109.006 149.008 108.993 148.805 109.18L149.482 109.916ZM154.67 103.751C154.468 103.939 154.457 104.256 154.645 104.458C154.833 104.66 155.149 104.671 155.351 104.483L154.67 103.751ZM156.083 103.802C156.285 103.614 156.297 103.297 156.108 103.095C155.92 102.893 155.604 102.882 155.402 103.07L156.083 103.802ZM161.248 97.609C161.046 97.7977 161.036 98.1141 161.224 98.3157C161.413 98.5173 161.729 98.5278 161.931 98.3391L161.248 97.609ZM162.66 97.6569C162.862 97.4682 162.872 97.1517 162.683 96.9501C162.495 96.7485 162.178 96.7381 161.977 96.9268L162.66 97.6569ZM167.822 91.4579C167.62 91.6464 167.61 91.9628 167.798 92.1646C167.987 92.3664 168.303 92.3772 168.505 92.1887L167.822 91.4579ZM169.234 91.5077C169.436 91.3193 169.447 91.0029 169.258 90.801C169.07 90.5992 168.753 90.5883 168.552 90.7767L169.234 91.5077ZM174.407 85.3308C174.204 85.5184 174.192 85.8347 174.38 86.0374C174.567 86.24 174.884 86.2522 175.086 86.0647L174.407 85.3308ZM175.821 85.3852C176.024 85.1978 176.036 84.8814 175.849 84.6786C175.661 84.4759 175.345 84.4634 175.142 84.6509L175.821 85.3852ZM181.035 79.2414C180.831 79.4274 180.816 79.7436 181.002 79.9478C181.188 80.1519 181.504 80.1667 181.708 79.9808L181.035 79.2414ZM182.448 79.3084C182.652 79.1227 182.667 78.8065 182.481 78.6021C182.296 78.3977 181.98 78.3826 181.775 78.5683L182.448 79.3084ZM187.726 73.2156C187.52 73.3991 187.502 73.7152 187.685 73.9215C187.869 74.1278 188.185 74.1463 188.391 73.9628L187.726 73.2156ZM189.138 73.2998C189.344 73.1166 189.363 72.8006 189.18 72.5939C188.997 72.3873 188.681 72.3684 188.474 72.5516L189.138 73.2998ZM194.5 67.2789C194.291 67.4592 194.268 67.775 194.448 67.9841C194.629 68.1932 194.944 68.2165 195.153 68.0361L194.5 67.2789ZM195.91 67.3851C196.119 67.2052 196.143 66.8895 195.963 66.68C195.783 66.4706 195.467 66.4467 195.258 66.6266L195.91 67.3851ZM201.372 61.46C201.16 61.6364 201.13 61.9516 201.307 62.1641C201.483 62.3766 201.798 62.4058 202.011 62.2294L201.372 61.46ZM202.78 61.592C202.993 61.4161 203.023 61.1009 202.847 60.8881C202.671 60.6752 202.356 60.6453 202.143 60.8212L202.78 61.592ZM208.364 55.7816C208.148 55.9533 208.111 56.2678 208.283 56.4841C208.455 56.7004 208.769 56.7367 208.986 56.565L208.364 55.7816ZM209.769 55.9455C209.985 55.7745 210.022 55.4601 209.851 55.2433C209.68 55.0265 209.366 54.9894 209.149 55.1605L209.769 55.9455ZM215.492 50.2713C215.272 50.4372 215.227 50.7507 215.393 50.9714C215.559 51.1921 215.873 51.2364 216.093 51.0704L215.492 50.2713ZM216.892 50.4719C217.113 50.3066 217.158 49.9933 216.993 49.7721C216.828 49.5509 216.514 49.5056 216.293 49.6709L216.892 50.4719ZM222.773 44.9564C222.548 45.1158 222.494 45.4279 222.654 45.6533C222.813 45.8787 223.125 45.9322 223.35 45.7727L222.773 44.9564ZM224.165 45.1987C224.391 45.04 224.445 44.7281 224.287 44.5022C224.128 44.2762 223.816 44.2216 223.59 44.3803L224.165 45.1987ZM230.21 39.8715C229.98 40.0235 229.916 40.3337 230.068 40.5642C230.22 40.7947 230.531 40.8583 230.761 40.7062L230.21 39.8715ZM231.596 40.1577C231.827 40.0065 231.892 39.6966 231.741 39.4655C231.59 39.2345 231.28 39.1697 231.049 39.3209L231.596 40.1577ZM237.818 35.0431C237.582 35.1868 237.508 35.4945 237.651 35.7303C237.795 35.9661 238.103 36.0407 238.338 35.897L237.818 35.0431ZM239.192 35.3794C239.428 35.2367 239.504 34.9293 239.361 34.6929C239.218 34.4566 238.911 34.3806 238.675 34.5234L239.192 35.3794ZM245.605 30.499C245.364 30.6335 245.277 30.938 245.412 31.1792C245.546 31.4204 245.851 31.5069 246.092 31.3724L245.605 30.499ZM246.962 30.8896C247.204 30.7562 247.292 30.452 247.159 30.2102C247.025 29.9684 246.721 29.8806 246.479 30.014L246.962 30.8896ZM253.578 26.2661C253.332 26.3904 253.233 26.6911 253.357 26.9377C253.481 27.1842 253.782 27.2833 254.028 27.159L253.578 26.2661ZM254.916 26.7139C255.163 26.5907 255.264 26.2905 255.141 26.0434C255.018 25.7962 254.717 25.6957 254.47 25.8189L254.916 26.7139ZM261.704 22.3877C261.452 22.5011 261.34 22.7971 261.453 23.0489C261.567 23.3007 261.863 23.4128 262.114 23.2994L261.704 22.3877ZM263.028 22.8908C263.28 22.7786 263.394 22.4831 263.282 22.2308C263.169 21.9784 262.874 21.8648 262.622 21.977L263.028 22.8908ZM270.001 18.8747C269.744 18.9765 269.618 19.2671 269.72 19.5238C269.822 19.7805 270.113 19.9061 270.369 19.8043L270.001 18.8747ZM271.297 19.4394C271.554 19.3389 271.681 19.0489 271.581 18.7917C271.48 18.5345 271.19 18.4074 270.933 18.5079L271.297 19.4394ZM278.47 15.7451C278.209 15.8346 278.07 16.119 278.159 16.3802C278.249 16.6414 278.533 16.7806 278.794 16.691L278.47 15.7451ZM279.732 16.3724C279.994 16.2842 280.135 16.0006 280.046 15.7389C279.958 15.4772 279.675 15.3366 279.413 15.4247L279.732 16.3724ZM287.073 13.0252C286.808 13.102 286.655 13.3794 286.732 13.6446C286.809 13.9098 287.086 14.0625 287.351 13.9856L287.073 13.0252ZM288.319 13.7081C288.584 13.6326 288.739 13.3561 288.663 13.0905C288.588 12.8249 288.311 12.6707 288.046 12.7461L288.319 13.7081ZM295.769 10.7306C295.5 10.7946 295.334 11.0642 295.398 11.3328C295.462 11.6014 295.732 11.7673 296 11.7033L295.769 10.7306ZM296.973 11.4743C297.242 11.4118 297.41 11.1431 297.347 10.8741C297.284 10.6051 297.016 10.4378 296.747 10.5003L296.973 11.4743ZM304.598 8.85107C304.327 8.90204 304.148 9.16338 304.199 9.43478C304.25 9.70617 304.512 9.88486 304.783 9.83388L304.598 8.85107ZM305.756 9.65385C306.027 9.6043 306.207 9.34391 306.158 9.07225C306.108 8.80059 305.848 8.62053 305.576 8.67007L305.756 9.65385ZM313.52 7.39441C313.247 7.43244 313.056 7.685 313.094 7.95851C313.132 8.23202 313.385 8.42291 313.658 8.38488L313.52 7.39441ZM314.661 8.24807C314.935 8.21148 315.127 7.95994 315.091 7.68623C315.054 7.41252 314.803 7.2203 314.529 7.25689L314.661 8.24807ZM322.433 6.3643C322.158 6.38972 321.956 6.63323 321.982 6.9082C322.007 7.18317 322.25 7.38547 322.525 7.36005L322.433 6.3643ZM323.522 7.2705C323.797 7.24647 324 7.00398 323.976 6.72889C323.952 6.45379 323.71 6.25026 323.435 6.27429L323.522 7.2705ZM331.455 5.73494C331.179 5.74802 330.966 5.98223 330.979 6.25807C330.992 6.5339 331.226 6.7469 331.502 6.73382L331.455 5.73494ZM332.485 6.68955C332.761 6.67779 332.975 6.4446 332.963 6.16871C332.951 5.89282 332.718 5.6787 332.442 5.69046L332.485 6.68955ZM340.462 5.50226C340.185 5.50353 339.963 5.72841 339.964 6.00454C339.965 6.28068 340.19 6.50351 340.466 6.50225L340.462 5.50226ZM341.479 6.5C341.755 6.50004 341.979 6.27621 341.979 6.00007C341.979 5.72393 341.755 5.50004 341.479 5.5L341.479 6.5ZM349.443 5.64548C349.167 5.63551 348.936 5.85114 348.926 6.1271C348.916 6.40306 349.131 6.63486 349.407 6.64483L349.443 5.64548ZM350.399 6.68288C350.675 6.69406 350.908 6.47946 350.919 6.20354C350.931 5.92763 350.716 5.69488 350.44 5.6837L350.399 6.68288ZM358.527 6.15336C358.251 6.13261 358.011 6.33901 357.99 6.61437C357.97 6.88973 358.176 7.12978 358.451 7.15053L358.527 6.15336ZM24.0233 175.499C24.1935 175.492 24.3635 175.483 24.5334 175.475L24.4833 174.476C24.3146 174.485 24.1458 174.493 23.9767 174.501L24.0233 175.499ZM32.5692 174.845C32.8992 174.81 33.2285 174.773 33.5573 174.736L33.4438 173.742C33.1174 173.779 32.7903 173.816 32.4627 173.851L32.5692 174.845ZM41.5089 173.594C41.8385 173.537 42.1675 173.479 42.4959 173.42L42.3181 172.436C41.9921 172.494 41.6654 172.552 41.3382 172.609L41.5089 173.594ZM50.3347 171.768C50.6612 171.689 50.9871 171.609 51.3125 171.528L51.071 170.558C50.748 170.638 50.4244 170.717 50.1003 170.796L50.3347 171.768ZM59.0236 169.374C59.3447 169.274 59.6652 169.174 59.9851 169.072L59.6821 168.119C59.3644 168.22 59.0462 168.32 58.7274 168.419L59.0236 169.374ZM67.5599 166.43C67.8713 166.312 68.1822 166.192 68.4925 166.072L68.1313 165.14C67.823 165.259 67.5142 165.378 67.2049 165.495L67.5599 166.43ZM75.8986 162.976C76.2033 162.839 76.5076 162.702 76.8114 162.563L76.3962 161.653C76.0944 161.791 75.792 161.928 75.4892 162.064L75.8986 162.976ZM84.0215 159.058C84.3185 158.904 84.615 158.75 84.9111 158.595L84.4474 157.709C84.153 157.863 83.8582 158.017 83.5629 158.169L84.0215 159.058ZM91.9278 154.721C92.2165 154.553 92.5048 154.385 92.7927 154.215L92.2859 153.353C91.9995 153.522 91.7127 153.689 91.4256 153.856L91.9278 154.721ZM99.6225 150.014C99.9028 149.834 100.183 149.653 100.462 149.472L99.9182 148.633C99.6398 148.813 99.3612 148.993 99.0822 149.172L99.6225 150.014ZM107.113 144.987C107.386 144.796 107.659 144.605 107.932 144.412L107.356 143.595C107.084 143.787 106.812 143.978 106.54 144.168L107.113 144.987ZM114.402 139.698C114.67 139.497 114.937 139.295 115.204 139.093L114.6 138.296C114.334 138.497 114.068 138.698 113.801 138.898L114.402 139.698ZM121.521 134.18C121.783 133.972 122.043 133.764 122.304 133.554L121.678 132.774C121.418 132.983 121.158 133.191 120.898 133.399L121.521 134.18ZM128.494 128.474C128.75 128.26 129.005 128.046 129.26 127.831L128.616 127.066C128.361 127.281 128.107 127.494 127.852 127.708L128.494 128.474ZM135.343 122.616C135.594 122.397 135.845 122.179 136.095 121.96L135.436 121.207C135.187 121.426 134.937 121.644 134.686 121.862L135.343 122.616ZM142.087 116.644C142.335 116.421 142.584 116.197 142.833 115.973L142.163 115.23C141.915 115.454 141.667 115.677 141.418 115.9L142.087 116.644ZM148.744 110.594C148.99 110.368 149.236 110.142 149.482 109.916L148.805 109.18C148.559 109.406 148.313 109.632 148.068 109.858L148.744 110.594ZM155.351 104.483C155.595 104.256 155.839 104.029 156.083 103.802L155.402 103.07C155.158 103.297 154.914 103.524 154.67 103.751L155.351 104.483ZM161.931 98.3391C162.174 98.1118 162.417 97.8844 162.66 97.6569L161.977 96.9268C161.734 97.1543 161.491 97.3817 161.248 97.609L161.931 98.3391ZM168.505 92.1887C168.748 91.9617 168.991 91.7347 169.234 91.5077L168.552 90.7767C168.308 91.0038 168.065 91.2309 167.822 91.4579L168.505 92.1887ZM175.086 86.0647C175.331 85.8381 175.576 85.6116 175.821 85.3852L175.142 84.6509C174.897 84.8775 174.652 85.1041 174.407 85.3308L175.086 86.0647ZM181.708 79.9808C181.955 79.7566 182.201 79.5324 182.448 79.3084L181.775 78.5683C181.528 78.7925 181.282 79.0169 181.035 79.2414L181.708 79.9808ZM188.391 73.9628C188.64 73.7416 188.889 73.5206 189.138 73.2998L188.474 72.5516C188.225 72.7728 187.976 72.9941 187.726 73.2156L188.391 73.9628ZM195.153 68.0361C195.405 67.8189 195.657 67.6019 195.91 67.3851L195.258 66.6266C195.005 66.8438 194.753 67.0612 194.5 67.2789L195.153 68.0361ZM202.011 62.2294C202.267 62.0166 202.524 61.8042 202.78 61.592L202.143 60.8212C201.886 61.0338 201.629 61.2468 201.372 61.46L202.011 62.2294ZM208.986 56.565C209.246 56.3582 209.507 56.1517 209.769 55.9455L209.149 55.1605C208.887 55.3672 208.625 55.5743 208.364 55.7816L208.986 56.565ZM216.093 51.0704C216.359 50.8705 216.625 50.671 216.892 50.4719L216.293 49.6709C216.026 49.8706 215.759 50.0707 215.492 50.2713L216.093 51.0704ZM223.35 45.7727C223.622 45.5809 223.893 45.3896 224.165 45.1987L223.59 44.3803C223.317 44.5719 223.045 44.7639 222.773 44.9564L223.35 45.7727ZM230.761 40.7062C231.039 40.5229 231.317 40.34 231.596 40.1577L231.049 39.3209C230.769 39.5039 230.489 39.6874 230.21 39.8715L230.761 40.7062ZM238.338 35.897C238.622 35.7239 238.907 35.5514 239.192 35.3794L238.675 34.5234C238.389 34.6961 238.103 34.8693 237.818 35.0431L238.338 35.897ZM246.092 31.3724C246.382 31.2109 246.672 31.0499 246.962 30.8896L246.479 30.014C246.187 30.175 245.896 30.3367 245.605 30.499L246.092 31.3724ZM254.028 27.159C254.324 27.01 254.62 26.8616 254.916 26.7139L254.47 25.8189C254.172 25.9673 253.875 26.1164 253.578 26.2661L254.028 27.159ZM262.114 23.2994C262.418 23.1625 262.723 23.0263 263.028 22.8908L262.622 21.977C262.315 22.1132 262.009 22.2501 261.704 22.3877L262.114 23.2994ZM270.369 19.8043C270.678 19.6819 270.987 19.5603 271.297 19.4394L270.933 18.5079C270.622 18.6294 270.311 18.7517 270.001 18.8747L270.369 19.8043ZM278.794 16.691C279.107 16.5841 279.419 16.4779 279.732 16.3724L279.413 15.4247C279.098 15.5308 278.784 15.6376 278.47 15.7451L278.794 16.691ZM287.351 13.9856C287.673 13.8923 287.996 13.7998 288.319 13.7081L288.046 12.7461C287.721 12.8383 287.397 12.9314 287.073 13.0252L287.351 13.9856ZM296 11.7033C296.324 11.6262 296.648 11.5499 296.973 11.4743L296.747 10.5003C296.42 10.5763 296.094 10.653 295.769 10.7306L296 11.7033ZM304.783 9.83388C305.107 9.77309 305.431 9.71307 305.756 9.65385L305.576 8.67007C305.25 8.72962 304.924 8.78995 304.598 8.85107L304.783 9.83388ZM313.658 8.38488C313.992 8.33846 314.326 8.29285 314.661 8.24807L314.529 7.25689C314.192 7.3019 313.856 7.34774 313.52 7.39441L313.658 8.38488ZM322.525 7.36005C322.857 7.3294 323.189 7.29955 323.522 7.2705L323.435 6.27429C323.1 6.30349 322.767 6.33349 322.433 6.3643L322.525 7.36005ZM331.502 6.73382C331.829 6.7183 332.157 6.70354 332.485 6.68955L332.442 5.69046C332.113 5.70452 331.783 5.71935 331.455 5.73494L331.502 6.73382ZM340.466 6.50225C340.803 6.50071 341.141 6.49996 341.479 6.5L341.479 5.5C341.139 5.49996 340.8 5.50071 340.462 5.50226L340.466 6.50225ZM349.407 6.64483C349.737 6.65677 350.068 6.66945 350.399 6.68288L350.44 5.6837C350.107 5.67021 349.775 5.65747 349.443 5.64548L349.407 6.64483ZM358.451 7.15053C358.621 7.16333 358.791 7.17632 358.961 7.18951L359.039 6.1925C358.868 6.17926 358.697 6.16621 358.527 6.15336L358.451 7.15053ZM24.5584 175.974C25.11 175.947 25.5347 175.477 25.5071 174.925C25.4795 174.374 25.0099 173.949 24.4583 173.977L24.5584 175.974ZM32.4095 173.353C31.8603 173.412 31.4628 173.905 31.5216 174.454C31.5804 175.003 32.0733 175.401 32.6224 175.342L32.4095 173.353ZM33.6141 175.232C34.1628 175.17 34.5568 174.674 34.4941 174.125C34.4314 173.577 33.9358 173.183 33.3871 173.245L33.6141 175.232ZM41.2529 172.116C40.7087 172.211 40.344 172.728 40.4382 173.272C40.5325 173.816 41.05 174.181 41.5942 174.087L41.2529 172.116ZM42.5848 173.912C43.1283 173.813 43.4893 173.293 43.3911 172.75C43.2929 172.206 42.7727 171.845 42.2292 171.944L42.5848 173.912ZM49.9831 170.31C49.4462 170.439 49.1159 170.979 49.2453 171.516C49.3748 172.053 49.9149 172.383 50.4518 172.254L49.9831 170.31ZM51.4332 172.014C51.9691 171.88 52.2955 171.338 52.1622 170.802C52.0288 170.266 51.4863 169.939 50.9503 170.073L51.4332 172.014ZM58.5792 167.941C58.0517 168.105 57.7568 168.665 57.9204 169.193C58.084 169.72 58.6443 170.015 59.1718 169.852L58.5792 167.941ZM60.1367 169.548C60.663 169.381 60.954 168.819 60.7866 168.292C60.6192 167.766 60.0569 167.475 59.5306 167.643L60.1367 169.548ZM67.0273 165.028C66.511 165.224 66.2514 165.801 66.4475 166.318C66.6436 166.834 67.2211 167.094 67.7374 166.897L67.0273 165.028ZM68.6732 166.538C69.1882 166.339 69.4439 165.76 69.2444 165.245C69.0448 164.73 68.4656 164.474 67.9506 164.674L68.6732 166.538ZM75.2845 161.608C74.7806 161.834 74.5554 162.425 74.7815 162.929C75.0076 163.433 75.5994 163.658 76.1033 163.432L75.2845 161.608ZM77.0189 163.018C77.5214 162.789 77.7428 162.196 77.5136 161.693C77.2843 161.191 76.6911 160.969 76.1887 161.198L77.0189 163.018ZM83.3336 157.725C82.8428 157.978 82.6503 158.581 82.9036 159.072C83.1568 159.563 83.76 159.755 84.2508 159.502L83.3336 157.725ZM85.143 159.038C85.6323 158.782 85.8214 158.178 85.5653 157.689C85.3092 157.199 84.7049 157.01 84.2156 157.266L85.143 159.038ZM91.1744 153.424C90.6969 153.701 90.5346 154.313 90.812 154.791C91.0894 155.268 91.7014 155.43 92.179 155.153L91.1744 153.424ZM93.0461 154.646C93.5222 154.367 93.6813 153.754 93.4014 153.278C93.1215 152.801 92.5086 152.642 92.0325 152.922L93.0461 154.646ZM98.812 148.752C98.3473 149.05 98.2125 149.669 98.5109 150.133C98.8094 150.598 99.428 150.733 99.8927 150.435L98.812 148.752ZM100.735 149.891C101.198 149.59 101.33 148.971 101.029 148.508C100.729 148.045 100.109 147.913 99.6461 148.213L100.735 149.891ZM106.253 143.758C105.801 144.075 105.69 144.698 106.007 145.151C106.323 145.603 106.947 145.714 107.399 145.397L106.253 143.758ZM108.22 144.821C108.671 144.502 108.779 143.879 108.461 143.427C108.143 142.976 107.519 142.868 107.067 143.186L108.22 144.821ZM113.501 138.499C113.059 138.83 112.97 139.457 113.302 139.899C113.634 140.34 114.261 140.429 114.702 140.098L113.501 138.499ZM115.506 139.492C115.946 139.158 116.033 138.531 115.7 138.091C115.366 137.651 114.739 137.564 114.299 137.897L115.506 139.492ZM120.586 133.008C120.154 133.352 120.084 133.982 120.428 134.413C120.772 134.845 121.402 134.916 121.833 134.571L120.586 133.008ZM122.617 133.944C123.048 133.599 123.117 132.969 122.771 132.538C122.425 132.108 121.796 132.039 121.365 132.384L122.617 133.944ZM127.531 127.325C127.107 127.679 127.052 128.31 127.407 128.733C127.761 129.157 128.392 129.212 128.815 128.858L127.531 127.325ZM129.582 128.214C130.004 127.858 130.058 127.227 129.703 126.805C129.347 126.382 128.716 126.328 128.294 126.684L129.582 128.214ZM134.358 121.485C133.942 121.848 133.898 122.48 134.261 122.896C134.624 123.312 135.256 123.356 135.672 122.993L134.358 121.485ZM136.424 122.336C136.84 121.972 136.882 121.341 136.518 120.925C136.155 120.509 135.523 120.467 135.107 120.831L136.424 122.336ZM141.084 115.529C140.673 115.898 140.639 116.53 141.009 116.941C141.378 117.352 142.01 117.385 142.421 117.016L141.084 115.529ZM143.167 116.345C143.578 115.975 143.611 115.343 143.241 114.932C142.871 114.522 142.239 114.489 141.829 114.859L143.167 116.345ZM147.73 109.489C147.323 109.863 147.296 110.495 147.669 110.902C148.043 111.309 148.675 111.336 149.082 110.962L147.73 109.489ZM149.82 110.284C150.227 109.91 150.253 109.278 149.879 108.871C149.506 108.465 148.873 108.438 148.466 108.812L149.82 110.284ZM154.329 103.385C153.925 103.761 153.902 104.394 154.279 104.798C154.655 105.203 155.288 105.226 155.692 104.849L154.329 103.385ZM156.424 104.168C156.828 103.791 156.851 103.159 156.474 102.754C156.098 102.35 155.465 102.328 155.061 102.704L156.424 104.168ZM160.906 97.2439C160.503 97.6213 160.482 98.2541 160.859 98.6574C161.237 99.0606 161.869 99.0816 162.273 98.7042L160.906 97.2439ZM163.002 98.0219C163.405 97.6445 163.426 97.0117 163.048 96.6085C162.671 96.2053 162.038 96.1843 161.635 96.5618L163.002 98.0219ZM167.481 91.0925C167.077 91.4696 167.056 92.1024 167.433 92.5059C167.81 92.9095 168.443 92.931 168.846 92.554L167.481 91.0925ZM169.575 91.8732C169.979 91.4963 170.001 90.8635 169.624 90.4598C169.247 90.0561 168.614 90.0344 168.21 90.4113L169.575 91.8732ZM174.067 84.9639C173.662 85.3391 173.638 85.9718 174.013 86.3771C174.388 86.7823 175.021 86.8068 175.426 86.4316L174.067 84.9639ZM176.16 85.7524C176.566 85.3775 176.591 84.7448 176.216 84.3392C175.841 83.9337 175.208 83.9088 174.803 84.2837L176.16 85.7524ZM180.698 78.8718C180.29 79.2436 180.261 79.8761 180.632 80.2844C181.004 80.6928 181.637 80.7223 182.045 80.3505L180.698 78.8718ZM182.784 79.6784C183.193 79.307 183.223 78.6746 182.852 78.2658C182.48 77.8571 181.848 77.8268 181.439 78.1982L182.784 79.6784ZM187.394 72.842C186.982 73.209 186.945 73.8411 187.312 74.2538C187.679 74.6665 188.311 74.7034 188.723 74.3364L187.394 72.842ZM189.469 73.6739C189.883 73.3075 189.921 72.6754 189.554 72.2622C189.188 71.849 188.556 71.8111 188.142 72.1775L189.469 73.6739ZM194.174 66.9003C193.756 67.261 193.709 67.8924 194.07 68.3106C194.43 68.7288 195.062 68.7755 195.48 68.4147L194.174 66.9003ZM196.236 67.7644C196.654 67.4045 196.702 66.7731 196.342 66.3542C195.982 65.9353 195.351 65.8875 194.932 66.2474L196.236 67.7644ZM201.053 61.0753C200.628 61.4281 200.569 62.0586 200.922 62.4835C201.275 62.9084 201.905 62.9669 202.33 62.6141L201.053 61.0753ZM203.099 61.9774C203.525 61.6256 203.585 60.9953 203.233 60.5696C202.881 60.1438 202.251 60.0839 201.825 60.4358L203.099 61.9774ZM208.053 55.3899C207.621 55.7332 207.548 56.3622 207.891 56.7949C208.235 57.2275 208.864 57.3 209.296 56.9568L208.053 55.3899ZM210.078 56.3381C210.512 55.996 210.586 55.3672 210.244 54.9336C209.902 54.5 209.273 54.4258 208.839 54.7679L210.078 56.3381ZM215.192 49.8717C214.75 50.2037 214.662 50.8306 214.994 51.2719C215.326 51.7133 215.953 51.802 216.394 51.47L215.192 49.8717ZM217.191 50.8724C217.633 50.5418 217.724 49.9151 217.393 49.4727C217.063 49.0304 216.436 48.9398 215.994 49.2704L217.191 50.8724ZM222.484 44.5482C222.033 44.8671 221.926 45.4912 222.245 45.9421C222.564 46.3929 223.188 46.4999 223.639 46.1809L222.484 44.5482ZM224.452 45.6079C224.904 45.2905 225.013 44.6668 224.696 44.2148C224.379 43.7628 223.755 43.6537 223.303 43.9711L224.452 45.6079ZM229.935 39.4541C229.474 39.7582 229.347 40.3785 229.651 40.8395C229.955 41.3005 230.575 41.4277 231.036 41.1236L229.935 39.4541ZM231.87 40.5761C232.332 40.2738 232.461 39.654 232.159 39.1918C231.857 38.7296 231.237 38.6001 230.775 38.9024L231.87 40.5761ZM237.558 34.6162C237.086 34.9036 236.937 35.5189 237.224 35.9905C237.512 36.4621 238.127 36.6114 238.599 36.3239L237.558 34.6162ZM239.45 35.8074C239.923 35.522 240.075 34.9073 239.789 34.4345C239.504 33.9617 238.889 33.8099 238.416 34.0953L239.45 35.8074ZM245.361 30.0623C244.879 30.3313 244.706 30.9403 244.975 31.4227C245.244 31.9051 245.853 32.0781 246.335 31.8091L245.361 30.0623ZM247.204 31.3273C247.688 31.0606 247.863 30.4523 247.596 29.9687C247.33 29.4851 246.721 29.3094 246.238 29.5762L247.204 31.3273ZM253.353 25.8196C252.86 26.0683 252.662 26.6697 252.91 27.1628C253.159 27.6559 253.76 27.8541 254.254 27.6054L253.353 25.8196ZM255.139 27.1614C255.634 26.9151 255.835 26.3147 255.588 25.8203C255.342 25.326 254.742 25.125 254.247 25.3713L255.139 27.1614ZM261.498 21.9318C260.995 22.1586 260.771 22.7507 260.997 23.2543C261.224 23.7578 261.816 23.9821 262.32 23.7553L261.498 21.9318ZM263.231 23.3477C263.735 23.1234 263.963 22.5324 263.738 22.0277C263.514 21.523 262.923 21.2957 262.419 21.52L263.231 23.3477ZM269.816 18.4099C269.303 18.6135 269.052 19.1947 269.255 19.7081C269.459 20.2215 270.04 20.4727 270.554 20.2691L269.816 18.4099ZM271.479 19.9051C271.993 19.7042 272.247 19.1243 272.046 18.6098C271.845 18.0954 271.266 17.8412 270.751 18.0421L271.479 19.9051ZM278.308 15.2721C277.786 15.4512 277.507 16.0199 277.686 16.5423C277.865 17.0648 278.434 17.3431 278.957 17.164L278.308 15.2721ZM279.892 16.8462C280.415 16.6699 280.697 16.1027 280.52 15.5793C280.344 15.0559 279.777 14.7746 279.253 14.9509L279.892 16.8462ZM286.934 12.5449C286.403 12.6987 286.098 13.2533 286.252 13.7838C286.405 14.3142 286.96 14.6196 287.491 14.4659L286.934 12.5449ZM288.455 14.189C288.987 14.0382 289.295 13.4852 289.144 12.9539C288.993 12.4226 288.44 12.1143 287.909 12.2651L288.455 14.189ZM295.653 10.2442C295.116 10.3722 294.784 10.9114 294.912 11.4487C295.04 11.9859 295.579 12.3177 296.116 12.1897L295.653 10.2442ZM297.087 11.9613C297.624 11.8363 297.959 11.2988 297.834 10.7608C297.709 10.2229 297.171 9.88823 296.634 10.0133L297.087 11.9613ZM304.506 8.35966C303.963 8.46162 303.606 8.98429 303.708 9.52708C303.81 10.0699 304.332 10.4272 304.875 10.3253L304.506 8.35966ZM305.845 10.1457C306.389 10.0466 306.749 9.52585 306.65 8.98253C306.551 8.43921 306.03 8.07909 305.486 8.17819L305.845 10.1457ZM313.451 6.89917C312.904 6.97524 312.523 7.48035 312.599 8.02737C312.675 8.57439 313.18 8.95618 313.727 8.88011L313.451 6.89917ZM314.728 8.74366C315.275 8.67049 315.659 8.1674 315.586 7.61998C315.513 7.07257 315.01 6.68812 314.463 6.76129L314.728 8.74366ZM322.387 5.86642C321.837 5.91726 321.433 6.40429 321.484 6.95423C321.534 7.50417 322.021 7.90877 322.571 7.85793L322.387 5.86642ZM323.565 7.7686C324.115 7.72054 324.522 7.23557 324.474 6.68538C324.426 6.13519 323.941 5.72813 323.391 5.77619L323.565 7.7686ZM331.431 5.2355C330.879 5.26167 330.453 5.73009 330.479 6.28176C330.506 6.83342 330.974 7.25942 331.526 7.23325L331.431 5.2355ZM332.506 7.1891C333.058 7.16558 333.486 6.6992 333.463 6.14741C333.439 5.59563 332.973 5.16739 332.421 5.19091L332.506 7.1891ZM340.459 5.00227C339.907 5.00479 339.461 5.45456 339.464 6.00683C339.466 6.55911 339.916 7.00477 340.468 7.00225L340.459 5.00227ZM341.478 7C342.031 7.00007 342.479 6.55242 342.479 6.00013C342.479 5.44785 342.031 5.00008 341.479 5L341.478 7ZM349.461 5.14581C348.909 5.12586 348.446 5.55711 348.426 6.10904C348.406 6.66096 348.837 7.12456 349.389 7.14451L349.461 5.14581ZM350.379 7.18247C350.931 7.20484 351.397 6.77563 351.419 6.2238C351.441 5.67196 351.012 5.20648 350.46 5.18411L350.379 7.18247ZM358.564 5.65477C358.013 5.61327 357.533 6.02607 357.492 6.57679C357.45 7.12752 357.863 7.60761 358.414 7.64912L358.564 5.65477ZM24.0465 175.999C24.2173 175.991 24.3879 175.983 24.5584 175.974L24.4583 173.977C24.2902 173.985 24.1219 173.993 23.9535 174.001L24.0465 175.999ZM32.6224 175.342C32.9536 175.307 33.2841 175.27 33.6141 175.232L33.3871 173.245C33.0618 173.282 32.7359 173.318 32.4095 173.353L32.6224 175.342ZM41.5942 174.087C41.925 174.03 42.2552 173.971 42.5848 173.912L42.2292 171.944C41.9044 172.002 41.5789 172.06 41.2529 172.116L41.5942 174.087ZM50.4518 172.254C50.7795 172.175 51.1066 172.095 51.4332 172.014L50.9503 170.073C50.6285 170.153 50.306 170.232 49.9831 170.31L50.4518 172.254ZM59.1718 169.852C59.494 169.752 59.8156 169.651 60.1367 169.548L59.5306 167.643C59.214 167.743 58.8969 167.843 58.5792 167.941L59.1718 169.852ZM67.7374 166.897C68.0499 166.779 68.3618 166.659 68.6732 166.538L67.9506 164.674C67.6434 164.793 67.3356 164.911 67.0273 165.028L67.7374 166.897ZM76.1033 163.432C76.409 163.295 76.7142 163.157 77.0189 163.018L76.1887 161.198C75.8877 161.336 75.5863 161.472 75.2845 161.608L76.1033 163.432ZM84.2508 159.502C84.5486 159.348 84.846 159.194 85.143 159.038L84.2156 157.266C83.922 157.42 83.628 157.573 83.3336 157.725L84.2508 159.502ZM92.179 155.153C92.4684 154.985 92.7574 154.816 93.0461 154.646L92.0325 152.922C91.7469 153.09 91.4608 153.257 91.1744 153.424L92.179 155.153ZM99.8927 150.435C100.174 150.254 100.454 150.073 100.735 149.891L99.6461 148.213C99.3683 148.393 99.0903 148.573 98.812 148.752L99.8927 150.435ZM107.399 145.397C107.673 145.206 107.947 145.014 108.22 144.821L107.067 143.186C106.796 143.378 106.525 143.568 106.253 143.758L107.399 145.397ZM114.702 140.098C114.97 139.896 115.238 139.694 115.506 139.492L114.299 137.897C114.033 138.098 113.767 138.299 113.501 138.499L114.702 140.098ZM121.833 134.571C122.095 134.363 122.356 134.154 122.617 133.944L121.365 132.384C121.106 132.593 120.846 132.801 120.586 133.008L121.833 134.571ZM128.815 128.858C129.071 128.643 129.327 128.429 129.582 128.214L128.294 126.684C128.039 126.898 127.785 127.112 127.531 127.325L128.815 128.858ZM135.672 122.993C135.923 122.774 136.174 122.555 136.424 122.336L135.107 120.831C134.858 121.049 134.608 121.267 134.358 121.485L135.672 122.993ZM142.421 117.016C142.67 116.793 142.919 116.569 143.167 116.345L141.829 114.859C141.581 115.082 141.332 115.306 141.084 115.529L142.421 117.016ZM149.082 110.962C149.328 110.737 149.574 110.51 149.82 110.284L148.466 108.812C148.221 109.038 147.975 109.264 147.73 109.489L149.082 110.962ZM155.692 104.849C155.936 104.622 156.18 104.395 156.424 104.168L155.061 102.704C154.817 102.931 154.573 103.158 154.329 103.385L155.692 104.849ZM162.273 98.7042C162.516 98.4768 162.759 98.2494 163.002 98.0219L161.635 96.5618C161.392 96.7892 161.149 97.0166 160.906 97.2439L162.273 98.7042ZM168.846 92.554C169.089 92.3271 169.332 92.1001 169.575 91.8732L168.21 90.4113C167.967 90.6384 167.724 90.8655 167.481 91.0925L168.846 92.554ZM175.426 86.4316C175.671 86.2051 175.915 85.9787 176.16 85.7524L174.803 84.2837C174.557 84.5104 174.312 84.7371 174.067 84.9639L175.426 86.4316ZM182.045 80.3505C182.291 80.1264 182.537 79.9023 182.784 79.6784L181.439 78.1982C181.192 78.4226 180.945 78.6471 180.698 78.8718L182.045 80.3505ZM188.723 74.3364C188.972 74.1154 189.221 73.8945 189.469 73.6739L188.142 72.1775C187.893 72.3988 187.643 72.6203 187.394 72.842L188.723 74.3364ZM195.48 68.4147C195.732 68.1977 195.984 67.9809 196.236 67.7644L194.932 66.2474C194.679 66.4648 194.426 66.6824 194.174 66.9003L195.48 68.4147ZM202.33 62.6141C202.586 62.4016 202.842 62.1894 203.099 61.9774L201.825 60.4358C201.567 60.6487 201.31 60.8619 201.053 61.0753L202.33 62.6141ZM209.296 56.9568C209.557 56.7502 209.817 56.544 210.078 56.3381L208.839 54.7679C208.577 54.9749 208.315 55.1823 208.053 55.3899L209.296 56.9568ZM216.394 51.47C216.659 51.2704 216.925 51.0712 217.191 50.8724L215.994 49.2704C215.726 49.4704 215.459 49.6709 215.192 49.8717L216.394 51.47ZM223.639 46.1809C223.91 45.9895 224.181 45.7984 224.452 45.6079L223.303 43.9711C223.03 44.163 222.757 44.3554 222.484 44.5482L223.639 46.1809ZM231.036 41.1236C231.314 40.9406 231.592 40.7581 231.87 40.5761L230.775 38.9024C230.495 39.0858 230.215 39.2697 229.935 39.4541L231.036 41.1236ZM238.599 36.3239C238.882 36.1512 239.166 35.979 239.45 35.8074L238.416 34.0953C238.13 34.2684 237.843 34.442 237.558 34.6162L238.599 36.3239ZM246.335 31.8091C246.624 31.648 246.914 31.4874 247.204 31.3273L246.238 29.5762C245.945 29.7376 245.653 29.8997 245.361 30.0623L246.335 31.8091ZM254.254 27.6054C254.548 27.4568 254.844 27.3088 255.139 27.1614L254.247 25.3713C253.949 25.5201 253.651 25.6696 253.353 25.8196L254.254 27.6054ZM262.32 23.7553C262.623 23.6187 262.927 23.4829 263.231 23.3477L262.419 21.52C262.111 21.6566 261.805 21.7938 261.498 21.9318L262.32 23.7553ZM270.554 20.2691C270.861 20.1471 271.17 20.0257 271.479 19.9051L270.751 18.0421C270.439 18.164 270.127 18.2866 269.816 18.4099L270.554 20.2691ZM278.957 17.164C279.268 17.0574 279.58 16.9514 279.892 16.8462L279.253 14.9509C278.938 15.0572 278.623 15.1643 278.308 15.2721L278.957 17.164ZM287.491 14.4659C287.812 14.3728 288.133 14.2805 288.455 14.189L287.909 12.2651C287.583 12.3576 287.258 12.4509 286.934 12.5449L287.491 14.4659ZM296.116 12.1897C296.439 12.1128 296.763 12.0367 297.087 11.9613L296.634 10.0133C296.306 10.0895 295.979 10.1664 295.653 10.2442L296.116 12.1897ZM304.875 10.3253C305.198 10.2647 305.521 10.2048 305.845 10.1457L305.486 8.17819C305.159 8.23789 304.832 8.29838 304.506 8.35966L304.875 10.3253ZM313.727 8.88011C314.06 8.83381 314.393 8.78833 314.728 8.74366L314.463 6.76129C314.125 6.80642 313.788 6.85239 313.451 6.89917L313.727 8.88011ZM322.571 7.85793C322.902 7.82736 323.233 7.79758 323.565 7.7686L323.391 5.77619C323.056 5.80546 322.721 5.83554 322.387 5.86642L322.571 7.85793ZM331.526 7.23325C331.852 7.21778 332.179 7.20306 332.506 7.1891L332.421 5.19091C332.09 5.20501 331.76 5.21987 331.431 5.2355L331.526 7.23325ZM340.468 7.00225C340.805 7.00071 341.141 6.99996 341.478 7L341.479 5C341.138 4.99996 340.799 5.00071 340.459 5.00227L340.468 7.00225ZM349.389 7.14451C349.719 7.15641 350.049 7.16907 350.379 7.18247L350.46 5.18411C350.127 5.17059 349.794 5.15782 349.461 5.14581L349.389 7.14451ZM358.414 7.64912C358.583 7.66189 358.753 7.67485 358.923 7.68801L359.077 5.694C358.906 5.68073 358.735 5.66765 358.564 5.65477L358.414 7.64912Z" fill="#0071EB"/>
<path d="M359 175V85.1949C190.988 72.2231 153.083 169.013 24 175H359Z" fill="#F4F7F7"/>
<path d="M24.5345 175.475C24.8103 175.462 25.0231 175.228 25.0097 174.952C24.9964 174.676 24.762 174.463 24.4862 174.476L24.5345 175.475ZM32.509 173.964C32.2337 173.986 32.0283 174.227 32.0502 174.502C32.0721 174.777 32.313 174.983 32.5883 174.961L32.509 173.964ZM33.5786 174.88C33.8538 174.857 34.0582 174.615 34.0352 174.34C34.0122 174.065 33.7705 173.861 33.4953 173.884L33.5786 174.88ZM41.4709 173.089C41.1966 173.121 41 173.369 41.0318 173.643C41.0637 173.917 41.3118 174.114 41.5861 174.082L41.4709 173.089ZM42.5817 173.965C42.8559 173.932 43.0514 173.683 43.0185 173.409C42.9856 173.134 42.7366 172.939 42.4624 172.972L42.5817 173.965ZM50.3763 171.89C50.1033 171.932 49.916 172.187 49.9579 172.46C49.9998 172.733 50.2551 172.92 50.528 172.878L50.3763 171.89ZM51.5252 172.723C51.798 172.68 51.9842 172.424 51.9412 172.151C51.8981 171.878 51.6421 171.692 51.3693 171.735L51.5252 172.723ZM59.2236 170.362C58.9524 170.415 58.7747 170.677 58.8268 170.948C58.8788 171.219 59.1408 171.397 59.412 171.345L59.2236 170.362ZM60.4073 171.151C60.6782 171.098 60.8548 170.835 60.8016 170.564C60.7484 170.293 60.4856 170.117 60.2146 170.17L60.4073 171.151ZM68.0191 168.503C67.7501 168.565 67.5823 168.834 67.6445 169.103C67.7066 169.372 67.9751 169.54 68.2441 169.478L68.0191 168.503ZM69.2226 169.25C69.4914 169.186 69.6581 168.917 69.5948 168.648C69.5316 168.38 69.2624 168.213 68.9936 168.276L69.2226 169.25ZM76.7612 166.314C76.4946 166.386 76.3369 166.66 76.4089 166.927C76.4809 167.193 76.7553 167.351 77.0219 167.279L76.7612 166.314ZM77.9823 167.018C78.2486 166.945 78.4053 166.67 78.3322 166.403C78.2592 166.137 77.9841 165.98 77.7178 166.053L77.9823 167.018ZM85.4101 163.811C85.1462 163.893 84.9983 164.172 85.0798 164.436C85.1612 164.7 85.4411 164.848 85.705 164.767L85.4101 163.811ZM86.6589 164.47C86.9225 164.388 87.0693 164.107 86.9869 163.844C86.9045 163.58 86.624 163.433 86.3604 163.516L86.6589 164.47ZM93.9634 161.012C93.7024 161.102 93.564 161.387 93.6543 161.647C93.7445 161.908 94.0293 162.047 94.2903 161.957L93.9634 161.012ZM95.2361 161.628C95.4967 161.536 95.6341 161.251 95.5429 160.991C95.4517 160.73 95.1665 160.592 94.9058 160.684L95.2361 161.628ZM102.421 157.936C102.163 158.034 102.033 158.323 102.131 158.581C102.23 158.839 102.519 158.969 102.777 158.871L102.421 157.936ZM103.713 158.512C103.971 158.413 104.099 158.123 104 157.866C103.901 157.608 103.612 157.479 103.354 157.579L103.713 158.512ZM110.784 154.611C110.529 154.717 110.407 155.009 110.513 155.264C110.618 155.519 110.911 155.641 111.166 155.535L110.784 154.611ZM112.093 155.15C112.348 155.044 112.468 154.751 112.362 154.496C112.256 154.241 111.963 154.121 111.708 154.227L112.093 155.15ZM119.058 151.066C118.806 151.178 118.692 151.473 118.804 151.726C118.915 151.978 119.211 152.092 119.463 151.981L119.058 151.066ZM120.381 151.573C120.633 151.461 120.746 151.165 120.634 150.913C120.521 150.661 120.226 150.547 119.974 150.66L120.381 151.573ZM127.254 147.335C127.003 147.452 126.895 147.749 127.012 147.999C127.129 148.25 127.427 148.358 127.677 148.241L127.254 147.335ZM128.586 147.815C128.836 147.697 128.943 147.4 128.826 147.15C128.708 146.9 128.411 146.792 128.161 146.91L128.586 147.815ZM135.382 143.452C135.133 143.573 135.03 143.873 135.151 144.121C135.272 144.369 135.571 144.472 135.82 144.351L135.382 143.452ZM136.721 143.911C136.969 143.79 137.072 143.491 136.951 143.243C136.829 142.994 136.53 142.892 136.282 143.013L136.721 143.911ZM143.458 139.456C143.211 139.58 143.111 139.88 143.235 140.127C143.359 140.374 143.659 140.474 143.906 140.35L143.458 139.456ZM144.802 139.9C145.049 139.776 145.148 139.475 145.024 139.229C144.9 138.982 144.599 138.882 144.353 139.006L144.802 139.9ZM151.499 135.383C151.253 135.508 151.156 135.81 151.281 136.056C151.407 136.301 151.708 136.399 151.954 136.274L151.499 135.383ZM152.846 135.818C153.091 135.692 153.189 135.391 153.063 135.145C152.938 134.899 152.636 134.802 152.391 134.928L152.846 135.818ZM159.525 131.271C159.279 131.397 159.182 131.698 159.308 131.944C159.434 132.19 159.736 132.287 159.982 132.161L159.525 131.271ZM160.871 131.704C161.117 131.578 161.214 131.276 161.088 131.031C160.962 130.785 160.66 130.688 160.415 130.814L160.871 131.704ZM167.551 127.159C167.305 127.284 167.208 127.585 167.333 127.831C167.459 128.077 167.76 128.175 168.006 128.049L167.551 127.159ZM168.898 127.594C169.144 127.469 169.242 127.168 169.116 126.922C168.991 126.676 168.69 126.578 168.444 126.703L168.898 127.594ZM175.597 123.082C175.35 123.206 175.25 123.507 175.374 123.754C175.498 124 175.799 124.1 176.045 123.976L175.597 123.082ZM176.943 123.526C177.19 123.402 177.29 123.102 177.167 122.855C177.043 122.608 176.743 122.508 176.496 122.632L176.943 123.526ZM183.679 119.078C183.431 119.199 183.328 119.498 183.449 119.746C183.57 119.995 183.87 120.098 184.118 119.976L183.679 119.078ZM185.021 119.536C185.269 119.416 185.373 119.116 185.252 118.868C185.131 118.62 184.832 118.516 184.584 118.637L185.021 119.536ZM191.814 115.178C191.565 115.296 191.457 115.593 191.575 115.843C191.692 116.093 191.99 116.201 192.24 116.083L191.814 115.178ZM193.149 115.657C193.399 115.54 193.507 115.243 193.39 114.993C193.273 114.743 192.975 114.635 192.725 114.751L193.149 115.657ZM200.016 111.416C199.763 111.529 199.65 111.824 199.763 112.076C199.876 112.328 200.172 112.441 200.424 112.329L200.016 111.416ZM201.34 111.92C201.592 111.808 201.706 111.513 201.594 111.26C201.482 111.008 201.186 110.894 200.934 111.006L201.34 111.92ZM208.293 107.82C208.039 107.927 207.919 108.22 208.026 108.475C208.134 108.729 208.427 108.849 208.681 108.741L208.293 107.82ZM209.605 108.354C209.86 108.247 209.98 107.954 209.873 107.7C209.767 107.445 209.474 107.325 209.219 107.431L209.605 108.354ZM216.655 104.417C216.398 104.518 216.272 104.808 216.373 105.065C216.474 105.322 216.764 105.448 217.021 105.348L216.655 104.417ZM217.951 104.984C218.209 104.884 218.336 104.594 218.236 104.337C218.136 104.079 217.846 103.952 217.589 104.052L217.951 104.984ZM225.108 101.229C224.849 101.323 224.714 101.61 224.808 101.87C224.902 102.129 225.189 102.264 225.448 102.17L225.108 101.229ZM226.385 101.833C226.645 101.74 226.781 101.454 226.688 101.194C226.594 100.934 226.308 100.798 226.048 100.891L226.385 101.833ZM233.655 98.2775C233.393 98.3638 233.251 98.6465 233.337 98.9088C233.423 99.1711 233.706 99.3137 233.968 99.2274L233.655 98.2775ZM234.91 98.919C235.173 98.8335 235.317 98.5514 235.231 98.2888C235.146 98.0262 234.863 97.8826 234.601 97.9681L234.91 98.919ZM242.28 95.5822C242.015 95.6606 241.864 95.9387 241.942 96.2035C242.02 96.4683 242.299 96.6195 242.563 96.5411L242.28 95.5822ZM243.529 96.2571C243.794 96.1796 243.947 95.902 243.869 95.6369C243.792 95.3718 243.514 95.2197 243.249 95.2972L243.529 96.2571ZM250.96 93.159C250.693 93.2291 250.533 93.5024 250.604 93.7695C250.674 94.0366 250.947 94.1963 251.214 94.1262L250.96 93.159ZM252.19 93.872C252.457 93.8028 252.618 93.5301 252.549 93.2627C252.48 92.9954 252.207 92.8347 251.94 92.9039L252.19 93.872ZM259.719 91.0071C259.45 91.0687 259.282 91.3369 259.344 91.6061C259.405 91.8753 259.674 92.0435 259.943 91.9819L259.719 91.0071ZM260.92 91.7598C261.19 91.6991 261.359 91.4315 261.298 91.1621C261.238 90.8927 260.97 90.7235 260.701 90.7842L260.92 91.7598ZM268.558 89.1296C268.287 89.1827 268.11 89.4454 268.163 89.7164C268.217 89.9874 268.479 90.164 268.75 90.1109L268.558 89.1296ZM269.727 89.9213C269.998 89.8691 270.176 89.607 270.124 89.3358C270.071 89.0647 269.809 88.8871 269.538 88.9393L269.727 89.9213ZM277.479 87.5267C277.206 87.5713 277.022 87.8283 277.066 88.1008C277.111 88.3734 277.368 88.5582 277.64 88.5136L277.479 87.5267ZM278.613 88.3562C278.886 88.3125 279.072 88.0561 279.028 87.7834C278.984 87.5107 278.728 87.3251 278.455 87.3687L278.613 88.3562ZM286.392 86.2092C286.119 86.2454 285.926 86.4966 285.962 86.7704C285.999 87.0442 286.25 87.2367 286.524 87.2005L286.392 86.2092ZM287.529 87.0693C287.802 87.0341 287.996 86.7834 287.961 86.5096C287.925 86.2357 287.675 86.0423 287.401 86.0775L287.529 87.0693ZM295.337 85.1622C295.062 85.1902 294.862 85.4356 294.89 85.7104C294.918 85.9851 295.164 86.185 295.438 86.157L295.337 85.1622ZM296.436 86.0569C296.711 86.0297 296.911 85.785 296.884 85.5101C296.857 85.2353 296.612 85.0346 296.338 85.0617L296.436 86.0569ZM304.354 84.3745C304.078 84.3946 303.871 84.6341 303.891 84.9095C303.911 85.1849 304.151 85.3919 304.426 85.3719L304.354 84.3745ZM305.413 85.3015C305.689 85.2823 305.896 85.0434 305.877 84.7679C305.858 84.4924 305.619 84.2847 305.344 84.3039L305.413 85.3015ZM313.388 83.8433C313.112 83.8557 312.898 84.0894 312.911 84.3653C312.923 84.6411 313.157 84.8547 313.433 84.8423L313.388 83.8433ZM314.451 84.7981C314.727 84.7866 314.941 84.5536 314.93 84.2777C314.918 84.0018 314.685 83.7875 314.409 83.799L314.451 84.7981ZM322.365 83.5598C322.089 83.5649 321.869 83.7928 321.874 84.0689C321.879 84.345 322.107 84.5647 322.383 84.5596L322.365 83.5598ZM323.387 84.5426C323.663 84.5383 323.884 84.3109 323.879 84.0348C323.875 83.7587 323.648 83.5384 323.372 83.5427L323.387 84.5426ZM331.427 83.5089C331.151 83.507 330.926 83.7293 330.924 84.0054C330.922 84.2815 331.144 84.507 331.42 84.5089L331.427 83.5089ZM332.407 84.5172C332.683 84.5198 332.909 84.2982 332.911 84.022C332.914 83.7459 332.692 83.5199 332.416 83.5172L332.407 84.5172ZM340.446 83.6818C340.17 83.6733 339.939 83.89 339.93 84.166C339.922 84.4421 340.139 84.6728 340.415 84.6814L340.446 83.6818ZM341.431 84.7143C341.707 84.7237 341.938 84.5075 341.947 84.2315C341.957 83.9555 341.74 83.7242 341.464 83.7149L341.431 84.7143ZM349.437 84.0655C349.161 84.0506 348.925 84.262 348.91 84.5378C348.896 84.8135 349.107 85.0491 349.383 85.064L349.437 84.0655ZM350.378 85.119C350.653 85.1345 350.889 84.9236 350.905 84.6479C350.921 84.3722 350.71 84.1361 350.434 84.1205L350.378 85.119ZM358.526 84.6571C358.251 84.6362 358.011 84.8425 357.99 85.1178C357.969 85.3932 358.175 85.6333 358.45 85.6543L358.526 84.6571ZM24.0232 175.499C24.1938 175.492 24.3642 175.483 24.5345 175.475L24.4862 174.476C24.3166 174.485 24.1468 174.493 23.9768 174.501L24.0232 175.499ZM32.5883 174.961C32.919 174.935 33.2491 174.908 33.5786 174.88L33.4953 173.884C33.1671 173.911 32.8383 173.938 32.509 173.964L32.5883 174.961ZM41.5861 174.082C41.9186 174.044 42.2504 174.004 42.5817 173.965L42.4624 172.972C42.1325 173.011 41.802 173.05 41.4709 173.089L41.5861 174.082ZM50.528 172.878C50.861 172.827 51.1934 172.775 51.5252 172.723L51.3693 171.735C51.0389 171.787 50.7079 171.839 50.3763 171.89L50.528 172.878ZM59.412 171.345C59.7444 171.281 60.0761 171.216 60.4073 171.151L60.2146 170.17C59.8849 170.235 59.5545 170.299 59.2236 170.362L59.412 171.345ZM68.2441 169.478C68.5709 169.402 68.897 169.326 69.2226 169.25L68.9936 168.276C68.6694 168.352 68.3445 168.428 68.0191 168.503L68.2441 169.478ZM77.0219 167.279C77.3426 167.193 77.6627 167.105 77.9823 167.018L77.7178 166.053C77.3994 166.141 77.0806 166.227 76.7612 166.314L77.0219 167.279ZM85.705 164.767C86.0234 164.668 86.3414 164.57 86.6589 164.47L86.3604 163.516C86.0441 163.615 85.7274 163.713 85.4101 163.811L85.705 164.767ZM94.2903 161.957C94.606 161.847 94.9212 161.738 95.2361 161.628L94.9058 160.684C94.5921 160.793 94.278 160.903 93.9634 161.012L94.2903 161.957ZM102.777 158.871C103.089 158.751 103.401 158.632 103.713 158.512L103.354 157.579C103.043 157.698 102.732 157.817 102.421 157.936L102.777 158.871ZM111.166 155.535C111.475 155.407 111.784 155.279 112.093 155.15L111.708 154.227C111.4 154.355 111.092 154.483 110.784 154.611L111.166 155.535ZM119.463 151.981C119.769 151.845 120.075 151.709 120.381 151.573L119.974 150.66C119.669 150.795 119.364 150.931 119.058 151.066L119.463 151.981ZM127.677 148.241C127.98 148.099 128.283 147.957 128.586 147.815L128.161 146.91C127.858 147.052 127.556 147.193 127.254 147.335L127.677 148.241ZM135.82 144.351C136.12 144.205 136.421 144.058 136.721 143.911L136.282 143.013C135.982 143.16 135.682 143.306 135.382 143.452L135.82 144.351ZM143.906 140.35C144.205 140.2 144.503 140.05 144.802 139.9L144.353 139.006C144.054 139.156 143.756 139.306 143.458 139.456L143.906 140.35ZM151.954 136.274C152.251 136.122 152.548 135.97 152.846 135.818L152.391 134.928C152.093 135.079 151.796 135.231 151.499 135.383L151.954 136.274ZM159.982 132.161C160.278 132.008 160.575 131.856 160.871 131.704L160.415 130.814C160.118 130.966 159.821 131.119 159.525 131.271L159.982 132.161ZM168.006 128.049C168.303 127.897 168.6 127.746 168.898 127.594L168.444 126.703C168.146 126.855 167.849 127.007 167.551 127.159L168.006 128.049ZM176.045 123.976C176.345 123.826 176.644 123.676 176.943 123.526L176.496 122.632C176.196 122.782 175.896 122.932 175.597 123.082L176.045 123.976ZM184.118 119.976C184.419 119.83 184.72 119.683 185.021 119.536L184.584 118.637C184.282 118.784 183.98 118.931 183.679 119.078L184.118 119.976ZM192.24 116.083C192.542 115.941 192.845 115.799 193.149 115.657L192.725 114.751C192.421 114.894 192.118 115.036 191.814 115.178L192.24 116.083ZM200.424 112.329C200.729 112.192 201.034 112.056 201.34 111.92L200.934 111.006C200.627 111.143 200.321 111.279 200.016 111.416L200.424 112.329ZM208.681 108.741C208.989 108.612 209.297 108.483 209.605 108.354L209.219 107.431C208.91 107.56 208.601 107.69 208.293 107.82L208.681 108.741ZM217.021 105.348C217.331 105.226 217.641 105.105 217.951 104.984L217.589 104.052C217.277 104.173 216.966 104.295 216.655 104.417L217.021 105.348ZM225.448 102.17C225.76 102.057 226.072 101.945 226.385 101.833L226.048 100.891C225.734 101.004 225.421 101.116 225.108 101.229L225.448 102.17ZM233.968 99.2274C234.282 99.1242 234.596 99.0214 234.91 98.919L234.601 97.9681C234.285 98.0708 233.97 98.174 233.655 98.2775L233.968 99.2274ZM242.563 96.5411C242.885 96.446 243.207 96.3513 243.529 96.2571L243.249 95.2972C242.925 95.3918 242.602 95.4868 242.28 95.5822L242.563 96.5411ZM251.214 94.1262C251.539 94.041 251.864 93.9563 252.19 93.872L251.94 92.9039C251.613 92.9884 251.286 93.0735 250.96 93.159L251.214 94.1262ZM259.943 91.9819C260.268 91.9074 260.594 91.8333 260.92 91.7598L260.701 90.7842C260.373 90.858 260.046 90.9323 259.719 91.0071L259.943 91.9819ZM268.75 90.1109C269.075 90.0472 269.401 89.984 269.727 89.9213L269.538 88.9393C269.211 89.0022 268.884 89.0657 268.558 89.1296L268.75 90.1109ZM277.64 88.5136C277.964 88.4606 278.288 88.4082 278.613 88.3562L278.455 87.3687C278.129 87.4209 277.804 87.4736 277.479 87.5267L277.64 88.5136ZM286.524 87.2005C286.858 87.1563 287.193 87.1126 287.529 87.0693L287.401 86.0775C287.064 86.1209 286.728 86.1648 286.392 86.2092L286.524 87.2005ZM295.438 86.157C295.77 86.1231 296.103 86.0898 296.436 86.0569L296.338 85.0617C296.003 85.0947 295.67 85.1282 295.337 85.1622L295.438 86.157ZM304.426 85.3719C304.755 85.3479 305.084 85.3245 305.413 85.3015L305.344 84.3039C305.013 84.327 304.683 84.3505 304.354 84.3745L304.426 85.3719ZM313.433 84.8423C313.772 84.8271 314.111 84.8124 314.451 84.7981L314.409 83.799C314.068 83.8133 313.728 83.8281 313.388 83.8433L313.433 84.8423ZM322.383 84.5596C322.717 84.5535 323.052 84.5478 323.387 84.5426L323.372 83.5427C323.035 83.5479 322.7 83.5536 322.365 83.5598L322.383 84.5596ZM331.42 84.5089C331.748 84.5112 332.077 84.514 332.407 84.5172L332.416 83.5172C332.086 83.514 331.756 83.5112 331.427 83.5089L331.42 84.5089ZM340.415 84.6814C340.753 84.6919 341.091 84.7029 341.431 84.7143L341.464 83.7149C341.124 83.7034 340.785 83.6924 340.446 83.6818L340.415 84.6814ZM349.383 85.064C349.714 85.0819 350.045 85.1002 350.378 85.119L350.434 84.1205C350.101 84.1017 349.769 84.0834 349.437 84.0655L349.383 85.064ZM358.45 85.6543C358.621 85.6672 358.791 85.6803 358.962 85.6934L359.038 84.6964C358.868 84.6832 358.697 84.6701 358.526 84.6571L358.45 85.6543ZM24.5586 175.975C25.1102 175.948 25.5358 175.479 25.5092 174.928C25.4825 174.376 25.0137 173.95 24.4621 173.977L24.5586 175.975ZM32.4693 173.466C31.9187 173.509 31.508 173.991 31.5518 174.542C31.5956 175.092 32.0774 175.503 32.628 175.459L32.4693 173.466ZM33.6202 175.378C34.1706 175.332 34.5795 174.849 34.5335 174.299C34.4875 173.748 34.0041 173.339 33.4537 173.385L33.6202 175.378ZM41.4133 172.592C40.8647 172.656 40.4715 173.152 40.5352 173.701C40.5988 174.249 41.0951 174.642 41.6437 174.579L41.4133 172.592ZM42.6413 174.461C43.1896 174.395 43.5808 173.897 43.5149 173.349C43.4491 172.801 42.9512 172.409 42.4028 172.475L42.6413 174.461ZM50.3004 171.396C49.7545 171.479 49.3799 171.99 49.4637 172.536C49.5475 173.082 50.058 173.456 50.6039 173.372L50.3004 171.396ZM51.6031 173.217C52.1486 173.131 52.5211 172.619 52.4351 172.073C52.349 171.528 51.837 171.155 51.2914 171.241L51.6031 173.217ZM59.1293 169.871C58.5869 169.976 58.2316 170.5 58.3357 171.042C58.4398 171.584 58.9639 171.94 59.5063 171.836L59.1293 169.871ZM60.5036 171.642C61.0455 171.536 61.3986 171.01 61.2922 170.468C61.1859 169.926 60.6603 169.573 60.1183 169.679L60.5036 171.642ZM67.9067 168.016C67.3685 168.14 67.033 168.677 67.1573 169.216C67.2816 169.754 67.8185 170.089 68.3566 169.965L67.9067 168.016ZM69.3372 169.736C69.8748 169.61 70.208 169.071 70.0816 168.534C69.9551 167.996 69.4167 167.663 68.8791 167.789L69.3372 169.736ZM76.6309 165.831C76.0977 165.975 75.7822 166.524 75.9261 167.057C76.0701 167.59 76.6191 167.906 77.1523 167.762L76.6309 165.831ZM78.1146 167.5C78.6472 167.354 78.9605 166.804 78.8144 166.271C78.6683 165.738 78.1181 165.425 77.5855 165.571L78.1146 167.5ZM85.2627 163.333C84.7349 163.496 84.4391 164.056 84.602 164.584C84.7648 165.111 85.3246 165.407 85.8524 165.244L85.2627 163.333ZM86.8082 164.947C87.3353 164.783 87.629 164.222 87.4641 163.695C87.2992 163.167 86.7383 162.874 86.2112 163.039L86.8082 164.947ZM93.8 160.539C93.278 160.719 93.0012 161.289 93.1817 161.811C93.3623 162.333 93.9317 162.61 94.4537 162.429L93.8 160.539ZM95.4012 162.1C95.9225 161.917 96.1973 161.347 96.0149 160.825C95.8325 160.304 95.262 160.029 94.7407 160.212L95.4012 162.1ZM102.242 157.469C101.726 157.666 101.467 158.243 101.664 158.759C101.861 159.276 102.439 159.534 102.955 159.338L102.242 157.469ZM103.893 158.979C104.408 158.78 104.665 158.201 104.467 157.686C104.269 157.171 103.69 156.914 103.174 157.112L103.893 158.979ZM110.593 154.149C110.082 154.36 109.84 154.945 110.051 155.455C110.262 155.966 110.847 156.208 111.357 155.997L110.593 154.149ZM112.285 155.612C112.795 155.399 113.036 154.813 112.823 154.304C112.611 153.794 112.025 153.553 111.515 153.766L112.285 155.612ZM118.856 150.609C118.351 150.832 118.123 151.423 118.346 151.928C118.57 152.433 119.16 152.661 119.665 152.438L118.856 150.609ZM120.584 152.03C121.089 151.805 121.315 151.214 121.09 150.709C120.866 150.205 120.275 149.978 119.77 150.203L120.584 152.03ZM127.042 146.882C126.542 147.116 126.325 147.711 126.559 148.211C126.793 148.711 127.388 148.927 127.889 148.694L127.042 146.882ZM128.798 148.267C129.298 148.033 129.513 147.437 129.278 146.937C129.043 146.437 128.448 146.222 127.948 146.457L128.798 148.267ZM135.163 143.003C134.666 143.245 134.46 143.843 134.702 144.34C134.944 144.836 135.542 145.043 136.039 144.801L135.163 143.003ZM136.941 144.361C137.437 144.118 137.642 143.519 137.4 143.023C137.157 142.527 136.558 142.321 136.062 142.564L136.941 144.361ZM143.234 139.009C142.74 139.257 142.54 139.858 142.788 140.351C143.036 140.845 143.637 141.044 144.13 140.797L143.234 139.009ZM145.026 140.347C145.52 140.098 145.719 139.497 145.471 139.004C145.222 138.51 144.621 138.312 144.128 138.56L145.026 140.347ZM151.272 134.938C150.78 135.189 150.585 135.791 150.836 136.283C151.087 136.775 151.689 136.97 152.181 136.719L151.272 134.938ZM153.073 136.263C153.565 136.012 153.76 135.41 153.509 134.918C153.257 134.426 152.655 134.231 152.163 134.482L153.073 136.263ZM159.297 130.826C158.805 131.078 158.611 131.681 158.864 132.172C159.116 132.664 159.719 132.858 160.21 132.605L159.297 130.826ZM161.1 132.149C161.591 131.896 161.785 131.294 161.533 130.802C161.28 130.311 160.678 130.117 160.186 130.369L161.1 132.149ZM167.324 126.713C166.832 126.964 166.637 127.567 166.888 128.058C167.139 128.55 167.741 128.746 168.233 128.495L167.324 126.713ZM169.125 128.04C169.617 127.789 169.813 127.187 169.562 126.695C169.311 126.203 168.709 126.007 168.217 126.258L169.125 128.04ZM175.372 122.636C174.879 122.883 174.68 123.484 174.927 123.978C175.175 124.471 175.776 124.671 176.27 124.423L175.372 122.636ZM177.167 123.973C177.661 123.726 177.861 123.125 177.614 122.631C177.367 122.137 176.766 121.937 176.272 122.185L177.167 123.973ZM183.46 118.628C182.964 118.871 182.758 119.469 183 119.966C183.242 120.462 183.841 120.668 184.337 120.426L183.46 118.628ZM185.24 119.986C185.736 119.744 185.943 119.146 185.702 118.649C185.46 118.153 184.862 117.946 184.365 118.187L185.24 119.986ZM191.602 114.726C191.102 114.961 190.887 115.556 191.122 116.056C191.357 116.556 191.952 116.771 192.452 116.536L191.602 114.726ZM193.36 116.11C193.861 115.876 194.077 115.281 193.843 114.781C193.609 114.281 193.014 114.065 192.514 114.298L193.36 116.11ZM199.811 110.959C199.307 111.185 199.081 111.776 199.307 112.28C199.532 112.785 200.124 113.011 200.628 112.785L199.811 110.959ZM201.543 112.377C202.048 112.153 202.275 111.562 202.051 111.057C201.826 110.553 201.235 110.325 200.731 110.55L201.543 112.377ZM208.099 107.359C207.59 107.573 207.351 108.16 207.566 108.669C207.78 109.178 208.366 109.417 208.875 109.202L208.099 107.359ZM209.798 108.815C210.307 108.602 210.548 108.016 210.334 107.507C210.121 106.997 209.536 106.757 209.026 106.97L209.798 108.815ZM216.473 103.951C215.959 104.153 215.705 104.733 215.907 105.247C216.109 105.762 216.689 106.015 217.203 105.813L216.473 103.951ZM218.133 105.45C218.647 105.25 218.902 104.67 218.702 104.155C218.502 103.641 217.922 103.386 217.408 103.586L218.133 105.45ZM224.938 100.759C224.419 100.947 224.15 101.52 224.338 102.04C224.526 102.559 225.099 102.828 225.618 102.64L224.938 100.759ZM226.554 102.304C227.074 102.117 227.344 101.545 227.158 101.025C226.972 100.505 226.4 100.234 225.88 100.421L226.554 102.304ZM233.499 97.8026C232.975 97.9752 232.689 98.5405 232.862 99.0651C233.035 99.5897 233.6 99.875 234.124 99.7023L233.499 97.8026ZM235.065 99.3944C235.59 99.2235 235.877 98.6592 235.707 98.134C235.536 97.6089 234.971 97.3217 234.446 97.4926L235.065 99.3944ZM242.138 95.1028C241.608 95.2595 241.306 95.8158 241.463 96.3454C241.619 96.875 242.176 97.1773 242.705 97.0206L242.138 95.1028ZM243.67 96.737C244.2 96.5821 244.504 96.0268 244.349 95.4967C244.194 94.9666 243.639 94.6624 243.109 94.8172L243.67 96.737ZM250.833 92.6754C250.299 92.8156 249.98 93.3623 250.12 93.8964C250.26 94.4306 250.807 94.7501 251.341 94.6099L250.833 92.6754ZM252.315 94.3561C252.85 94.2178 253.171 93.6722 253.033 93.1375C252.895 92.6028 252.349 92.2815 251.814 92.4198L252.315 94.3561ZM259.608 90.5197C259.07 90.643 258.733 91.1794 258.856 91.7177C258.98 92.2561 259.516 92.5925 260.054 92.4692L259.608 90.5197ZM261.03 92.2475C261.569 92.1261 261.907 91.591 261.786 91.0522C261.665 90.5134 261.13 90.1751 260.591 90.2964L261.03 92.2475ZM268.462 88.6389C267.92 88.7451 267.567 89.2706 267.673 89.8126C267.779 90.3546 268.304 90.7078 268.846 90.6016L268.462 88.6389ZM269.822 90.4123C270.364 90.3079 270.719 89.7837 270.615 89.2414C270.51 88.699 269.986 88.344 269.444 88.4483L269.822 90.4123ZM277.398 87.0332C276.853 87.1224 276.484 87.6365 276.573 88.1815C276.662 88.7266 277.176 89.0962 277.721 89.007L277.398 87.0332ZM278.692 88.8499C279.238 88.7626 279.609 88.2497 279.522 87.7044C279.434 87.159 278.921 86.7877 278.376 86.875L278.692 88.8499ZM286.327 85.7135C285.779 85.7859 285.394 86.2884 285.467 86.836C285.539 87.3835 286.042 87.7686 286.589 87.6962L286.327 85.7135ZM287.592 87.5652C288.14 87.4947 288.527 86.9935 288.457 86.4457C288.386 85.8979 287.885 85.5111 287.337 85.5816L287.592 87.5652ZM295.286 84.6648C294.737 84.7208 294.337 85.2117 294.393 85.7611C294.449 86.3105 294.94 86.7105 295.489 86.6544L295.286 84.6648ZM296.485 86.5544C297.035 86.5002 297.436 86.0106 297.382 85.461C297.328 84.9114 296.838 84.5098 296.288 84.5641L296.485 86.5544ZM304.317 83.8758C303.766 83.916 303.352 84.395 303.393 84.9459C303.433 85.4967 303.912 85.9107 304.463 85.8705L304.317 83.8758ZM305.448 85.8003C305.999 85.7619 306.414 85.2841 306.376 84.7331C306.337 84.1822 305.86 83.7667 305.309 83.8051L305.448 85.8003ZM313.365 83.3438C312.814 83.3686 312.387 83.836 312.411 84.3877C312.436 84.9395 312.904 85.3666 313.455 85.3418L313.365 83.3438ZM314.472 85.2977C315.024 85.2746 315.453 84.8086 315.429 84.2568C315.406 83.705 314.94 83.2764 314.389 83.2995L314.472 85.2977ZM322.356 83.0599C321.804 83.0701 321.364 83.526 321.374 84.0782C321.385 84.6303 321.84 85.0697 322.393 85.0595L322.356 83.0599ZM323.395 85.0425C323.947 85.0339 324.388 84.5793 324.379 84.0271C324.371 83.4748 323.916 83.0341 323.364 83.0427L323.395 85.0425ZM331.431 83.0089C330.878 83.0051 330.428 83.4496 330.424 84.0019C330.42 84.5542 330.864 85.005 331.417 85.0089L331.431 83.0089ZM332.402 85.0171C332.954 85.0225 333.406 84.5792 333.411 84.0269C333.417 83.4746 332.973 83.0226 332.421 83.0172L332.402 85.0171ZM340.461 83.1821C339.909 83.1649 339.448 83.5985 339.431 84.1505C339.414 84.7025 339.847 85.1639 340.399 85.1811L340.461 83.1821ZM341.414 85.2141C341.966 85.2327 342.428 84.8004 342.447 84.2484C342.466 83.6964 342.033 83.2338 341.481 83.2152L341.414 85.2141ZM349.464 83.5662C348.912 83.5364 348.441 83.9593 348.411 84.5108C348.381 85.0623 348.804 85.5335 349.356 85.5633L349.464 83.5662ZM350.349 85.6182C350.901 85.6493 351.373 85.2275 351.404 84.6761C351.435 84.1247 351.014 83.6525 350.462 83.6213L350.349 85.6182ZM358.564 84.1586C358.013 84.1167 357.533 84.5292 357.491 85.0799C357.449 85.6306 357.862 86.111 358.412 86.1528L358.564 84.1586ZM24.0463 175.999C24.2172 175.991 24.388 175.983 24.5586 175.975L24.4621 173.977C24.2928 173.985 24.1233 173.993 23.9537 174.001L24.0463 175.999ZM32.628 175.459C32.9593 175.433 33.2901 175.406 33.6202 175.378L33.4537 173.385C33.1262 173.413 32.798 173.44 32.4693 173.466L32.628 175.459ZM41.6437 174.579C41.9769 174.54 42.3094 174.501 42.6413 174.461L42.4028 172.475C42.0736 172.515 41.7437 172.554 41.4133 172.592L41.6437 174.579ZM50.6039 173.372C50.9375 173.321 51.2706 173.269 51.6031 173.217L51.2914 171.241C50.9617 171.293 50.6313 171.345 50.3004 171.396L50.6039 173.372ZM59.5063 171.836C59.8393 171.772 60.1717 171.707 60.5036 171.642L60.1183 169.679C59.7893 169.744 59.4596 169.808 59.1293 169.871L59.5063 171.836ZM68.3566 169.965C68.684 169.889 69.0109 169.813 69.3372 169.736L68.8791 167.789C68.5555 167.866 68.2314 167.941 67.9067 168.016L68.3566 169.965ZM77.1523 167.762C77.4736 167.675 77.7943 167.588 78.1146 167.5L77.5855 165.571C77.2678 165.658 76.9496 165.745 76.6309 165.831L77.1523 167.762ZM85.8524 165.244C86.1715 165.146 86.4901 165.047 86.8082 164.947L86.2112 163.039C85.8955 163.137 85.5793 163.236 85.2627 163.333L85.8524 165.244ZM94.4537 162.429C94.77 162.32 95.0858 162.21 95.4012 162.1L94.7407 160.212C94.4276 160.321 94.114 160.43 93.8 160.539L94.4537 162.429ZM102.955 159.338C103.268 159.218 103.581 159.099 103.893 158.979L103.174 157.112C102.864 157.231 102.554 157.35 102.242 157.469L102.955 159.338ZM111.357 155.997C111.667 155.869 111.976 155.74 112.285 155.612L111.515 153.766C111.208 153.894 110.901 154.022 110.593 154.149L111.357 155.997ZM119.665 152.438C119.972 152.302 120.278 152.166 120.584 152.03L119.77 150.203C119.466 150.339 119.161 150.474 118.856 150.609L119.665 152.438ZM127.889 148.694C128.192 148.552 128.495 148.41 128.798 148.267L127.948 146.457C127.646 146.599 127.344 146.741 127.042 146.882L127.889 148.694ZM136.039 144.801C136.339 144.654 136.64 144.508 136.941 144.361L136.062 142.564C135.762 142.71 135.463 142.857 135.163 143.003L136.039 144.801ZM144.13 140.797C144.429 140.647 144.728 140.497 145.026 140.347L144.128 138.56C143.83 138.71 143.532 138.859 143.234 139.009L144.13 140.797ZM152.181 136.719C152.479 136.567 152.776 136.415 153.073 136.263L152.163 134.482C151.866 134.634 151.569 134.786 151.272 134.938L152.181 136.719ZM160.21 132.605C160.506 132.453 160.803 132.301 161.1 132.149L160.186 130.369C159.89 130.522 159.593 130.674 159.297 130.826L160.21 132.605ZM168.233 128.495C168.53 128.343 168.828 128.191 169.125 128.04L168.217 126.258C167.919 126.41 167.621 126.561 167.324 126.713L168.233 128.495ZM176.27 124.423C176.569 124.273 176.868 124.123 177.167 123.973L176.272 122.185C175.972 122.335 175.672 122.485 175.372 122.636L176.27 124.423ZM184.337 120.426C184.638 120.279 184.939 120.132 185.24 119.986L184.365 118.187C184.063 118.334 183.761 118.481 183.46 118.628L184.337 120.426ZM192.452 116.536C192.755 116.394 193.057 116.252 193.36 116.11L192.514 114.298C192.209 114.441 191.905 114.583 191.602 114.726L192.452 116.536ZM200.628 112.785C200.933 112.649 201.238 112.513 201.543 112.377L200.731 110.55C200.424 110.686 200.117 110.823 199.811 110.959L200.628 112.785ZM208.875 109.202C209.182 109.073 209.49 108.944 209.798 108.815L209.026 106.97C208.717 107.099 208.408 107.229 208.099 107.359L208.875 109.202ZM217.203 105.813C217.513 105.692 217.822 105.571 218.133 105.45L217.408 103.586C217.095 103.707 216.784 103.829 216.473 103.951L217.203 105.813ZM225.618 102.64C225.93 102.528 226.241 102.415 226.554 102.304L225.88 100.421C225.565 100.533 225.252 100.646 224.938 100.759L225.618 102.64ZM234.124 99.7023C234.437 99.5993 234.751 99.4967 235.065 99.3944L234.446 97.4926C234.13 97.5955 233.814 97.6989 233.499 97.8026L234.124 99.7023ZM242.705 97.0206C243.026 96.9256 243.348 96.8311 243.67 96.737L243.109 94.8172C242.785 94.912 242.461 95.0071 242.138 95.1028L242.705 97.0206ZM251.341 94.6099C251.665 94.5248 251.99 94.4402 252.315 94.3561L251.814 92.4198C251.487 92.5045 251.16 92.5897 250.833 92.6754L251.341 94.6099ZM260.054 92.4692C260.379 92.3949 260.704 92.321 261.03 92.2475L260.591 90.2964C260.263 90.3704 259.935 90.4448 259.608 90.5197L260.054 92.4692ZM268.846 90.6016C269.171 90.538 269.496 90.4749 269.822 90.4123L269.444 88.4483C269.116 88.5114 268.789 88.5749 268.462 88.6389L268.846 90.6016ZM277.721 89.007C278.044 88.9542 278.368 88.9018 278.692 88.8499L278.376 86.875C278.05 86.9273 277.724 86.98 277.398 87.0332L277.721 89.007ZM286.589 87.6962C286.923 87.6521 287.257 87.6084 287.592 87.5652L287.337 85.5816C287 85.6251 286.663 85.669 286.327 85.7135L286.589 87.6962ZM295.489 86.6544C295.82 86.6206 296.152 86.5873 296.485 86.5544L296.288 84.5641C295.954 84.5972 295.62 84.6307 295.286 84.6648L295.489 86.6544ZM304.463 85.8705C304.79 85.8467 305.119 85.8232 305.448 85.8003L305.309 83.8051C304.978 83.8282 304.647 83.8518 304.317 83.8758L304.463 85.8705ZM313.455 85.3418C313.794 85.3266 314.133 85.3119 314.472 85.2977L314.389 83.2995C314.047 83.3138 313.706 83.3286 313.365 83.3438L313.455 85.3418ZM322.393 85.0595C322.726 85.0534 323.06 85.0477 323.395 85.0425L323.364 83.0427C323.027 83.048 322.691 83.0537 322.356 83.0599L322.393 85.0595ZM331.417 85.0089C331.744 85.0112 332.073 85.0139 332.402 85.0171L332.421 83.0172C332.09 83.014 331.76 83.0112 331.431 83.0089L331.417 85.0089ZM340.399 85.1811C340.737 85.1916 341.075 85.2026 341.414 85.2141L341.481 83.2152C341.141 83.2037 340.801 83.1927 340.461 83.1821L340.399 85.1811ZM349.356 85.5633C349.686 85.5811 350.018 85.5994 350.349 85.6182L350.462 83.6213C350.129 83.6025 349.796 83.5841 349.464 83.5662L349.356 85.5633ZM358.412 86.1528C358.582 86.1658 358.753 86.1788 358.923 86.1919L359.077 84.1979C358.906 84.1847 358.735 84.1716 358.564 84.1586L358.412 86.1528Z" fill="#727272"/>
<circle opacity="0.3" cx="24" cy="175" r="8" fill="#31A0EE"/>
<circle cx="24" cy="175" r="4" fill="url(#paint0_linear)"/>
<circle opacity="0.3" cx="359" cy="8" r="8" fill="#31A0EE"/>
<circle cx="359" cy="8" r="4" fill="url(#paint1_linear)"/>
<circle opacity="0.3" cx="359" cy="85" r="6" fill="#727272"/>
<circle cx="359" cy="85" r="3" fill="#727272"/>
<path d="M289.907 37.117C288.702 37.117 287.788 36.8007 287.164 36.168C286.54 35.5267 286.228 34.595 286.228 33.373V27.835H287.294V33.321C287.294 35.219 288.165 36.168 289.907 36.168C291.632 36.168 292.494 35.219 292.494 33.321V27.835H293.56V33.373C293.56 34.595 293.248 35.5267 292.624 36.168C292.009 36.8007 291.103 37.117 289.907 37.117ZM295.608 39.34V30.682H296.635V31.813C296.826 31.423 297.107 31.1197 297.48 30.903C297.861 30.6777 298.303 30.565 298.806 30.565C299.369 30.565 299.859 30.6993 300.275 30.968C300.7 31.228 301.025 31.605 301.25 32.099C301.484 32.5843 301.601 33.165 301.601 33.841C301.601 34.5083 301.484 35.089 301.25 35.583C301.025 36.0683 300.7 36.4453 300.275 36.714C299.859 36.9827 299.369 37.117 298.806 37.117C298.321 37.117 297.887 37.0087 297.506 36.792C297.125 36.5753 296.843 36.2763 296.661 35.895V39.34H295.608ZM298.585 36.272C299.174 36.272 299.647 36.064 300.002 35.648C300.357 35.2233 300.535 34.621 300.535 33.841C300.535 33.0523 300.357 32.45 300.002 32.034C299.647 31.618 299.174 31.41 298.585 31.41C297.996 31.41 297.523 31.618 297.168 32.034C296.813 32.45 296.635 33.0523 296.635 33.841C296.635 34.621 296.813 35.2233 297.168 35.648C297.523 36.064 297.996 36.272 298.585 36.272ZM304.775 37L302.422 30.682H303.527L305.308 35.765L307.154 30.682H308.051L309.871 35.778L311.678 30.682H312.731L310.365 37H309.364L307.583 32.099L305.789 37H304.775ZM315.891 37.117C315.458 37.117 315.068 37.0347 314.721 36.87C314.383 36.6967 314.114 36.4627 313.915 36.168C313.716 35.8733 313.616 35.544 313.616 35.18C313.616 34.7207 313.733 34.3567 313.967 34.088C314.21 33.8193 314.604 33.6287 315.15 33.516C315.705 33.3947 316.459 33.334 317.412 33.334H317.828V32.931C317.828 32.3937 317.715 32.008 317.49 31.774C317.273 31.5313 316.922 31.41 316.437 31.41C316.056 31.41 315.687 31.4663 315.332 31.579C314.977 31.683 314.613 31.8563 314.24 32.099L313.876 31.332C314.205 31.098 314.604 30.9117 315.072 30.773C315.549 30.6343 316.004 30.565 316.437 30.565C317.252 30.565 317.854 30.7643 318.244 31.163C318.643 31.5617 318.842 32.1813 318.842 33.022V37H317.854V35.908C317.689 36.2807 317.434 36.5753 317.087 36.792C316.749 37.0087 316.35 37.117 315.891 37.117ZM316.06 36.324C316.58 36.324 317.005 36.1463 317.334 35.791C317.663 35.427 317.828 34.9677 317.828 34.413V34.023H317.425C316.723 34.023 316.168 34.0577 315.761 34.127C315.362 34.1877 315.081 34.3003 314.916 34.465C314.76 34.621 314.682 34.8377 314.682 35.115C314.682 35.4703 314.803 35.7607 315.046 35.986C315.297 36.2113 315.635 36.324 316.06 36.324ZM320.796 37V30.682H321.823V31.813C322.161 31.0503 322.854 30.63 323.903 30.552L324.28 30.513L324.358 31.423L323.695 31.501C323.097 31.553 322.642 31.7437 322.33 32.073C322.018 32.3937 321.862 32.8357 321.862 33.399V37H320.796ZM327.784 37.117C327.22 37.117 326.726 36.9827 326.302 36.714C325.886 36.4453 325.561 36.0683 325.327 35.583C325.101 35.089 324.989 34.5083 324.989 33.841C324.989 33.165 325.101 32.5843 325.327 32.099C325.561 31.605 325.886 31.228 326.302 30.968C326.726 30.6993 327.22 30.565 327.784 30.565C328.278 30.565 328.711 30.6733 329.084 30.89C329.465 31.1067 329.747 31.4057 329.929 31.787V27.835H330.982V37H329.955V35.843C329.773 36.2417 329.491 36.5537 329.11 36.779C328.728 37.0043 328.286 37.117 327.784 37.117ZM328.005 36.272C328.594 36.272 329.066 36.064 329.422 35.648C329.777 35.2233 329.955 34.621 329.955 33.841C329.955 33.0523 329.777 32.45 329.422 32.034C329.066 31.618 328.594 31.41 328.005 31.41C327.407 31.41 326.93 31.618 326.575 32.034C326.228 32.45 326.055 33.0523 326.055 33.841C326.055 34.621 326.228 35.2233 326.575 35.648C326.93 36.064 327.407 36.272 328.005 36.272ZM334.895 37.117C334.253 37.117 333.768 36.9307 333.439 36.558C333.118 36.1767 332.958 35.6263 332.958 34.907V27.835H334.011V34.829C334.011 35.7563 334.379 36.22 335.116 36.22C335.332 36.22 335.527 36.194 335.701 36.142L335.675 37.026C335.406 37.0867 335.146 37.117 334.895 37.117ZM336.674 29.109V27.926H337.974V29.109H336.674ZM336.804 37V30.682H337.857V37H336.804ZM278.598 56L282.641 46.835H283.551L287.594 56H286.489L285.475 53.66H280.704L279.703 56H278.598ZM283.083 48.083L281.094 52.763H285.098L283.109 48.083H283.083ZM291.424 56.117C290.792 56.117 290.246 55.9827 289.786 55.714C289.327 55.4367 288.972 55.051 288.72 54.557C288.478 54.0543 288.356 53.4693 288.356 52.802C288.356 51.7967 288.629 51.008 289.175 50.436C289.721 49.8553 290.471 49.565 291.424 49.565C291.814 49.565 292.2 49.6343 292.581 49.773C292.963 49.9117 293.279 50.1067 293.53 50.358L293.166 51.125C292.915 50.8823 292.638 50.7047 292.334 50.592C292.04 50.4793 291.758 50.423 291.489 50.423C290.831 50.423 290.324 50.631 289.968 51.047C289.613 51.4543 289.435 52.0437 289.435 52.815C289.435 53.569 289.613 54.167 289.968 54.609C290.324 55.0423 290.831 55.259 291.489 55.259C291.758 55.259 292.04 55.2027 292.334 55.09C292.638 54.9773 292.915 54.7953 293.166 54.544L293.53 55.311C293.279 55.5623 292.958 55.7617 292.568 55.909C292.187 56.0477 291.806 56.117 291.424 56.117ZM297.299 56.117C296.554 56.117 295.995 55.922 295.622 55.532C295.249 55.1333 295.063 54.5613 295.063 53.816V50.501H293.828V49.682H295.063V47.745H296.116V49.682H298.118V50.501H296.116V53.712C296.116 54.206 296.22 54.583 296.428 54.843C296.636 55.0943 296.974 55.22 297.442 55.22C297.581 55.22 297.719 55.2027 297.858 55.168C297.997 55.1333 298.122 55.0987 298.235 55.064L298.417 55.87C298.304 55.9307 298.14 55.987 297.923 56.039C297.706 56.091 297.498 56.117 297.299 56.117ZM299.179 48.109V46.926H300.479V48.109H299.179ZM299.309 56V49.682H300.362V56H299.309ZM304.956 56.117C304.341 56.117 303.808 55.9827 303.357 55.714C302.907 55.4453 302.556 55.0683 302.304 54.583C302.062 54.089 301.94 53.5083 301.94 52.841C301.94 52.1737 302.062 51.5973 302.304 51.112C302.556 50.618 302.907 50.2367 303.357 49.968C303.808 49.6993 304.341 49.565 304.956 49.565C305.563 49.565 306.092 49.6993 306.542 49.968C307.002 50.2367 307.353 50.618 307.595 51.112C307.847 51.5973 307.972 52.1737 307.972 52.841C307.972 53.5083 307.847 54.089 307.595 54.583C307.353 55.0683 307.002 55.4453 306.542 55.714C306.092 55.9827 305.563 56.117 304.956 56.117ZM304.956 55.272C305.546 55.272 306.018 55.064 306.373 54.648C306.729 54.2233 306.906 53.621 306.906 52.841C306.906 52.0523 306.729 51.45 306.373 51.034C306.018 50.618 305.546 50.41 304.956 50.41C304.358 50.41 303.882 50.618 303.526 51.034C303.18 51.45 303.006 52.0523 303.006 52.841C303.006 53.621 303.18 54.2233 303.526 54.648C303.882 55.064 304.358 55.272 304.956 55.272ZM309.554 56V49.682H310.581V50.761C310.789 50.3623 311.084 50.0633 311.465 49.864C311.846 49.6647 312.275 49.565 312.752 49.565C314.251 49.565 315.001 50.397 315.001 52.061V56H313.948V52.126C313.948 51.5367 313.831 51.1077 313.597 50.839C313.372 50.5617 313.008 50.423 312.505 50.423C311.924 50.423 311.461 50.605 311.114 50.969C310.776 51.3243 310.607 51.801 310.607 52.399V56H309.554ZM320.424 56V46.835H324.051C325.039 46.835 325.793 47.0733 326.313 47.55C326.842 48.0267 327.106 48.707 327.106 49.591C327.106 50.4663 326.842 51.1467 326.313 51.632C325.793 52.1087 325.039 52.347 324.051 52.347H321.49V56H320.424ZM321.49 51.45H323.921C325.343 51.45 326.053 50.8303 326.053 49.591C326.053 48.343 325.343 47.719 323.921 47.719H321.49V51.45ZM330.445 56.117C329.804 56.117 329.318 55.9307 328.989 55.558C328.668 55.1767 328.508 54.6263 328.508 53.907V46.835H329.561V53.829C329.561 54.7563 329.929 55.22 330.666 55.22C330.883 55.22 331.078 55.194 331.251 55.142L331.225 56.026C330.956 56.0867 330.696 56.117 330.445 56.117ZM334.344 56.117C333.91 56.117 333.52 56.0347 333.174 55.87C332.836 55.6967 332.567 55.4627 332.368 55.168C332.168 54.8733 332.069 54.544 332.069 54.18C332.069 53.7207 332.186 53.3567 332.42 53.088C332.662 52.8193 333.057 52.6287 333.603 52.516C334.157 52.3947 334.911 52.334 335.865 52.334H336.281V51.931C336.281 51.3937 336.168 51.008 335.943 50.774C335.726 50.5313 335.375 50.41 334.89 50.41C334.508 50.41 334.14 50.4663 333.785 50.579C333.429 50.683 333.065 50.8563 332.693 51.099L332.329 50.332C332.658 50.098 333.057 49.9117 333.525 49.773C334.001 49.6343 334.456 49.565 334.89 49.565C335.704 49.565 336.307 49.7643 336.697 50.163C337.095 50.5617 337.295 51.1813 337.295 52.022V56H336.307V54.908C336.142 55.2807 335.886 55.5753 335.54 55.792C335.202 56.0087 334.803 56.117 334.344 56.117ZM334.513 55.324C335.033 55.324 335.457 55.1463 335.787 54.791C336.116 54.427 336.281 53.9677 336.281 53.413V53.023H335.878C335.176 53.023 334.621 53.0577 334.214 53.127C333.815 53.1877 333.533 53.3003 333.369 53.465C333.213 53.621 333.135 53.8377 333.135 54.115C333.135 54.4703 333.256 54.7607 333.499 54.986C333.75 55.2113 334.088 55.324 334.513 55.324ZM339.248 56V49.682H340.275V50.761C340.483 50.3623 340.778 50.0633 341.159 49.864C341.541 49.6647 341.97 49.565 342.446 49.565C343.946 49.565 344.695 50.397 344.695 52.061V56H343.642V52.126C343.642 51.5367 343.525 51.1077 343.291 50.839C343.066 50.5617 342.702 50.423 342.199 50.423C341.619 50.423 341.155 50.605 340.808 50.969C340.47 51.3243 340.301 51.801 340.301 52.399V56H339.248Z" fill="#0057B6"/>
<path d="M295.74 110.117C294.891 110.117 294.15 109.926 293.517 109.545C292.893 109.155 292.408 108.609 292.061 107.907C291.723 107.205 291.554 106.373 291.554 105.411C291.554 104.449 291.723 103.617 292.061 102.915C292.399 102.213 292.88 101.671 293.504 101.29C294.137 100.909 294.882 100.718 295.74 100.718C296.607 100.718 297.352 100.909 297.976 101.29C298.609 101.671 299.094 102.213 299.432 102.915C299.779 103.608 299.952 104.436 299.952 105.398C299.952 106.36 299.779 107.196 299.432 107.907C299.086 108.609 298.596 109.155 297.963 109.545C297.339 109.926 296.598 110.117 295.74 110.117ZM295.74 109.168C296.72 109.168 297.478 108.839 298.015 108.18C298.553 107.521 298.821 106.598 298.821 105.411C298.821 104.224 298.553 103.305 298.015 102.655C297.478 101.996 296.72 101.667 295.74 101.667C294.778 101.667 294.029 101.996 293.491 102.655C292.954 103.305 292.685 104.224 292.685 105.411C292.685 106.59 292.954 107.513 293.491 108.18C294.029 108.839 294.778 109.168 295.74 109.168ZM304.25 110.117C303.505 110.117 302.946 109.922 302.573 109.532C302.2 109.133 302.014 108.561 302.014 107.816V104.501H300.779V103.682H302.014V101.745H303.067V103.682H305.069V104.501H303.067V107.712C303.067 108.206 303.171 108.583 303.379 108.843C303.587 109.094 303.925 109.22 304.393 109.22C304.532 109.22 304.67 109.203 304.809 109.168C304.948 109.133 305.073 109.099 305.186 109.064L305.368 109.87C305.255 109.931 305.091 109.987 304.874 110.039C304.657 110.091 304.449 110.117 304.25 110.117ZM306.26 110V100.835H307.313V104.722C307.521 104.341 307.811 104.055 308.184 103.864C308.565 103.665 308.99 103.565 309.458 103.565C310.957 103.565 311.707 104.397 311.707 106.061V110H310.654V106.126C310.654 105.537 310.537 105.108 310.303 104.839C310.078 104.562 309.714 104.423 309.211 104.423C308.63 104.423 308.167 104.605 307.82 104.969C307.482 105.324 307.313 105.801 307.313 106.399V110H306.26ZM316.496 110.117C315.499 110.117 314.71 109.827 314.13 109.246C313.549 108.657 313.259 107.859 313.259 106.854C313.259 106.204 313.389 105.632 313.649 105.138C313.909 104.635 314.264 104.25 314.715 103.981C315.174 103.704 315.703 103.565 316.301 103.565C317.159 103.565 317.83 103.842 318.316 104.397C318.801 104.943 319.044 105.697 319.044 106.659V107.062H314.286C314.32 107.781 314.528 108.332 314.91 108.713C315.291 109.086 315.82 109.272 316.496 109.272C316.877 109.272 317.241 109.216 317.588 109.103C317.934 108.982 318.264 108.787 318.576 108.518L318.94 109.259C318.654 109.528 318.29 109.74 317.848 109.896C317.406 110.043 316.955 110.117 316.496 110.117ZM316.327 104.345C315.729 104.345 315.256 104.531 314.91 104.904C314.563 105.277 314.359 105.766 314.299 106.373H318.134C318.108 105.732 317.939 105.233 317.627 104.878C317.323 104.523 316.89 104.345 316.327 104.345ZM320.568 110V103.682H321.595V104.813C321.933 104.05 322.626 103.63 323.675 103.552L324.052 103.513L324.13 104.423L323.467 104.501C322.869 104.553 322.414 104.744 322.102 105.073C321.79 105.394 321.634 105.836 321.634 106.399V110H320.568ZM269.115 129.117C268.213 129.117 267.442 128.926 266.801 128.545C266.159 128.164 265.665 127.622 265.319 126.92C264.981 126.218 264.812 125.382 264.812 124.411C264.812 123.449 264.981 122.617 265.319 121.915C265.665 121.213 266.159 120.671 266.801 120.29C267.442 119.909 268.213 119.718 269.115 119.718C269.747 119.718 270.328 119.818 270.857 120.017C271.394 120.216 271.849 120.507 272.222 120.888L271.806 121.759C271.407 121.386 270.991 121.118 270.558 120.953C270.133 120.78 269.661 120.693 269.141 120.693C268.109 120.693 267.321 121.018 266.775 121.668C266.229 122.318 265.956 123.232 265.956 124.411C265.956 125.598 266.229 126.517 266.775 127.167C267.321 127.817 268.109 128.142 269.141 128.142C269.661 128.142 270.133 128.06 270.558 127.895C270.991 127.722 271.407 127.449 271.806 127.076L272.222 127.947C271.849 128.32 271.394 128.61 270.857 128.818C270.328 129.017 269.747 129.117 269.115 129.117ZM273.754 129V122.682H274.781V123.813C275.119 123.05 275.812 122.63 276.861 122.552L277.238 122.513L277.316 123.423L276.653 123.501C276.055 123.553 275.6 123.744 275.288 124.073C274.976 124.394 274.82 124.836 274.82 125.399V129H273.754ZM281.184 129.117C280.187 129.117 279.398 128.827 278.818 128.246C278.237 127.657 277.947 126.859 277.947 125.854C277.947 125.204 278.077 124.632 278.337 124.138C278.597 123.635 278.952 123.25 279.403 122.981C279.862 122.704 280.391 122.565 280.989 122.565C281.847 122.565 282.518 122.842 283.004 123.397C283.489 123.943 283.732 124.697 283.732 125.659V126.062H278.974C279.008 126.781 279.216 127.332 279.598 127.713C279.979 128.086 280.508 128.272 281.184 128.272C281.565 128.272 281.929 128.216 282.276 128.103C282.622 127.982 282.952 127.787 283.264 127.518L283.628 128.259C283.342 128.528 282.978 128.74 282.536 128.896C282.094 129.043 281.643 129.117 281.184 129.117ZM281.015 123.345C280.417 123.345 279.944 123.531 279.598 123.904C279.251 124.277 279.047 124.766 278.987 125.373H282.822C282.796 124.732 282.627 124.233 282.315 123.878C282.011 123.523 281.578 123.345 281.015 123.345ZM287.661 129.117C287.097 129.117 286.603 128.983 286.179 128.714C285.763 128.445 285.438 128.068 285.204 127.583C284.978 127.089 284.866 126.508 284.866 125.841C284.866 125.165 284.978 124.584 285.204 124.099C285.438 123.605 285.763 123.228 286.179 122.968C286.603 122.699 287.097 122.565 287.661 122.565C288.155 122.565 288.588 122.673 288.961 122.89C289.342 123.107 289.624 123.406 289.806 123.787V119.835H290.859V129H289.832V127.843C289.65 128.242 289.368 128.554 288.987 128.779C288.605 129.004 288.163 129.117 287.661 129.117ZM287.882 128.272C288.471 128.272 288.943 128.064 289.299 127.648C289.654 127.223 289.832 126.621 289.832 125.841C289.832 125.052 289.654 124.45 289.299 124.034C288.943 123.618 288.471 123.41 287.882 123.41C287.284 123.41 286.807 123.618 286.452 124.034C286.105 124.45 285.932 125.052 285.932 125.841C285.932 126.621 286.105 127.223 286.452 127.648C286.807 128.064 287.284 128.272 287.882 128.272ZM292.705 121.109V119.926H294.005V121.109H292.705ZM292.835 129V122.682H293.888V129H292.835ZM298.391 129.117C297.646 129.117 297.087 128.922 296.714 128.532C296.341 128.133 296.155 127.561 296.155 126.816V123.501H294.92V122.682H296.155V120.745H297.208V122.682H299.21V123.501H297.208V126.712C297.208 127.206 297.312 127.583 297.52 127.843C297.728 128.094 298.066 128.22 298.534 128.22C298.673 128.22 298.811 128.203 298.95 128.168C299.089 128.133 299.214 128.099 299.327 128.064L299.509 128.87C299.396 128.931 299.232 128.987 299.015 129.039C298.798 129.091 298.59 129.117 298.391 129.117ZM303.883 129V119.835H307.549C308.494 119.835 309.222 120.047 309.733 120.472C310.253 120.888 310.513 121.473 310.513 122.227C310.513 122.73 310.383 123.159 310.123 123.514C309.863 123.869 309.503 124.129 309.044 124.294C309.573 124.433 309.984 124.688 310.279 125.061C310.582 125.434 310.734 125.906 310.734 126.478C310.734 127.293 310.47 127.917 309.941 128.35C309.412 128.783 308.667 129 307.705 129H303.883ZM304.923 123.93H307.393C308.771 123.93 309.46 123.393 309.46 122.318C309.46 121.235 308.771 120.693 307.393 120.693H304.923V123.93ZM304.923 128.142H307.601C308.988 128.142 309.681 127.583 309.681 126.465C309.681 125.347 308.988 124.788 307.601 124.788H304.923V128.142ZM314.761 129.117C313.244 129.117 312.486 128.281 312.486 126.608V122.682H313.539V126.595C313.539 127.158 313.652 127.574 313.877 127.843C314.111 128.112 314.475 128.246 314.969 128.246C315.506 128.246 315.944 128.068 316.282 127.713C316.62 127.349 316.789 126.868 316.789 126.27V122.682H317.842V129H316.815V127.934C316.616 128.315 316.334 128.61 315.97 128.818C315.615 129.017 315.212 129.117 314.761 129.117ZM319.682 121.109V119.926H320.982V121.109H319.682ZM319.812 129V122.682H320.865V129H319.812ZM324.771 129.117C324.129 129.117 323.644 128.931 323.315 128.558C322.994 128.177 322.834 127.626 322.834 126.907V119.835H323.887V126.829C323.887 127.756 324.255 128.22 324.992 128.22C325.208 128.22 325.403 128.194 325.577 128.142L325.551 129.026C325.282 129.087 325.022 129.117 324.771 129.117ZM329.022 129.117C328.459 129.117 327.965 128.983 327.54 128.714C327.124 128.445 326.799 128.068 326.565 127.583C326.34 127.089 326.227 126.508 326.227 125.841C326.227 125.165 326.34 124.584 326.565 124.099C326.799 123.605 327.124 123.228 327.54 122.968C327.965 122.699 328.459 122.565 329.022 122.565C329.516 122.565 329.949 122.673 330.322 122.89C330.703 123.107 330.985 123.406 331.167 123.787V119.835H332.22V129H331.193V127.843C331.011 128.242 330.729 128.554 330.348 128.779C329.967 129.004 329.525 129.117 329.022 129.117ZM329.243 128.272C329.832 128.272 330.305 128.064 330.66 127.648C331.015 127.223 331.193 126.621 331.193 125.841C331.193 125.052 331.015 124.45 330.66 124.034C330.305 123.618 329.832 123.41 329.243 123.41C328.645 123.41 328.168 123.618 327.813 124.034C327.466 124.45 327.293 125.052 327.293 125.841C327.293 126.621 327.466 127.223 327.813 127.648C328.168 128.064 328.645 128.272 329.243 128.272ZM337.043 129.117C336.046 129.117 335.258 128.827 334.677 128.246C334.096 127.657 333.806 126.859 333.806 125.854C333.806 125.204 333.936 124.632 334.196 124.138C334.456 123.635 334.811 123.25 335.262 122.981C335.721 122.704 336.25 122.565 336.848 122.565C337.706 122.565 338.378 122.842 338.863 123.397C339.348 123.943 339.591 124.697 339.591 125.659V126.062H334.833C334.868 126.781 335.076 127.332 335.457 127.713C335.838 128.086 336.367 128.272 337.043 128.272C337.424 128.272 337.788 128.216 338.135 128.103C338.482 127.982 338.811 127.787 339.123 127.518L339.487 128.259C339.201 128.528 338.837 128.74 338.395 128.896C337.953 129.043 337.502 129.117 337.043 129.117ZM336.874 123.345C336.276 123.345 335.804 123.531 335.457 123.904C335.11 124.277 334.907 124.766 334.846 125.373H338.681C338.655 124.732 338.486 124.233 338.174 123.878C337.871 123.523 337.437 123.345 336.874 123.345ZM341.115 129V122.682H342.142V123.813C342.48 123.05 343.173 122.63 344.222 122.552L344.599 122.513L344.677 123.423L344.014 123.501C343.416 123.553 342.961 123.744 342.649 124.073C342.337 124.394 342.181 124.836 342.181 125.399V129H341.115ZM347.843 129.117C347.349 129.117 346.881 129.048 346.439 128.909C345.997 128.77 345.633 128.575 345.347 128.324L345.685 127.583C345.997 127.834 346.339 128.021 346.712 128.142C347.093 128.255 347.479 128.311 347.869 128.311C348.363 128.311 348.735 128.22 348.987 128.038C349.238 127.856 349.364 127.609 349.364 127.297C349.364 127.054 349.281 126.864 349.117 126.725C348.952 126.578 348.692 126.465 348.337 126.387L347.154 126.127C346.079 125.893 345.542 125.338 345.542 124.463C345.542 123.891 345.767 123.432 346.218 123.085C346.677 122.738 347.275 122.565 348.012 122.565C348.445 122.565 348.857 122.634 349.247 122.773C349.645 122.903 349.975 123.098 350.235 123.358L349.884 124.099C349.632 123.865 349.338 123.687 349 123.566C348.67 123.436 348.341 123.371 348.012 123.371C347.526 123.371 347.158 123.466 346.907 123.657C346.655 123.848 346.53 124.099 346.53 124.411C346.53 124.896 346.85 125.208 347.492 125.347L348.675 125.594C349.229 125.715 349.65 125.91 349.936 126.179C350.222 126.439 350.365 126.794 350.365 127.245C350.365 127.826 350.135 128.285 349.676 128.623C349.216 128.952 348.605 129.117 347.843 129.117Z" fill="#727272"/>
<defs>
<linearGradient id="paint0_linear" x1="26.0103" y1="171.431" x2="22.9744" y2="177.585" gradientUnits="userSpaceOnUse">
<stop stop-color="#3E51FF"/>
<stop offset="1" stop-color="#0071EB"/>
</linearGradient>
<linearGradient id="paint1_linear" x1="361.01" y1="4.43077" x2="357.974" y2="10.5846" gradientUnits="userSpaceOnUse">
<stop stop-color="#3E51FF"/>
<stop offset="1" stop-color="#0071EB"/>
</linearGradient>
</defs>
</svg>
