<svg width="49" height="42" viewBox="0 0 49 42" fill="none" xmlns="http://www.w3.org/2000/svg">
<path d="M13.4473 35.0294C12.2374 33.8195 9.02513 30.2417 9.00403 24.3075C9.00478 20.2615 10.5827 16.4559 13.4473 13.5915L7.19916 7.34302C2.6641 11.8777 0.166504 17.9036 0.166504 24.3105C0.166504 30.7173 2.6641 36.7432 7.19916 41.2779C7.47375 41.5525 7.83357 41.6897 8.19347 41.6897C8.55338 41.6897 8.91329 41.5524 9.18788 41.2778L13.4473 37.0181C13.9965 36.4689 13.9965 35.5785 13.4473 35.0294Z" fill="#04903F"/>
<path d="M41.134 7.34283C36.5987 2.80786 30.5729 0.310364 24.1667 0.310364C17.7604 0.310364 11.7347 2.80786 7.19931 7.34293C6.65003 7.89221 6.65069 8.78293 7.19931 9.33164L11.4588 13.5914C12.008 14.1406 12.8989 14.1401 13.4477 13.5913C16.3123 10.7259 20.1191 9.1478 24.1667 9.1478C28.2142 9.1478 32.021 10.7259 34.8858 13.5912C35.1495 13.8549 35.5072 14.0032 35.8802 14.0032C36.4878 14.0032 36.8453 13.6206 36.8746 13.5913L41.134 9.33155C41.6833 8.78236 41.6827 7.89155 41.134 7.34283Z" fill="#FFEAA0"/>
<path d="M41.1338 7.34283C36.5985 2.80786 30.5727 0.310364 24.1665 0.310364V9.14789C28.2141 9.14789 32.0209 10.726 34.8856 13.5913C35.1493 13.855 35.5071 14.0033 35.88 14.0033C36.4877 14.0033 36.8452 13.6207 36.8744 13.5914L41.1338 9.33164C41.6831 8.78236 41.6826 7.89155 41.1338 7.34283Z" fill="#DCA600"/>
<path d="M34.8855 35.0294C36.0955 33.8195 39.3077 30.2417 39.3288 24.3075C39.3281 20.2615 37.7501 16.4559 34.8855 13.5915L41.1337 7.34302C45.6687 11.8777 48.1663 17.9036 48.1663 24.3105C48.1663 30.7173 45.6687 36.7432 41.1337 41.2779C40.8591 41.5525 40.4993 41.6897 40.1394 41.6897C39.7795 41.6897 39.4196 41.5524 39.145 41.2778L34.8855 37.0181C34.3363 36.4689 34.3363 35.5785 34.8855 35.0294Z" fill="#A3090C"/>
<path d="M9.00403 24.3074C9.00478 20.2615 10.5827 16.4559 13.4473 13.5915L7.19916 7.34302C2.6641 11.8777 0.166504 17.9036 0.166504 24.3104L9.00403 24.3074Z" fill="#01471F"/>
<path d="M34.8855 35.0292C36.0955 33.8194 39.3077 30.2416 39.3288 24.3073L48.1663 24.3103C48.1663 30.7172 45.6687 36.7431 41.1337 41.2778C40.8591 41.5523 40.4993 41.6896 40.1394 41.6896C39.7795 41.6896 39.4196 41.5522 39.145 41.2777L34.8855 37.0179C34.3363 36.4688 34.3363 35.5784 34.8855 35.0292Z" fill="#5A0D0F"/>
<path d="M24.1668 28.729C21.7303 28.729 19.748 26.7468 19.748 24.3103C19.748 21.2323 22.4823 8.83948 22.7941 7.43651C22.937 6.79311 23.5077 6.33533 24.1669 6.33533C24.826 6.33533 25.3967 6.79311 25.5396 7.43651C25.8515 8.83948 28.5857 21.2323 28.5857 24.3103C28.5855 26.7468 26.6032 28.729 24.1668 28.729Z" fill="#0057B6"/>
<path d="M24.1665 28.729V6.33521C24.8256 6.33521 25.3963 6.79299 25.5393 7.43639C25.8511 8.83936 28.5853 21.2322 28.5853 24.3102C28.5852 26.7467 26.603 28.729 24.1665 28.729Z" fill="#002247"/>
</svg>
