<svg width="49" height="48" viewBox="0 0 49 48" fill="none" xmlns="http://www.w3.org/2000/svg">
<path d="M24.834 5.56274L6.83398 17.7825V45.75H42.834V17.7825L24.834 5.56274Z" fill="#DBF0FF"/>
<path d="M13.584 30.75H21.834V45.75H13.584V30.75Z" fill="#31A0EE"/>
<path d="M30.084 37.5H40.584V40.5H30.084V37.5Z" fill="#33385C"/>
<path d="M27.834 45.75V35.25L29.334 33L30.834 35.25V45.75H27.834Z" fill="#454A6D"/>
<path d="M33.834 45.75V35.25L35.334 33L36.834 35.25V45.75H33.834Z" fill="#454A6D"/>
<path d="M39.834 45.75V35.25L41.334 33L42.834 35.25V45.75H39.834Z" fill="#454A6D"/>
<path d="M27.084 24H22.584C21.3412 24 20.334 22.9928 20.334 21.75V17.25C20.334 16.0073 21.3412 15 22.584 15H27.084C28.3267 15 29.334 16.0073 29.334 17.25V21.75C29.334 22.9928 28.3267 24 27.084 24Z" fill="url(#paint0_linear)"/>
<path d="M29.334 18.75H25.584V15H24.084V18.75H20.334V20.25H24.084V24H25.584V20.25H29.334V18.75Z" fill="#DBF0FF"/>
<path d="M18.084 37.5H19.584V39H18.084V37.5Z" fill="#454A6D"/>
<path d="M6.08398 39.75H7.58398V45.75H6.08398V39.75Z" fill="#454A6D"/>
<path d="M10.584 36.7499C10.584 39.4424 8.90473 41.2499 6.83398 41.2499C4.76323 41.2499 3.08398 39.4424 3.08398 36.7499C3.08398 34.9919 4.68223 30.7349 5.79223 27.9907C6.17173 27.0524 7.49698 27.0524 7.87648 27.9907C8.98573 30.7349 10.584 34.9919 10.584 36.7499Z" fill="#76CC7A"/>
<path d="M2.33398 45H47.334V46.5H2.33398V45Z" fill="#454A6D"/>
<path d="M44.9922 19.2411L24.8344 5.56263L4.67669 19.2411L2.99219 16.7586L24.8344 1.93713L46.6767 16.7586L44.9922 19.2411Z" fill="#C8660C"/>
<defs>
<linearGradient id="paint0_linear" x1="27.0955" y1="15.4846" x2="23.6801" y2="22.4077" gradientUnits="userSpaceOnUse">
<stop stop-color="#3E51FF"/>
<stop offset="1" stop-color="#0071EB"/>
</linearGradient>
</defs>
</svg>
