<svg width="49" height="48" viewBox="0 0 49 48" fill="none" xmlns="http://www.w3.org/2000/svg">
<g clip-path="url(#clip0)">
<path d="M40.8082 31.9455L44.3365 31.9245C45.009 31.9205 45.5575 32.4624 45.5616 33.135L45.6034 40.1409C45.6073 40.8134 45.0655 41.3619 44.3928 41.366L40.8646 41.387C40.192 41.391 39.6436 40.8491 39.6395 40.1765L39.5977 33.1706C39.5936 32.498 40.1356 31.9496 40.8082 31.9455Z" fill="#002247"/>
<path d="M4.90403 32.1594L8.43232 32.1383C9.10482 32.1344 9.65332 32.6762 9.65741 33.3489L9.69907 40.3549C9.70304 41.0274 9.16116 41.5759 8.48854 41.58L4.96025 41.601C4.28775 41.605 3.73925 41.0631 3.73516 40.3905L3.69338 33.3846C3.68941 32.712 4.23141 32.1635 4.90403 32.1594Z" fill="#002247"/>
<path d="M44.8192 14.8823C44.5245 14.9101 44.3003 15.1592 44.3035 15.4551C44.3761 16.0327 44.0059 16.5737 43.4412 16.7152L42.5635 16.7206L43.0142 18.0362C43.0142 18.0362 48.6655 18.0022 48.4964 16.146C48.3655 14.7054 45.9126 14.7774 44.8192 14.8823Z" fill="#002247"/>
<path d="M4.18093 14.8823C4.47565 14.9101 4.69981 15.1592 4.69668 15.4551C4.62409 16.0327 4.99429 16.5737 5.55892 16.7152L6.43669 16.7206L5.98595 18.0362C5.98595 18.0362 0.334689 18.0022 0.503717 16.146C0.634703 14.7054 3.08754 14.7774 4.18093 14.8823Z" fill="#002247"/>
<path d="M47.237 25.9051C47.1314 24.5246 46.7323 23.1826 46.0662 21.9688L43.6841 17.6002C43.6841 17.6002 39.4543 8.06621 37.6922 7.30751C35.9884 6.57385 25.1134 6.40892 24.3928 6.3988H24.353C23.6325 6.41783 12.7603 6.71266 11.0656 7.46655C9.31247 8.24608 5.19451 17.8282 5.19451 17.8282L2.86676 22.2254C2.21556 23.447 1.83248 24.7933 1.74303 26.1748C1.5793 29.2262 1.90809 32.2842 2.71663 35.2312C3.09755 36.621 4.36682 37.5798 5.8079 37.5661L24.5382 37.4578H24.578L43.3083 37.3464C44.7491 37.3425 46.0066 36.3686 46.3709 34.9745C47.1451 32.0176 47.4375 28.9551 47.237 25.9051Z" fill="url(#paint0_linear)"/>
<path d="M15.3905 31.5706L33.6428 31.4617C33.9694 31.4598 34.2357 31.7229 34.2376 32.0494L34.2562 35.1573C34.2581 35.4839 33.9949 35.7502 33.6684 35.7522L15.4161 35.8611C15.0895 35.863 14.8232 35.5999 14.8213 35.2734L14.8027 32.1655C14.8008 31.8389 15.064 31.5726 15.3905 31.5706Z" fill="#002247"/>
<path d="M38.0341 8.74578C37.8435 8.33079 37.4325 8.06124 36.9758 8.05197L24.4953 7.7959H24.456L11.9791 8.20089C11.523 8.21582 11.1153 8.49007 10.9298 8.9071L7.34961 16.96L24.5089 16.8576H24.5481L41.7098 16.7551L38.0341 8.74578Z" fill="#002247"/>
<path d="M42.0964 30.9366C40.8933 30.9435 39.9237 31.9244 39.9307 33.1274C39.9377 34.3305 40.9185 35.3001 42.1216 35.2931C43.3246 35.2862 44.2943 34.3053 44.2873 33.1023C44.2873 33.1019 44.2873 33.1015 44.2873 33.1012C44.2797 31.8986 43.299 30.9296 42.0964 30.9366Z" fill="#DBF0FF"/>
<path d="M7.11778 31.1455C5.91472 31.1528 4.94533 32.134 4.95268 33.337C4.9599 34.5401 5.94108 35.5095 7.14415 35.5021C8.34721 35.4949 9.31648 34.5137 9.30925 33.3108C9.30191 32.1077 8.32085 31.1383 7.11778 31.1455Z" fill="#DBF0FF"/>
<path d="M16.3447 26.0455H32.2315V28.0286H16.3447V26.0455Z" fill="#002247"/>
<path d="M45.1527 22.9276C45.1003 22.4635 44.6814 22.1298 44.2174 22.1825C44.1813 22.1866 44.1454 22.1929 44.11 22.2017L36.8449 23.9781C36.6268 24.0317 36.4389 24.1699 36.3227 24.3621L34.8834 26.7442C34.6424 27.1434 34.7705 27.6624 35.1697 27.9035C35.3014 27.9831 35.4524 28.0251 35.6062 28.0251H42.7046C42.8706 28.0263 43.0333 27.9789 43.1727 27.8887C44.8472 26.7798 45.3713 25.0523 45.1527 22.9276Z" fill="#F4F7F7"/>
<path d="M41.7103 23.6017C40.8319 23.6376 40.149 24.3788 40.185 25.2572C40.2208 26.1355 40.9621 26.8185 41.8405 26.7825C42.7187 26.7467 43.4017 26.0056 43.3659 25.1273C43.3297 24.249 42.5887 23.566 41.7103 23.6017Z" fill="url(#paint1_linear)"/>
<path d="M38.3378 25.1207C37.6698 25.1476 37.1499 25.711 37.1768 26.3791C37.2036 27.0471 37.7671 27.567 38.4351 27.5401C39.1032 27.5133 39.623 26.9498 39.5962 26.2818C39.5962 26.2814 39.5962 26.2812 39.5962 26.2808C39.5688 25.6131 39.0056 25.0939 38.3378 25.1207Z" fill="url(#paint2_linear)"/>
<path d="M3.84681 22.9276C3.8993 22.4635 4.31814 22.1298 4.78212 22.1825C4.81824 22.1866 4.85412 22.1929 4.88951 22.2017L12.1546 23.9781C12.3728 24.0317 12.5607 24.1699 12.6769 24.3621L14.1161 26.7442C14.3572 27.1434 14.2291 27.6624 13.8299 27.9035C13.6981 27.9831 13.5472 28.0251 13.3933 28.0251H6.29495C6.12894 28.0263 5.96629 27.9789 5.82688 27.8887C4.15224 26.7798 3.6283 25.0523 3.84681 22.9276Z" fill="#F4F7F7"/>
<path d="M7.29026 23.6017C8.16863 23.6376 8.8516 24.3788 8.81561 25.2572C8.77973 26.1355 8.03848 26.8185 7.16011 26.7825C6.28186 26.7467 5.59889 26.0056 5.63464 25.1273C5.67088 24.249 6.41189 23.566 7.29026 23.6017Z" fill="url(#paint3_linear)"/>
<path d="M10.6626 25.1207C11.3307 25.1476 11.8505 25.711 11.8237 26.3791C11.7968 27.0471 11.2334 27.567 10.5654 27.5401C9.89731 27.5133 9.37747 26.9498 9.40432 26.2818C9.40432 26.2814 9.40432 26.2812 9.40432 26.2808C9.43164 25.6131 9.99483 25.0939 10.6626 25.1207Z" fill="url(#paint4_linear)"/>
</g>
<defs>
<linearGradient id="paint0_linear" x1="35.9577" y1="8.07705" x2="26.9316" y2="34.8432" gradientUnits="userSpaceOnUse">
<stop stop-color="#3E51FF"/>
<stop offset="1" stop-color="#0071EB"/>
</linearGradient>
<linearGradient id="paint1_linear" x1="42.5754" y1="23.7718" x2="41.3673" y2="26.2207" gradientUnits="userSpaceOnUse">
<stop stop-color="#FF9900"/>
<stop offset="1" stop-color="#FFD467"/>
</linearGradient>
<linearGradient id="paint2_linear" x1="38.9949" y1="25.2501" x2="38.076" y2="27.1127" gradientUnits="userSpaceOnUse">
<stop stop-color="#FF9900"/>
<stop offset="1" stop-color="#FFD467"/>
</linearGradient>
<linearGradient id="paint3_linear" x1="8.02513" y1="23.7718" x2="6.81704" y2="26.2207" gradientUnits="userSpaceOnUse">
<stop stop-color="#FF9900"/>
<stop offset="1" stop-color="#FFD467"/>
</linearGradient>
<linearGradient id="paint4_linear" x1="11.2224" y1="25.2501" x2="10.3036" y2="27.1127" gradientUnits="userSpaceOnUse">
<stop stop-color="#FF9900"/>
<stop offset="1" stop-color="#FFD467"/>
</linearGradient>
<clipPath id="clip0">
<rect width="48" height="48" fill="white" transform="translate(0.5)"/>
</clipPath>
</defs>
</svg>
