<svg width="49" height="48" viewBox="0 0 49 48" fill="none" xmlns="http://www.w3.org/2000/svg">
<g clip-path="url(#clip0)">
<path d="M48.5 15.3103V40.9655C48.5003 41.8435 48.1515 42.6856 47.5307 43.3065C46.9098 43.9273 46.0677 44.2761 45.1897 44.2758H3.81031C2.93225 44.2761 2.09019 43.9273 1.46928 43.3065C0.848469 42.6857 0.499719 41.8435 0.5 40.9656V15.3103C0.499719 14.4322 0.848469 13.5902 1.46928 12.9693C2.09019 12.3484 2.93225 11.9997 3.81031 12H18.7069" fill="#DBF0FF"/>
<path d="M47.6767 10.2093C48.1765 10.4464 48.4965 10.9488 48.5002 11.502V19.0888C48.4117 26.0157 45.1319 32.5143 39.6119 36.6999L34.7039 40.5852C34.058 41.0922 33.1492 41.0922 32.5033 40.5852L27.5953 36.6999C22.0753 32.5143 18.7954 26.0157 18.707 19.0888V11.502C18.7107 10.9488 19.0307 10.4465 19.5304 10.2093L32.2712 4.02916C33.1129 3.62228 34.0943 3.62228 34.9359 4.02916L47.6767 10.2093Z" fill="#04903F"/>
<path d="M33.6035 26.8964C37.7171 26.8964 41.0518 23.5765 41.0518 19.4813C41.0518 15.386 37.7171 12.0661 33.6035 12.0661C29.49 12.0661 26.1553 15.386 26.1553 19.4813C26.1553 23.5765 29.49 26.8964 33.6035 26.8964Z" fill="white"/>
<path d="M32.2494 22.6834C32.0299 22.6837 31.8193 22.5964 31.6643 22.441L30.3098 21.0865C29.9866 20.7633 29.9866 20.2393 30.3098 19.9162C30.6329 19.593 31.1569 19.593 31.48 19.9162L32.2494 20.6856L35.7271 17.2079C36.0507 16.8876 36.5724 16.8888 36.8944 17.2109C37.2164 17.5329 37.2177 18.0545 36.8974 18.3781L32.8346 22.4409C32.6796 22.5964 32.469 22.6837 32.2494 22.6834Z" fill="#04903F"/>
<path d="M17.879 36.8275H4.82518C4.36815 36.8275 3.99756 36.457 3.99756 35.9999C3.99756 35.5427 4.36806 35.1722 4.82518 35.1722H17.879C18.3361 35.1722 18.7067 35.5427 18.7067 35.9999C18.7067 36.457 18.3362 36.8275 17.879 36.8275Z" fill="#002247"/>
<path d="M11.2584 40.1378H4.82518C4.36815 40.1378 3.99756 39.7673 3.99756 39.3102C3.99756 38.853 4.36806 38.4825 4.82518 38.4825H11.2584C11.7154 38.4825 12.086 38.853 12.086 39.3102C12.086 39.7673 11.7154 40.1378 11.2584 40.1378Z" fill="#002247"/>
<path d="M16.5446 29.6584L13.67 28.2415C13.3003 28.061 13.0653 27.686 13.0639 27.2746V26.1626C13.1604 26.0524 13.2513 25.9374 13.336 25.8179C13.7232 25.2756 14.0245 24.6769 14.2295 24.0429C14.6059 23.932 14.8657 23.5882 14.8697 23.1958V22.0091C14.8683 21.7568 14.7587 21.5173 14.5687 21.3513V19.6356C14.5687 19.6356 14.9259 16.9654 11.2584 16.9654C7.59054 16.9654 7.9481 19.6356 7.9481 19.6356V21.3513C7.75816 21.5172 7.64848 21.7568 7.64716 22.0091V23.1958C7.64885 23.4996 7.80588 23.7814 8.06332 23.9426C8.26404 24.7516 8.6351 25.5086 9.15185 26.1626V27.247C9.15073 27.6445 8.93116 28.0091 8.58035 28.1961L5.89563 29.6397C5.12351 30.0511 4.64013 30.8538 4.6377 31.7287V32.6896H17.879V31.7868C17.8761 30.881 17.3586 30.0556 16.5446 29.6584Z" fill="#002247"/>
</g>
<defs>
<clipPath id="clip0">
<rect width="48" height="48" fill="white" transform="translate(0.5)"/>
</clipPath>
</defs>
</svg>
