<svg width="49" height="48" viewBox="0 0 49 48" fill="none" xmlns="http://www.w3.org/2000/svg">
<g clip-path="url(#clip0)">
<path d="M24.8341 38.7647H2.32129V16.4116H24.8341L36.0905 29.1983L24.8341 38.7647Z" fill="white"/>
<path d="M24.834 16.4116H47.3468V38.7647H24.834V16.4116Z" fill="#F3F1F4"/>
<path d="M26.3047 16.6882L43.5964 17.8628H48.8345V12.0187H26.3047V16.6882Z" fill="#C8C3CA"/>
<path d="M0.833984 17.8626H6.66381L23.3638 16.6881V12.0186H0.833984V17.8626Z" fill="#DFDCE0"/>
<path d="M24.834 41.0977H0.833984V36.4313H24.834L36.834 39.1007L24.834 41.0977Z" fill="#C8C3CA"/>
<path d="M24.834 36.4313H48.834V41.0978H24.834V36.4313Z" fill="#8C818F"/>
<path d="M5.08789 21.7312H8.83432V25.4776H5.08789V21.7312Z" fill="#ADCFFF"/>
<path d="M5.08789 27.696H8.83432V31.4424H5.08789V27.696Z" fill="#ADCFFF"/>
<path d="M40.835 21.7313H44.5814V25.4777H40.835V21.7313Z" fill="#8BBBFF"/>
<path d="M40.835 27.696H44.5814V31.4425H40.835V27.696Z" fill="#8BBBFF"/>
<path d="M24.8337 36.3737H21.1475V25.4773H24.8337L26.6768 31.7104L24.8337 36.3737Z" fill="#8E562F"/>
<path d="M24.834 25.4773H28.5202V36.3737H24.834V25.4773Z" fill="#754727"/>
<path d="M10.9346 19.5511H14.6924V37.9425H10.9346V19.5511Z" fill="#DFDCE0"/>
<path d="M34.9746 19.551H38.7324V37.9424H34.9746V19.551Z" fill="#C8C3CA"/>
<path d="M29.4463 19.551H33.2041V37.9424H29.4463V19.551Z" fill="#C8C3CA"/>
<path d="M16.4639 19.551H20.2217V37.9424H16.4639V19.551Z" fill="#DFDCE0"/>
<path d="M24.8343 42.2044H9.72168V35.4376H24.8343L32.3905 39.3084L24.8343 42.2044Z" fill="#F3F1F4"/>
<path d="M24.834 35.4376H39.9466V42.2044H24.834V35.4376Z" fill="#DFDCE0"/>
<path d="M24.8343 20.3732H9.72168V15.7068H24.8343L32.3905 18.3762L24.8343 20.3732Z" fill="#C8C3CA"/>
<path d="M24.834 15.7067H39.9466V20.3732H24.834V15.7067Z" fill="#8C818F"/>
<path d="M24.8342 17.078L8.87013 17.8627H6.36816L24.8342 4.99994L34.0673 12.8605L24.8342 17.078Z" fill="#F3F1F4"/>
<path d="M43.3 17.8627H40.798L24.834 16.4113V4.99994L43.3 17.8627Z" fill="#DFDCE0"/>
<path d="M24.8342 17.8628H8.87012L24.8342 6.58362L32.8162 13.5385L24.8342 17.8628Z" fill="#DFDCE0"/>
<path d="M40.798 17.8628H24.834V6.58356L40.798 17.8628Z" fill="#C8C3CA"/>
<path d="M23.3081 12.1624C23.5527 12.3542 23.863 12.5264 24.3118 12.7137V11.6083C24.1652 11.5329 24.0338 11.454 23.9286 11.3714C23.8074 11.2764 23.7555 11.0751 23.7964 10.8585C23.8367 10.6447 23.9813 10.3855 24.2666 10.2995C24.2818 10.2949 24.2968 10.2921 24.312 10.288V9.26208C24.202 9.2797 24.0906 9.3026 23.9766 9.3369C23.3773 9.51753 22.9296 10.0291 22.8085 10.6723C22.6972 11.2624 22.8887 11.8333 23.3081 12.1624Z" fill="#8C818F"/>
<path d="M24.3117 14.7771C23.9432 14.7651 23.7515 14.7031 23.3928 14.4685L22.9721 14.1933L22.4219 15.0346L22.8425 15.3097C23.4136 15.6833 23.7851 15.7687 24.3117 15.7825V14.7771Z" fill="#8C818F"/>
<path d="M25.2433 10.2364C25.6996 10.2646 26.0416 10.4577 26.0593 10.468L26.4858 10.7291L27.0106 9.87176L26.5819 9.60927C26.5511 9.59036 25.9989 9.26033 25.2432 9.2298V10.2364H25.2433Z" fill="#655E67"/>
<path d="M25.7518 12.0337C25.5846 11.9746 25.4117 11.9114 25.2432 11.8445V12.9191C25.2994 12.9397 25.3571 12.9603 25.4168 12.9815C26.0397 13.2017 26.0259 13.7077 25.9911 13.9151C25.9327 14.262 25.6777 14.6314 25.2432 14.7438V15.7649C26.2209 15.6384 26.8524 14.8549 26.9824 14.0817C27.1378 13.1568 26.6549 12.3529 25.7518 12.0337Z" fill="#655E67"/>
<path d="M24.8172 16.591H24.3018V8.48785H24.8172L25.0749 13.1231L24.8172 16.591Z" fill="#8C818F"/>
<path d="M24.8174 8.48773H25.3329V16.5909H24.8174V8.48773Z" fill="#655E67"/>
</g>
<defs>
<clipPath id="clip0">
<rect width="48" height="48" fill="white" transform="translate(0.833984)"/>
</clipPath>
</defs>
</svg>
