<svg width="49" height="48" viewBox="0 0 49 48" fill="none" xmlns="http://www.w3.org/2000/svg">
<g clip-path="url(#clip0)">
<path d="M45.6433 32.5342L48.4572 14.5672C48.7498 12.7439 47.5092 11.0284 45.6859 10.7349L7.71617 4.64064C5.89292 4.34805 4.17749 5.58864 3.88489 7.41189L2.53564 15.8144V32.4297L45.6433 32.5342Z" fill="#146AA8"/>
<path d="M45.6862 10.735L34.902 9.00452C27.659 20.0872 15.9501 27.7632 6.9707 32.4406L45.6436 32.5342L48.4575 14.5672C48.7501 12.7438 47.5095 11.0284 45.6862 10.735Z" fill="#126099"/>
<path d="M3.84396 14.9785H42.2994C44.1461 14.9785 45.6434 16.4758 45.6434 18.3225V40.0582C45.6434 41.9049 44.1461 43.4022 42.2994 43.4022H3.84396C1.99728 43.4021 0.5 41.9049 0.5 40.0582V18.3225C0.5 16.4758 1.99728 14.9785 3.84396 14.9785Z" fill="#4398D1"/>
<path d="M42.2996 14.9785H41.6308C33.7391 28.9889 18.9932 38.5993 9.99121 43.4021H42.2996C44.1463 43.4021 45.6436 41.9048 45.6436 40.0581V18.3225C45.6436 16.4758 44.1463 14.9785 42.2996 14.9785Z" fill="#3E8CC7"/>
<path d="M13.04 19.1585H4.68018V25.8464H13.04V19.1585Z" fill="#FDB62F"/>
<path d="M7.18817 21.6665H4.68018V23.3384H7.18817V21.6665Z" fill="#FD7B2F"/>
<path d="M13.0402 21.6665H10.5322V23.3384H13.0402V21.6665Z" fill="#FD7B2F"/>
<path d="M37.2834 39.2221C39.592 39.2221 41.4634 37.3507 41.4634 35.0422C41.4634 32.7337 39.592 30.8622 37.2834 30.8622C34.9749 30.8622 33.1035 32.7337 33.1035 35.0422C33.1035 37.3507 34.9749 39.2221 37.2834 39.2221Z" fill="#FDB62F"/>
<path d="M32.2678 39.2221C34.5763 39.2221 36.4477 37.3507 36.4477 35.0422C36.4477 32.7337 34.5763 30.8622 32.2678 30.8622C29.9593 30.8622 28.0879 32.7337 28.0879 35.0422C28.0879 37.3507 29.9593 39.2221 32.2678 39.2221Z" fill="#DE4C3C"/>
<path d="M8.86014 31.6982H3.84424V33.3702H8.86014V31.6982Z" fill="#87CED9"/>
<path d="M17.22 31.6982H12.2041V33.3702H17.22V31.6982Z" fill="#87CED9"/>
<path d="M25.5803 31.6982H20.5645V33.3702H25.5803V31.6982Z" fill="#87CED9"/>
<path d="M25.5799 36.7143H3.84424V38.3862H25.5799V36.7143Z" fill="#87CED9"/>
<path d="M31.4317 19.1585H29.7598V22.5025H31.4317V19.1585Z" fill="#87CED9"/>
<path d="M34.7754 19.1585H33.1035V22.5025H34.7754V19.1585Z" fill="#87CED9"/>
<path d="M38.1192 19.1585H36.4473V22.5025H38.1192V19.1585Z" fill="#87CED9"/>
<path d="M41.4639 19.1585H39.792V22.5025H41.4639V19.1585Z" fill="#87CED9"/>
</g>
<defs>
<clipPath id="clip0">
<rect width="48" height="48" fill="white" transform="translate(0.5)"/>
</clipPath>
</defs>
</svg>
