<svg width="49" height="48" viewBox="0 0 49 48" fill="none" xmlns="http://www.w3.org/2000/svg">
<g clip-path="url(#clip0)">
<path d="M43.9478 40.875H4.38525C2.05908 40.875 0.166504 38.9824 0.166504 36.6562V11.3438C0.166504 9.01758 2.05908 7.125 4.38525 7.125H43.9478C46.2739 7.125 48.1665 9.01758 48.1665 11.3438V36.6562C48.1665 38.9824 46.2739 40.875 43.9478 40.875Z" fill="#DBF0FF"/>
<path d="M17.548 31.8277H4.49413C4.0371 31.8277 3.6665 31.4572 3.6665 31.0001C3.6665 30.543 4.037 30.1725 4.49413 30.1725H17.548C18.005 30.1725 18.3756 30.543 18.3756 31.0001C18.3756 31.4572 18.0051 31.8277 17.548 31.8277Z" fill="#002247"/>
<path d="M10.9273 35.138H4.49413C4.0371 35.138 3.6665 34.7675 3.6665 34.3104C3.6665 33.8532 4.037 33.4827 4.49413 33.4827H10.9273C11.3844 33.4827 11.755 33.8532 11.755 34.3104C11.755 34.7675 11.3844 35.138 10.9273 35.138Z" fill="#002247"/>
<path d="M16.2135 24.6586L13.339 23.2416C12.9692 23.0612 12.7342 22.6862 12.7329 22.2748V21.1628C12.8294 21.0526 12.9202 20.9375 13.005 20.8181C13.3921 20.2758 13.6935 19.6771 13.8985 19.043C14.2749 18.9321 14.5347 18.5884 14.5386 18.196V17.0092C14.5372 16.757 14.4276 16.5175 14.2377 16.3515V14.6358C14.2377 14.6358 14.5949 11.9656 10.9274 11.9656C7.25948 11.9656 7.61705 14.6358 7.61705 14.6358V16.3515C7.42711 16.5174 7.31742 16.757 7.31611 17.0092V18.196C7.3178 18.4998 7.47483 18.7816 7.73227 18.9427C7.93298 19.7518 8.30405 20.5087 8.8208 21.1628V22.2472C8.81967 22.6447 8.60011 23.0093 8.2493 23.1963L5.56458 24.6399C4.79245 25.0513 4.30908 25.854 4.30664 26.7289V27.6898H17.548V26.787C17.5451 25.8812 17.0276 25.0558 16.2135 24.6586Z" fill="#002247"/>
<path d="M43.9478 7.125H24.1665V40.875H43.9478C46.2739 40.875 48.1665 38.9824 48.1665 36.6562V11.3438C48.1665 9.01758 46.2739 7.125 43.9478 7.125Z" fill="#DBF0FF"/>
<path d="M43.1353 31.0312H28.1353C27.3585 31.0312 26.729 30.4017 26.729 29.625C26.729 28.8483 27.3585 28.2188 28.1353 28.2188H43.1353C43.912 28.2188 44.5415 28.8483 44.5415 29.625C44.5415 30.4017 43.912 31.0312 43.1353 31.0312Z" fill="#002247"/>
<path d="M43.1353 25.4062H28.1353C27.3585 25.4062 26.729 24.7767 26.729 24C26.729 23.2233 27.3585 22.5938 28.1353 22.5938H43.1353C43.912 22.5938 44.5415 23.2233 44.5415 24C44.5415 24.7767 43.912 25.4062 43.1353 25.4062Z" fill="#002247"/>
<path d="M33.7603 19.7812H28.1353C27.3585 19.7812 26.729 19.1517 26.729 18.375C26.729 17.5983 27.3585 16.9688 28.1353 16.9688H33.7603C34.537 16.9688 35.1665 17.5983 35.1665 18.375C35.1665 19.1517 34.537 19.7812 33.7603 19.7812Z" fill="#002247"/>
</g>
<defs>
<clipPath id="clip0">
<rect width="48" height="48" fill="white" transform="translate(0.166504)"/>
</clipPath>
</defs>
</svg>
