<svg width="49" height="48" viewBox="0 0 49 48" fill="none" xmlns="http://www.w3.org/2000/svg">
<g clip-path="url(#clip0)">
<path d="M29.5931 48H7.26545C5.59464 48 4.24023 46.6456 4.24023 44.9748V3.02522C4.24023 1.35441 5.59464 0 7.26545 0H29.5931C31.264 0 32.6184 1.35441 32.6184 3.02522V44.9748C32.6183 46.6456 31.2639 48 29.5931 48Z" fill="#424242"/>
<path d="M32.6186 3.02484V44.9751C32.6186 46.6459 31.2645 47.9999 29.5937 47.9999H26.4288C28.0996 47.9999 29.4547 46.6459 29.4547 44.9751V3.02484C29.4546 1.35403 28.0995 0 26.4287 0H29.5936C31.2644 0 32.6186 1.35403 32.6186 3.02484Z" fill="#727272"/>
<path d="M30.0973 3.52909V44.471C30.0973 45.0273 29.6453 45.4793 29.089 45.4793H7.76902C7.21271 45.4793 6.76074 45.0273 6.76074 44.471V3.52909C6.76074 2.97278 7.21271 2.52081 7.76902 2.52081H10.5428C11.2112 2.52081 11.7529 3.06259 11.7529 3.73094V4.25922C11.7529 4.92756 12.2947 5.46934 12.9631 5.46934H23.8949C24.5632 5.46934 25.105 4.92756 25.105 4.25922V3.73094C25.105 3.06259 25.6468 2.52081 26.3151 2.52081H29.0889C29.6453 2.52081 30.0973 2.97278 30.0973 3.52909Z" fill="url(#paint0_linear)"/>
<path d="M30.0971 14.7148V33.285H13.1465C12.5661 33.285 12.0947 32.8138 12.0947 32.2333V15.7666C12.0947 15.1851 12.566 14.7148 13.1465 14.7148H30.0971Z" fill="#002247"/>
<path d="M30.0977 17.3283V35.8986H15.8194C15.239 35.8986 14.7676 35.4273 14.7676 34.8468V18.3801" fill="#002247"/>
<path d="M30.0977 3.52909V44.471C30.0977 45.0273 29.6457 45.4793 29.0894 45.4793H26.3359C26.8923 45.4793 27.3442 45.0273 27.3442 44.471V3.52909C27.3442 2.97278 26.8923 2.52081 26.3359 2.52081H29.0894C29.6457 2.52081 30.0977 2.97278 30.0977 3.52909Z" fill="#002247"/>
<path d="M44.3747 33.2852H15.8188C15.2377 33.2852 14.7666 32.8141 14.7666 32.2331V15.7666C14.7666 15.1856 15.2377 14.7145 15.8188 14.7145H44.3747C44.9558 14.7145 45.4269 15.1856 45.4269 15.7666V32.233C45.4269 32.8141 44.9558 33.2852 44.3747 33.2852Z" fill="#D0F8CF"/>
<path d="M45.4263 15.767V32.2328C45.4263 32.8143 44.955 33.2855 44.3745 33.2855H41.6211C42.2015 33.2855 42.6729 32.8143 42.6729 32.2328V15.767C42.6729 15.1855 42.2016 14.7142 41.6211 14.7142H44.3745C44.9549 14.7142 45.4263 15.1856 45.4263 15.767Z" fill="#04903F"/>
<path d="M42.2706 18.5022V25.1318C42.2706 25.4824 41.9851 25.7618 41.6344 25.7622C41.2397 25.7627 40.8274 25.8231 40.3974 25.9432C39.351 26.2356 38.5051 27.0225 38.1562 28.0515C37.9861 28.5532 37.9053 29.0314 37.904 29.4864C37.9029 29.8394 37.6258 30.1288 37.2729 30.1288H18.5542C18.2055 30.1288 17.9229 29.8462 17.9229 29.4975V22.8681C17.9229 22.5208 18.2033 22.2371 18.5506 22.2374C19.461 22.2383 20.4284 21.9174 21.2117 21.1948C21.5761 20.8588 21.9765 20.1827 22.1129 19.7062C22.2336 19.2848 22.2904 18.8803 22.2894 18.4929C22.2886 18.1478 22.5754 17.8708 22.9205 17.8708H41.6393C41.9879 17.8708 42.2706 18.1535 42.2706 18.5022Z" fill="#04903F"/>
<path d="M42.2701 18.5021V25.1313C42.2701 25.4829 41.9852 25.762 41.6346 25.762C41.2396 25.7629 40.8272 25.8228 40.3974 25.9436C39.3504 26.2352 38.5044 27.0224 38.1557 28.0519C37.9857 28.5532 37.9046 29.0312 37.9036 29.4861C37.9027 29.8395 37.6254 30.1284 37.272 30.1284H35.126C35.4785 30.1284 35.7557 29.8396 35.7566 29.4861C35.7586 29.0312 35.8388 28.5531 36.0087 28.0519C36.3583 27.0224 37.2034 26.2352 38.2504 25.9436C38.6801 25.8228 39.0925 25.763 39.4876 25.762C39.8382 25.762 40.1231 25.4829 40.1231 25.1313V18.5021C40.1231 18.1534 39.8411 17.8705 39.4925 17.8705H41.6394C41.9881 17.8705 42.2701 18.1534 42.2701 18.5021Z" fill="#01471F"/>
<path d="M42.2708 30.8532H40.9528C40.5528 30.8532 40.2285 30.5289 40.2285 30.1289C40.2285 29.7289 40.5528 29.4046 40.9528 29.4046H41.5464V28.811C41.5464 28.411 41.8706 28.0867 42.2707 28.0867C42.6707 28.0867 42.995 28.411 42.995 28.811V30.1289C42.9952 30.5289 42.6709 30.8532 42.2708 30.8532Z" fill="#04903F"/>
<path d="M17.9235 19.913C17.5235 19.913 17.1992 19.5887 17.1992 19.1886V17.8708C17.1992 17.4708 17.5235 17.1465 17.9235 17.1465H19.2415C19.6415 17.1465 19.9658 17.4708 19.9658 17.8708C19.9658 18.2708 19.6415 18.5951 19.2415 18.5951H18.6479V19.1886C18.6479 19.5887 18.3236 19.913 17.9235 19.913Z" fill="#04903F"/>
<path d="M30.0968 30.1288C33.4817 30.1288 36.2258 27.3848 36.2258 23.9998C36.2258 20.6149 33.4817 17.8708 30.0968 17.8708C26.7118 17.8708 23.9678 20.6149 23.9678 23.9998C23.9678 27.3848 26.7118 30.1288 30.0968 30.1288Z" fill="#FFD467"/>
<path d="M36.2258 23.9994C36.2258 27.3846 33.482 30.1283 30.0969 30.1283C29.5271 30.1283 28.9757 30.0511 28.4522 29.9052C31.3717 29.5228 33.6269 27.0243 33.6269 23.9993C33.6269 20.9744 31.3708 18.476 28.4502 18.0945C28.9746 17.9486 29.5261 17.8704 30.0969 17.8704C33.482 17.8705 36.2258 20.6152 36.2258 23.9994Z" fill="#FF9900"/>
<path d="M29.5099 26.2967C29.3045 26.2967 29.1088 26.2096 28.9714 26.0568L27.5569 24.4845C27.2894 24.1871 27.3136 23.7291 27.611 23.4616C27.9083 23.194 28.3663 23.2182 28.6339 23.5157L29.5098 24.4893L31.8 21.9434C32.0676 21.6459 32.5256 21.6217 32.823 21.8893C33.1204 22.1568 33.1446 22.6148 32.8771 22.9122L30.0482 26.0568C29.9111 26.2096 29.7153 26.2967 29.5099 26.2967Z" fill="#C8660C"/>
<path d="M23.6628 39.3505C23.4775 39.3505 23.2921 39.2797 23.1507 39.1383C22.8677 38.8555 22.8677 38.3969 23.1507 38.1139L23.7943 37.4703L23.1507 36.8267C22.8677 36.5439 22.8677 36.0853 23.1507 35.8023C23.4335 35.5195 23.8922 35.5195 24.1751 35.8023L25.3308 36.9581C25.6138 37.2409 25.6138 37.6996 25.3308 37.9825L24.1751 39.1382C24.0335 39.2797 23.8482 39.3505 23.6628 39.3505Z" fill="#002247"/>
<path d="M23.6628 12.4097C23.4775 12.4097 23.2921 12.3389 23.1507 12.1975C22.8677 11.9147 22.8677 11.4561 23.1507 11.1731L23.7943 10.5295L23.1507 9.88595C22.8677 9.60311 22.8677 9.14448 23.1507 8.86155C23.4335 8.5787 23.8922 8.5787 24.1751 8.86155L25.3308 10.0173C25.6138 10.3001 25.6138 10.7588 25.3308 11.0417L24.1751 12.1975C24.0335 12.3389 23.8482 12.4097 23.6628 12.4097Z" fill="#002247"/>
<path d="M18.6002 9.80837H17.0134C16.6133 9.80837 16.2891 9.48409 16.2891 9.08405C16.2891 8.68402 16.6133 8.35974 17.0134 8.35974H18.6002C19.0002 8.35974 19.3245 8.68402 19.3245 9.08405C19.3245 9.48409 19.0002 9.80837 18.6002 9.80837Z" fill="#002247"/>
<path d="M20.3085 12.1942H17.0134C16.6133 12.1942 16.2891 11.8699 16.2891 11.4699C16.2891 11.0698 16.6133 10.7455 17.0134 10.7455H20.3085C20.7085 10.7455 21.0328 11.0698 21.0328 11.4699C21.0328 11.8699 20.7085 12.1942 20.3085 12.1942Z" fill="#002247"/>
<path d="M19.0626 41.8983H11.4736C10.9402 41.8983 10.5078 41.4659 10.5078 40.9325V37.2806C10.5078 36.7471 10.9402 36.3148 11.4736 36.3148H19.0626C19.596 36.3148 20.0284 36.7471 20.0284 37.2806V40.9325C20.0284 41.4659 19.596 41.8983 19.0626 41.8983Z" fill="#F1FAFF"/>
<path d="M20.0283 37.2807V40.9323C20.0283 41.4655 19.5957 41.8982 19.0625 41.8982H16.2617C16.7958 41.8982 17.2275 41.4655 17.2275 40.9323V37.2807C17.2275 36.7475 16.7958 36.3149 16.2617 36.3149H19.0625C19.5957 36.3149 20.0283 36.7476 20.0283 37.2807Z" fill="#C9F0FD"/>
<path d="M12.2142 13.3751C10.5458 13.3751 9.18848 12.0178 9.18848 10.3494C9.18848 8.68104 10.5458 7.32373 12.2142 7.32373C13.0048 7.32373 13.7527 7.62682 14.3202 8.17714C14.5981 8.44676 14.6149 8.88729 14.3582 9.17736L12.7499 10.9941C12.4847 11.2937 12.027 11.3215 11.7273 11.0563C11.4278 10.7912 11.3999 10.3333 11.6652 10.0338L12.7112 8.85214C12.5528 8.79964 12.3854 8.77236 12.2142 8.77236C11.3446 8.77236 10.6372 9.47979 10.6372 10.3493C10.6372 11.2189 11.3446 11.9263 12.2142 11.9263C12.8179 11.9263 13.3598 11.5895 13.6283 11.0476C13.8058 10.6891 14.2402 10.5423 14.5989 10.72C14.9574 10.8975 15.104 11.3321 14.9264 11.6906C14.4119 12.7296 13.3725 13.3751 12.2142 13.3751Z" fill="#002247"/>
</g>
<defs>
<linearGradient id="paint0_linear" x1="24.2931" y1="4.83396" x2="3.84436" y2="27.3511" gradientUnits="userSpaceOnUse">
<stop stop-color="#3E51FF"/>
<stop offset="1" stop-color="#0071EB"/>
</linearGradient>
<clipPath id="clip0">
<rect width="48" height="48" fill="white" transform="translate(0.833984)"/>
</clipPath>
</defs>
</svg>
