<svg width="49" height="48" viewBox="0 0 49 48" fill="none" xmlns="http://www.w3.org/2000/svg">
<g clip-path="url(#clip0)">
<path d="M16.3286 47.816H13.5916C12.8756 47.816 12.3388 47.1608 12.4796 46.4587L15.9842 30.3447H21.0348L17.4406 46.9048C17.3343 47.4348 16.8689 47.816 16.3286 47.816Z" fill="#EAC89F"/>
<path d="M18.6226 30.3448L15.0285 46.9048C14.9223 47.4347 14.4569 47.816 13.9165 47.816H16.3284C16.8688 47.816 17.3342 47.4347 17.4404 46.9048L21.0345 30.3447H18.6226V30.3448Z" fill="#D2AF8C"/>
<path d="M32.0046 47.816H34.7415C35.4575 47.816 35.9943 47.1608 35.8535 46.4587L32.3489 30.3447H27.2983L30.8924 46.9047C30.9988 47.4348 31.4642 47.816 32.0046 47.816Z" fill="#EAC89F"/>
<path d="M35.8536 46.4588L32.3489 30.3448H29.937L33.4417 46.4588C33.5825 47.1609 33.0456 47.8161 32.3297 47.8161H34.7416C35.4575 47.816 35.9943 47.1608 35.8536 46.4588Z" fill="#D2AF8C"/>
<path d="M46.5507 3.07133V30.8447H1.78223V3.07133C1.78223 1.4768 3.07543 0.184565 4.66899 0.184565L18.3917 0.184082L24.1665 1.08527L29.9412 0.184082L43.6639 0.184565C45.2575 0.184565 46.5507 1.4768 46.5507 3.07133Z" fill="#D0F8CF"/>
<path d="M46.5506 3.07133V30.8447H44.138V3.08871C44.138 1.48453 42.8381 0.18457 41.2339 0.18457H43.6638C45.2574 0.18457 46.5506 1.4768 46.5506 3.07133Z" fill="#04903F"/>
<path d="M48.1665 28.9845V31.0185C48.1665 31.7071 47.6083 32.2653 46.9197 32.2653H1.41334C0.724733 32.2653 0.166504 31.7071 0.166504 31.0185V28.9845C0.166504 28.2959 0.724733 27.7377 1.41334 27.7377H46.9197C47.6083 27.7377 48.1665 28.2959 48.1665 28.9845Z" fill="#F4DBB3"/>
<path d="M48.1667 28.9845V31.0185C48.1667 31.7071 47.6084 32.2653 46.9198 32.2653H44.5005C45.193 32.2653 45.7551 31.7042 45.7551 31.0117V28.9913C45.7551 28.2988 45.193 27.7377 44.5005 27.7377H46.9198C47.6084 27.7377 48.1667 28.2959 48.1667 28.9845Z" fill="#EAC89F"/>
<path d="M12.7103 18.6301C16.059 18.6301 18.7737 15.9155 18.7737 12.5668C18.7737 9.21808 16.059 6.50342 12.7103 6.50342C9.36163 6.50342 6.64697 9.21808 6.64697 12.5668C6.64697 15.9155 9.36163 18.6301 12.7103 18.6301Z" fill="#FFD467"/>
<path d="M12.7099 6.50342C12.2969 6.50342 11.8937 6.54504 11.5039 6.62376C14.2748 7.18305 16.3613 9.63105 16.3613 12.5668C16.3613 15.5025 14.2748 17.9506 11.5039 18.5098C11.8937 18.5885 12.2969 18.6301 12.7099 18.6301C16.0586 18.6301 18.7733 15.9155 18.7733 12.5668C18.7733 9.21807 16.0586 6.50342 12.7099 6.50342Z" fill="#FF9900"/>
<path d="M26.1172 24.7027H24.2C23.8015 24.7027 23.4785 24.3797 23.4785 23.9813V22.0641C23.4785 21.6656 23.8016 21.3427 24.2 21.3427H26.1172C26.5157 21.3427 26.8386 21.6657 26.8386 22.0641V23.9813C26.8387 24.3797 26.5157 24.7027 26.1172 24.7027Z" fill="#A3090C"/>
<path d="M33.8115 24.7027H31.8943C31.4958 24.7027 31.1729 24.3797 31.1729 23.9813V22.0641C31.1729 21.6656 31.4959 21.3427 31.8943 21.3427H33.8115C34.21 21.3427 34.533 21.6657 34.533 22.0641V23.9813C34.533 24.3797 34.2099 24.7027 33.8115 24.7027Z" fill="#DCA600"/>
<path d="M41.4092 24.7027H39.492C39.0935 24.7027 38.7705 24.3797 38.7705 23.9813V22.0641C38.7705 21.6656 39.0936 21.3427 39.492 21.3427H41.4092C41.8077 21.3427 42.1306 21.6657 42.1306 22.0641V23.9813C42.1306 24.3797 41.8077 24.7027 41.4092 24.7027Z" fill="#04903F"/>
<path d="M29.9411 0.184204V1.7202C29.9411 2.61888 29.2125 3.34747 28.3138 3.34747H20.0189C19.1202 3.34747 18.3916 2.61878 18.3916 1.7202V0.184204H29.9411Z" fill="#918291"/>
<path d="M27.5296 0.184204V1.7202C27.5296 2.61888 26.8009 3.34747 25.9023 3.34747H28.3142C29.2129 3.34747 29.9415 2.61878 29.9415 1.7202V0.184204H27.5296Z" fill="#7A6D79"/>
<path d="M24.1664 41.4694C23.4538 41.4694 22.7414 41.3346 22.0632 41.0647L17.3088 39.1734C16.9371 39.0255 16.7556 38.6043 16.9036 38.2326C17.0514 37.8609 17.4725 37.6792 17.8444 37.8274L22.5987 39.7187C23.6096 40.1208 24.7231 40.1208 25.734 39.7187L30.4884 37.8274C30.8604 37.6796 31.2813 37.861 31.4291 38.2326C31.577 38.6043 31.3955 39.0255 31.0239 39.1734L26.2696 41.0647C25.5915 41.3345 24.8788 41.4694 24.1664 41.4694Z" fill="#918291"/>
<path d="M23.6193 19.0012C23.434 19.0012 23.2486 18.9305 23.1072 18.7891C22.8243 18.5062 22.8243 18.0476 23.1072 17.7647L28.9682 11.9037C29.6581 11.214 30.7804 11.2139 31.4701 11.9037L32.2345 12.6681C32.3595 12.7933 32.5628 12.7931 32.6878 12.6681L41.5517 3.80425C41.8345 3.52147 42.2932 3.52147 42.576 3.80425C42.8589 4.08723 42.8589 4.54579 42.576 4.82867L33.7121 13.6925C33.0223 14.3823 31.9 14.3823 31.2101 13.6925L30.4457 12.9281C30.3207 12.803 30.1175 12.803 29.9925 12.9281L24.1315 18.7891C23.9901 18.9304 23.8048 19.0012 23.6193 19.0012Z" fill="#01471F"/>
<path d="M42.064 9.51965C41.664 9.51965 41.3397 9.19544 41.3397 8.79531V5.03982H37.5842C37.1842 5.03982 36.8599 4.7156 36.8599 4.31547C36.8599 3.91534 37.1842 3.59113 37.5842 3.59113H42.064C42.4641 3.59113 42.7884 3.91534 42.7884 4.31547V8.79531C42.7884 9.19534 42.4641 9.51965 42.064 9.51965Z" fill="#01471F"/>
<path d="M14.3592 23.9127H10.5549C10.1549 23.9127 9.83057 23.5885 9.83057 23.1883C9.83057 22.7882 10.1549 22.464 10.5549 22.464H14.3592C14.7592 22.464 15.0835 22.7882 15.0835 23.1883C15.0835 23.5885 14.7592 23.9127 14.3592 23.9127Z" fill="#FFD15B"/>
<path d="M10.9012 15.3936C11.2967 15.6523 11.6089 15.779 11.9524 15.8376V15.9208C11.9524 16.3209 12.2766 16.6452 12.6767 16.6452C13.0768 16.6452 13.401 16.3209 13.401 15.9208V15.7575C14.1922 15.478 14.6987 14.7683 14.8168 14.0658C14.9822 13.0816 14.4494 12.1925 13.4909 11.8538C13.0187 11.687 12.4983 11.4867 12.2177 11.2667C12.1288 11.131 12.165 10.7948 12.4553 10.6886C12.9325 10.5451 13.2359 10.7817 13.269 10.8092L13.5404 10.9382C13.5404 10.9382 14.2229 11.2446 14.4598 10.6178C14.6491 10.1165 14.2389 9.73334 14.2389 9.73334C14.0728 9.58016 13.7805 9.39473 13.401 9.28627V9.21287C13.401 8.81274 13.0767 8.48853 12.6766 8.48853C12.2765 8.48853 11.9523 8.81274 11.9523 9.21287V9.33041C11.3396 9.54916 10.8862 10.0872 10.7602 10.756C10.6377 11.4056 10.8538 12.0379 11.3236 12.4066C11.768 12.755 12.3958 13.0033 13.008 13.2197C13.384 13.3526 13.4221 13.6225 13.388 13.8256C13.339 14.1168 13.0941 14.4313 12.6717 14.4342C12.177 14.4372 12.0579 14.4192 11.6941 14.1812C11.3593 13.962 10.9104 14.056 10.6914 14.3909C10.4726 14.7257 10.5663 15.1746 10.9012 15.3936Z" fill="#C8660C"/>
</g>
<defs>
<clipPath id="clip0">
<rect width="48" height="48" fill="white" transform="translate(0.166504)"/>
</clipPath>
</defs>
</svg>
