<svg width="157" height="332" viewBox="0 0 157 332" fill="none" xmlns="http://www.w3.org/2000/svg">
<path d="M12.9459 248.755C-2.1839 234.985 -8.22789 197.657 20.2383 183.089C36.6693 174.677 53.9888 182.433 66.2221 200.032C56.4658 206.483 48.1496 219.324 43.7173 242.111C38.5717 268.547 52.7139 291.504 71.3215 307.216C62.2126 322.68 49.0017 331.204 37.1218 331.889C12.8006 333.284 14.4453 321.35 21.7014 306.374C31.3189 286.51 30.7674 264.977 12.9459 248.755Z" fill="#D7DBFF"/>
<path opacity="0.2" d="M66.2217 200.028C70.4954 197.201 75.0432 195.598 79.6604 194.928C90.7081 193.318 99.2819 193.839 106.115 184.131C112.096 175.628 117.179 170.193 127.315 174.011C153.301 183.799 160.059 228.443 138.145 249.105C109.088 276.507 133.201 301.526 127.533 313.693C122.844 323.762 111.621 330.804 89.6281 319.707C83.31 316.52 77.1405 312.123 71.3244 307.212C76.6715 298.134 76.612 287.326 78.0355 273.647C81.1269 243.921 78.0487 217.044 66.2217 200.028Z" fill="url(#paint0_linear)"/>
<path d="M43.7172 242.107C48.1527 219.321 56.469 206.48 66.2219 200.028C78.049 217.044 81.0247 245.243 77.9301 274.973C76.5066 288.652 76.6684 298.134 71.3213 307.212C52.7138 291.501 38.5715 268.543 43.7172 242.107Z" fill="#6877FF"/>
<path d="M60.0557 130.963C60.0557 130.963 72.2724 131.447 83.3861 123.317C92.3662 116.748 102.423 116.319 102.423 116.319C102.423 116.319 115.046 182.735 115.198 185.293C115.35 187.854 114.392 193.588 113.969 196.877C113.127 203.441 105.973 269.756 105.973 269.756C105.973 269.756 89.4532 268.685 89.1791 268.707C88.9049 268.725 89.7934 226.158 90.9857 216.243C92.178 206.323 93.291 190.513 93.0301 186.145C92.7691 181.777 84.0929 148.981 84.1193 149.432C84.1457 149.884 81.1237 186.557 81.4078 205.139C81.6918 223.721 84.2184 275.268 84.2184 275.268L68.1969 277.942C68.1969 277.942 62.1892 197.912 62.2454 194.276C62.3114 190.644 60.0557 130.963 60.0557 130.963Z" fill="#6877FF"/>
<path opacity="0.2" d="M70.6869 277.996L71.1889 286.386C71.1889 286.386 69.7588 285.982 69.7159 290.196C69.706 291.14 70.7992 291.624 70.7364 293.705C70.4788 302.043 70.6902 314.469 71.5555 315.529C72.8799 317.15 75.3305 319.685 77.5467 319.092C79.7628 318.498 81.6552 317.39 82.1705 316.163C82.6857 314.935 84.3106 307.69 84.9382 301.81C85.5657 295.93 85.9554 290.932 85.0141 289.92C84.0728 288.907 83.2538 288.32 83.2538 288.32L80.7734 284.503L78.8942 284.208L78.8281 276.543L70.6869 277.996Z" fill="url(#paint1_linear)"/>
<path d="M102.024 116.333C104.114 126.326 105.835 136.416 107.678 146.467C108.827 152.729 109.977 158.987 111.153 165.242C112.13 170.441 113.26 175.617 114.019 180.863C114.468 183.97 114.99 187.07 114.452 190.203C114.29 191.15 114.099 192.087 113.95 193.034C113.468 196.116 113.048 199.208 112.632 202.301C111.232 212.647 109.95 223.015 108.758 233.393C107.378 245.396 106.033 257.436 105.307 269.512C105.27 270.099 106.096 270.095 106.132 269.512C107.444 247.793 110.284 226.115 113.154 204.593C113.61 201.172 114.072 197.751 114.584 194.338C115.063 191.147 115.72 188.12 115.36 184.845C114.799 179.719 113.795 174.71 112.83 169.665C111.668 163.581 110.542 157.487 109.419 151.392C107.255 139.622 105.264 127.797 102.816 116.093C102.701 115.517 101.905 115.761 102.024 116.333Z" fill="#002247"/>
<path d="M83.7661 150.03C86.1639 157.716 88.674 165.373 90.4541 173.271C91.3624 177.297 91.9833 181.38 92.6636 185.457C93.235 188.881 93.0468 191.974 92.6802 195.409C91.0453 210.6 90.0908 225.94 89.3675 241.214C88.9349 250.314 88.6442 259.425 88.3932 268.532C88.3833 268.86 88.664 269.009 88.915 268.973C89.8497 268.827 90.9231 269.039 91.8611 269.104C93.7106 269.228 95.5601 269.377 97.4097 269.519C99.9594 269.716 102.879 270.376 105.429 269.978C105.954 269.898 105.729 269.02 105.211 269.101C104.276 269.246 103.203 269.035 102.265 268.969C100.415 268.846 98.5656 268.696 96.7161 268.554C94.1664 268.357 91.2468 267.698 88.6971 268.095C88.8721 268.241 89.0438 268.387 89.2189 268.536C89.6482 252.824 90.256 237.123 91.3525 221.452C91.9205 213.335 92.5348 205.216 93.3242 197.121C93.6181 194.108 94.1829 191.016 93.8592 187.981C93.4563 184.211 92.7396 180.393 92.0163 176.685C90.2328 167.497 87.3297 158.66 84.5621 149.793C84.3903 149.239 83.5911 149.472 83.7661 150.03Z" fill="#002247"/>
<path d="M59.6428 131.178C61.0431 153.844 60.5543 176.623 62.2222 199.27C63.7448 219.954 65.2937 240.62 66.4926 261.334C66.8196 267.006 67.13 272.678 67.4405 278.35C67.4735 278.932 68.2992 278.936 68.2662 278.35C67.4537 263.545 66.6049 248.744 65.6372 233.95C64.9469 223.393 64.217 212.84 63.2956 202.305C62.3642 191.664 62.133 180.947 61.8325 170.266C61.4692 157.239 61.2677 144.186 60.4651 131.178C60.4321 130.595 59.6064 130.591 59.6428 131.178Z" fill="#002247"/>
<path d="M84.8722 131.837C83.6865 150.518 81.9493 169.195 81.2425 187.908C80.4168 209.813 81.7115 231.856 82.6957 253.731C83.0127 260.816 83.1317 267.982 83.7988 275.042C83.855 275.617 84.6806 275.625 84.6245 275.042C84.0729 269.217 83.9606 263.308 83.6898 257.461C83.2043 246.963 82.7684 236.457 82.4051 225.951C82.0286 215.117 81.6553 204.265 81.8997 193.42C82.1045 184.309 82.7585 175.227 83.3695 166.142C84.139 154.707 84.968 143.272 85.6946 131.833C85.7375 131.251 84.9118 131.254 84.8722 131.837Z" fill="#002247"/>
<path d="M136.893 218.654C143.063 225.499 149.388 232.165 155.871 238.65C155.967 238.391 156.066 238.132 156.161 237.874C151.779 237.575 147.898 238.919 143.809 240.482C142.27 241.069 140.507 242.099 138.878 242.307C137.759 242.449 137.518 240.945 137.095 239.998C135.536 236.504 133.61 233.218 132.045 229.721C130.034 225.229 127.824 220.974 125.377 216.752C125.258 216.982 125.139 217.208 125.02 217.437C128.812 217.951 132.606 218.461 136.398 218.975C136.923 219.047 136.92 218.133 136.398 218.064C132.606 217.55 128.812 217.04 125.02 216.527C124.706 216.483 124.508 216.945 124.663 217.211C127.239 221.652 129.479 226.162 131.639 230.854C133.343 234.562 135.275 238.132 136.976 241.837C138.053 244.18 139.843 242.956 141.712 242.245C146.471 240.438 151.026 238.435 156.158 238.784C156.512 238.81 156.71 238.267 156.449 238.009C149.966 231.524 143.638 224.858 137.471 218.013C137.101 217.594 136.52 218.239 136.893 218.654Z" fill="#002247"/>
<path d="M146.812 266.572C151.317 279.013 154.362 292.036 155.845 305.333C156.116 305.292 156.386 305.252 156.657 305.212C155.362 301.518 153.48 298.134 151.003 295.253C149.804 293.858 148.463 292.684 147.092 291.508C146.049 290.608 145.094 289.69 144.919 288.127C144.797 287.042 145.032 285.894 144.969 284.794C144.48 276.547 143.298 268.234 141.191 260.296C140.989 260.467 140.788 260.638 140.583 260.809C143.017 262.321 145.814 264.226 146.941 267.192C147.142 267.724 147.941 267.49 147.737 266.951C146.515 263.735 143.654 261.673 140.999 260.023C140.692 259.833 140.289 260.15 140.391 260.536C141.392 264.307 142.175 268.135 142.759 272.011C143.443 276.528 144.298 281.454 144.17 286.044C144.123 287.679 143.962 289.067 144.883 290.451C145.927 292.011 147.614 293.009 148.909 294.284C152.007 297.34 154.362 301.187 155.858 305.456C156.01 305.89 156.73 305.886 156.67 305.336C155.178 291.956 152.146 278.856 147.608 266.336C147.416 265.793 146.617 266.026 146.812 266.572Z" fill="#002247"/>
<path d="M36.1508 191.573C30.2786 183.639 22.1902 177.537 13.5272 173.949C13.5866 174.204 13.6494 174.455 13.7088 174.71C17.18 170.102 20.6676 165.326 21.9623 159.377C21.7608 159.468 21.5594 159.559 21.3546 159.65C29.149 164.459 36.9534 169.246 44.7346 174.076C46.8946 175.417 48.9621 177.154 47.4593 180.131C46.528 181.978 44.87 183.559 43.5291 185.049C41.5012 187.307 38.7434 190.895 35.7479 191.453C35.226 191.551 35.4473 192.429 35.9659 192.331C39.1101 191.744 42.0065 188.036 44.1137 185.693C46.2109 183.362 50.5771 179.439 48.1694 175.799C47.0069 174.04 44.8436 173.1 43.179 172.073C40.8308 170.623 38.4825 169.177 36.1376 167.727C31.3486 164.772 26.5597 161.818 21.7708 158.864C21.5462 158.725 21.2291 158.845 21.1631 159.137C19.9014 164.933 16.5029 169.577 13.1209 174.065C12.9129 174.342 12.9987 174.699 13.3026 174.827C21.8368 178.36 29.7832 184.404 35.5629 192.218C35.9031 192.669 36.4844 192.021 36.1508 191.573Z" fill="#002247"/>
<path d="M83.9183 284.251C85.0247 282.834 86.1708 281.439 87.1715 279.924C87.6603 279.184 88.1095 278.419 88.486 277.603C88.6313 277.29 89.6551 274.831 89.7113 274.915C90.0151 275.388 90.7318 274.933 90.4247 274.456C89.5197 273.046 88.6874 274.579 88.3671 275.578C87.3597 278.71 85.2691 281.133 83.337 283.607C82.9902 284.047 83.5715 284.696 83.9183 284.251Z" fill="#002247"/>
<path d="M103.021 276.172C102.932 277.632 101.825 278.846 100.986 279.869C100.62 280.317 100.395 280.55 100.398 281.192C100.402 282.051 100.95 282.933 101.33 283.636C101.855 284.605 102.304 285.559 102.707 286.601C103.797 289.414 104.963 292.186 106.224 294.907C106.829 296.207 107.45 297.497 108.087 298.779C109.022 300.663 110.805 303.278 109.104 305.267C108.741 305.694 109.322 306.338 109.689 305.912C111.459 303.839 110.3 301.315 109.237 299.195C107.707 296.138 106.248 293.042 104.92 289.873C104.243 288.251 103.662 286.576 102.968 284.969C102.535 283.964 101.799 283.068 101.459 282.022C101.019 280.671 101.974 280.139 102.654 279.13C103.252 278.244 103.777 277.294 103.847 276.175C103.883 275.585 103.057 275.589 103.021 276.172Z" fill="#002247"/>
<path d="M89.5986 274.816C90.2525 275.6 91.4448 277.217 92.5116 277.326C93.4298 277.417 94.1729 276.153 94.6452 275.469C95.0877 274.824 95.3585 273.997 95.8143 273.385C96.8382 272.015 98.0271 272.689 99.2657 273.396C100.111 273.88 100.805 274.536 101.601 275.09C102.017 275.377 102.988 275.651 102.942 276.354C102.902 276.94 103.728 276.937 103.767 276.354C103.843 275.184 103.011 274.988 102.248 274.47C100.656 273.392 99.1798 271.942 97.2774 271.534C95.9993 271.261 95.5402 272.048 94.9721 273.195C94.5527 274.041 93.8063 275.873 92.9442 276.212C91.9898 276.591 90.7512 274.846 90.1865 274.172C89.8199 273.742 89.2386 274.387 89.5986 274.816Z" fill="#002247"/>
<path d="M83.5813 284.925C88.1556 289.902 92.4458 295.202 97.1885 299.989C99.1041 301.923 101.102 303.868 103.348 305.329C104.653 306.178 106.281 307.074 107.83 306.579C108.338 306.415 108.124 305.537 107.612 305.701C105.914 306.244 104.002 304.772 102.678 303.777C100.448 302.098 98.4369 300.065 96.4817 298.022C92.2443 293.585 88.3207 288.809 84.1626 284.284C83.7861 283.869 83.2015 284.514 83.5813 284.925Z" fill="#002247"/>
<path d="M84.4996 282.845C87.8023 287.825 91.4816 292.484 95.5472 296.728C97.5982 298.87 99.7417 300.914 101.971 302.827C103.844 304.437 105.815 305.861 108.273 305.836C108.804 305.828 108.804 304.918 108.273 304.925C105.28 304.958 102.909 302.546 100.733 300.568C98.8533 298.856 97.0367 297.064 95.2896 295.191C91.6071 291.246 88.2449 286.955 85.2163 282.386C84.9025 281.916 84.1859 282.372 84.4996 282.845Z" fill="#002247"/>
<path d="M96.8948 280.109C97.3307 280.463 97.7865 280.769 98.2786 281.017C98.7278 281.242 99.2067 281.366 99.6592 281.578C99.5766 281.508 99.494 281.439 99.4115 281.37C99.4313 281.406 99.4511 281.443 99.4709 281.479C99.494 281.297 99.5138 281.111 99.537 280.929C99.5204 280.947 99.5072 280.962 99.4907 280.98C99.6261 280.94 99.7582 280.904 99.8936 280.864C99.8705 280.856 99.8474 280.853 99.8243 280.845C99.9267 280.991 100.026 281.137 100.128 281.286C100.128 281.268 100.128 281.253 100.131 281.235C100.151 280.649 99.3256 280.649 99.3058 281.235C99.3058 281.253 99.3058 281.268 99.3025 281.286C99.2959 281.476 99.4346 281.683 99.6063 281.727C99.8177 281.778 99.9663 281.749 100.122 281.578C100.25 281.435 100.28 281.199 100.188 281.027C99.9333 280.561 99.3355 280.532 98.9094 280.339C98.3381 280.084 97.8096 279.734 97.3142 279.334C96.8849 278.977 96.472 279.767 96.8948 280.109Z" fill="#002247"/>
<path d="M96.5844 281.363C97.5653 282.157 98.6387 282.761 99.7913 283.184C100.297 283.37 100.515 282.488 100.009 282.306C98.9194 281.905 97.922 281.33 96.9972 280.579C96.5745 280.23 96.1617 281.02 96.5844 281.363Z" fill="#002247"/>
<path d="M96.9208 283.363C98.2914 284.539 99.781 285.45 101.413 286.099C101.485 285.807 101.558 285.512 101.63 285.221C101.495 285.195 101.363 285.17 101.228 285.148C100.709 285.053 100.484 285.931 101.01 286.026C101.145 286.051 101.277 286.077 101.413 286.099C101.934 286.193 102.139 285.421 101.63 285.221C100.138 284.627 98.7538 283.793 97.5021 282.718C97.0925 282.361 96.5047 283.002 96.9208 283.363Z" fill="#002247"/>
<path d="M98.5659 286.547C99.6657 287.592 100.908 288.368 102.288 288.867C102.793 289.049 103.011 288.171 102.506 287.989C101.261 287.541 100.141 286.845 99.1472 285.902C98.7509 285.523 98.163 286.164 98.5659 286.547Z" fill="#002247"/>
<path d="M100.003 289.475C100.94 290.167 101.964 290.677 103.051 291.005C103.563 291.162 103.784 290.284 103.269 290.127C102.242 289.818 101.3 289.341 100.415 288.688C99.9761 288.361 99.5599 289.151 100.003 289.475Z" fill="#002247"/>
<path d="M101.343 292.033C102.129 292.466 102.912 292.9 103.698 293.333C104.17 293.596 104.59 292.809 104.114 292.546C103.328 292.113 102.545 291.679 101.759 291.246C101.287 290.987 100.868 291.77 101.343 292.033Z" fill="#002247"/>
<path d="M105.851 260.755C103.242 260.966 100.627 261.057 98.0075 260.991C96.6996 260.959 95.3917 260.889 94.0872 260.784C92.6604 260.667 90.9496 260.725 89.6813 259.942C89.2156 259.654 88.7995 260.441 89.2652 260.729C91.3459 262.015 94.3844 261.756 96.6996 261.858C99.7513 261.99 102.803 261.913 105.851 261.665C106.377 261.622 106.383 260.711 105.851 260.755Z" fill="#002247"/>
<path d="M84.7107 138.697C88.1158 146.372 91.1279 154.259 93.5719 162.372C94.7543 166.295 95.8046 170.269 96.6831 174.287C97.5715 178.342 98.5623 182.622 98.6185 186.812C98.6779 191.165 97.4922 195.522 96.7954 199.78C96.1051 204.002 95.5106 208.243 94.9954 212.498C93.9484 221.164 93.2317 229.874 92.6934 238.595C92.0824 248.507 91.7026 258.434 91.3228 268.361C91.2996 268.947 92.1253 268.947 92.1484 268.361C92.8354 250.412 93.5257 232.439 95.5701 214.603C96.1018 209.958 96.7326 205.328 97.4757 200.72C98.1297 196.662 99.1634 192.589 99.4045 188.469C99.639 184.506 98.7836 180.473 98.0141 176.623C97.1917 172.491 96.1811 168.408 95.0251 164.375C92.4523 155.403 89.1694 146.689 85.4208 138.238C85.1896 137.709 84.4795 138.172 84.7107 138.697Z" fill="#002247"/>
<path d="M111.938 194.695C110.069 195.511 108.101 195.529 106.238 194.658C105.756 194.432 105.333 195.216 105.822 195.445C107.883 196.411 110.066 196.487 112.16 195.573C112.648 195.358 112.434 194.48 111.938 194.695Z" fill="#002247"/>
<path d="M101.459 269.676C101.168 270.936 100.805 272.164 100.369 273.374C100.171 273.916 100.97 274.153 101.165 273.614C101.601 272.408 101.964 271.177 102.255 269.916C102.387 269.348 101.591 269.108 101.459 269.676Z" fill="#002247"/>
<path d="M91.22 269.009C90.9657 271.079 90.6585 273.137 90.2952 275.184C90.1928 275.756 90.9888 276 91.0912 275.425C91.4512 273.374 91.7616 271.319 92.0159 269.25C92.0853 268.678 91.2893 268.43 91.22 269.009Z" fill="#002247"/>
<path d="M36.7022 218.424C28.4156 223.747 21.5262 232.311 17.553 241.925C17.4572 242.154 17.4968 242.409 17.7016 242.548C24.099 246.893 29.6409 252.562 34.0303 259.29C34.2582 259.64 34.7998 259.542 34.7998 259.061C34.8031 248.063 42.614 240.263 50.6 235.134C50.8246 234.989 50.8775 234.621 50.6826 234.42C45.9036 229.422 41.4184 224.111 37.2372 218.501C36.9003 218.049 36.319 218.694 36.6526 219.146C40.8339 224.756 45.3223 230.067 50.098 235.065C50.1244 234.828 50.1541 234.588 50.1806 234.351C41.937 239.648 33.9741 247.739 33.9708 259.064C34.2284 258.988 34.4827 258.911 34.7403 258.835C30.2652 251.975 24.6373 246.194 18.1144 241.764C18.164 241.972 18.2135 242.18 18.2631 242.387C22.1801 232.909 28.9408 224.464 37.115 219.215C37.5774 218.916 37.1612 218.129 36.7022 218.424Z" fill="#002247"/>
<path d="M45.7351 234.391C42.5678 230.373 39.2419 226.515 35.7608 222.821C35.3777 222.413 34.7932 223.058 35.1763 223.466C38.654 227.16 41.9799 231.018 45.1505 235.036C45.5006 235.48 46.0819 234.832 45.7351 234.391Z" fill="#002247"/>
<path d="M43.2015 236.49C40.0705 232.395 36.5994 228.665 32.8111 225.317C32.4016 224.953 31.8137 225.594 32.2266 225.962C36.0148 229.313 39.4859 233.043 42.6169 237.134C42.9604 237.583 43.5417 236.938 43.2015 236.49Z" fill="#002247"/>
<path d="M40.7311 239.44C38.1351 234.511 33.7425 231.153 29.8024 227.63C29.3928 227.262 28.8049 227.903 29.2178 228.275C33.0952 231.746 37.4614 235.051 40.0177 239.903C40.2852 240.406 40.9986 239.947 40.7311 239.44Z" fill="#002247"/>
<path d="M38.2705 242.078C35.1594 238.198 31.5594 234.901 27.5334 232.235C27.0776 231.932 26.6615 232.719 27.1172 233.021C31.0838 235.648 34.621 238.897 37.686 242.722C38.0393 243.16 38.6239 242.515 38.2705 242.078Z" fill="#002247"/>
<path d="M36.289 245.262C33.0094 241.262 29.2146 237.888 24.9805 235.193C24.5181 234.898 24.1019 235.684 24.5643 235.98C28.739 238.635 32.4744 241.961 35.7044 245.906C36.0644 246.344 36.6457 245.699 36.289 245.262Z" fill="#002247"/>
<path d="M34.2941 249.196C30.9584 245.149 27.2693 241.52 23.2531 238.315C22.8205 237.972 22.411 238.759 22.837 239.101C26.797 242.26 30.4234 245.852 33.7096 249.841C34.0696 250.274 34.6508 249.629 34.2941 249.196Z" fill="#002247"/>
<path d="M84.252 274.805C79.1493 276.856 73.5314 277.078 68.1744 277.607C67.6493 277.658 67.646 278.568 68.1744 278.517C73.5941 277.986 79.3111 277.76 84.4733 275.687C84.9654 275.483 84.754 274.601 84.252 274.805Z" fill="#002247"/>
<path d="M83.2048 266.43C78.2507 268.616 72.6724 269.436 67.3683 269.621C66.8398 269.64 66.8365 270.55 67.3683 270.532C72.7385 270.346 78.4126 269.519 83.4261 267.308C83.9116 267.093 83.6969 266.212 83.2048 266.43Z" fill="#002247"/>
<path d="M67.1435 201.347C68.5901 203.31 70.1159 205.197 71.721 207.008C72.0942 207.427 72.6755 206.782 72.3056 206.363C70.7005 204.552 69.1747 202.665 67.7281 200.702C67.3912 200.25 66.8132 200.899 67.1435 201.347Z" fill="#002247"/>
<path d="M66.3537 204.122C68.5137 208.789 70.9809 213.255 73.7485 217.514C74.0557 217.987 74.7724 217.532 74.4619 217.055C71.6942 212.796 69.2271 208.33 67.0671 203.663C66.826 203.139 66.1126 203.602 66.3537 204.122Z" fill="#002247"/>
<path d="M84.1523 289.092C83.9707 288.521 83.6173 288.091 83.2771 287.624C82.8279 287.009 82.3887 286.397 81.9858 285.745C81.6621 285.216 81.421 284.368 80.952 284.003C80.3344 283.526 78.8581 283.799 78.1579 283.814C76.5561 283.843 75.0666 284.557 73.6035 285.206C71.4798 286.149 68.8508 286.211 69.3033 289.395C69.5279 290.972 70.489 292.331 70.631 293.919C70.7004 294.688 70.598 295.511 70.5716 296.28C70.4593 299.336 70.3668 302.393 70.4097 305.453C70.4527 308.538 70.4857 311.901 71.2816 314.884C71.8233 316.917 73.0948 319.03 75.1524 319.288C77.4511 319.58 79.8588 319.427 80.8397 316.811C82.4019 312.64 83.1384 307.729 83.7098 303.281C84.3043 298.637 84.4628 293.952 84.0433 289.282C83.9905 288.703 83.1648 288.699 83.2177 289.282C83.8122 295.872 83.2408 302.502 81.9329 308.953C81.6258 310.462 81.2823 311.959 80.8992 313.445C80.3641 315.536 80.0239 318.228 77.6229 318.399C76.7344 318.461 75.5157 318.592 74.657 318.265C73.2765 317.733 72.4607 316.093 72.0743 314.644C70.7763 309.773 71.1528 304.079 71.3014 299.067C71.3477 297.446 71.5161 295.784 71.46 294.16C71.3774 291.89 68.5668 288.531 71.3114 287.056C72.5202 286.408 74.013 285.952 75.2878 285.442C76.7476 284.856 77.9564 284.859 79.479 284.805C80.374 284.772 80.4665 284.907 80.9883 285.73C81.3417 286.287 81.6753 286.856 82.0518 287.395C82.4713 287.996 83.1186 288.604 83.3498 289.333C83.5281 289.887 84.3274 289.65 84.1523 289.092Z" fill="#002247"/>
<path d="M70.2679 278.346C70.3637 281.016 70.5387 283.676 70.7964 286.335C70.8525 286.91 71.6782 286.918 71.622 286.335C71.3644 283.679 71.1894 281.016 71.0936 278.346C71.0738 277.76 70.2481 277.756 70.2679 278.346Z" fill="#002247"/>
<path d="M78.4424 277.494C78.4655 279.76 78.492 282.029 78.5151 284.295C78.5217 284.881 79.3474 284.881 79.3408 284.295C79.3176 282.029 79.2912 279.76 79.2681 277.494C79.2615 276.907 78.4358 276.907 78.4424 277.494Z" fill="#002247"/>
<path d="M76.9192 290.59C75.5783 291.304 74.1614 291.621 72.6752 291.566C72.1434 291.548 72.1434 292.459 72.6752 292.477C74.3067 292.535 75.8656 292.16 77.3353 291.377C77.8142 291.122 77.3981 290.335 76.9192 290.59Z" fill="#002247"/>
<path d="M76.5532 293.752C75.3279 294.156 74.0861 294.254 72.8212 294.021C72.3026 293.923 72.078 294.801 72.6032 294.899C74.0134 295.162 75.4006 295.085 76.7745 294.63C77.2798 294.462 77.0652 293.584 76.5532 293.752Z" fill="#002247"/>
<path d="M76.7313 296.568C76.216 296.768 75.6909 296.925 75.1493 297.009C74.8487 297.056 73.8348 297.274 73.5739 297.06C73.6366 297.231 73.6994 297.402 73.7621 297.573C73.7654 297.544 73.772 297.515 73.7753 297.486C73.6796 297.591 73.5838 297.697 73.488 297.803C73.5111 297.799 73.5309 297.795 73.554 297.792C74.0759 297.693 73.8546 296.815 73.3361 296.914C73.313 296.917 73.2931 296.921 73.27 296.925C73.1445 296.95 73.0025 297.103 72.9827 297.242C72.9794 297.271 72.9728 297.3 72.9695 297.329C72.9365 297.551 72.9992 297.712 73.1577 297.843C73.5607 298.174 74.383 298.007 74.8454 297.959C75.5687 297.883 76.2689 297.708 76.9526 297.446C77.448 297.256 77.2333 296.375 76.7313 296.568Z" fill="#002247"/>
<path d="M76.8106 299.733C76.3085 300.043 75.79 300.294 75.2385 300.462C74.9742 300.542 73.8315 300.939 73.6069 300.728C73.6432 300.877 73.6763 301.023 73.7126 301.172C73.7192 301.139 73.7258 301.103 73.7324 301.07C73.8381 300.498 73.0421 300.254 72.9364 300.83C72.9298 300.863 72.9232 300.899 72.9166 300.932C72.8869 301.085 72.9067 301.267 73.0223 301.376C73.5078 301.832 74.2443 301.617 74.8256 301.5C75.6777 301.333 76.477 300.983 77.23 300.52C77.6924 300.236 77.2762 299.449 76.8106 299.733Z" fill="#002247"/>
<path d="M83.6666 289.482C86.0017 290.553 85.1958 295.132 85.0439 297.245C84.8589 299.832 84.5419 302.407 84.2248 304.979C83.9672 307.059 83.7096 309.147 83.2505 311.187C82.7749 313.31 81.8997 317.518 79.3995 317.634C78.8711 317.66 78.8678 318.571 79.3995 318.545C81.5496 318.447 82.5635 316.239 83.2505 314.265C84.3371 311.146 84.7037 307.799 85.1066 304.509C85.5195 301.147 85.9257 297.773 86.0149 294.378C86.071 292.207 85.9686 289.562 83.8813 288.608C83.3958 288.379 83.1844 289.26 83.6666 289.482Z" fill="#002247"/>
<path d="M73.6497 48.5247C61.3702 52.2258 51.4719 61.1509 43.9417 72.2507C40.6952 77.0374 37.4288 82.1265 35.8534 87.8968C35.4504 89.3758 35.0937 90.873 34.8064 92.3848C34.5719 93.6307 34.2284 95.0223 34.7073 96.2426C35.1994 97.4994 36.4214 98.5631 37.3264 99.4374C38.6144 100.68 40.0181 101.783 41.5109 102.712C47.3931 106.377 56.5119 108.526 62.404 103.783C62.8498 103.423 62.4172 102.596 61.968 102.96C56.6143 107.27 48.3773 105.55 42.8816 102.443C41.4845 101.652 40.1535 100.72 38.9183 99.6524C37.6765 98.5814 35.5693 96.9166 35.358 95.1097C35.2126 93.8456 35.6948 92.2974 35.9657 91.077C36.2926 89.6053 36.6658 88.1445 37.1051 86.7093C38.6475 81.6457 41.8148 76.9791 44.6914 72.7316C47.9347 67.9448 51.6305 63.5042 55.8381 59.7302C61.1555 54.9616 67.2655 51.439 73.8809 49.4463C74.4159 49.286 74.1881 48.3644 73.6497 48.5247Z" fill="#002247"/>
<path d="M60.6503 98.8582C62.8499 99.9183 65.0958 100.344 67.4903 100.089C67.7082 100.068 67.946 99.8891 67.9229 99.6123C67.5497 94.8292 68.5471 90.1918 70.8392 86.1082C70.9879 85.8422 70.8425 85.4925 70.5816 85.4051C67.1038 84.2831 63.7384 84.4725 61.7303 88.1336C59.7916 91.6708 59.4812 96.0459 60.4885 99.9729C60.6404 100.563 61.476 100.312 61.3241 99.7179C60.4621 96.3519 60.6206 92.7673 62.0044 89.5907C62.6221 88.17 63.4775 86.7857 64.8217 86.1264C66.516 85.2958 68.6462 85.7766 70.3504 86.3267C70.2646 86.0936 70.1787 85.8604 70.0928 85.6236C67.7281 89.8384 66.6745 94.6725 67.0576 99.6086C67.2029 99.4483 67.3449 99.2917 67.4903 99.1314C65.2642 99.3682 63.1373 99.0221 61.0896 98.0313C60.581 97.7872 60.1417 98.6105 60.6503 98.8582Z" fill="#002247"/>
<path d="M63.8471 84.5016C58.8105 80.7276 52.3206 80.1885 46.8084 83.0153C46.3031 83.274 46.7423 84.0973 47.2443 83.8386C52.4858 81.1538 58.6387 81.7513 63.4079 85.3249C63.8703 85.6746 64.3062 84.8477 63.8471 84.5016Z" fill="#002247"/>
<path d="M70.5813 87.1536C72.5431 87.0443 74.5049 86.997 76.4668 87.0443C78.2172 87.0844 80.5126 86.8148 82.0583 87.8202C83.1085 88.5051 83.9672 90.8366 83.9375 92.2318C83.921 93.0551 83.3959 93.1716 83.3827 94.035C83.3694 94.8437 83.7526 95.4011 83.3694 96.2462C83.0557 96.9384 82.623 96.9347 82.1805 97.3974C81.9988 97.5868 81.9559 97.7944 81.8172 97.9839C81.0741 98.9929 80.5819 99.2297 79.4029 99.2443C75.5849 99.288 71.6349 98.6141 67.8434 98.1624C67.2885 98.0968 67.2951 99.0512 67.8434 99.1168C70.4393 99.4264 73.0385 99.696 75.6411 99.9182C77.4311 100.071 79.7332 100.647 81.4737 99.8527C81.9229 99.6487 82.2102 99.4082 82.4546 98.9383C82.8476 98.1915 82.8245 98.1842 83.452 97.6706C83.8318 97.3573 84.0861 97.0076 84.2744 96.5231C84.6311 95.5978 84.281 95.1461 84.3338 94.29C84.3867 93.3829 85.252 92.8802 84.9349 91.6453C84.7566 90.9495 84.4395 90.4103 84.281 89.6818C84.1192 88.9313 83.8285 88.2282 83.3463 87.66C82.1673 86.2684 80.3574 86.2684 78.7522 86.181C76.0275 86.0316 73.3027 86.0498 70.578 86.2028C70.0264 86.232 70.0231 87.1864 70.5813 87.1536Z" fill="#002247"/>
<path d="M80.5491 90.9641C81.5201 91.0843 82.5044 91.0369 83.4688 91.2009C84.0137 91.2956 84.2482 90.3739 83.7 90.2792C82.6563 90.1007 81.5994 90.1371 80.5491 90.0096C79.9976 89.9404 80.0009 90.8949 80.5491 90.9641Z" fill="#002247"/>
<path d="M80.4069 94.2025C81.4043 94.2244 82.4348 94.0313 83.4025 94.3628C83.9342 94.5449 84.1654 93.6233 83.6337 93.4412C82.5834 93.0805 81.4869 93.2699 80.4069 93.2444C79.8487 93.2335 79.8487 94.1879 80.4069 94.2025Z" fill="#002247"/>
<path d="M79.3334 97.106C80.4101 97.2736 81.4801 97.4047 82.5007 97.8528C83.0192 98.0786 83.2438 97.157 82.7319 96.9311C81.7113 96.483 80.6446 96.3519 79.5646 96.1843C79.0196 96.1006 78.7818 97.0186 79.3334 97.106Z" fill="#002247"/>
<path d="M78.2511 37.2354C78.2511 37.2354 79.3971 37.2208 80.7447 38.5796C82.0922 39.9348 83.694 41.7089 85.8143 41.5121C89.8899 41.1369 90.0352 34.8348 90.0352 34.8348C90.0352 34.8348 87.4591 36.3903 84.5164 35.5051C80.781 34.3831 77.7227 31.3376 77.7227 31.3376L78.2511 37.2354Z" fill="#6877FF"/>
<path d="M82.8718 23.7029C83.3383 23.2962 83.2606 22.3306 82.6984 21.5462C82.1361 20.7619 81.3022 20.4558 80.8358 20.8626C80.3693 21.2694 80.447 22.235 81.0092 23.0193C81.5715 23.8036 82.4054 24.1097 82.8718 23.7029Z" fill="#6877FF"/>
<path d="M93.3081 21.145C93.8083 20.3111 93.8118 19.3416 93.3159 18.9797C92.82 18.6178 92.0124 19.0004 91.5122 19.8344C91.012 20.6683 91.0085 21.6377 91.5044 21.9996C92.0003 22.3615 92.8079 21.9789 93.3081 21.145Z" fill="#6877FF"/>
<path d="M92.5158 14.595C94.187 20.4126 93.8336 37.5778 84.936 35.3848C81.2238 34.4705 77.9706 31.4797 75.7842 28.1501C75.4176 27.5891 75.0774 26.9844 74.5589 26.5764C73.8785 26.0372 73.0165 25.866 72.2998 25.3961C71.418 24.8132 70.6749 23.9571 70.5395 22.8024C70.4602 22.1139 70.7211 21.0246 71.342 20.6567C72.1743 20.1649 73.218 20.8061 73.3501 21.7896C73.4326 22.3944 74.2649 22.1394 74.1857 21.5346C73.9875 20.0484 72.5046 19.1413 71.2264 19.6731C69.7072 20.3034 69.3241 22.4454 69.912 23.9571C70.2918 24.9371 71.0448 25.6912 71.8638 26.223C72.4352 26.5946 73.0925 26.7476 73.6638 27.1009C74.582 27.6729 75.0345 28.6856 75.662 29.5672C77.168 31.6873 79.0605 33.4614 81.2007 34.7546C83.1261 35.9203 85.5074 36.9804 87.7433 36.4121C89.9198 35.8584 91.6306 33.6545 92.4927 31.4833C94.4941 26.4452 94.8508 19.5711 93.3514 14.3473C93.1829 13.7571 92.3473 14.0048 92.5158 14.595Z" fill="#002247"/>
<path d="M74.7003 20.2815C75.3906 16.9009 75.9851 13.5458 75.4797 10.0814C75.2023 10.1652 74.9216 10.249 74.6442 10.3364C75.4467 13.7097 76.0148 17.1231 76.3352 20.5911C76.3748 21.0101 76.9396 21.3051 77.141 20.8316C78.2772 18.1905 81.6723 17.9209 83.9578 17.3417C86.8807 16.5985 89.807 15.8554 92.7299 15.1122C93.2715 14.9738 93.0436 14.0522 92.4987 14.1906C88.9483 15.094 85.3978 15.9938 81.8474 16.9009C79.7601 17.4328 77.3953 18.0229 76.3946 20.3543C76.6621 20.4345 76.9329 20.5146 77.2005 20.5948C76.8702 17.0393 76.3021 13.5385 75.4797 10.0851C75.3344 9.47673 74.5583 9.7463 74.6442 10.3401C75.1264 13.6187 74.5186 16.8353 73.8647 20.0338C73.7425 20.6276 74.5781 20.8826 74.7003 20.2815Z" fill="#002247"/>
<path d="M103.751 51.2022C103.51 44.9656 100.505 39.5013 98.2257 33.9605C97.1688 31.3923 96.1516 28.6601 96.2969 25.7859C96.4785 22.1576 96.6404 18.5694 96.2572 14.9447C95.993 12.4493 95.5802 9.69532 94.2789 7.56424C92.8686 5.2583 90.8672 3.13815 88.6676 1.76479C83.7597 -1.30251 78.1682 -0.0785021 73.6204 3.18915C67.8571 7.3311 65.172 13.9502 62.8007 20.7988C62.6025 21.3744 63.4381 21.6221 63.6363 21.0538C65.6608 15.2033 67.8736 9.30553 72.4413 5.29837C77.0585 1.2475 83.2809 -0.767003 88.6181 2.84308C90.7219 4.26744 92.9578 6.57338 94.0477 9.04689C95.1839 11.6333 95.4481 14.7152 95.5868 17.5384C95.7354 20.5693 95.3853 23.5492 95.4018 26.5655C95.4151 28.7694 96.1152 30.9223 96.8782 32.9295C99.1339 38.8784 102.628 44.5758 102.886 51.2022C102.909 51.8142 103.778 51.8178 103.751 51.2022Z" fill="#002247"/>
<path d="M77.2899 31.7201C77.8249 34.9659 78.0528 38.2554 77.7787 41.5486C77.5871 43.8581 77.3592 48.2733 75.1927 49.388C74.6873 49.6467 75.1266 50.4699 75.6286 50.2113C77.9339 49.0274 78.2345 45.1732 78.5218 42.758C78.9677 38.9876 78.7398 35.199 78.1255 31.4687C78.0231 30.864 77.1908 31.119 77.2899 31.7201Z" fill="#002247"/>
<path d="M84.5786 27.5964C85.2755 28.325 86.2762 28.7403 87.2208 28.8423C88.2843 28.9552 89.0869 28.58 90.048 28.1938C90.5665 27.9862 90.3419 27.0609 89.8168 27.2722C89.1595 27.5345 88.6113 27.8696 87.8847 27.906C86.9566 27.9498 85.8832 27.6438 85.1897 26.9225C84.7867 26.4962 84.1724 27.1738 84.5786 27.5964Z" fill="#002247"/>
<path d="M69.6807 24.8314C68.3167 26.784 68.2903 29.7383 69.9417 31.527C71.4378 33.1481 74.0139 33.4031 75.6983 31.9969C77.277 30.6745 77.8946 28.0918 77.0326 26.1064C76.0649 23.8733 73.7563 22.9954 71.6459 23.3415C71.0976 23.4325 71.3288 24.3542 71.8771 24.2631C73.5648 23.9862 75.4374 24.7185 76.2201 26.4816C76.9666 28.161 76.3952 30.405 74.9486 31.4104C73.611 32.3393 71.6789 32.0588 70.556 30.8494C69.1589 29.3449 69.3075 26.9224 70.4305 25.3122C70.7673 24.8277 70.0176 24.3505 69.6807 24.8314Z" fill="#D7DBFF"/>
<path d="M83.3141 20.1612C83.4462 20.6603 83.575 21.163 83.7071 21.6621C83.8623 22.2522 84.6979 22.0009 84.5427 21.4071C84.4106 20.908 84.2817 20.4053 84.1496 19.9062C83.9944 19.3197 83.1588 19.5674 83.3141 20.1612Z" fill="#002247"/>
<path d="M87.046 20.1029C87.1418 20.4052 87.2375 20.7112 87.3333 21.0136C87.4159 21.2759 87.6207 21.3925 87.8651 21.3487C88.7436 21.1812 88.9616 22.5108 88.1326 22.7804C87.6008 22.9552 87.8254 23.8769 88.3638 23.702C89.1432 23.447 89.7245 22.5691 89.5164 21.6547C89.305 20.7258 88.443 20.2741 87.6372 20.4271C87.8155 20.54 87.9939 20.6493 88.1689 20.7622C88.0731 20.4599 87.9773 20.1539 87.8816 19.8515C87.6999 19.2687 86.861 19.52 87.046 20.1029Z" fill="#002247"/>
<path d="M89.9036 18.4855C90.0654 18.919 90.1909 19.3634 90.2735 19.8224C90.3825 20.4235 91.2181 20.1685 91.1091 19.5674C91.0265 19.1084 90.901 18.664 90.7392 18.2305C90.65 17.9937 90.4519 17.8225 90.2074 17.8953C90.0027 17.9573 89.8144 18.2451 89.9036 18.4855Z" fill="#002247"/>
<path d="M89.7442 34.6308C89.7145 38.7873 89.556 43.9274 91.2271 47.7706C91.4682 48.3243 92.2146 47.8398 91.9735 47.2898C91.138 45.37 91.0092 43.1223 90.844 41.0422C90.6756 38.9039 90.593 36.7801 90.6062 34.6344C90.6161 34.0151 89.7475 34.0151 89.7442 34.6308Z" fill="#002247"/>
<path d="M62.9326 20.7005C61.126 27.6765 55.0225 30.9041 49.5863 33.8257C44.8303 36.383 40.1074 39.4357 36.775 44.0804C33.8653 48.1349 32.0356 53.4936 32.9505 58.6956C33.753 63.2674 36.6099 67.2636 40.659 68.7353C41.1907 68.9284 41.4186 68.0068 40.8902 67.8137C36.1409 66.087 33.3501 60.6263 33.5978 55.2567C33.8686 49.3516 37.1152 44.2225 41.1577 40.5869C45.3092 36.8566 50.2567 34.8093 54.8838 31.9642C58.8405 29.5308 62.4867 25.9061 63.7715 20.9555C63.9201 20.3617 63.0845 20.1067 62.9326 20.7005Z" fill="#002247"/>
<path d="M104.425 69.1469C105.762 85.0626 108.107 100.986 108.318 116.989C108.5 116.836 108.685 116.683 108.867 116.53C104.666 115.207 99.8271 115.768 95.6228 116.832C90.2955 118.184 85.7642 121.786 80.8761 124.322C71.5922 129.141 60.604 132.562 50.4217 129.56C49.8834 129.4 49.6522 130.322 50.1905 130.482C59.9038 133.349 70.172 130.456 79.1785 126.198C84.2383 123.805 88.8819 119.99 94.1696 118.238C98.6216 116.763 104.101 116.023 108.632 117.451C108.9 117.535 109.184 117.298 109.18 116.992C108.969 100.986 106.624 85.0662 105.287 69.1505C105.24 68.5385 104.375 68.5312 104.425 69.1469Z" fill="#002247"/>
<path d="M74.215 49.552C79.1723 53.9489 87.2541 53.4243 92.0794 49.195C92.5154 48.8125 91.8977 48.1422 91.4684 48.521C89.1201 50.5792 86.2798 51.6175 83.2875 51.6211C80.4703 51.6247 77.0619 50.8561 74.8293 48.878C74.3966 48.4955 73.7823 49.1695 74.215 49.552Z" fill="#002247"/>
<path d="M54.3025 106.071C52.5619 114.038 51.4192 122.151 49.682 130.121C49.5531 130.719 50.3854 130.974 50.5175 130.376C52.2581 122.409 53.4008 114.297 55.138 106.326C55.2702 105.729 54.4346 105.474 54.3025 106.071Z" fill="#002247"/>
<path d="M92.076 48.8562C94.1171 49.6685 96.353 50.062 98.4602 50.6011C101.178 51.2933 103.906 51.9526 106.601 52.754C113.986 54.9471 122.289 57.6063 128.099 63.3766C128.512 63.7883 129.126 63.1144 128.71 62.7027C123.065 57.1 115.179 54.4261 108.022 52.2003C105.138 51.3042 102.212 50.5829 99.2925 49.8398C96.9839 49.2496 94.5332 48.8307 92.3006 47.9418C91.7821 47.7269 91.5542 48.6485 92.076 48.8562Z" fill="#002247"/>
<path d="M105.376 76.287C107.424 77.7587 109.683 79.0447 111.935 80.0829C115.439 81.7003 119.713 82.0172 123.481 82.1411C128.584 82.3123 133.324 81.234 137.653 78.2141C138.122 77.8862 137.69 77.0593 137.217 77.3908C133.013 80.3233 128.442 81.3542 123.481 81.1867C119.677 81.0592 115.446 80.735 111.922 79.0447C109.831 78.0392 107.727 76.8371 105.815 75.4637C105.346 75.1249 104.91 75.9519 105.376 76.287Z" fill="#002247"/>
<path d="M138.126 77.4527C139.377 74.4328 140.556 71.3618 141.2 68.1051C141.91 64.5059 141.953 60.8193 141.785 57.1546C141.474 50.4845 140.523 43.9492 137.96 37.851C137.726 37.2937 136.979 37.7782 137.214 38.3319C139.708 44.2698 140.616 50.6557 140.92 57.1546C141.085 60.6481 141.065 64.1781 140.414 67.6169C139.797 70.8773 138.631 73.9519 137.382 76.9682C137.148 77.5256 137.894 78.01 138.126 77.4527Z" fill="#002247"/>
<path d="M126.784 60.3385C126.827 53.009 126.329 45.7342 127.838 38.5323C127.963 37.9349 127.128 37.6799 127.002 38.2773C125.476 45.5667 125.959 52.9216 125.916 60.3385C125.916 60.9541 126.781 60.9541 126.784 60.3385Z" fill="#002247"/>
<path d="M127.022 38.3136C130.622 38.31 134.394 37.0241 137.835 38.7107C138.341 38.9584 138.78 38.1351 138.271 37.8874C134.638 36.1061 130.827 37.3556 127.022 37.3592C126.464 37.3592 126.464 38.3136 127.022 38.3136Z" fill="#002247"/>
<path d="M127.075 37.6288C127.041 36.2518 126.648 34.9221 127.923 34.3247C128.931 33.8511 130.159 33.6362 131.229 33.4249C132.564 33.1626 134.284 32.7583 135.533 33.5743C136.788 34.3939 137.858 36.2117 137.703 37.8219C137.643 38.4339 138.512 38.4266 138.568 37.8219C138.783 35.6034 137.105 33.0424 135.189 32.3685C132.583 31.4505 128.96 32.8858 126.523 33.8475C126.338 33.9203 126.209 34.0843 126.206 34.3065C126.183 35.4139 126.186 36.5214 126.212 37.6288C126.222 38.2408 127.091 38.2444 127.075 37.6288Z" fill="#002247"/>
<path d="M135.883 32.6637C133.941 28.6164 131.979 24.1211 129.353 20.5548C127.134 17.5385 122.669 19.1705 119.96 20.5803C118.808 21.1813 118.543 22.0228 118.497 23.3889C118.454 24.6967 118.487 27.0864 119.571 27.968C120.763 28.9334 122.49 28.0081 123.745 27.8077C124.442 27.6948 124.538 27.5964 125.08 28.376C125.37 28.7949 125.578 29.3159 125.803 29.7785C126.43 31.0717 126.972 32.4087 127.454 33.7784C127.652 34.3467 128.491 34.099 128.29 33.5234C127.781 32.0772 127.216 30.6637 126.553 29.2977C126.189 28.5545 125.658 26.8751 124.855 26.5546C124.551 26.4344 124.343 26.5801 124.062 26.6456C123.121 26.8751 122.348 27.4361 121.324 27.3669C119.812 27.2686 119.521 26.0992 119.396 24.6566C119.254 23.0246 119.234 22.1394 120.806 21.2251C122.203 20.4127 124.366 19.8881 125.932 19.8226C128.287 19.7278 129.152 21.8553 130.235 23.7605C131.976 26.8205 133.601 29.9534 135.133 33.1445C135.397 33.6873 136.144 33.2065 135.883 32.6637Z" fill="#002247"/>
<path d="M59.97 71.7553C60.0361 70.8009 61.5686 71.2307 62.0904 70.8774C62.4372 70.6442 62.4933 70.2544 62.708 69.9193C62.7608 69.7845 62.817 69.6461 62.8698 69.5113C63.1803 69.3328 63.5106 69.2454 63.854 69.2454C64.1083 69.1762 64.3561 69.147 64.6071 69.0414C65.1058 68.8337 65.5021 68.5059 65.8753 68.0906C66.2683 67.6534 65.6573 66.9795 65.2643 67.4167C64.7557 67.9777 64.2372 68.229 63.5271 68.3164C63.2595 68.3492 62.9722 68.2982 62.7146 68.4294C62.2027 68.688 62.1862 69.1543 61.8922 69.606C61.3902 70.3747 60.5645 69.9375 59.8677 70.3492C59.3392 70.6624 59.1444 71.1251 59.1014 71.7553C59.0618 72.3673 59.9271 72.3637 59.97 71.7553Z" fill="#002247"/>
<path d="M38.8621 88.5999C38.9282 87.6455 40.4606 88.0753 40.9825 87.722C41.3293 87.4888 41.3854 87.099 41.6001 86.7639C41.6529 86.6291 41.7091 86.4907 41.7619 86.3559C42.0724 86.1774 42.4026 86.09 42.7461 86.09C43.0004 86.0207 43.2481 85.9916 43.4991 85.886C43.9979 85.6783 44.3942 85.3505 44.7674 84.9352C45.1604 84.498 44.5494 83.8241 44.1564 84.2612C43.6478 84.8222 43.1292 85.0736 42.4192 85.161C42.1516 85.1938 41.8643 85.1428 41.6067 85.274C41.0948 85.5326 41.0783 85.9989 40.7843 86.4506C40.2823 87.2193 39.4566 86.7821 38.7597 87.1938C38.2313 87.507 38.0364 87.9697 37.9935 88.5999C37.9539 89.2155 38.8192 89.2119 38.8621 88.5999Z" fill="#002247"/>
<path d="M42.2308 96.1661C42.2968 95.2117 43.8293 95.6416 44.3511 95.2882C44.6979 95.0551 44.754 94.6653 44.9687 94.3301C45.0216 94.1953 45.0777 94.0569 45.1306 93.9221C45.441 93.7436 45.7713 93.6562 46.1148 93.6562C46.3691 93.587 46.6168 93.5579 46.8678 93.4522C47.3665 93.2446 47.7628 92.9167 48.136 92.5014C48.5291 92.0643 47.9181 91.3903 47.525 91.8275C47.0164 92.3885 46.4979 92.6398 45.7878 92.7273C45.5203 92.7601 45.2329 92.7091 44.9753 92.8402C44.4634 93.0988 44.4469 93.5651 44.153 94.0169C43.6509 94.7855 42.8253 94.3484 42.1284 94.76C41.5999 95.0733 41.4051 95.5359 41.3622 96.1661C41.3225 96.7781 42.1911 96.7781 42.2308 96.1661Z" fill="#002247"/>
<path d="M45.3885 103.259C45.4545 102.304 46.987 102.734 47.5088 102.381C47.8556 102.148 47.9118 101.758 48.1264 101.423C48.1793 101.288 48.2354 101.15 48.2883 101.015C48.5987 100.836 48.929 100.749 49.2725 100.749C49.5268 100.68 49.7745 100.651 50.0255 100.545C50.5242 100.337 50.9205 100.009 51.2937 99.5941C51.6868 99.1569 51.0758 98.483 50.6827 98.9202C50.1741 99.4812 49.6556 99.7325 48.9455 99.8199C48.678 99.8527 48.3907 99.8017 48.133 99.9329C47.6211 100.192 47.6046 100.658 47.3107 101.11C46.8086 101.878 45.983 101.441 45.2861 101.853C44.7577 102.166 44.5628 102.629 44.5199 103.259C44.4802 103.871 45.3489 103.867 45.3885 103.259Z" fill="#002247"/>
<path d="M66.447 59.956C66.1002 60.3421 65.9912 60.823 66.1695 61.3475C66.4337 62.1162 67.2925 62.1052 67.5996 62.7063C67.8407 63.1799 67.527 63.6862 67.9926 64.1962C68.6499 64.9139 69.9842 64.6261 69.9445 66.0323C69.928 66.6479 70.7933 66.6479 70.8098 66.0323C70.8264 65.4785 70.8131 64.9066 70.4697 64.4622C70.1196 64.0068 69.6341 64.0105 69.1684 63.7992C68.2535 63.3839 68.8051 62.8994 68.4715 62.2582C68.28 61.8903 66.6616 61.0743 67.058 60.6335C67.451 60.1927 66.84 59.5188 66.447 59.956Z" fill="#002247"/>
<path d="M64.2669 59.0234C64.1942 58.222 65.0166 58.2803 65.4261 57.8723C65.7465 57.5554 65.7795 57.0563 66.047 56.7175C66.3773 56.2986 66.8133 56.5863 67.2327 56.3568C67.7447 56.08 67.9924 55.4935 68.567 55.2385C69.0789 55.0126 68.8544 54.0873 68.3358 54.3168C68.0287 54.4553 67.7413 54.5973 67.4738 54.8232C67.2294 55.0308 67.0478 55.3769 66.7637 55.4753C66.1792 55.6756 65.8258 55.4352 65.403 56.0545C65.2379 56.2949 65.1784 56.6009 65.0265 56.845C64.759 57.2712 64.3528 57.2676 63.9961 57.5299C63.5436 57.8614 63.3421 58.4406 63.395 59.0234C63.4577 59.6318 64.323 59.6354 64.2669 59.0234Z" fill="#002247"/>
<path d="M73.4351 61.2273C73.3922 60.9759 74.634 60.7719 74.8355 60.6225C75.2351 60.3202 75.2252 59.7009 75.5489 59.4313C75.79 59.231 76.3052 59.4495 76.6388 59.2674C76.9459 59.0998 77.1111 58.823 77.0913 58.4441C77.0648 57.8321 76.1962 57.8285 76.2259 58.4441C76.216 58.2255 75.0766 58.4878 74.9445 58.6117C74.5217 59.0015 74.7001 59.6645 74.1122 59.9304C73.7092 60.1125 73.2997 60.0251 72.943 60.3603C72.6161 60.6663 72.5203 61.0306 72.5995 61.4823C72.7052 62.0833 73.5408 61.8283 73.4351 61.2273Z" fill="#002247"/>
<path d="M63.2358 73.3217C63.315 73.9701 63.533 74.5202 64.0614 74.8662C64.4379 75.1139 65.148 75.1904 65.2471 75.8024C65.3099 76.1849 65.0556 76.5638 65.1678 76.9973C65.366 77.7696 65.9077 77.6712 66.4262 78.0319C66.9018 78.367 66.7466 78.7422 66.9579 79.1648C67.0405 79.3287 67.5161 79.5801 67.5326 79.7076C67.6119 80.3123 68.4475 80.0573 68.3682 79.4526C68.3319 79.1757 68.2295 79.1721 68.1139 78.9535C68.0346 78.8807 67.9487 78.8187 67.853 78.775C67.7902 78.5674 67.7473 78.3561 67.7242 78.1375C67.5062 77.4563 67.133 77.4709 66.6541 77.1102C65.7227 76.4072 66.4592 75.7077 66.0563 74.8334C65.6699 73.9919 64.2332 74.4254 64.0978 73.3253C64.0317 72.7206 63.1631 72.7133 63.2358 73.3217Z" fill="#002247"/>
<path d="M55.8119 61.0379C55.8912 61.6864 56.1092 62.2364 56.6376 62.5825C57.0141 62.8302 57.7242 62.9067 57.8233 63.5187C57.886 63.9012 57.6317 64.2801 57.744 64.7136C57.9422 65.4859 58.4838 65.3875 59.0024 65.7482C59.4779 66.0833 59.3227 66.4585 59.5341 66.8811C59.6167 67.045 60.0922 67.2964 60.1088 67.4239C60.188 68.0286 61.0236 67.7736 60.9443 67.1689C60.908 66.892 60.8056 66.8884 60.69 66.6698C60.6108 66.5969 60.5249 66.535 60.4291 66.4913C60.3664 66.2837 60.3234 66.0724 60.3003 65.8538C60.0823 65.1726 59.7091 65.1872 59.2302 64.8265C58.2989 64.1234 59.0354 63.424 58.6324 62.5497C58.246 61.7082 56.8093 62.1417 56.6739 61.0416C56.6079 60.4369 55.7393 60.4296 55.8119 61.0379Z" fill="#002247"/>
<path d="M43.1391 74.7277C43.2184 75.3762 43.4363 75.9263 43.9648 76.2723C44.3413 76.52 45.0514 76.5965 45.1505 77.2085C45.2132 77.591 44.9589 77.9699 45.0712 78.4034C45.2693 79.1757 45.811 79.0773 46.3295 79.438C46.8051 79.7731 46.6499 80.1483 46.8613 80.5709C46.9438 80.7348 47.4194 80.9862 47.4359 81.1137C47.5152 81.7184 48.3508 81.4634 48.2715 80.8587C48.2352 80.5818 48.1328 80.5782 48.0172 80.3596C47.938 80.2868 47.8521 80.2248 47.7563 80.1811C47.6935 79.9735 47.6506 79.7622 47.6275 79.5436C47.4095 78.8624 47.0363 78.877 46.5574 78.5163C45.626 77.8133 46.3625 77.1138 45.9596 76.2395C45.5732 75.398 44.1365 75.8315 44.0011 74.7314C43.9317 74.1267 43.0664 74.1194 43.1391 74.7277Z" fill="#002247"/>
<path d="M75.0475 62.3239C74.9352 63.1145 75.2787 63.4459 75.8996 63.7665C76.3686 64.0106 76.7946 64.1891 76.821 64.8302C76.8276 65.027 76.7814 65.2164 76.8111 65.4095C76.8607 65.73 76.9498 65.9158 77.2042 66.0834C77.541 66.3056 77.9935 66.2473 78.3106 66.5351C78.6904 66.8812 78.5748 67.3548 78.7663 67.7664C78.8687 67.985 79.0239 68.127 79.2353 68.1963C79.3641 68.24 79.526 68.2545 79.6581 68.2181C80.1105 68.0906 79.8034 68.0542 80.0181 67.7045C79.7043 68.2145 80.454 68.6917 80.7645 68.1853C81.0518 67.719 80.8041 67.1143 80.2922 67.0305C80.1072 67.0014 79.9751 67.1216 79.8166 67.1143C79.2452 67.0925 79.6581 67.1398 79.4764 66.7828C79.3014 66.4367 79.275 66.1781 78.9777 65.8976C78.664 65.5989 78.2643 65.5843 77.9473 65.3402C77.693 65.1472 77.8019 65.3111 77.7062 64.9832C77.6599 64.8266 77.7161 64.5752 77.6863 64.4004C77.6071 63.9669 77.4023 63.5662 77.0852 63.2893C76.9003 63.1254 75.85 62.7866 75.8798 62.579C75.9656 61.9779 75.1333 61.7192 75.0475 62.3239Z" fill="#002247"/>
<path d="M59.3359 81.4452C59.468 81.2521 59.5407 81.0554 59.6133 80.8259C59.7586 80.3815 59.7785 80.2467 60.221 80.3487C60.6405 80.4471 61.0632 80.5928 61.4496 80.2941C61.8162 80.0136 61.7172 79.5327 61.9682 79.2303C62.2423 78.8988 62.7509 79.2376 62.9722 78.6657C63.1902 78.1083 62.4438 77.6202 62.2258 78.1848C62.239 78.1484 61.7436 78.1958 61.6742 78.2286C61.5157 78.3014 61.3935 78.4143 61.2977 78.5673C61.1854 78.7458 61.1788 78.9644 61.0896 79.1466C60.8816 79.5728 60.6537 79.4635 60.2739 79.3833C59.8874 79.3032 59.5208 79.3178 59.2137 79.6128C58.8471 79.9698 58.8735 80.5527 58.5895 80.9644C58.2526 81.4489 59.0023 81.9261 59.3359 81.4452Z" fill="#002247"/>
<path d="M49.9295 69.0377C49.7907 68.0723 51.3331 68.2727 51.8219 67.8538C52.1918 67.5368 52.1654 67.1106 52.3537 66.6807C52.7269 65.832 53.3412 65.9595 53.9918 65.5551C54.4872 65.2491 54.8637 64.8047 55.1808 64.291C55.4945 63.781 54.7448 63.3038 54.4344 63.8102C54.1107 64.3311 53.6814 64.7355 53.1298 64.9358C52.8524 65.0342 52.5485 65.0378 52.281 65.1726C51.6171 65.5187 51.7393 66.0797 51.4619 66.7062C51.125 67.464 50.0649 67.2272 49.5034 67.8064C49.1071 68.218 49.0146 68.7208 49.0939 69.289C49.1797 69.8974 50.0153 69.6424 49.9295 69.0377Z" fill="#002247"/>
<path d="M50.8346 78.8188C50.9469 78.582 51.0031 78.3634 51.0361 78.1011C51.0856 77.7113 51.0823 77.5365 51.4654 77.4818C51.9113 77.4199 52.2944 77.6166 52.6874 77.2706C53.0706 76.9318 52.9418 76.5274 53.097 76.0903C53.1862 75.8426 53.1696 75.9373 53.3909 75.8863C53.4867 75.8644 53.5957 75.8353 53.6849 75.777C53.8665 75.6568 53.9656 75.4819 54.0118 75.256C54.1373 74.6586 53.3018 74.4036 53.1763 75.001C53.1994 74.8881 52.7238 75.063 52.661 75.103C52.5091 75.2087 52.41 75.3544 52.3374 75.5329C52.2416 75.7697 52.2845 76.0101 52.2152 76.2469C52.1128 76.6039 51.9278 76.5529 51.6174 76.5347C51.2078 76.5128 50.8016 76.5311 50.5077 76.8844C50.151 77.307 50.3128 77.8607 50.0882 78.3306C49.8273 78.8771 50.5737 79.3616 50.8346 78.8188Z" fill="#002247"/>
<path d="M70.099 83.2375C70.2674 82.6656 70.1881 82.356 70.6307 81.9698C71.0204 81.631 71.1987 81.744 71.6512 81.6383C72.1367 81.5254 72.4373 81.2813 72.7543 80.877C73.2035 80.305 73.2002 79.999 74.0193 79.8679C74.1844 79.8424 74.3859 79.9116 74.551 79.8424C75.1092 79.6165 75.5088 78.7022 75.8391 78.2286C76.1793 77.7405 75.4262 77.2632 75.0927 77.7477C74.6864 78.3306 74.4949 78.6621 73.8178 78.8625C73.6131 78.9244 73.4776 78.8916 73.2894 78.9681C72.4076 79.3287 72.2754 80.4398 71.2813 80.7276C70.743 80.8842 70.274 80.6948 69.8281 81.1866C69.4021 81.6565 69.4351 82.3851 69.2634 82.9789C69.0916 83.569 69.9272 83.8204 70.099 83.2375Z" fill="#002247"/>
<path d="M72.8072 74.5093C72.7939 74.1851 72.7576 73.9118 73.1077 73.9701C73.3191 74.0066 73.4875 74.0758 73.7088 74.0211C74.0688 73.9301 74.2703 73.6241 74.366 73.2452C74.409 73.0703 74.3958 72.8408 74.4684 72.6769C74.6038 72.3746 74.9077 72.4401 75.162 72.3418C75.5517 72.1924 75.7499 71.8828 75.7994 71.4456C75.8688 70.8373 75.0002 70.8409 74.9341 71.4456C74.9341 71.4566 74.3 71.5658 74.2306 71.5986C74.0556 71.6861 73.907 71.8136 73.798 71.9884C73.6493 72.2361 73.6427 73.0011 73.4281 73.074C73.2861 73.1213 72.9756 72.9356 72.794 72.9611C72.609 72.9866 72.4472 73.0631 72.3085 73.1978C71.9782 73.5221 71.9286 74.0466 71.9452 74.5056C71.965 75.1213 72.8303 75.1249 72.8072 74.5093Z" fill="#002247"/>
<path d="M81.0739 73.3618C80.9649 73.0813 82.4875 72.6478 82.722 72.411C83.1513 71.9739 83.0093 71.3109 83.3099 70.8592C83.5873 70.4366 84.3238 70.5386 84.7565 70.2618C85.242 69.9521 85.5326 69.4822 85.7407 68.9248C85.9521 68.3565 85.1132 68.1088 84.9051 68.6698C84.664 69.3219 84.1686 69.5878 83.5708 69.6279C83.3627 69.6425 83.1579 69.6024 82.9631 69.7226C82.3983 70.0723 82.4677 71.0304 82.1077 71.5295C81.6849 72.1087 80.9352 71.963 80.4794 72.5568C80.1657 72.9684 80.1426 73.3655 80.3242 73.8427C80.5455 74.4073 81.2919 73.9228 81.0739 73.3618Z" fill="#002247"/>
<path d="M82.8813 63.2965C82.9473 62.2073 83.7796 62.7537 84.3708 62.3129C84.7209 62.0506 84.8299 61.6244 84.9158 61.1909C84.9686 60.9322 84.9587 60.6882 85.1899 60.568C85.3616 60.4769 85.616 60.5388 85.8075 60.4368C86.2831 60.1855 86.5077 59.6135 86.6926 59.0999C86.8974 58.5279 86.0618 58.2802 85.857 58.8449C85.6589 59.3986 85.4013 59.4387 84.9224 59.6427C84.7639 59.7119 84.6251 59.7556 84.493 59.8867C84.1231 60.2547 84.2255 60.7538 84.0273 61.2018C83.7829 61.7519 83.0068 61.4204 82.5774 61.7956C82.1613 62.1562 82.049 62.7428 82.016 63.2965C81.9763 63.9085 82.8416 63.9048 82.8813 63.2965Z" fill="#002247"/>
<path d="M48.3379 85.0954C48.0572 85.6127 48.0076 86.2684 48.4139 86.7456C48.7573 87.1536 49.3122 87.0152 49.3551 87.7729C49.3749 88.1226 49.1504 88.4104 49.2296 88.7892C49.4047 89.6016 50.2601 89.4304 50.4219 90.2427C50.5705 90.9932 50.3426 91.4485 50.9801 91.9768C51.4259 92.3447 51.8586 91.5177 51.416 91.1535C51.0527 90.8547 51.3731 89.7947 51.165 89.3247C50.9239 88.7747 50.597 88.9714 50.2634 88.6508C49.9298 88.3302 50.3856 87.4924 50.161 86.9678C49.9893 86.5635 48.8465 86.017 49.0843 85.5799C49.3717 85.0517 48.6252 84.5708 48.3379 85.0954Z" fill="#002247"/>
<path d="M54.3091 96.7927C54.0283 97.31 53.9788 97.9657 54.385 98.443C54.7285 98.851 55.2834 98.7125 55.3263 99.4703C55.3461 99.82 55.1216 100.108 55.2008 100.487C55.3759 101.299 56.2313 101.128 56.3931 101.94C56.5417 102.691 56.3138 103.146 56.9513 103.674C57.3971 104.042 57.8298 103.215 57.3872 102.851C57.0239 102.552 57.3443 101.492 57.1362 101.022C56.8951 100.472 56.5681 100.669 56.2346 100.348C55.901 100.028 56.3568 99.1898 56.1322 98.6652C55.9604 98.2608 54.8177 97.7144 55.0555 97.2772C55.3428 96.7454 54.5964 96.2645 54.3091 96.7927Z" fill="#002247"/>
<path d="M55.2999 86.9351C55.2174 87.4378 55.3627 87.8312 55.7921 88.0826C56.3172 88.3886 56.5814 88.2829 56.5946 89.0407C56.6012 89.3685 56.5087 89.6053 56.6342 89.9332C56.9216 90.6836 57.8629 90.6071 58.1667 91.3029C58.4904 92.0424 58.1535 92.7418 58.7315 93.4158C59.1146 93.8638 59.7289 93.1863 59.3425 92.7418C58.8933 92.2172 59.1872 91.2847 58.8702 90.6727C58.5994 90.1481 58.2063 90.2027 57.853 89.8494C57.1792 89.1827 57.8265 88.487 57.3873 87.8021C57.2585 87.5981 56.152 87.1027 56.1388 87.1864C56.2346 86.5854 55.4023 86.3304 55.2999 86.9351Z" fill="#002247"/>
<path d="M61.8761 120.766C61.962 120.657 62.0478 120.544 62.1337 120.435C62.2724 120.479 62.4111 120.522 62.5465 120.57C62.6555 120.602 62.7513 120.657 62.8669 120.672C63.0353 120.694 63.2137 120.672 63.3689 120.581C63.7917 120.337 63.8577 119.83 63.9502 119.375C63.9964 119.138 63.9403 119.069 64.0922 118.847C64.2871 118.566 64.2772 118.675 64.5645 118.65C64.8089 118.628 65.0335 118.548 65.2416 118.402C65.6808 118.089 65.8658 117.619 65.912 117.065C65.9648 116.453 65.0962 116.457 65.0467 117.065C65.0038 117.55 64.5381 117.663 64.2177 117.681C64.0988 117.688 63.9337 117.688 63.8181 117.732C63.6133 117.808 63.4548 117.958 63.3359 118.154C63.2236 118.34 63.1741 118.555 63.1377 118.774C63.0783 119.123 63.2071 119.615 62.7777 119.641C62.5862 119.652 62.3484 119.477 62.137 119.48C61.9289 119.48 61.6878 119.546 61.5095 119.663C61.057 119.965 60.9381 120.49 61.0438 121.021C61.1594 121.622 61.995 121.367 61.8761 120.766Z" fill="#002247"/>
<path d="M61.744 110.934C61.6978 109.812 63.009 110.366 63.5209 110.115C63.9106 109.925 64.0857 109.576 64.2178 109.149C64.3036 108.883 64.3268 108.581 64.5745 108.417C64.7198 108.322 65.0963 108.421 65.2845 108.322C65.5356 108.191 65.8823 107.393 66.0607 107.379C66.6155 107.339 66.6189 106.384 66.0607 106.424C65.4101 106.468 65.3341 107.087 64.8255 107.353C64.2508 107.652 63.8446 107.514 63.5572 108.257C63.3525 108.785 63.3062 109.16 62.6787 109.251C62.3385 109.299 62.0215 109.197 61.6912 109.364C61.1231 109.648 60.8523 110.268 60.8787 110.931C60.9018 111.55 61.7671 111.554 61.744 110.934Z" fill="#002247"/>
<path d="M66.7799 110.84C66.6908 111.24 66.6511 111.688 66.9319 112.009C67.0607 112.155 67.2192 112.228 67.4008 112.268C67.7311 112.34 67.8203 112.195 67.8038 112.628C67.7873 113.007 67.7675 113.404 68.0052 113.714C68.3983 114.227 69.3792 113.87 69.3197 114.756C69.2768 115.368 70.1454 115.368 70.185 114.756C70.2181 114.26 70.0595 113.794 69.7127 113.47C69.3891 113.164 68.7186 113.229 68.6592 112.796C68.603 112.399 68.7484 112.049 68.5106 111.688C68.3983 111.517 68.2431 111.419 68.0581 111.361C67.8104 111.284 67.533 111.463 67.6155 111.095C67.7509 110.497 66.9154 110.242 66.7799 110.84Z" fill="#002247"/>
<path d="M69.4782 121.841C69.389 122.242 69.3494 122.69 69.6301 123.011C69.7589 123.156 69.9175 123.229 70.0991 123.269C70.4294 123.342 70.5185 123.196 70.502 123.63C70.4855 124.009 70.4657 124.406 70.7035 124.715C71.0965 125.229 72.0774 124.872 72.018 125.757C71.975 126.369 72.8437 126.369 72.8833 125.757C72.9163 125.262 72.7578 124.796 72.411 124.471C72.0873 124.165 71.4169 124.231 71.3574 123.797C71.3013 123.4 71.4466 123.051 71.2088 122.69C71.0965 122.519 70.9413 122.42 70.7563 122.362C70.5086 122.286 70.2312 122.464 70.3138 122.096C70.4459 121.499 69.6103 121.244 69.4782 121.841Z" fill="#002247"/>
<path d="M67.7211 100.603C67.7574 100.906 67.7872 101.117 67.9919 101.35C68.2264 101.62 68.5303 101.594 68.7747 101.791C69.4253 102.312 68.8804 103.328 69.4617 103.958C69.924 104.457 70.72 104.363 70.9809 105.058C71.1857 105.601 71.3574 105.965 71.9585 105.853C72.5068 105.751 72.2756 104.833 71.7273 104.931C72.1402 104.854 71.3409 103.922 71.2286 103.845C70.7827 103.532 70.0925 103.605 69.9637 102.902C69.8679 102.374 70.1288 101.922 69.8183 101.423C69.6235 101.11 68.6128 100.84 68.5864 100.603C68.5171 100.002 67.6484 99.9948 67.7211 100.603Z" fill="#002247"/>
<path d="M73.4187 109.943C73.3296 109.415 74.4624 109.357 74.7497 109.098C75.1526 108.741 75.146 108.104 75.5358 107.761C75.9123 107.43 75.7901 107.623 76.2194 107.703C76.4011 107.736 76.5332 107.736 76.7049 107.681C77.1046 107.546 77.4679 106.69 77.8312 106.701C78.3893 106.712 78.3893 105.758 77.8312 105.747C77.4943 105.74 77.273 105.791 77.0121 106.049C76.6257 106.428 76.7082 106.76 76.0873 106.643C75.5061 106.537 75.1097 106.559 74.7398 107.16C74.5119 107.532 74.5053 108.013 74.1585 108.268C73.8745 108.479 73.5376 108.362 73.2272 108.537C72.6525 108.862 72.4774 109.539 72.5897 110.195C72.6855 110.8 73.5211 110.545 73.4187 109.943Z" fill="#002247"/>
<path d="M78.8187 110.224C78.6932 110.65 78.6074 111.171 78.8749 111.557C79.2778 112.144 79.8723 111.677 80.0606 112.544C80.1762 113.069 80.0837 113.601 80.4965 114.009C80.6947 114.202 80.8829 114.155 81.0877 114.271C81.6062 114.563 81.7119 114.799 81.7615 115.386C81.8143 115.994 82.6829 115.998 82.6268 115.386C82.5805 114.858 82.5145 114.304 82.2106 113.87C81.8209 113.317 81.1273 113.43 80.9292 112.668C80.8004 112.18 80.9061 111.688 80.5527 111.269C80.4073 111.098 80.229 110.982 80.0176 110.938C79.6741 110.865 79.4991 110.982 79.6477 110.475C79.8294 109.892 78.9905 109.641 78.8187 110.224Z" fill="#002247"/>
<path d="M53.698 118.074C53.5824 117.725 54.5997 117.848 54.7681 117.761C55.062 117.608 55.1017 117.309 55.2272 117.021C55.4088 116.603 55.6301 116.77 55.9769 116.592C56.3006 116.424 56.4789 116.136 56.6011 115.776C56.8026 115.2 55.9637 114.952 55.7655 115.521C55.6664 115.805 55.247 115.743 55.0422 115.841C54.8771 115.921 54.7549 116.031 54.6459 116.191C54.5303 116.355 54.5039 116.621 54.3916 116.766C54.2727 116.919 54.2231 116.843 54.0085 116.839C53.2786 116.825 52.5817 117.48 52.8624 118.329C53.0507 118.901 53.8863 118.653 53.698 118.074Z" fill="#002247"/>
<path d="M76.9492 79.0556C76.9327 79.6676 77.1276 80.2177 77.6097 80.5564C77.9037 80.7641 78.2505 80.7422 78.4651 81.0592C78.6996 81.4052 78.551 81.7841 78.6204 82.1994C78.7063 82.7094 78.9474 82.9243 79.3503 83.1502C79.5683 83.2704 79.8226 83.2922 79.9778 83.5545C80.0571 83.693 80.0571 83.9662 80.1264 84.1301C80.2519 84.4142 80.3873 84.5454 80.635 84.6911C81.1271 84.9789 81.5664 84.152 81.071 83.8678C80.7209 83.6638 80.7771 82.9097 80.4501 82.5965C80.2387 82.3961 80.0538 82.4398 79.8325 82.3014C79.4626 82.0682 79.4692 81.9444 79.4692 81.5145C79.4692 81.1247 79.4659 80.7386 79.2413 80.4107C78.8615 79.8534 77.7848 79.9918 77.8112 79.0592C77.8343 78.4399 76.969 78.4436 76.9492 79.0556Z" fill="#002247"/>
<path d="M72.8568 121.174C72.8336 120.672 74.1349 120.814 74.4355 120.595C74.7294 120.38 74.7988 120.038 74.9573 119.717C75.1026 119.415 75.063 119.459 75.3371 119.313C75.5023 119.229 75.7103 119.218 75.8821 119.134C76.318 118.923 76.6285 118.599 76.9191 118.187C77.2593 117.699 76.5063 117.226 76.1727 117.706C75.8589 118.158 75.489 118.308 74.9969 118.395C74.8549 118.42 74.6898 118.42 74.5676 118.508C74.4223 118.614 74.343 118.788 74.2736 118.96C74.0887 119.411 74.2175 119.55 73.7452 119.706C73.2762 119.859 72.8568 119.652 72.4373 120.023C72.107 120.311 71.9782 120.726 71.9981 121.178C72.0179 121.786 72.8865 121.79 72.8568 121.174Z" fill="#002247"/>
<path d="M56.9245 120.792C56.7594 121.349 56.6239 122.234 57.1689 122.595C57.4133 122.759 57.7238 122.639 57.9649 122.774C58.5098 123.076 58.2687 123.764 58.4933 124.249C58.807 124.934 59.4643 124.544 59.7813 125.072C59.963 125.378 59.9399 125.728 60.1876 126.027C60.4221 126.311 60.716 126.457 61.043 126.562C61.578 126.737 61.8092 125.815 61.2742 125.641C60.3824 125.349 60.8151 124.333 60.1281 123.921C59.996 123.841 59.8507 123.852 59.7087 123.808C59.2034 123.648 59.3058 123.666 59.2562 123.105C59.2166 122.672 59.058 122.326 58.7245 122.085C58.4834 121.91 58.2159 121.925 57.9615 121.808C57.846 121.79 57.7304 121.775 57.6148 121.768C57.628 121.52 57.6775 121.28 57.7634 121.047C57.9318 120.46 57.0962 120.209 56.9245 120.792Z" fill="#002247"/>
<path d="M82.8415 102.527C82.9406 101.882 83.6507 102.1 84.0669 101.849C84.592 101.536 84.625 100.971 84.9553 100.498C85.6224 99.5358 85.8999 100.41 86.6463 100.079C87.2111 99.8272 87.4224 99.0913 88.0004 98.7853C88.5024 98.5194 88.0632 97.6961 87.5645 97.9621C87.2441 98.1296 87.0096 98.3336 86.7487 98.5886C86.3722 98.9566 86.3524 99.0877 85.8107 99.0513C85.1865 99.0112 84.8001 99.0659 84.3971 99.6779C84.1098 100.111 84.0834 100.527 83.6474 100.818C83.2709 101.069 83.1388 100.905 82.7656 101.029C82.2669 101.197 82.0918 101.758 82.0126 102.272C81.9102 102.876 82.7458 103.135 82.8415 102.527Z" fill="#002247"/>
<path d="M85.5896 105.586C85.5566 106.013 85.5665 106.424 85.9133 106.698C86.3492 107.04 87.0494 106.687 87.2509 107.368C87.3764 107.794 87.274 108.162 87.6439 108.479C88.1162 108.883 88.6116 108.77 88.8956 109.477C89.1202 110.038 89.8666 109.554 89.642 108.996C89.4604 108.541 89.1631 108.177 88.7569 107.954C88.6281 107.885 88.4101 107.863 88.3011 107.779C88.0468 107.586 88.136 107.331 88.0799 107.051C88.0039 106.672 87.7958 106.373 87.4887 106.184C87.1551 105.98 86.412 106.107 86.4549 105.586C86.5044 104.974 85.6391 104.978 85.5896 105.586Z" fill="#002247"/>
<path d="M103.867 104.541C103.834 104.967 103.844 105.379 104.191 105.652C104.627 105.995 105.327 105.641 105.528 106.323C105.654 106.749 105.551 107.117 105.921 107.434C106.393 107.838 106.889 107.725 107.173 108.432C107.398 108.993 108.144 108.508 107.919 107.951C107.738 107.496 107.44 107.131 107.034 106.909C106.905 106.84 106.687 106.818 106.578 106.734C106.324 106.541 106.413 106.286 106.357 106.006C106.281 105.627 106.073 105.328 105.766 105.139C105.432 104.935 104.689 105.062 104.732 104.541C104.782 103.925 103.916 103.929 103.867 104.541Z" fill="#002247"/>
<path d="M88.9351 114.147C88.8393 113.575 90.1538 113.528 90.4247 113.4C90.7285 113.258 90.9036 113.091 91.0951 112.796C91.2107 112.621 91.247 112.402 91.356 112.227C92.1586 110.96 91.792 111.787 92.5384 111.521C93.1131 111.317 93.1758 110.461 93.6382 110.093C94.1699 109.67 94.6918 109.597 95.098 108.978C95.4283 108.479 94.6753 108.002 94.3516 108.497C93.9421 109.116 93.0602 109.313 92.5648 109.889C92.3072 110.191 92.1157 110.391 91.7722 110.534C91.3891 110.694 91.2338 110.668 90.9465 111.044C90.5865 111.517 90.4148 112.253 89.8962 112.577C89.6155 112.752 89.1696 112.665 88.8592 112.814C88.2118 113.124 87.9774 113.663 88.1029 114.399C88.2019 115.007 89.0375 114.752 88.9351 114.147Z" fill="#002247"/>
<path d="M91.9563 99.5139C91.7648 99.9547 91.7912 100.388 92.0719 100.782C92.4253 101.273 92.9571 101.27 93.4426 101.496C93.9644 101.74 93.6837 102.501 94.08 102.924C94.2154 103.066 94.3838 103.146 94.5655 103.197C94.6943 103.233 95.0741 103.193 95.1501 103.306C95.4803 103.794 96.2301 103.317 95.8965 102.825C95.7115 102.552 95.52 102.41 95.2161 102.341C94.942 102.279 94.7604 102.385 94.6547 102.002C94.6018 101.82 94.6415 101.62 94.5754 101.43C94.4532 101.077 94.2055 100.844 93.9049 100.676C93.7068 100.567 92.5541 100.341 92.706 99.9984C92.9471 99.4447 92.2007 98.9566 91.9563 99.5139Z" fill="#002247"/>
<path d="M95.9793 112.522C95.9859 112.457 95.9925 112.388 95.9958 112.322C96.0454 111.779 95.2659 111.685 95.1437 112.195C95.0513 112.581 95.1569 112.938 95.474 113.164C95.6623 113.298 95.8373 113.277 96.0487 113.324C96.4615 113.419 96.4549 113.517 96.4979 113.925C96.5441 114.355 96.7852 114.493 97.1254 114.592C97.5415 114.712 97.7727 114.73 98.0501 115.145C98.2351 115.419 98.354 115.75 98.4795 116.06C98.7074 116.621 99.4538 116.136 99.2259 115.579C98.998 115.018 98.7503 114.46 98.3044 114.071C98.1459 113.932 97.9676 113.812 97.7727 113.743C97.7397 113.732 97.1749 113.546 97.3202 113.71C97.4391 113.841 97.3731 113.389 97.35 113.291C97.307 113.091 97.2013 112.887 97.0725 112.737C96.9371 112.584 96.0652 112.093 95.9793 112.453C95.6953 112.41 95.4113 112.369 95.1272 112.326C95.1206 112.391 95.114 112.461 95.1107 112.526C95.0579 113.134 95.9265 113.131 95.9793 112.522Z" fill="#002247"/>
<path d="M83.3472 117.994C83.3538 117.929 83.3604 117.86 83.3637 117.794C83.4133 117.251 82.6338 117.156 82.5116 117.666C82.4192 118.053 82.5248 118.41 82.8419 118.635C83.0302 118.77 83.2052 118.748 83.4166 118.796C83.8294 118.89 83.8228 118.989 83.8658 119.397C83.912 119.827 84.1531 119.965 84.4933 120.063C84.9094 120.184 85.1406 120.202 85.418 120.617C85.603 120.89 85.7219 121.222 85.8474 121.532C86.0753 122.093 86.8217 121.608 86.5938 121.051C86.3659 120.49 86.1182 119.932 85.6723 119.543C85.5138 119.404 85.3355 119.284 85.1406 119.215C85.1076 119.204 84.5428 119.018 84.6881 119.182C84.807 119.313 84.741 118.861 84.7179 118.763C84.6749 118.563 84.5692 118.359 84.4404 118.209C84.305 118.056 83.4331 117.564 83.3472 117.925C83.0632 117.881 82.7792 117.841 82.4951 117.798C82.4885 117.863 82.4819 117.932 82.4786 117.998C82.4291 118.606 83.2944 118.603 83.3472 117.994Z" fill="#002247"/>
<path d="M98.2218 105.874C98.3737 106.115 99.0574 105.638 99.1829 105.499C99.3315 105.335 99.3976 105.12 99.5 104.927C99.6717 104.61 99.8666 104.414 100.154 104.221C100.58 103.933 101.132 104.133 101.501 103.769C101.789 103.488 101.815 103.055 101.782 102.661C101.729 102.053 100.864 102.049 100.917 102.661C100.953 103.077 100.811 102.96 100.517 103.008C100.263 103.048 100.032 103.197 99.8137 103.332C99.3018 103.656 99.0442 104.009 98.7139 104.527C98.5091 104.847 98.3506 104.865 98.027 105.007C97.8519 105.084 97.7033 105.146 97.5712 105.306C97.3202 105.609 97.2574 106.013 97.4721 106.355C97.7892 106.858 98.5389 106.381 98.2218 105.874Z" fill="#002247"/>
<path d="M92.7561 95.6634C92.6636 94.6361 93.4398 95.0478 93.9913 94.8183C94.3711 94.6616 94.5165 94.2609 94.6651 93.882C94.7411 93.6853 94.8665 93.0806 95.0185 92.964C95.1968 92.8329 95.5172 92.9531 95.7187 92.9312C96.0853 92.8912 96.3726 92.7382 96.5443 92.3666C96.7987 91.8202 96.0522 91.3357 95.7979 91.8857C95.7021 92.097 95.2563 91.944 95.0779 91.9586C94.85 91.9768 94.6354 92.0497 94.4603 92.2209C94.3282 92.352 94.2655 92.5087 94.1862 92.6799C94.0673 92.9458 93.9451 93.6562 93.7436 93.8238C93.5785 93.9622 93.1723 93.8165 92.9741 93.842C92.7594 93.8675 92.5711 93.9549 92.3994 94.1006C91.9568 94.4758 91.8346 95.0733 91.8875 95.6598C91.9436 96.2718 92.8089 96.2754 92.7561 95.6634Z" fill="#002247"/>
<path d="M96.8412 95.4849C96.7322 95.882 96.8412 96.2317 97.1352 96.494C97.3069 96.6506 97.4918 96.7162 97.7065 96.7745C97.799 96.8 97.9641 96.7854 98.0434 96.8473C98.2151 96.9785 98.2151 97.2917 98.2482 97.4848C98.3175 97.911 98.377 98.2753 98.7238 98.5376C98.9054 98.676 99.1069 98.7343 99.3282 98.7671C99.4041 98.778 100.177 98.8108 100.137 98.891C99.8665 99.4301 100.616 99.911 100.884 99.3718C101.082 98.9784 101.052 98.5303 100.758 98.1915C100.603 98.013 100.388 97.922 100.177 97.871C99.926 97.8127 99.5296 97.922 99.3084 97.7981C98.9616 97.605 99.1036 96.7599 98.8856 96.3956C98.77 96.2025 98.6181 96.0787 98.4298 95.984C98.3803 95.9585 97.6636 95.7982 97.6801 95.7326C97.8386 95.1497 97.003 94.8984 96.8412 95.4849Z" fill="#002247"/>
<path d="M86.3719 86.1665C86.4974 86.7967 86.8112 86.9424 87.3231 87.1173C87.9176 87.3176 87.8284 87.977 88.3172 88.3485C88.5385 88.5161 88.7367 88.4214 88.948 88.5234C89.3014 88.6946 89.3345 89.1099 89.5194 89.4196C89.6482 89.6381 89.8133 89.8275 90.0247 89.9514C90.1865 90.0461 91.0321 90.1226 91.0453 90.3448C91.0849 90.9532 91.9502 90.9605 91.9106 90.3448C91.8775 89.8276 91.6464 89.4924 91.2038 89.3066C90.7546 89.1172 90.4376 89.2192 90.1634 88.7238C90.0049 88.436 89.9752 88.0935 89.7506 87.8495C89.5756 87.66 89.46 87.6491 89.2288 87.5617C88.8357 87.416 89.0537 87.8968 88.631 87.1573C88.5715 87.0517 88.5649 86.9096 88.5022 86.804C88.3767 86.6 88.271 86.3814 88.0695 86.2539C87.8945 86.1446 87.2537 86.1592 87.2042 85.9115C87.0886 85.3104 86.253 85.5654 86.3719 86.1665Z" fill="#002247"/>
<path d="M86.2167 82.5053C86.2332 82.141 86.0944 81.7731 86.4941 81.6783C86.722 81.6237 86.973 81.7585 87.2141 81.6674C87.65 81.5035 87.8284 81.0882 88.01 80.6583C88.2941 79.9808 88.7498 80.1447 89.2651 79.8205C89.7142 79.54 89.9917 79.0482 90.0941 78.5018C90.2064 77.9007 89.3708 77.6457 89.2585 78.2468C89.0834 79.2012 88.4031 78.9316 87.8383 79.3214C87.3759 79.642 87.4155 80.2503 87.0622 80.6219C86.7286 80.9716 86.1077 80.5199 85.6816 80.917C85.2523 81.3141 85.3778 81.9625 85.3513 82.5053C85.3216 83.1209 86.1869 83.1173 86.2167 82.5053Z" fill="#002247"/>
<path d="M88.9283 72.1414C88.9051 72.1341 88.8853 72.1268 88.8622 72.1196C88.9646 72.3163 89.0637 72.513 89.166 72.7061C89.1694 72.6769 89.1726 72.6478 89.1793 72.615C89.0405 72.7316 88.9018 72.8481 88.7631 72.9647C88.5055 72.9429 88.4626 72.6369 88.522 73.0558C88.5418 73.1869 88.5947 73.2889 88.6673 73.3946C88.849 73.6532 89.1396 73.7844 89.4171 73.8536C89.886 73.9701 90.2989 73.9228 90.507 74.4546C90.6424 74.7971 90.5763 75.1796 90.8009 75.5002C91.2501 76.1413 92.0427 75.7224 92.449 76.2834C92.6405 76.5457 92.6702 76.8517 92.9378 77.0593C93.1194 77.2014 93.7073 77.1868 93.7866 77.3107C94.1102 77.8061 94.8599 77.3289 94.533 76.8298C94.3315 76.5238 94.2522 76.5165 93.9484 76.3708C93.2812 76.0466 93.3671 75.9082 92.9708 75.4018C92.7594 75.1322 92.5844 75.0776 92.2805 74.9829C91.6695 74.7934 91.5011 74.9246 91.3426 74.2033C91.1774 73.4492 90.8901 73.2161 90.2526 72.9829C89.9521 72.8736 89.5888 72.8846 89.3444 72.5859C89.2915 72.5203 89.3345 72.3709 89.2552 72.3017C89.0571 72.1232 89.0472 72.0394 88.7631 72.0139C88.5947 71.9994 88.3701 72.1706 88.347 72.3636C88.3437 72.3928 88.3404 72.4219 88.3338 72.4547C88.3007 72.717 88.3899 72.9574 88.6376 73.0412C88.6607 73.0485 88.6805 73.0558 88.7037 73.0631C89.2321 73.2489 89.46 72.3272 88.9283 72.1414Z" fill="#002247"/>
<path d="M122.127 75.3362C122.104 75.3289 122.085 75.3216 122.061 75.3144C122.164 75.5111 122.263 75.7078 122.365 75.9009C122.369 75.8717 122.372 75.8426 122.378 75.8098C122.24 75.9264 122.101 76.0429 121.962 76.1595C121.705 76.1376 121.662 75.8316 121.721 76.2506C121.741 76.3817 121.794 76.4837 121.867 76.5894C122.048 76.848 122.339 76.9791 122.616 77.0484C123.085 77.1649 123.498 77.1176 123.706 77.6494C123.842 77.9919 123.776 78.3744 124 78.6949C124.449 79.3361 125.242 78.9171 125.648 79.4782C125.84 79.7404 125.869 80.0464 126.137 80.2541C126.319 80.3962 126.907 80.3816 126.986 80.5054C127.309 81.0009 128.059 80.5237 127.732 80.0246C127.531 79.7186 127.451 79.7113 127.148 79.5656C126.48 79.2414 126.566 79.1029 126.17 78.5966C125.959 78.327 125.784 78.2724 125.48 78.1776C124.869 77.9882 124.7 78.1194 124.542 77.3981C124.377 76.644 124.089 76.4109 123.452 76.1777C123.151 76.0684 122.788 76.0794 122.544 75.7806C122.491 75.7151 122.534 75.5657 122.454 75.4965C122.256 75.318 122.246 75.2342 121.962 75.2087C121.794 75.1941 121.569 75.3653 121.546 75.5584C121.543 75.5876 121.54 75.6167 121.533 75.6495C121.5 75.9118 121.589 76.1522 121.837 76.236C121.86 76.2433 121.88 76.2506 121.903 76.2579C122.431 76.44 122.659 75.5184 122.127 75.3362Z" fill="#002247"/>
<path d="M131.2 62.6918C131.177 62.6845 131.157 62.6772 131.134 62.67C131.236 62.8667 131.335 63.0634 131.438 63.2565C131.441 63.2273 131.444 63.1982 131.451 63.1654C131.312 63.282 131.173 63.3985 131.035 63.5151C130.777 63.4932 130.734 63.1872 130.793 63.6062C130.813 63.7373 130.866 63.8393 130.939 63.945C131.12 64.2036 131.411 64.3347 131.689 64.404C132.158 64.5205 132.57 64.4732 132.778 65.005C132.914 65.3475 132.848 65.73 133.072 66.0505C133.522 66.6917 134.314 66.2728 134.72 66.8338C134.912 67.096 134.942 67.402 135.209 67.6097C135.391 67.7518 135.979 67.7372 136.058 67.8611C136.382 68.3565 137.131 67.8793 136.804 67.3802C136.603 67.0742 136.524 67.0669 136.22 66.9212C135.553 66.597 135.639 66.4585 135.242 65.9522C135.031 65.6826 134.856 65.628 134.552 65.5333C133.941 65.3438 133.773 65.475 133.614 64.7537C133.449 63.9996 133.162 63.7665 132.524 63.5333C132.224 63.424 131.86 63.435 131.616 63.1362C131.563 63.0707 131.606 62.9213 131.527 62.8521C131.329 62.6736 131.319 62.5898 131.035 62.5643C130.866 62.5497 130.642 62.721 130.618 62.914C130.615 62.9432 130.612 62.9723 130.605 63.0051C130.572 63.2674 130.661 63.5078 130.909 63.5916C130.932 63.5989 130.952 63.6062 130.975 63.6135C131.504 63.7992 131.731 62.8776 131.2 62.6918Z" fill="#002247"/>
<path d="M134.185 50.2514C134.162 50.2441 134.142 50.2368 134.119 50.2295C134.221 50.4262 134.32 50.623 134.423 50.816C134.426 50.7869 134.429 50.7577 134.436 50.725C134.297 50.8415 134.159 50.9581 134.02 51.0747C133.762 51.0528 133.719 50.7468 133.779 51.1657C133.799 51.2969 133.852 51.3989 133.924 51.5045C134.106 51.7632 134.396 51.8943 134.674 51.9635C135.143 52.0801 135.556 52.0327 135.764 52.5646C135.899 52.907 135.833 53.2895 136.058 53.6101C136.507 54.2512 137.3 53.8323 137.706 54.3933C137.897 54.6556 137.927 54.9616 138.195 55.1692C138.376 55.3113 138.964 55.2967 139.043 55.4206C139.367 55.916 140.117 55.4388 139.79 54.9398C139.588 54.6338 139.509 54.6265 139.205 54.4808C138.538 54.1565 138.624 54.0181 138.228 53.5117C138.016 53.2422 137.841 53.1875 137.537 53.0928C136.926 52.9034 136.758 53.0345 136.599 52.3132C136.434 51.5592 136.147 51.326 135.509 51.0929C135.209 50.9836 134.846 50.9945 134.601 50.6958C134.548 50.6302 134.591 50.4809 134.512 50.4117C134.314 50.2332 134.304 50.1494 134.02 50.1239C133.852 50.1093 133.627 50.2805 133.604 50.4736C133.6 50.5027 133.597 50.5319 133.591 50.5647C133.558 50.827 133.647 51.0674 133.894 51.1512C133.918 51.1584 133.937 51.1657 133.96 51.173C134.489 51.3588 134.717 50.4372 134.185 50.2514Z" fill="#002247"/>
<path d="M103.738 53.4353C103.715 53.428 103.695 53.4207 103.672 53.4134C103.774 53.6101 103.873 53.8068 103.976 53.9999C103.979 53.9708 103.982 53.9416 103.989 53.9088C103.85 54.0254 103.711 54.142 103.573 54.2585C103.315 54.2367 103.272 53.9307 103.332 54.3496C103.351 54.4808 103.404 54.5864 103.477 54.6884C103.659 54.947 103.949 55.0782 104.227 55.1474C104.696 55.264 105.108 55.2166 105.317 55.7485C105.452 56.0909 105.386 56.4734 105.61 56.794C106.06 57.4351 106.852 57.0162 107.259 57.5772C107.45 57.8395 107.48 58.1455 107.747 58.3531C107.929 58.4952 108.517 58.4806 108.596 58.6045C108.92 59.0999 109.669 58.6227 109.343 58.1236C109.141 57.8176 109.062 57.8103 108.758 57.6646C108.091 57.3404 108.177 57.202 107.78 56.6956C107.569 56.426 107.394 56.3714 107.09 56.2767C106.479 56.0873 106.311 56.2184 106.152 55.4971C105.987 54.743 105.7 54.5099 105.062 54.2768C104.762 54.1675 104.398 54.1784 104.154 53.8797C104.101 53.8141 104.144 53.6648 104.065 53.5955C103.867 53.417 103.857 53.3333 103.573 53.3078C103.404 53.2932 103.18 53.4644 103.157 53.6575C103.153 53.6866 103.15 53.7158 103.143 53.7485C103.11 54.0108 103.199 54.2513 103.447 54.335C103.47 54.3423 103.49 54.3496 103.513 54.3569C104.042 54.5427 104.27 53.621 103.738 53.4353Z" fill="#002247"/>
<path d="M93.331 85.2885C93.1757 84.957 93.2286 84.6801 93.4994 84.4579C93.6084 84.4834 93.7207 84.5053 93.833 84.5198C93.9684 84.5162 94.1302 84.4798 94.2491 84.4033C94.6455 84.141 94.4506 83.7913 94.5761 83.427C94.662 83.1756 94.6686 83.2558 94.9559 83.1902C95.1343 83.1501 95.2994 83.1064 95.4513 82.9862C95.9401 82.5928 95.9665 81.9261 96.561 81.591C97.0564 81.3105 96.6205 80.4872 96.1251 80.7677C95.7981 80.9535 95.5339 81.172 95.3159 81.4963C95.0583 81.8788 95.0781 82.0901 94.5959 82.2831C94.1401 82.4653 93.7868 82.5126 93.7141 83.1465C93.6613 83.6018 93.8264 83.427 93.4565 83.4998C93.2154 83.5472 93.0304 83.5545 92.829 83.733C92.3171 84.192 92.3765 84.906 92.5053 85.5508C92.6143 86.1409 93.4499 85.8859 93.331 85.2885Z" fill="#002247"/>
<path d="M96.7457 86.2794C96.7226 86.8076 96.9538 87.2484 97.4096 87.4633C97.6903 87.5944 97.9413 87.5689 98.2353 87.5799C98.9453 87.609 99.2294 87.711 99.4672 88.4177C99.6125 88.8549 99.7512 89.2592 100.154 89.4705C100.468 89.6344 100.821 89.5069 101.135 89.6563C101.515 89.8421 101.73 90.4104 101.908 90.7965C102.162 91.3429 102.909 90.8621 102.654 90.3156C102.4 89.7656 102.086 89.139 101.571 88.833C101.066 88.5306 100.583 88.7893 100.303 88.1627C100.108 87.7329 100.088 87.2629 99.7314 86.9314C99.4275 86.6436 97.6011 86.5599 97.611 86.2794C97.6375 85.6637 96.7721 85.6674 96.7457 86.2794Z" fill="#002247"/>
<path d="M94.222 72.0358C94.3112 71.8755 94.4004 71.7152 94.4895 71.5549C94.5919 71.5914 94.6943 71.6242 94.7934 71.6606C94.9222 71.7152 95.018 71.7772 95.1501 71.8027C95.3317 71.8391 95.5002 71.8354 95.6719 71.7517C96.0913 71.544 96.2333 71.034 96.2994 70.575C96.3588 70.1634 96.3291 70.0067 96.7288 69.963C96.9633 69.9375 97.1911 69.9703 97.4091 69.8282C97.8253 69.5514 97.888 69.0013 97.8715 68.5168C97.8517 67.9048 96.9831 67.9012 97.0062 68.5168C97.026 69.1033 96.6891 68.9467 96.3225 69.0195C96.088 69.0669 95.8998 69.1907 95.7479 69.3911C95.5959 69.5951 95.5332 69.8391 95.4869 70.0942C95.4209 70.4548 95.5068 70.8082 95.1468 70.7899C94.9354 70.779 94.7207 70.6005 94.4862 70.5969C94.2319 70.5932 93.9644 70.677 93.7563 70.8409C93.3336 71.1724 93.1949 71.7662 93.3831 72.2872C93.5912 72.8518 94.4301 72.6077 94.222 72.0358Z" fill="#002247"/>
<path d="M89.5232 61.894C89.6553 62.2729 89.8502 62.5461 90.187 62.7246C90.732 63.016 91.376 62.8193 91.8153 63.3694C92.129 63.7591 92.0068 64.3347 92.3536 64.6844C92.4758 64.8047 93.4237 64.9831 93.3708 64.8265C93.5624 65.3984 94.4013 65.1507 94.2064 64.5715C94.0644 64.1526 93.8332 63.9704 93.4237 63.9194C93.3642 63.9121 92.9976 63.985 92.9481 63.934C92.8589 63.8393 92.8391 63.3876 92.773 63.2346C92.5815 62.8011 92.2644 62.4404 91.8747 62.2219C91.5081 62.0179 90.5173 62.1053 90.3588 61.6426C90.1606 61.0707 89.3217 61.3184 89.5232 61.894Z" fill="#002247"/>
<path d="M94.9757 59.2165C94.9526 59.1982 94.9294 59.1837 94.903 59.1654C94.9691 59.2602 95.0351 59.3549 95.1012 59.4496C95.1573 59.6536 94.9526 59.5807 95.2003 59.6536C95.2795 59.6755 95.3852 59.6572 95.4678 59.6427C95.6461 59.6099 95.8014 59.5334 95.9302 59.3913C96.1614 59.1363 96.1977 58.7829 96.2142 58.4405C96.2241 58.2912 96.1911 58.0434 96.2704 57.9087C96.376 57.7374 96.6931 57.6828 96.845 57.5517C97.1357 57.3039 97.2942 56.9105 97.1588 56.5207C96.9573 55.9524 96.1217 56.2002 96.3232 56.7757C96.3331 56.8085 95.8773 57.0344 95.8212 57.0781C95.6627 57.2019 95.557 57.3477 95.481 57.5371C95.3753 57.7957 95.4381 58.5972 95.2663 58.6919C95.1144 58.7757 94.8601 58.67 94.6817 58.7574C94.5331 58.8303 94.4142 58.9432 94.335 59.0999C94.1533 59.4569 94.2425 59.8175 94.543 60.0397C95.0054 60.3785 95.4381 59.5516 94.9757 59.2165Z" fill="#002247"/>
<path d="M99.5828 83.1356C99.4078 82.2467 100.233 81.5364 100.97 81.7986C101.254 81.9006 101.502 81.6311 101.518 81.3396C101.574 80.2941 102.149 79.3907 103.034 78.9973C103.546 78.7714 103.322 77.8461 102.803 78.0756C101.535 78.6366 100.732 79.8279 100.65 81.3396C100.831 81.1866 101.016 81.0336 101.198 80.8806C99.7909 80.3779 98.4335 81.8351 98.744 83.3906C98.8662 83.988 99.7017 83.7367 99.5828 83.1356Z" fill="#002247"/>
<path d="M99.3051 61.0197C99.348 61.5224 99.4966 61.9632 99.8863 62.2655C100.481 62.7282 101.62 62.2109 101.927 63.118C102.142 63.7482 101.739 64.5241 102.089 65.1252C102.192 65.3001 103.235 65.77 103.225 65.5915C103.258 66.2035 104.124 66.2071 104.091 65.5915C104.068 65.1434 103.876 64.8483 103.476 64.6917C103.249 64.6043 102.974 64.7099 102.813 64.4731C102.697 64.3019 102.846 63.475 102.819 63.2346C102.766 62.7391 102.598 62.2546 102.235 61.9377C101.782 61.5406 100.233 61.7701 100.167 61.0197C100.118 60.4113 99.2522 60.404 99.3051 61.0197Z" fill="#002247"/>
<path d="M112.846 76.95C112.935 76.7897 113.024 76.6294 113.114 76.4692C113.216 76.5056 113.318 76.5384 113.417 76.5748C113.546 76.6295 113.642 76.6914 113.774 76.7169C113.956 76.7533 114.124 76.7497 114.296 76.6659C114.715 76.4582 114.857 75.9482 114.923 75.4892C114.983 75.0776 114.953 74.9209 115.353 74.8772C115.587 74.8517 115.815 74.8845 116.033 74.7424C116.449 74.4656 116.512 73.9155 116.496 73.431C116.476 72.819 115.607 72.8154 115.63 73.431C115.65 74.0175 115.313 73.8609 114.947 73.9337C114.712 73.9811 114.524 74.1049 114.372 74.3053C114.22 74.5093 114.157 74.7534 114.111 75.0084C114.045 75.369 114.131 75.7224 113.771 75.7042C113.559 75.6932 113.345 75.5147 113.11 75.5111C112.856 75.5075 112.588 75.5912 112.38 75.7552C111.958 76.0867 111.819 76.6805 112.007 77.2014C112.215 77.7697 113.054 77.522 112.846 76.95Z" fill="#002247"/>
<path d="M135.771 62.3859C135.86 62.2256 135.949 62.0653 136.038 61.905C136.141 61.9414 136.243 61.9742 136.342 62.0106C136.471 62.0653 136.567 62.1272 136.699 62.1527C136.881 62.1891 137.049 62.1855 137.221 62.1017C137.64 61.8941 137.782 61.3841 137.848 60.9251C137.908 60.5134 137.878 60.3568 138.278 60.3131C138.512 60.2876 138.74 60.3203 138.958 60.1783C139.377 59.9014 139.437 59.3513 139.42 58.8668C139.401 58.2548 138.532 58.2512 138.555 58.8668C138.575 59.4533 138.238 59.2967 137.871 59.3696C137.637 59.4169 137.449 59.5408 137.297 59.7411C137.145 59.9451 137.082 60.1892 137.036 60.4442C136.97 60.8048 137.056 61.1582 136.696 61.14C136.484 61.1291 136.27 60.9506 136.035 60.9469C135.781 60.9433 135.513 61.0271 135.305 61.191C134.882 61.5225 134.744 62.1163 134.932 62.6372C135.14 63.2055 135.976 62.9578 135.771 62.3859Z" fill="#002247"/>
<path d="M130.04 57.9962C130.13 57.8359 130.219 57.6756 130.308 57.5153C130.41 57.5517 130.513 57.5845 130.612 57.621C130.741 57.6756 130.836 57.7375 130.968 57.763C131.15 57.7995 131.319 57.7958 131.49 57.712C131.91 57.5044 132.052 56.9944 132.118 56.5354C132.177 56.1237 132.148 55.9671 132.547 55.9234C132.782 55.8979 133.01 55.9307 133.227 55.7886C133.647 55.5117 133.706 54.9617 133.69 54.4772C133.67 53.8652 132.801 53.8615 132.825 54.4772C132.844 55.0637 132.508 54.907 132.141 54.9799C131.906 55.0272 131.718 55.1511 131.566 55.3514C131.414 55.5554 131.352 55.7995 131.305 56.0545C131.239 56.4152 131.325 56.7685 130.965 56.7503C130.754 56.7394 130.539 56.5609 130.305 56.5572C130.05 56.5536 129.783 56.6374 129.575 56.8013C129.152 57.1328 129.013 57.7266 129.201 58.2475C129.406 58.8158 130.245 58.5681 130.04 57.9962Z" fill="#002247"/>
<path d="M132.587 75.5548C132.676 75.3945 132.766 75.2342 132.855 75.0739C132.957 75.1103 133.06 75.1431 133.159 75.1796C133.287 75.2342 133.383 75.2961 133.515 75.3216C133.697 75.3581 133.865 75.3544 134.037 75.2706C134.457 75.063 134.599 74.553 134.665 74.094C134.724 73.6823 134.694 73.5257 135.094 73.482C135.329 73.4565 135.556 73.4893 135.774 73.3472C136.194 73.0703 136.253 72.5203 136.237 72.0358C136.217 71.4238 135.348 71.4201 135.371 72.0358C135.391 72.6223 135.054 72.4656 134.688 72.5385C134.453 72.5858 134.265 72.7097 134.113 72.91C133.961 73.114 133.898 73.3581 133.852 73.6131C133.786 73.9738 133.872 74.3271 133.512 74.3089C133.301 74.298 133.086 74.1195 132.851 74.1158C132.597 74.1122 132.33 74.196 132.122 74.3599C131.699 74.6914 131.56 75.2852 131.748 75.8061C131.956 76.3708 132.792 76.1267 132.587 75.5548Z" fill="#002247"/>
<path d="M108.147 66.8118C108.279 67.1907 108.474 67.4639 108.811 67.6424C109.356 67.9338 110 67.7371 110.439 68.2872C110.753 68.677 110.631 69.2526 110.978 69.6023C111.1 69.7225 112.048 69.901 111.995 69.7443C112.186 70.3163 113.025 70.0686 112.83 69.4893C112.688 69.0704 112.457 68.8883 112.048 68.8373C111.988 68.83 111.622 68.9028 111.572 68.8518C111.483 68.7571 111.463 68.3054 111.397 68.1524C111.206 67.7189 110.888 67.3583 110.499 67.1397C110.132 66.9357 109.141 67.0231 108.983 66.5605C108.785 65.9885 107.946 66.2363 108.147 66.8118Z" fill="#002247"/>
<path d="M113.6 64.1306C113.577 64.1124 113.553 64.0979 113.527 64.0797C113.593 64.1744 113.659 64.2691 113.725 64.3638C113.781 64.5678 113.577 64.4949 113.824 64.5678C113.904 64.5897 114.009 64.5714 114.092 64.5569C114.27 64.5241 114.425 64.4476 114.554 64.3055C114.785 64.0505 114.822 63.6971 114.838 63.3547C114.848 63.2054 114.815 62.9576 114.894 62.8229C115 62.6516 115.317 62.597 115.469 62.4659C115.76 62.2181 115.918 61.8247 115.783 61.4349C115.581 60.8666 114.746 61.1144 114.947 61.6899C114.957 61.7227 114.501 61.9486 114.445 61.9923C114.287 62.1161 114.181 62.2619 114.105 62.4513C113.999 62.7099 114.062 63.5114 113.89 63.6061C113.738 63.6899 113.484 63.5842 113.306 63.6717C113.157 63.7445 113.038 63.8574 112.959 64.0141C112.777 64.3711 112.867 64.7317 113.167 64.9539C113.629 65.2964 114.062 64.4694 113.6 64.1306Z" fill="#002247"/>
<path d="M126.569 69.8864C126.546 69.8682 126.523 69.8536 126.497 69.8354C126.563 69.9301 126.629 70.0249 126.695 70.1196C126.751 70.3236 126.546 70.2507 126.794 70.3236C126.873 70.3454 126.979 70.3272 127.062 70.3126C127.24 70.2799 127.395 70.2034 127.524 70.0613C127.755 69.8063 127.791 69.4529 127.808 69.1105C127.818 68.9611 127.785 68.7134 127.864 68.5787C127.97 68.4074 128.287 68.3528 128.439 68.2216C128.729 67.9739 128.888 67.5805 128.753 67.1907C128.551 66.6224 127.715 66.8701 127.917 67.4457C127.927 67.4785 127.471 67.7044 127.415 67.7481C127.256 67.8719 127.151 68.0176 127.075 68.2071C126.969 68.4657 127.032 69.2671 126.86 69.3619C126.708 69.4456 126.454 69.34 126.275 69.4274C126.127 69.5003 126.008 69.6132 125.929 69.7699C125.747 70.1269 125.836 70.4875 126.137 70.7097C126.599 71.0521 127.032 70.2252 126.569 69.8864Z" fill="#002247"/>
<path d="M117.929 65.934C117.972 66.4367 118.121 66.8775 118.51 67.1798C119.105 67.6425 120.244 67.1252 120.551 68.0323C120.766 68.6625 120.363 69.4384 120.713 70.0395C120.816 70.2143 121.859 70.6843 121.849 70.5058C121.882 71.1178 122.748 71.1214 122.715 70.5058C122.692 70.0577 122.5 69.7626 122.1 69.606C121.873 69.5186 121.598 69.6242 121.437 69.3874C121.321 69.2162 121.47 68.3893 121.443 68.1488C121.39 67.6534 121.222 67.1689 120.859 66.852C120.406 66.4549 118.857 66.6844 118.791 65.934C118.742 65.3292 117.876 65.322 117.929 65.934Z" fill="#002247"/>
<path d="M132.59 42.1424C132.633 42.6451 132.782 43.0859 133.171 43.3883C133.766 43.8509 134.905 43.3336 135.213 44.2407C135.427 44.8709 135.024 45.6469 135.374 46.2479C135.477 46.4228 136.52 46.8927 136.511 46.7142C136.544 47.3262 137.409 47.3299 137.376 46.7142C137.353 46.2661 137.161 45.9711 136.762 45.8144C136.534 45.727 136.26 45.8326 136.098 45.5959C135.982 45.4246 136.131 44.5977 136.104 44.3573C136.051 43.8618 135.883 43.3773 135.52 43.0604C135.067 42.6633 133.518 42.8928 133.452 42.1424C133.403 41.5341 132.537 41.5268 132.59 42.1424Z" fill="#002247"/>
<path d="M126.004 44.9874C126.047 45.4902 126.196 45.9309 126.586 46.2333C127.18 46.6959 128.319 46.1787 128.627 47.0857C128.841 47.716 128.438 48.4919 128.788 49.093C128.891 49.2678 129.935 49.7377 129.925 49.5592C129.958 50.1712 130.823 50.1749 130.79 49.5592C130.767 49.1112 130.575 48.8161 130.176 48.6595C129.948 48.572 129.674 48.6777 129.512 48.4409C129.396 48.2697 129.545 47.4427 129.518 47.2023C129.466 46.7069 129.297 46.2224 128.934 45.9054C128.481 45.5084 126.932 45.7379 126.866 44.9874C126.817 44.3791 125.951 44.3718 126.004 44.9874Z" fill="#002247"/>
<path d="M65.9549 24.1757C63.3589 32.2884 58.1307 38.0441 51.3932 42.1132C46.2145 45.2388 39.249 50.1202 41.1547 57.8467C41.3 58.4405 42.1356 58.1892 41.9903 57.5918C39.7015 48.3024 50.3759 44.3791 55.6801 40.4302C60.8588 36.5724 64.7196 30.9077 66.7938 24.4271C66.9754 23.8478 66.1398 23.6001 65.9549 24.1757Z" fill="#002247"/>
<path d="M93.6781 34.4631C94.0579 36.7545 94.6788 38.9657 95.5837 41.0713C96.1584 42.4082 96.8817 43.6577 97.3078 45.0675C97.7338 46.4773 97.899 47.9709 98.0674 49.4353C98.1368 50.0364 99.0021 50.0437 98.9327 49.4353C98.6454 46.8962 98.2028 44.5976 97.1327 42.3099C95.914 39.7016 94.9959 37.1042 94.5137 34.2081C94.4146 33.6071 93.579 33.8621 93.6781 34.4631Z" fill="#002247"/>
<defs>
<linearGradient id="paint0_linear" x1="130.133" y1="180.984" x2="57.7104" y2="262.834" gradientUnits="userSpaceOnUse">
<stop stop-color="#0014C9"/>
<stop offset="1" stop-color="#6877FF"/>
</linearGradient>
<linearGradient id="paint1_linear" x1="81.632" y1="278.839" x2="62.0283" y2="293.621" gradientUnits="userSpaceOnUse">
<stop stop-color="#0014C9"/>
<stop offset="1" stop-color="#6877FF"/>
</linearGradient>
</defs>
</svg>
