<svg width="163" height="48" viewBox="0 0 163 48" fill="none" xmlns="http://www.w3.org/2000/svg">
<g clip-path="url(#clip0)">
<path d="M156.667 0H6.66669C3.35298 0 0.666687 2.68629 0.666687 6V42C0.666687 45.3137 3.35298 48 6.66669 48H156.667C159.98 48 162.667 45.3137 162.667 42V6C162.667 2.68629 159.98 0 156.667 0Z" fill="black"></path>
<path d="M156.667 0.96C158.003 0.96 159.285 1.491 160.231 2.43618C161.176 3.38137 161.707 4.66331 161.707 6V42C161.707 43.3367 161.176 44.6186 160.231 45.5638C159.285 46.509 158.003 47.04 156.667 47.04H6.66669C5.33 47.04 4.04805 46.509 3.10287 45.5638C2.15769 44.6186 1.62669 43.3367 1.62669 42V6C1.62669 4.66331 2.15769 3.38137 3.10287 2.43618C4.04805 1.491 5.33 0.96 6.66669 0.96H156.667ZM156.667 0H6.66669C5.07539 0 3.54926 0.632141 2.42405 1.75736C1.29883 2.88258 0.666687 4.4087 0.666687 6V42C0.666687 43.5913 1.29883 45.1174 2.42405 46.2426C3.54926 47.3679 5.07539 48 6.66669 48H156.667C158.258 48 159.784 47.3679 160.909 46.2426C162.035 45.1174 162.667 43.5913 162.667 42V6C162.667 4.4087 162.035 2.88258 160.909 1.75736C159.784 0.632141 158.258 0 156.667 0Z" fill="#A6A6A6"></path>
<path d="M57.5707 12.288C57.5904 12.7281 57.5208 13.1676 57.3661 13.58C57.2115 13.9925 56.9749 14.3694 56.6707 14.688C56.3298 15.04 55.9184 15.316 55.4635 15.4979C55.0085 15.6799 54.5203 15.7638 54.0307 15.744C53.5383 15.755 53.0489 15.6648 52.5927 15.479C52.1365 15.2933 51.7234 15.0159 51.3787 14.664C50.6795 13.9488 50.288 12.9882 50.288 11.988C50.288 10.9878 50.6795 10.0272 51.3787 9.312C51.9133 8.78962 52.5904 8.43688 53.3248 8.29811C54.0593 8.15933 54.8184 8.2407 55.5067 8.532C55.9394 8.70988 56.3254 8.98498 56.6347 9.336L55.9987 9.972C55.7604 9.68493 55.4584 9.45736 55.1168 9.30738C54.7752 9.1574 54.4033 9.08914 54.0307 9.108C53.5603 9.11125 53.0979 9.22967 52.6839 9.4529C52.2698 9.67613 51.9168 9.99737 51.6555 10.3886C51.3943 10.7797 51.2329 11.2289 51.1854 11.6969C51.1378 12.1649 51.2056 12.6374 51.3829 13.0731C51.5601 13.5088 51.8414 13.8945 52.2021 14.1964C52.5628 14.4983 52.992 14.7073 53.4521 14.8051C53.9122 14.9028 54.3893 14.8864 54.8416 14.7572C55.2938 14.628 55.7076 14.39 56.0467 14.064C56.4132 13.6621 56.6258 13.1435 56.6467 12.6H54.0307V11.736H57.5227C57.55 11.9188 57.5661 12.1032 57.5707 12.288Z" fill="white" stroke="white" stroke-width="0.2" stroke-miterlimit="10"></path>
<path d="M63.0667 9.288H59.8267V11.568H62.7787V12.432H59.8267V14.712H63.0667V15.6H58.8907V8.4H63.0667V9.288Z" fill="white" stroke="white" stroke-width="0.2" stroke-miterlimit="10"></path>
<path d="M67.0027 15.6H66.0787V9.288H64.0627V8.4H69.0667V9.288H67.0027V15.6Z" fill="white" stroke="white" stroke-width="0.2" stroke-miterlimit="10"></path>
<path d="M72.5947 15.6V8.4H73.5187V15.6H72.5947Z" fill="white" stroke="white" stroke-width="0.2" stroke-miterlimit="10"></path>
<path d="M77.6227 15.6H76.6987V9.288H74.6827V8.4H79.6267V9.288H77.6227V15.6Z" fill="white" stroke="white" stroke-width="0.2" stroke-miterlimit="10"></path>
<path d="M88.9987 14.664C88.6521 15.0109 88.2406 15.286 87.7876 15.4738C87.3346 15.6615 86.849 15.7582 86.3587 15.7582C85.8683 15.7582 85.3828 15.6615 84.9298 15.4738C84.4768 15.286 84.0653 15.0109 83.7187 14.664C83.0403 13.9429 82.6626 12.9901 82.6626 12C82.6626 11.0099 83.0403 10.0571 83.7187 9.336C84.0578 8.97936 84.468 8.69788 84.9228 8.50977C85.3775 8.32167 85.8667 8.23112 86.3587 8.244C86.85 8.23623 87.3376 8.32911 87.7917 8.51691C88.2457 8.70471 88.6565 8.98346 88.9987 9.336C89.3437 9.68699 89.615 10.1036 89.7963 10.5611C89.9777 11.0187 90.0656 11.5079 90.0547 12C90.0704 12.4927 89.9848 12.9834 89.8032 13.4416C89.6215 13.8998 89.3477 14.3159 88.9987 14.664V14.664ZM84.4027 14.064C84.6583 14.3231 84.9629 14.5287 85.2986 14.6691C85.6344 14.8095 85.9948 14.8818 86.3587 14.8818C86.7226 14.8818 87.083 14.8095 87.4187 14.6691C87.7545 14.5287 88.0591 14.3231 88.3147 14.064C88.8325 13.5014 89.1199 12.7646 89.1199 12C89.1199 11.2354 88.8325 10.4986 88.3147 9.936C88.0591 9.67695 87.7545 9.47125 87.4187 9.33086C87.083 9.19047 86.7226 9.11817 86.3587 9.11817C85.9948 9.11817 85.6344 9.19047 85.2986 9.33086C84.9629 9.47125 84.6583 9.67695 84.4027 9.936C83.8849 10.4986 83.5975 11.2354 83.5975 12C83.5975 12.7646 83.8849 13.5014 84.4027 14.064V14.064Z" fill="white" stroke="white" stroke-width="0.2" stroke-miterlimit="10"></path>
<path d="M91.3627 15.6V8.4H92.4787L95.9827 14.004V12.612V8.4H96.9067V15.6H95.9467L92.2867 9.732V11.112V15.6H91.3627Z" fill="white" stroke="white" stroke-width="0.2" stroke-miterlimit="10"></path>
<path d="M82.4347 26.1C81.4236 26.1024 80.436 26.4045 79.5967 26.9682C78.7573 27.5319 78.104 28.3318 77.7193 29.2668C77.3345 30.2018 77.2357 31.2299 77.4353 32.2211C77.6349 33.2122 78.1239 34.1219 78.8405 34.8352C79.5571 35.5484 80.4691 36.0332 81.4612 36.2281C82.4533 36.423 83.4809 36.3194 84.4141 35.9303C85.3473 35.5411 86.1441 34.8841 86.7038 34.0421C87.2636 33.2001 87.5611 32.2111 87.5587 31.2C87.5685 30.5255 87.4425 29.856 87.1881 29.2312C86.9338 28.6065 86.5563 28.0393 86.0782 27.5634C85.6001 27.0875 85.0312 26.7128 84.4052 26.4613C83.7793 26.2099 83.1091 26.087 82.4347 26.1V26.1ZM82.4347 34.296C81.815 34.3393 81.1966 34.1952 80.6599 33.8825C80.1231 33.5697 79.6929 33.1027 79.4251 32.5421C79.1573 31.9816 79.0644 31.3535 79.1583 30.7394C79.2522 30.1253 79.5287 29.5537 79.9519 29.0988C80.375 28.644 80.9251 28.327 81.5308 28.1889C82.1365 28.0509 82.7697 28.0983 83.3481 28.3249C83.9265 28.5515 84.4234 28.9469 84.7741 29.4596C85.1248 29.9724 85.3132 30.5788 85.3147 31.2C85.334 31.5936 85.2743 31.9871 85.1392 32.3573C85.004 32.7275 84.7961 33.0669 84.5277 33.3554C84.2592 33.644 83.9358 33.8758 83.5763 34.0374C83.2169 34.1989 82.8287 34.2869 82.4347 34.296ZM71.2507 26.1C70.2396 26.1024 69.252 26.4045 68.4127 26.9682C67.5733 27.5319 66.92 28.3318 66.5353 29.2668C66.1505 30.2018 66.0517 31.2299 66.2513 32.2211C66.4509 33.2122 66.9399 34.1219 67.6565 34.8352C68.3731 35.5484 69.2851 36.0332 70.2772 36.2281C71.2693 36.423 72.2969 36.3194 73.2301 35.9303C74.1633 35.5411 74.9601 34.8841 75.5198 34.0421C76.0796 33.2001 76.3771 32.2111 76.3747 31.2C76.3845 30.5255 76.2585 29.856 76.0041 29.2312C75.7498 28.6065 75.3723 28.0393 74.8942 27.5634C74.4161 27.0875 73.8472 26.7128 73.2212 26.4613C72.5953 26.2099 71.9251 26.087 71.2507 26.1V26.1ZM71.2507 34.296C70.631 34.3393 70.0126 34.1952 69.4759 33.8825C68.9391 33.5697 68.5089 33.1027 68.2411 32.5421C67.9733 31.9816 67.8804 31.3535 67.9743 30.7394C68.0682 30.1253 68.3447 29.5537 68.7679 29.0988C69.191 28.644 69.7411 28.327 70.3468 28.1889C70.9525 28.0509 71.5857 28.0983 72.1641 28.3249C72.7425 28.5515 73.2394 28.9469 73.5901 29.4596C73.9408 29.9724 74.1292 30.5788 74.1307 31.2C74.15 31.5936 74.0903 31.9871 73.9552 32.3573C73.82 32.7275 73.6121 33.0669 73.3437 33.3554C73.0752 33.644 72.7518 33.8758 72.3923 34.0374C72.0329 34.1989 71.6447 34.2869 71.2507 34.296ZM57.9547 27.672V29.832H63.1387C63.0574 30.8494 62.6345 31.8094 61.9387 32.556C61.4187 33.0858 60.7932 33.5006 60.1028 33.7734C59.4124 34.0463 58.6724 34.1712 57.9307 34.14C56.4031 34.14 54.938 33.5331 53.8578 32.4529C52.7775 31.3727 52.1707 29.9076 52.1707 28.38C52.1707 26.8524 52.7775 25.3873 53.8578 24.3071C54.938 23.2269 56.4031 22.62 57.9307 22.62C59.3952 22.5982 60.8094 23.1544 61.8667 24.168L63.3907 22.644C62.6755 21.9366 61.8263 21.3791 60.8928 21.004C59.9594 20.629 58.9605 20.4441 57.9547 20.46C56.8879 20.4185 55.8237 20.5928 54.8258 20.9724C53.828 21.352 52.9171 21.9291 52.1476 22.6692C51.3781 23.4093 50.766 24.2971 50.3479 25.2794C49.9298 26.2618 49.7142 27.3184 49.7142 28.386C49.7142 29.4536 49.9298 30.5102 50.3479 31.4926C50.766 32.4749 51.3781 33.3627 52.1476 34.1028C52.9171 34.8429 53.828 35.42 54.8258 35.7996C55.8237 36.1792 56.8879 36.3535 57.9547 36.312C58.9812 36.353 60.0048 36.1764 60.9582 35.7938C61.9116 35.4112 62.7733 34.8312 63.4867 34.092C64.7468 32.7077 65.4183 30.887 65.3587 29.016C65.363 28.5657 65.3268 28.1159 65.2507 27.672H57.9547ZM112.327 29.352C112.014 28.4313 111.429 27.6273 110.649 27.0466C109.868 26.4659 108.93 26.1358 107.959 26.1C107.302 26.0987 106.653 26.2321 106.05 26.4918C105.447 26.7516 104.904 27.1322 104.454 27.6102C104.004 28.0882 103.657 28.6534 103.434 29.2709C103.211 29.8883 103.118 30.5449 103.159 31.2C103.148 32.2954 103.493 33.3648 104.14 34.2483C104.788 35.1319 105.704 35.7822 106.752 36.1022C107.8 36.4221 108.923 36.3946 109.953 36.0236C110.984 35.6527 111.867 34.9582 112.471 34.044L110.731 32.844C110.471 33.2763 110.103 33.6333 109.663 33.8796C109.224 34.1259 108.727 34.2529 108.223 34.248C107.703 34.2695 107.188 34.1331 106.747 33.8568C106.306 33.5806 105.958 33.1773 105.751 32.7L112.579 29.88L112.327 29.352ZM105.367 31.056C105.342 30.6833 105.393 30.3094 105.515 29.9563C105.637 29.6033 105.828 29.2781 106.077 28.9998C106.326 28.7216 106.628 28.4958 106.966 28.3358C107.303 28.1758 107.67 28.0848 108.043 28.068C108.429 28.0444 108.814 28.1354 109.149 28.3297C109.485 28.5239 109.755 28.8128 109.927 29.16L105.367 31.056ZM99.8227 36H102.067V21H99.8227V36ZM96.1507 27.24H96.0667C95.7315 26.8582 95.3178 26.5534 94.8538 26.3463C94.3899 26.1391 93.8867 26.0347 93.3787 26.04C92.0673 26.1036 90.8307 26.6693 89.9251 27.6199C89.0195 28.5705 88.5143 29.8331 88.5143 31.146C88.5143 32.4589 89.0195 33.7215 89.9251 34.6721C90.8307 35.6227 92.0673 36.1884 93.3787 36.252C93.8875 36.2622 94.3922 36.1599 94.8568 35.9525C95.3215 35.7451 95.7346 35.4376 96.0667 35.052H96.1507V35.784C96.1507 37.74 95.1067 38.784 93.4267 38.784C92.8655 38.7717 92.3206 38.5928 91.8612 38.2702C91.4019 37.9476 91.0487 37.4957 90.8467 36.972L88.9027 37.776C89.2621 38.6787 89.887 39.4511 90.6948 39.991C91.5026 40.531 92.4552 40.813 93.4267 40.8C96.0547 40.8 98.2267 39.252 98.2267 35.484V26.4H96.1507V27.24ZM93.5707 34.296C92.7845 34.247 92.0465 33.9001 91.5071 33.326C90.9676 32.7519 90.6674 31.9938 90.6674 31.206C90.6674 30.4182 90.9676 29.6601 91.5071 29.086C92.0465 28.5119 92.7845 28.165 93.5707 28.116C93.955 28.1326 94.332 28.2263 94.6793 28.3916C95.0267 28.5568 95.3372 28.7903 95.5925 29.078C95.8477 29.3657 96.0425 29.7019 96.1652 30.0664C96.2879 30.431 96.336 30.8165 96.3067 31.2C96.3394 31.5848 96.2938 31.9723 96.1725 32.339C96.0512 32.7057 95.8568 33.0439 95.6011 33.3333C95.3453 33.6227 95.0335 33.8573 94.6845 34.0227C94.3355 34.1882 93.9566 34.2812 93.5707 34.296V34.296ZM122.839 21H117.463V36H119.707V30.312H122.839C123.478 30.3579 124.12 30.2716 124.725 30.0585C125.33 29.8453 125.884 29.5098 126.354 29.073C126.823 28.6361 127.197 28.1073 127.453 27.5194C127.709 26.9315 127.841 26.2972 127.841 25.656C127.841 25.0148 127.709 24.3805 127.453 23.7926C127.197 23.2047 126.823 22.6759 126.354 22.239C125.884 21.8022 125.33 21.4667 124.725 21.2535C124.12 21.0404 123.478 20.9541 122.839 21V21ZM122.839 28.2H119.707V23.088H122.887C123.224 23.088 123.558 23.1544 123.869 23.2835C124.181 23.4125 124.464 23.6017 124.703 23.8401C124.941 24.0786 125.13 24.3617 125.259 24.6733C125.388 24.9848 125.455 25.3188 125.455 25.656C125.455 25.9932 125.388 26.3272 125.259 26.6387C125.13 26.9503 124.941 27.2334 124.703 27.4718C124.464 27.7103 124.181 27.8995 123.869 28.0285C123.558 28.1576 123.224 28.224 122.887 28.224L122.839 28.2ZM136.687 26.052C135.87 26.0016 135.055 26.1919 134.345 26.5992C133.635 27.0066 133.06 27.6132 132.691 28.344L134.671 29.172C134.871 28.8113 135.171 28.5162 135.535 28.3224C135.899 28.1287 136.312 28.0445 136.723 28.08C137.008 28.0467 137.296 28.0705 137.572 28.15C137.847 28.2295 138.104 28.363 138.328 28.5428C138.551 28.7227 138.736 28.9452 138.873 29.1975C139.009 29.4497 139.094 29.7266 139.123 30.012V30.156C138.401 29.7767 137.598 29.579 136.783 29.58C134.647 29.58 132.463 30.78 132.463 32.964C132.484 33.4282 132.598 33.8834 132.799 34.3027C132.999 34.7219 133.282 35.0965 133.63 35.4043C133.978 35.7122 134.384 35.9469 134.825 36.0946C135.266 36.2422 135.731 36.2999 136.195 36.264C136.758 36.2951 137.319 36.176 137.821 35.9187C138.323 35.6615 138.747 35.2754 139.051 34.8H139.123V36H141.283V30.228C141.283 27.6 139.291 26.076 136.735 26.076L136.687 26.052ZM136.411 34.272C135.679 34.272 134.659 33.9 134.659 33C134.659 31.8 135.931 31.392 137.059 31.392C137.772 31.3744 138.476 31.5485 139.099 31.896C139.023 32.5477 138.714 33.15 138.229 33.5913C137.744 34.0325 137.115 34.2829 136.459 34.296L136.411 34.272ZM149.155 26.4L146.587 32.904H146.515L143.851 26.4H141.451L145.447 35.496L143.167 40.548H145.507L151.651 26.4H149.155ZM128.995 36H131.227V21H128.995V36Z" fill="white"></path>
<path d="M13.1947 9.048C12.7992 9.51554 12.5975 10.1166 12.6307 10.728V37.272C12.5898 37.8845 12.7926 38.4883 13.1947 38.952L13.2787 39.048L28.1467 24.18V23.82L13.2787 8.964L13.1947 9.048Z" fill="url(#paint0_linear)"></path>
<path d="M33.0667 29.136L28.1467 24.18V23.82L33.0667 18.864L33.1747 18.936L39.0667 22.272C40.7467 23.22 40.7467 24.78 39.0667 25.74L33.1987 29.076L33.0667 29.136Z" fill="url(#paint1_linear)"></path>
<path d="M33.2107 29.064L28.1467 24L13.1947 38.952C13.5338 39.2538 13.9678 39.4275 14.4215 39.4428C14.8752 39.4582 15.32 39.3142 15.6787 39.036L33.2107 29.064" fill="url(#paint2_linear)"></path>
<path d="M33.2107 18.936L15.6787 8.976C15.3223 8.6939 14.8779 8.54647 14.4236 8.55964C13.9693 8.57281 13.5341 8.74573 13.1947 9.048L28.1467 24L33.2107 18.936Z" fill="url(#paint3_linear)"></path>
<path opacity="0.2" d="M33.0667 28.956L15.6787 38.856C15.333 39.1169 14.9118 39.258 14.4787 39.258C14.0456 39.258 13.6244 39.1169 13.2787 38.856V38.856L13.1947 38.94L13.2787 39.036C13.6244 39.2969 14.0456 39.438 14.4787 39.438C14.9118 39.438 15.333 39.2969 15.6787 39.036L33.2107 29.064L33.0667 28.956Z" fill="black"></path>
<path opacity="0.12" d="M13.1947 38.784C12.8092 38.308 12.6203 37.7027 12.6667 37.092V37.272C12.6258 37.8845 12.8285 38.4883 13.2307 38.952L13.3147 38.868L13.1947 38.784Z" fill="black"></path>
<path opacity="0.12" d="M39.0667 25.56L33.0667 28.956L33.1747 29.064L39.0667 25.728C39.4145 25.5809 39.7162 25.3428 39.94 25.0387C40.1639 24.7346 40.3016 24.3758 40.3387 24C40.2637 24.3415 40.1095 24.6606 39.8885 24.9315C39.6676 25.2025 39.3861 25.4178 39.0667 25.56Z" fill="black"></path>
<path opacity="0.25" d="M15.6787 9.144L39.0667 22.44C39.3861 22.5822 39.6676 22.7975 39.8885 23.0685C40.1095 23.3394 40.2637 23.6585 40.3387 24C40.3016 23.6242 40.1639 23.2654 39.94 22.9613C39.7162 22.6572 39.4145 22.4191 39.0667 22.272L15.6787 8.976C14.0107 8.016 12.6307 8.808 12.6307 10.728V10.908C12.6667 8.988 14.0107 8.196 15.6787 9.144Z" fill="white"></path>
</g>
<defs>
<linearGradient id="paint0_linear" x1="26.8267" y1="10.452" x2="6.69068" y2="30.588" gradientUnits="userSpaceOnUse">
<stop stop-color="#00A0FF"></stop>
<stop offset="0.01" stop-color="#00A1FF"></stop>
<stop offset="0.26" stop-color="#00BEFF"></stop>
<stop offset="0.51" stop-color="#00D2FF"></stop>
<stop offset="0.76" stop-color="#00DFFF"></stop>
<stop offset="1" stop-color="#00E3FF"></stop>
</linearGradient>
<linearGradient id="paint1_linear" x1="41.2627" y1="24" x2="12.2347" y2="24" gradientUnits="userSpaceOnUse">
<stop stop-color="#FFE000"></stop>
<stop offset="0.41" stop-color="#FFBD00"></stop>
<stop offset="0.78" stop-color="#FFA500"></stop>
<stop offset="1" stop-color="#FF9C00"></stop>
</linearGradient>
<linearGradient id="paint2_linear" x1="30.4627" y1="26.76" x2="3.1507" y2="54.06" gradientUnits="userSpaceOnUse">
<stop stop-color="#FF3A44"></stop>
<stop offset="1" stop-color="#C31162"></stop>
</linearGradient>
<linearGradient id="paint3_linear" x1="9.4267" y1="0.216001" x2="21.6187" y2="12.408" gradientUnits="userSpaceOnUse">
<stop stop-color="#32A071"></stop>
<stop offset="0.07" stop-color="#2DA771"></stop>
<stop offset="0.48" stop-color="#15CF74"></stop>
<stop offset="0.8" stop-color="#06E775"></stop>
<stop offset="1" stop-color="#00F076"></stop>
</linearGradient>
<clipPath id="clip0">
<rect width="162" height="48" fill="white" transform="translate(0.666687)"></rect>
</clipPath>
</defs>
</svg>